<svg width="152" height="126" viewBox="0 0 152 126" fill="none" xmlns="http://www.w3.org/2000/svg">
<path d="M50.998 0.937012L1.00041 0.93701L1.00041 42.3189L50.998 42.3189L50.998 0.937012ZM6.24135 21.6294C6.24135 12.5942 15.0857 5.28041 26.0028 5.28041C36.9199 5.28041 45.7607 12.5942 45.7642 21.6294C45.7642 30.6617 36.9057 37.9814 26.0028 37.9814C15.0999 37.9814 6.24135 30.6617 6.24135 21.6294V21.6294Z" stroke="#66948F"/>
<path d="M45.7607 21.6294C45.7607 12.5942 36.9022 5.2804 25.9957 5.28039C15.0893 5.28039 6.23785 12.5942 6.23428 21.6294C6.23428 30.6647 15.0786 37.9844 25.9957 37.9844C36.9129 37.9844 45.7607 30.6617 45.7607 21.6294Z" stroke="#66948F"/>
<path d="M11.0652 21.6291C11.0759 14.8084 17.7475 9.28388 25.9924 9.27502C34.2445 9.28388 40.9089 14.8084 40.9268 21.6291C40.9089 28.4616 34.2445 33.9743 25.9924 33.989C17.7475 33.9743 11.0759 28.4616 11.0652 21.6291Z" stroke="#66948F"/>
<path d="M40.9268 21.6291C40.9089 14.8084 34.2445 9.28388 25.9924 9.27502C17.7475 9.28388 11.0759 14.8084 11.0652 21.6291C11.0759 28.4616 17.7475 33.9743 25.9924 33.989C34.2445 33.9743 40.9089 28.4616 40.9268 21.6291V21.6291Z" stroke="#66948F"/>
<path d="M100.999 42.3188L51.0014 42.3188L51.0014 83.7008L100.999 83.7008L100.999 42.3188ZM56.2423 63.0113C56.2423 53.9761 65.0866 46.6623 76.0038 46.6623C86.9209 46.6623 95.7617 53.9761 95.7652 63.0113C95.7652 72.0436 86.9066 79.3633 76.0038 79.3633C65.1009 79.3633 56.2423 72.0436 56.2423 63.0113V63.0113Z" stroke="#66948F"/>
<path d="M95.7617 63.0113C95.7617 53.976 86.9031 46.6622 75.9967 46.6622C65.0903 46.6622 56.2388 53.976 56.2353 63.0113C56.2353 72.0465 65.0796 79.3662 75.9967 79.3662C86.9138 79.3662 95.7617 72.0435 95.7617 63.0113Z" stroke="#66948F"/>
<path d="M61.0662 63.0109C61.0769 56.1902 67.7484 50.6657 75.9934 50.6569C84.2455 50.6657 90.9099 56.1902 90.9277 63.0109C90.9099 69.8434 84.2454 75.3561 75.9934 75.3709C67.7484 75.3561 61.0769 69.8434 61.0662 63.0109Z" stroke="#66948F"/>
<path d="M90.9277 63.0109C90.9099 56.1902 84.2455 50.6657 75.9934 50.6569C67.7484 50.6657 61.0769 56.1902 61.0662 63.0109C61.0769 69.8434 67.7484 75.3561 75.9934 75.3709C84.2454 75.3561 90.9099 69.8434 90.9277 63.0109V63.0109Z" stroke="#66948F"/>
<path d="M50.998 42.3188L1.00041 42.3188L1.00041 83.7008L50.998 83.7008L50.998 42.3188ZM6.24135 63.0113C6.24135 53.9761 15.0857 46.6623 26.0028 46.6623C36.9199 46.6623 45.7607 53.9761 45.7642 63.0113C45.7642 72.0436 36.9057 79.3633 26.0028 79.3633C15.0999 79.3633 6.24135 72.0436 6.24135 63.0113V63.0113Z" stroke="#66948F"/>
<path d="M45.7607 63.0113C45.7607 53.976 36.9022 46.6622 25.9957 46.6622C15.0893 46.6622 6.23785 53.976 6.23428 63.0113C6.23428 72.0465 15.0786 79.3662 25.9957 79.3662C36.9129 79.3662 45.7607 72.0435 45.7607 63.0113Z" stroke="#66948F"/>
<path d="M11.0652 63.0109C11.0759 56.1902 17.7475 50.6657 25.9924 50.6569C34.2445 50.6657 40.9089 56.1902 40.9268 63.0109C40.9089 69.8434 34.2445 75.3561 25.9924 75.3709C17.7475 75.3561 11.0759 69.8434 11.0652 63.0109Z" stroke="#66948F"/>
<path d="M40.9268 63.0109C40.9089 56.1902 34.2445 50.6657 25.9924 50.6569C17.7475 50.6657 11.0759 56.1902 11.0652 63.0109C11.0759 69.8434 17.7475 75.3561 25.9924 75.3709C34.2445 75.3561 40.9089 69.8434 40.9268 63.0109V63.0109Z" stroke="#66948F"/>
<path d="M151 83.7008L101.002 83.7008L101.002 125.083L151 125.083L151 83.7008ZM106.243 104.393C106.243 95.358 115.088 88.0442 126.005 88.0442C136.922 88.0442 145.763 95.358 145.766 104.393C145.766 113.426 136.908 120.745 126.005 120.745C115.102 120.745 106.243 113.426 106.243 104.393V104.393Z" stroke="#66948F"/>
<path d="M145.763 104.393C145.763 95.358 136.904 88.0442 125.998 88.0442C115.091 88.0442 106.24 95.358 106.236 104.393C106.236 113.428 115.081 120.748 125.998 120.748C136.915 120.748 145.763 113.425 145.763 104.393Z" stroke="#66948F"/>
<path d="M111.067 104.393C111.078 97.5722 117.749 92.0477 125.994 92.0388C134.246 92.0477 140.911 97.5722 140.929 104.393C140.911 111.225 134.246 116.738 125.994 116.753C117.749 116.738 111.078 111.225 111.067 104.393Z" stroke="#66948F"/>
<path d="M140.929 104.393C140.911 97.5722 134.246 92.0477 125.994 92.0388C117.749 92.0477 111.078 97.5722 111.067 104.393C111.078 111.225 117.749 116.738 125.994 116.753C134.246 116.738 140.911 111.225 140.929 104.393V104.393Z" stroke="#66948F"/>
<path d="M50.998 83.7008L1.00041 83.7008L1.00041 125.083L50.998 125.083L50.998 83.7008ZM6.24135 104.393C6.24135 95.358 15.0857 88.0442 26.0028 88.0442C36.9199 88.0442 45.7607 95.358 45.7642 104.393C45.7642 113.426 36.9057 120.745 26.0028 120.745C15.0999 120.745 6.24135 113.426 6.24135 104.393V104.393Z" stroke="#66948F"/>
<path d="M45.7607 104.393C45.7607 95.358 36.9022 88.0442 25.9957 88.0442C15.0893 88.0442 6.23785 95.358 6.23428 104.393C6.23428 113.428 15.0786 120.748 25.9957 120.748C36.9129 120.748 45.7607 113.425 45.7607 104.393Z" stroke="#66948F"/>
<path d="M11.0652 104.393C11.0759 97.5722 17.7475 92.0477 25.9924 92.0388C34.2445 92.0477 40.9089 97.5722 40.9268 104.393C40.9089 111.225 34.2445 116.738 25.9924 116.753C17.7475 116.738 11.0759 111.225 11.0652 104.393Z" stroke="#66948F"/>
<path d="M40.9268 104.393C40.9089 97.5722 34.2445 92.0477 25.9924 92.0388C17.7475 92.0477 11.0759 97.5722 11.0652 104.393C11.0759 111.225 17.7475 116.738 25.9924 116.753C34.2445 116.738 40.9089 111.225 40.9268 104.393V104.393Z" stroke="#66948F"/>
<path d="M100.999 83.7008L51.0014 83.7008L51.0014 125.083L100.999 125.083L100.999 83.7008ZM56.2423 104.393C56.2423 95.358 65.0866 88.0442 76.0038 88.0442C86.9209 88.0442 95.7617 95.358 95.7652 104.393C95.7652 113.426 86.9066 120.745 76.0038 120.745C65.1009 120.745 56.2423 113.426 56.2423 104.393V104.393Z" stroke="#66948F"/>
<path d="M95.7617 104.393C95.7617 95.358 86.9031 88.0442 75.9967 88.0442C65.0903 88.0442 56.2388 95.358 56.2353 104.393C56.2353 113.428 65.0796 120.748 75.9967 120.748C86.9138 120.748 95.7617 113.425 95.7617 104.393Z" stroke="#66948F"/>
<path d="M61.0662 104.393C61.0769 97.5722 67.7484 92.0477 75.9934 92.0388C84.2455 92.0477 90.9099 97.5722 90.9277 104.393C90.9099 111.225 84.2454 116.738 75.9934 116.753C67.7484 116.738 61.0769 111.225 61.0662 104.393Z" stroke="#66948F"/>
<path d="M90.9277 104.393C90.9099 97.5722 84.2455 92.0477 75.9934 92.0388C67.7484 92.0477 61.0769 97.5722 61.0662 104.393C61.0769 111.225 67.7484 116.738 75.9934 116.753C84.2454 116.738 90.9099 111.225 90.9277 104.393V104.393Z" stroke="#66948F"/>
</svg>
