<?xml version="1.0" encoding="utf-8"?>
<!-- Generator: Adobe Illustrator 23.0.3, SVG Export Plug-In . SVG Version: 6.00 Build 0)  -->
<svg version="1.1" id="Layer_1" xmlns="http://www.w3.org/2000/svg" xmlns:xlink="http://www.w3.org/1999/xlink" x="0px" y="0px"
	 viewBox="0 0 125.7 125.1" style="enable-background:new 0 0 125.7 125.1;" xml:space="preserve">
<style type="text/css">
	.st0{fill:none;stroke:#66948F;}
</style>
<g>
	<path class="st0" d="M42.1,0.5l-41.6,0v41.4h41.6V0.5z M4.9,21.2c0-9,7.4-16.3,16.4-16.3s16.4,7.3,16.4,16.3
		c0,9-7.4,16.4-16.4,16.4S4.9,30.2,4.9,21.2L4.9,21.2z"/>
	<path class="st0" d="M37.7,21.2c0-9-7.4-16.3-16.4-16.3c-9.1,0-16.4,7.3-16.4,16.3c0,9,7.4,16.4,16.4,16.4
		C30.4,37.5,37.7,30.2,37.7,21.2z"/>
	<path class="st0" d="M8.9,21.2c0-6.8,5.6-12.3,12.4-12.4c6.9,0,12.4,5.5,12.4,12.4c0,6.8-5.6,12.3-12.4,12.4
		C14.4,33.5,8.9,28,8.9,21.2z"/>
	<path class="st0" d="M33.7,21.2c0-6.8-5.6-12.3-12.4-12.4c-6.9,0-12.4,5.5-12.4,12.4c0,6.8,5.6,12.3,12.4,12.4
		C28.1,33.5,33.7,28,33.7,21.2L33.7,21.2z"/>
	<path class="st0" d="M83.7,41.9H42.1v41.4h41.6V41.9z M46.4,62.6c0-9,7.4-16.3,16.4-16.3c9.1,0,16.4,7.3,16.4,16.3
		c0,9-7.4,16.4-16.4,16.4C53.8,78.9,46.4,71.6,46.4,62.6L46.4,62.6z"/>
	<path class="st0" d="M79.3,62.6c0-9-7.4-16.3-16.4-16.3s-16.4,7.3-16.4,16.3c0,9,7.4,16.4,16.4,16.4S79.3,71.6,79.3,62.6z"/>
	<path class="st0" d="M50.4,62.6c0-6.8,5.6-12.3,12.4-12.4c6.9,0,12.4,5.5,12.4,12.4c0,6.8-5.6,12.3-12.4,12.4
		C56,74.9,50.5,69.4,50.4,62.6z"/>
	<path class="st0" d="M75.3,62.6c0-6.8-5.6-12.3-12.4-12.4c-6.9,0-12.4,5.5-12.4,12.4c0,6.8,5.6,12.3,12.4,12.4
		C69.7,74.9,75.3,69.4,75.3,62.6L75.3,62.6z"/>
	<path class="st0" d="M42.1,41.9H0.5v41.4h41.6V41.9z M4.9,62.6c0-9,7.4-16.3,16.4-16.3s16.4,7.3,16.4,16.3c0,9-7.4,16.4-16.4,16.4
		S4.9,71.6,4.9,62.6L4.9,62.6z"/>
	<path class="st0" d="M37.7,62.6c0-9-7.4-16.3-16.4-16.3c-9.1,0-16.4,7.3-16.4,16.3c0,9,7.4,16.4,16.4,16.4
		C30.4,78.9,37.7,71.6,37.7,62.6z"/>
	<path class="st0" d="M8.9,62.6c0-6.8,5.6-12.3,12.4-12.4c6.9,0,12.4,5.5,12.4,12.4c0,6.8-5.6,12.3-12.4,12.4
		C14.4,74.9,8.9,69.4,8.9,62.6z"/>
	<path class="st0" d="M33.7,62.6c0-6.8-5.6-12.3-12.4-12.4c-6.9,0-12.4,5.5-12.4,12.4c0,6.8,5.6,12.3,12.4,12.4
		C28.1,74.9,33.7,69.4,33.7,62.6L33.7,62.6z"/>
	<path class="st0" d="M125.2,83.3H83.7v41.4h41.6V83.3z M88,104c0-9,7.4-16.3,16.4-16.3s16.4,7.3,16.4,16.3c0,9-7.4,16.4-16.4,16.4
		S88,113,88,104L88,104z"/>
	<path class="st0" d="M120.9,104c0-9-7.4-16.3-16.4-16.3C95.4,87.6,88,94.9,88,104c0,9,7.4,16.4,16.4,16.4S120.9,113,120.9,104z"/>
	<path class="st0" d="M92,104c0-6.8,5.6-12.3,12.4-12.4c6.9,0,12.4,5.5,12.4,12.4c0,6.8-5.6,12.3-12.4,12.4
		C97.6,116.3,92,110.8,92,104z"/>
	<path class="st0" d="M116.9,104c0-6.8-5.6-12.3-12.4-12.4C97.6,91.6,92,97.1,92,104c0,6.8,5.6,12.3,12.4,12.4
		C111.3,116.3,116.8,110.8,116.9,104L116.9,104z"/>
	<path class="st0" d="M42.1,83.3H0.5v41.4h41.6V83.3z M4.9,104c0-9,7.4-16.3,16.4-16.3s16.4,7.3,16.4,16.3c0,9-7.4,16.4-16.4,16.4
		S4.9,113,4.9,104L4.9,104z"/>
	<path class="st0" d="M37.7,104c0-9-7.4-16.3-16.4-16.3c-9.1,0-16.4,7.3-16.4,16.3c0,9,7.4,16.4,16.4,16.4
		C30.4,120.3,37.7,113,37.7,104z"/>
	<path class="st0" d="M8.9,104c0-6.8,5.6-12.3,12.4-12.4c6.9,0,12.4,5.5,12.4,12.4c0,6.8-5.6,12.3-12.4,12.4
		C14.4,116.3,8.9,110.8,8.9,104z"/>
	<path class="st0" d="M33.7,104c0-6.8-5.6-12.3-12.4-12.4c-6.9,0-12.4,5.5-12.4,12.4c0,6.8,5.6,12.3,12.4,12.4
		C28.1,116.3,33.7,110.8,33.7,104L33.7,104z"/>
	<path class="st0" d="M83.7,83.3H42.1v41.4h41.6V83.3z M46.4,104c0-9,7.4-16.3,16.4-16.3c9.1,0,16.4,7.3,16.4,16.3
		c0,9-7.4,16.4-16.4,16.4C53.8,120.3,46.4,113,46.4,104L46.4,104z"/>
	<path class="st0" d="M79.3,104c0-9-7.4-16.3-16.4-16.3S46.4,94.9,46.4,104c0,9,7.4,16.4,16.4,16.4S79.3,113,79.3,104z"/>
	<path class="st0" d="M50.4,104c0-6.8,5.6-12.3,12.4-12.4c6.9,0,12.4,5.5,12.4,12.4c0,6.8-5.6,12.3-12.4,12.4
		C56,116.3,50.5,110.8,50.4,104z"/>
	<path class="st0" d="M75.3,104c0-6.8-5.6-12.3-12.4-12.4c-6.9,0-12.4,5.5-12.4,12.4c0,6.8,5.6,12.3,12.4,12.4
		C69.7,116.3,75.3,110.8,75.3,104L75.3,104z"/>
</g>
</svg>
