<svg width="106" height="32" viewBox="0 0 106 32" fill="none" xmlns="http://www.w3.org/2000/svg">
<g clip-path="url(#clip0_457_7419)">
<path d="M42.6182 22.6859C44.7029 22.6859 45.9542 22.2566 47.1553 21.1446C48.4889 19.9184 49.231 18.1259 49.231 15.9909C49.231 11.8259 46.7489 9.26159 42.7072 9.26159H40.111V22.6882H42.6182V22.6859ZM36.4072 25.1109V6.83431C36.4072 6.63793 36.5762 6.46667 36.7771 6.46667H43.5909C46.8653 6.46667 48.6578 7.11974 50.4047 8.88711C52.051 10.6294 52.8502 12.8237 52.8502 15.6712C52.8502 18.8109 51.9209 21.2861 50.0051 23.1083C48.2354 24.7958 46.2648 25.4831 43.2507 25.4831H36.7817C36.5785 25.4831 36.4118 25.3073 36.4118 25.1109" fill="#004C45"/>
<path d="M61.2301 14.0225H67.1305C67.3291 14.0225 67.505 14.1915 67.505 14.3947V16.5001C67.505 16.6942 67.3291 16.8677 67.1305 16.8677H61.2301V25.1063C61.2301 25.3095 61.0543 25.4808 60.8556 25.4808H57.8986C57.6931 25.4808 57.5264 25.3095 57.5264 25.1063V6.83431C57.5264 6.63793 57.6931 6.46667 57.8986 6.46667H68.5508C68.754 6.46667 68.923 6.63793 68.923 6.83431V8.89168C68.923 9.08577 68.754 9.25931 68.5508 9.25931H61.2301V14.0225Z" fill="#004C45"/>
<path d="M79.7012 22.6859C81.7837 22.6859 83.035 22.2566 84.2338 21.1446C85.5696 19.9184 86.3117 18.1259 86.3117 15.9909C86.3117 11.8259 83.8342 9.26159 79.7879 9.26159H77.194V22.6882H79.7034L79.7012 22.6859ZM73.4902 25.1109V6.83431C73.4902 6.63793 73.6592 6.46667 73.8579 6.46667H80.6739C83.9506 6.46667 85.7477 7.11974 87.4854 8.88711C89.1363 10.6294 89.9309 12.8237 89.9309 15.6712C89.9309 18.8109 88.9947 21.2861 87.0858 23.1083C85.3161 24.7958 83.3501 25.4831 80.3245 25.4831H73.8579C73.6592 25.4831 73.4902 25.3073 73.4902 25.1109Z" fill="#004C45"/>
<path d="M105.353 22.6311C105.554 22.6311 105.725 22.8023 105.725 23.001V25.1132C105.725 25.3095 105.554 25.4854 105.353 25.4854H95.2648C95.0661 25.4854 94.8926 25.3095 94.8926 25.1132V6.83431C94.8926 6.63793 95.0661 6.46667 95.2648 6.46667H98.2332C98.4319 6.46667 98.5963 6.63793 98.5963 6.83431V22.6311H105.355H105.353Z" fill="#004C45"/>
<path d="M0 0V32H32.0023V0H0ZM16.0023 28.6456C9.01499 28.6456 3.35893 22.985 3.35893 15.9977C3.35893 9.01042 9.01499 3.35208 16.0023 3.34979C22.9873 3.34979 28.6479 9.01955 28.6479 15.9977C28.6479 22.9759 22.9873 28.6456 16.0023 28.6456V28.6456Z" fill="#004C45"/>
<path d="M16.0031 6.44604C10.7284 6.45746 6.45607 10.7229 6.44922 16.0045C6.45607 21.2815 10.7284 25.5515 16.0031 25.5584C21.287 25.5515 25.5501 21.2815 25.5615 16.0045C25.5501 10.7229 21.287 6.45746 16.0031 6.44604V6.44604Z" fill="#004C45"/>
</g>
<defs>
<clipPath id="clip0_457_7419">
<rect width="105.723" height="32" fill="white"/>
</clipPath>
</defs>
</svg>
