<?xml version="1.0" encoding="utf-8"?>
<!-- Generator: Adobe Illustrator 23.0.3, SVG Export Plug-In . SVG Version: 6.00 Build 0)  -->
<svg version="1.1" id="Layer_1" xmlns="http://www.w3.org/2000/svg" xmlns:xlink="http://www.w3.org/1999/xlink" x="0px" y="0px"
	 viewBox="0 0 42 30" style="enable-background:new 0 0 42 30;" xml:space="preserve">
<style type="text/css">
	.st0{fill:#D02F44;}
	.st1{fill:#46467F;}
	.st2{fill:url(#SVGID_1_);}
	.st3{fill:url(#SVGID_2_);}
	.st4{fill:url(#SVGID_3_);}
	.st5{fill:url(#SVGID_4_);}
	.st6{fill:url(#SVGID_5_);}
	.st7{fill:url(#SVGID_6_);}
	.st8{fill:url(#SVGID_7_);}
	.st9{fill:url(#SVGID_8_);}
	.st10{fill:url(#SVGID_9_);}
	.st11{fill:url(#SVGID_10_);}
	.st12{fill:url(#SVGID_11_);}
	.st13{fill:url(#SVGID_12_);}
	.st14{fill:url(#SVGID_13_);}
	.st15{fill:url(#SVGID_14_);}
	.st16{fill:url(#SVGID_15_);}
	.st17{fill:url(#SVGID_16_);}
	.st18{fill:url(#SVGID_17_);}
	.st19{fill:url(#SVGID_18_);}
	.st20{fill:url(#SVGID_19_);}
	.st21{fill:url(#SVGID_20_);}
	.st22{fill:url(#SVGID_21_);}
	.st23{fill:url(#SVGID_22_);}
	.st24{fill:url(#SVGID_23_);}
	.st25{fill:url(#SVGID_24_);}
	.st26{fill:url(#SVGID_25_);}
	.st27{fill:url(#SVGID_26_);}
	.st28{fill:url(#SVGID_27_);}
	.st29{fill:url(#SVGID_28_);}
</style>
<path class="st0" d="M2.8,30h36.3c1.3,0,2.4-0.8,2.8-2H0C0.4,29.2,1.5,30,2.8,30z"/>
<path class="st0" d="M39.2,0h-22v2H42C41.6,0.8,40.5,0,39.2,0z"/>
<rect x="18" y="4" class="st0" width="24" height="2"/>
<rect x="18" y="8" class="st0" width="24" height="2"/>
<rect y="16" class="st0" width="42" height="2"/>
<rect y="20" class="st0" width="42" height="2"/>
<polygon class="st0" points="0,14 0,14 42,14 42,12 18,12 18,14 "/>
<rect y="24" class="st0" width="42" height="2"/>
<path class="st1" d="M8,7c0,0.6-0.4,1-1,1h4c-0.6,0-1-0.4-1-1c0-0.6,0.4-1,1-1H7C7.6,6,8,6.4,8,7z"/>
<path class="st1" d="M2,7c0-0.6,0.4-1,1-1H0v2h3C2.4,8,2,7.6,2,7z"/>
<path class="st1" d="M4,7c0,0.6-0.4,1-1,1h4C6.4,8,6,7.6,6,7c0-0.6,0.4-1,1-1H3C3.6,6,4,6.4,4,7z"/>
<path class="st1" d="M12,7c0,0.6-0.4,1-1,1h4c-0.6,0-1-0.4-1-1c0-0.6,0.4-1,1-1h-4C11.6,6,12,6.4,12,7z"/>
<path class="st1" d="M15,2c0.6,0,1,0.4,1,1c0,0.6-0.4,1-1,1s-1-0.4-1-1C14,2.4,14.4,2,15,2h-4c0.6,0,1,0.4,1,1c0,0.6-0.4,1-1,1
	c-0.6,0-1-0.4-1-1c0-0.6,0.4-1,1-1H7c0.6,0,1,0.4,1,1c0,0.6-0.4,1-1,1S6,3.6,6,3c0-0.6,0.4-1,1-1H3c0.6,0,1,0.4,1,1c0,0.6-0.4,1-1,1
	S2,3.6,2,3c0-0.6,0.4-1,1-1H0.2H0v2h5c0,0,0,0,0,0s0,0,0,0h4c0,0,0,0,0,0s0,0,0,0h4c0,0,0,0,0,0s0,0,0,0h5V2H15z"/>
<path class="st1" d="M16,11c0,0.6-0.4,1-1,1s-1-0.4-1-1c0-0.6,0.4-1,1-1h-2c0,0,0,0,0,0s0,0,0,0h-2c0.6,0,1,0.4,1,1c0,0.6-0.4,1-1,1
	c-0.6,0-1-0.4-1-1c0-0.6,0.4-1,1-1H9c0,0,0,0,0,0s0,0,0,0H7c0.6,0,1,0.4,1,1c0,0.6-0.4,1-1,1s-1-0.4-1-1c0-0.6,0.4-1,1-1H5
	c0,0,0,0,0,0s0,0,0,0H3c0.6,0,1,0.4,1,1c0,0.6-0.4,1-1,1s-1-0.4-1-1c0-0.6,0.4-1,1-1H0v2h18v-2h-3C15.6,10,16,10.4,16,11z"/>
<path class="st1" d="M16,7c0,0.6-0.4,1-1,1h3V6h-3C15.6,6,16,6.4,16,7z"/>
<path class="st1" d="M0,2h3h4h4h4h3V0H0l3,0C1.7,0,0.4,0.8,0,2z"/>
<rect y="12" class="st1" width="18" height="2"/>
<path class="st1" d="M15,8C15,8,15,8,15,8l-4,0c0,0,0,0,0,0s0,0,0,0H7c0,0,0,0,0,0s0,0,0,0H3c0,0,0,0,0,0s0,0,0,0H0v2h3h2
	c-0.6,0-1-0.4-1-1c0-0.6,0.4-1,1-1c0.6,0,1,0.4,1,1c0,0.6-0.4,1-1,1h2h2c-0.6,0-1-0.4-1-1c0-0.6,0.4-1,1-1s1,0.4,1,1
	c0,0.6-0.4,1-1,1h2h2c-0.6,0-1-0.4-1-1c0-0.6,0.4-1,1-1s1,0.4,1,1c0,0.6-0.4,1-1,1h2h3V8L15,8C15,8,15,8,15,8z"/>
<path class="st1" d="M14,5c0,0.6-0.4,1-1,1s-1-0.4-1-1c0-0.6,0.4-1,1-1H9c0.6,0,1,0.4,1,1c0,0.6-0.4,1-1,1S8,5.6,8,5
	c0-0.6,0.4-1,1-1H5c0.6,0,1,0.4,1,1c0,0.6-0.4,1-1,1C4.4,6,4,5.6,4,5c0-0.6,0.4-1,1-1H0v2h3h4h4h4h3V4h-5C13.6,4,14,4.4,14,5z"/>
<polygon class="st1" points="9,4 9,4 9,4 "/>
<linearGradient id="SVGID_1_" gradientUnits="userSpaceOnUse" x1="8.999" y1="11.9996" x2="8.999" y2="5.1636">
	<stop  offset="0" style="stop-color:#FFFFFF"/>
	<stop  offset="1" style="stop-color:#F0F0F0"/>
</linearGradient>
<polygon class="st2" points="9,4 9,4 9,4 "/>
<circle class="st1" cx="11" cy="3" r="1"/>
<linearGradient id="SVGID_2_" gradientUnits="userSpaceOnUse" x1="10.9985" y1="12.0001" x2="10.9985" y2="2.0001">
	<stop  offset="0" style="stop-color:#FFFFFF"/>
	<stop  offset="1" style="stop-color:#F0F0F0"/>
</linearGradient>
<circle class="st3" cx="11" cy="3" r="1"/>
<polygon class="st1" points="13,4 13,4 13,4 "/>
<linearGradient id="SVGID_3_" gradientUnits="userSpaceOnUse" x1="12.9995" y1="11.9996" x2="12.9995" y2="5.1636">
	<stop  offset="0" style="stop-color:#FFFFFF"/>
	<stop  offset="1" style="stop-color:#F0F0F0"/>
</linearGradient>
<polygon class="st4" points="13,4 13,4 13,4 "/>
<circle class="st1" cx="3" cy="3" r="1"/>
<linearGradient id="SVGID_4_" gradientUnits="userSpaceOnUse" x1="2.999" y1="12.0001" x2="2.999" y2="2.0001">
	<stop  offset="0" style="stop-color:#FFFFFF"/>
	<stop  offset="1" style="stop-color:#F0F0F0"/>
</linearGradient>
<circle class="st5" cx="3" cy="3" r="1"/>
<circle class="st1" cx="7" cy="3" r="1"/>
<linearGradient id="SVGID_5_" gradientUnits="userSpaceOnUse" x1="6.9995" y1="12.0001" x2="6.9995" y2="2.0001">
	<stop  offset="0" style="stop-color:#FFFFFF"/>
	<stop  offset="1" style="stop-color:#F0F0F0"/>
</linearGradient>
<circle class="st6" cx="7" cy="3" r="1"/>
<circle class="st1" cx="15" cy="3" r="1"/>
<linearGradient id="SVGID_6_" gradientUnits="userSpaceOnUse" x1="14.999" y1="12.0001" x2="14.999" y2="2.0001">
	<stop  offset="0" style="stop-color:#FFFFFF"/>
	<stop  offset="1" style="stop-color:#F0F0F0"/>
</linearGradient>
<circle class="st7" cx="15" cy="3" r="1"/>
<polygon class="st1" points="5,4 5,4 5,4 "/>
<linearGradient id="SVGID_7_" gradientUnits="userSpaceOnUse" x1="4.9985" y1="11.9996" x2="4.9985" y2="5.1636">
	<stop  offset="0" style="stop-color:#FFFFFF"/>
	<stop  offset="1" style="stop-color:#F0F0F0"/>
</linearGradient>
<polygon class="st8" points="5,4 5,4 5,4 "/>
<path class="st1" d="M10,7c0,0.6,0.4,1,1,1h0c0.6,0,1-0.4,1-1c0-0.6-0.4-1-1-1C10.4,6,10,6.4,10,7z"/>
<linearGradient id="SVGID_8_" gradientUnits="userSpaceOnUse" x1="10.9985" y1="11.9979" x2="10.9985" y2="1.9983">
	<stop  offset="0" style="stop-color:#FFFFFF"/>
	<stop  offset="1" style="stop-color:#F0F0F0"/>
</linearGradient>
<path class="st9" d="M10,7c0,0.6,0.4,1,1,1h0c0.6,0,1-0.4,1-1c0-0.6-0.4-1-1-1C10.4,6,10,6.4,10,7z"/>
<circle class="st1" cx="15" cy="11" r="1"/>
<linearGradient id="SVGID_9_" gradientUnits="userSpaceOnUse" x1="14.999" y1="11.9996" x2="14.999" y2="1.9996">
	<stop  offset="0" style="stop-color:#FFFFFF"/>
	<stop  offset="1" style="stop-color:#F0F0F0"/>
</linearGradient>
<circle class="st10" cx="15" cy="11" r="1"/>
<path class="st1" d="M14,7c0,0.6,0.4,1,1,1h0c0.6,0,1-0.4,1-1c0-0.6-0.4-1-1-1S14,6.4,14,7z"/>
<linearGradient id="SVGID_10_" gradientUnits="userSpaceOnUse" x1="14.999" y1="11.9979" x2="14.999" y2="1.9983">
	<stop  offset="0" style="stop-color:#FFFFFF"/>
	<stop  offset="1" style="stop-color:#F0F0F0"/>
</linearGradient>
<path class="st11" d="M14,7c0,0.6,0.4,1,1,1h0c0.6,0,1-0.4,1-1c0-0.6-0.4-1-1-1S14,6.4,14,7z"/>
<path class="st1" d="M2,7c0,0.6,0.4,1,1,1h0c0.6,0,1-0.4,1-1c0-0.6-0.4-1-1-1S2,6.4,2,7z"/>
<linearGradient id="SVGID_11_" gradientUnits="userSpaceOnUse" x1="2.999" y1="11.9979" x2="2.999" y2="1.9983">
	<stop  offset="0" style="stop-color:#FFFFFF"/>
	<stop  offset="1" style="stop-color:#F0F0F0"/>
</linearGradient>
<path class="st12" d="M2,7c0,0.6,0.4,1,1,1h0c0.6,0,1-0.4,1-1c0-0.6-0.4-1-1-1S2,6.4,2,7z"/>
<path class="st1" d="M6,7c0,0.6,0.4,1,1,1h0c0.6,0,1-0.4,1-1c0-0.6-0.4-1-1-1S6,6.4,6,7z"/>
<linearGradient id="SVGID_12_" gradientUnits="userSpaceOnUse" x1="6.9995" y1="11.9979" x2="6.9995" y2="1.9983">
	<stop  offset="0" style="stop-color:#FFFFFF"/>
	<stop  offset="1" style="stop-color:#F0F0F0"/>
</linearGradient>
<path class="st13" d="M6,7c0,0.6,0.4,1,1,1h0c0.6,0,1-0.4,1-1c0-0.6-0.4-1-1-1S6,6.4,6,7z"/>
<polygon class="st1" points="13,10 13,10 13,10 "/>
<linearGradient id="SVGID_13_" gradientUnits="userSpaceOnUse" x1="12.9995" y1="11.9996" x2="12.9995" y2="8.0933">
	<stop  offset="0" style="stop-color:#FFFFFF"/>
	<stop  offset="1" style="stop-color:#F0F0F0"/>
</linearGradient>
<polygon class="st14" points="13,10 13,10 13,10 "/>
<circle class="st1" cx="7" cy="11" r="1"/>
<linearGradient id="SVGID_14_" gradientUnits="userSpaceOnUse" x1="6.9995" y1="11.9996" x2="6.9995" y2="1.9996">
	<stop  offset="0" style="stop-color:#FFFFFF"/>
	<stop  offset="1" style="stop-color:#F0F0F0"/>
</linearGradient>
<circle class="st15" cx="7" cy="11" r="1"/>
<circle class="st1" cx="3" cy="11" r="1"/>
<linearGradient id="SVGID_15_" gradientUnits="userSpaceOnUse" x1="2.999" y1="11.9996" x2="2.999" y2="1.9996">
	<stop  offset="0" style="stop-color:#FFFFFF"/>
	<stop  offset="1" style="stop-color:#F0F0F0"/>
</linearGradient>
<circle class="st16" cx="3" cy="11" r="1"/>
<polygon class="st1" points="5,10 5,10 5,10 "/>
<linearGradient id="SVGID_16_" gradientUnits="userSpaceOnUse" x1="4.9985" y1="11.9996" x2="4.9985" y2="8.0933">
	<stop  offset="0" style="stop-color:#FFFFFF"/>
	<stop  offset="1" style="stop-color:#F0F0F0"/>
</linearGradient>
<polygon class="st17" points="5,10 5,10 5,10 "/>
<polygon class="st1" points="9,10 9,10 9,10 "/>
<linearGradient id="SVGID_17_" gradientUnits="userSpaceOnUse" x1="8.999" y1="11.9996" x2="8.999" y2="8.0933">
	<stop  offset="0" style="stop-color:#FFFFFF"/>
	<stop  offset="1" style="stop-color:#F0F0F0"/>
</linearGradient>
<polygon class="st18" points="9,10 9,10 9,10 "/>
<circle class="st1" cx="11" cy="11" r="1"/>
<linearGradient id="SVGID_18_" gradientUnits="userSpaceOnUse" x1="10.9985" y1="11.9996" x2="10.9985" y2="1.9996">
	<stop  offset="0" style="stop-color:#FFFFFF"/>
	<stop  offset="1" style="stop-color:#F0F0F0"/>
</linearGradient>
<circle class="st19" cx="11" cy="11" r="1"/>
<polygon class="st1" points="15,8 15,8 15,8 "/>
<linearGradient id="SVGID_19_" gradientUnits="userSpaceOnUse" x1="14.999" y1="11.9996" x2="14.999" y2="5.1636">
	<stop  offset="0" style="stop-color:#FFFFFF"/>
	<stop  offset="1" style="stop-color:#F0F0F0"/>
</linearGradient>
<polygon class="st20" points="15,8 15,8 15,8 "/>
<path class="st1" d="M14,9c0-0.6-0.4-1-1-1s-1,0.4-1,1c0,0.6,0.4,1,1,1h0C13.6,10,14,9.6,14,9z"/>
<linearGradient id="SVGID_20_" gradientUnits="userSpaceOnUse" x1="12.9995" y1="11.9991" x2="12.9995" y2="2.0015">
	<stop  offset="0" style="stop-color:#FFFFFF"/>
	<stop  offset="1" style="stop-color:#F0F0F0"/>
</linearGradient>
<path class="st21" d="M14,9c0-0.6-0.4-1-1-1s-1,0.4-1,1c0,0.6,0.4,1,1,1h0C13.6,10,14,9.6,14,9z"/>
<path class="st1" d="M10,9c0-0.6-0.4-1-1-1S8,8.4,8,9c0,0.6,0.4,1,1,1h0C9.6,10,10,9.6,10,9z"/>
<linearGradient id="SVGID_21_" gradientUnits="userSpaceOnUse" x1="8.999" y1="11.9991" x2="8.999" y2="2.0015">
	<stop  offset="0" style="stop-color:#FFFFFF"/>
	<stop  offset="1" style="stop-color:#F0F0F0"/>
</linearGradient>
<path class="st22" d="M10,9c0-0.6-0.4-1-1-1S8,8.4,8,9c0,0.6,0.4,1,1,1h0C9.6,10,10,9.6,10,9z"/>
<path class="st1" d="M6,9c0-0.6-0.4-1-1-1C4.4,8,4,8.4,4,9c0,0.6,0.4,1,1,1h0C5.6,10,6,9.6,6,9z"/>
<linearGradient id="SVGID_22_" gradientUnits="userSpaceOnUse" x1="4.9985" y1="11.9991" x2="4.9985" y2="2.0015">
	<stop  offset="0" style="stop-color:#FFFFFF"/>
	<stop  offset="1" style="stop-color:#F0F0F0"/>
</linearGradient>
<path class="st23" d="M6,9c0-0.6-0.4-1-1-1C4.4,8,4,8.4,4,9c0,0.6,0.4,1,1,1h0C5.6,10,6,9.6,6,9z"/>
<polygon class="st1" points="11,8 11,8 11,8 "/>
<linearGradient id="SVGID_23_" gradientUnits="userSpaceOnUse" x1="10.9985" y1="11.9996" x2="10.9985" y2="5.1636">
	<stop  offset="0" style="stop-color:#FFFFFF"/>
	<stop  offset="1" style="stop-color:#F0F0F0"/>
</linearGradient>
<polygon class="st24" points="11,8 11,8 11,8 "/>
<path class="st1" d="M12,5c0,0.6,0.4,1,1,1s1-0.4,1-1c0-0.6-0.4-1-1-1h0C12.4,4,12,4.4,12,5z"/>
<linearGradient id="SVGID_24_" gradientUnits="userSpaceOnUse" x1="12.9995" y1="11.9996" x2="12.9995" y2="2.0001">
	<stop  offset="0" style="stop-color:#FFFFFF"/>
	<stop  offset="1" style="stop-color:#F0F0F0"/>
</linearGradient>
<path class="st25" d="M12,5c0,0.6,0.4,1,1,1s1-0.4,1-1c0-0.6-0.4-1-1-1h0C12.4,4,12,4.4,12,5z"/>
<path class="st1" d="M4,5c0,0.6,0.4,1,1,1c0.6,0,1-0.4,1-1c0-0.6-0.4-1-1-1h0C4.4,4,4,4.4,4,5z"/>
<linearGradient id="SVGID_25_" gradientUnits="userSpaceOnUse" x1="4.9985" y1="11.9996" x2="4.9985" y2="2.0001">
	<stop  offset="0" style="stop-color:#FFFFFF"/>
	<stop  offset="1" style="stop-color:#F0F0F0"/>
</linearGradient>
<path class="st26" d="M4,5c0,0.6,0.4,1,1,1c0.6,0,1-0.4,1-1c0-0.6-0.4-1-1-1h0C4.4,4,4,4.4,4,5z"/>
<path class="st1" d="M8,5c0,0.6,0.4,1,1,1s1-0.4,1-1c0-0.6-0.4-1-1-1h0C8.4,4,8,4.4,8,5z"/>
<linearGradient id="SVGID_26_" gradientUnits="userSpaceOnUse" x1="8.999" y1="11.9996" x2="8.999" y2="2.0001">
	<stop  offset="0" style="stop-color:#FFFFFF"/>
	<stop  offset="1" style="stop-color:#F0F0F0"/>
</linearGradient>
<path class="st27" d="M8,5c0,0.6,0.4,1,1,1s1-0.4,1-1c0-0.6-0.4-1-1-1h0C8.4,4,8,4.4,8,5z"/>
<polygon class="st1" points="7,8 7,8 7,8 "/>
<linearGradient id="SVGID_27_" gradientUnits="userSpaceOnUse" x1="6.9995" y1="11.9996" x2="6.9995" y2="5.1636">
	<stop  offset="0" style="stop-color:#FFFFFF"/>
	<stop  offset="1" style="stop-color:#F0F0F0"/>
</linearGradient>
<polygon class="st28" points="7,8 7,8 7,8 "/>
<polygon class="st1" points="3,8 3,8 3,8 "/>
<linearGradient id="SVGID_28_" gradientUnits="userSpaceOnUse" x1="2.999" y1="11.9996" x2="2.999" y2="5.1636">
	<stop  offset="0" style="stop-color:#FFFFFF"/>
	<stop  offset="1" style="stop-color:#F0F0F0"/>
</linearGradient>
<polygon class="st29" points="3,8 3,8 3,8 "/>
</svg>
