<svg width="48" height="36" viewBox="0 0 48 36" fill="none" xmlns="http://www.w3.org/2000/svg">
<rect y="1" width="48" height="34.2857" rx="3.42857" fill="white"/>
<mask id="mask0_413_29724" style="mask-type:alpha" maskUnits="userSpaceOnUse" x="0" y="0" width="48" height="36">
<rect y="0.857056" width="48" height="34.2857" rx="3.42857" fill="white"/>
</mask>
<g mask="url(#mask0_413_29724)">
<rect y="0.857056" width="48" height="34.2857" fill="#F1361D"/>
<path fill-rule="evenodd" clip-rule="evenodd" d="M17.2666 6.17292L18.9268 6.45596L20.1719 7.58995L20.455 5.92976L21.589 4.68461L19.9288 4.40157L18.6836 3.26758L18.4006 4.92777L17.2666 6.17292ZM21.7144 11.9796L23.1531 11.1041L24.8368 11.143L23.9612 9.70435L24.0001 8.02065L22.5615 8.89622L20.8778 8.85728L21.7534 10.2959L21.7144 11.9796ZM19.7623 21.3787L18.3551 22.3039L18.3353 20.6199L17.41 19.2127L19.094 19.1928L20.5012 18.2676L20.5211 19.9516L21.4463 21.3588L19.7623 21.3787ZM20.9838 17.0253L22.6577 16.8398L24.1672 17.5866L23.9816 15.9127L24.7285 14.4032L23.0546 14.5888L21.5451 13.8419L21.7307 15.5158L20.9838 17.0253Z" fill="#FFDC42"/>
<path fill-rule="evenodd" clip-rule="evenodd" d="M11.4294 14.96L7.39888 17.8333L8.88601 13.1121L4.90788 10.1668L9.8575 10.1222L11.4294 5.42859L13.0013 10.1222L17.9509 10.1668L13.9728 13.1121L15.4599 17.8333L11.4294 14.96Z" fill="#FFDC42"/>
</g>
</svg>
