<svg width="106" height="32" viewBox="0 0 106 32" fill="none" xmlns="http://www.w3.org/2000/svg">
<g clip-path="url(#clip0_457_3125)">
<path d="M42.6182 22.686C44.7029 22.686 45.9542 22.2567 47.1553 21.1447C48.4889 19.9185 49.231 18.126 49.231 15.991C49.231 11.826 46.7489 9.26172 42.7072 9.26172H40.111V22.6883H42.6182V22.686ZM36.4072 25.111V6.83443C36.4072 6.63805 36.5762 6.4668 36.7771 6.4668H43.5909C46.8653 6.4668 48.6578 7.11986 50.4047 8.88723C52.051 10.6295 52.8502 12.8239 52.8502 15.6713C52.8502 18.811 51.9209 21.2863 50.0051 23.1084C48.2354 24.7959 46.2648 25.4832 43.2507 25.4832H36.7817C36.5785 25.4832 36.4118 25.3074 36.4118 25.111" fill="white"/>
<path d="M61.2301 14.0227H67.1305C67.3291 14.0227 67.505 14.1916 67.505 14.3949V16.5002C67.505 16.6943 67.3291 16.8678 67.1305 16.8678H61.2301V25.1064C61.2301 25.3097 61.0543 25.4809 60.8556 25.4809H57.8986C57.6931 25.4809 57.5264 25.3097 57.5264 25.1064V6.83443C57.5264 6.63805 57.6931 6.4668 57.8986 6.4668H68.5508C68.754 6.4668 68.923 6.63805 68.923 6.83443V8.8918C68.923 9.08589 68.754 9.25943 68.5508 9.25943H61.2301V14.0227Z" fill="white"/>
<path d="M79.7012 22.686C81.7837 22.686 83.035 22.2567 84.2338 21.1447C85.5696 19.9185 86.3117 18.126 86.3117 15.991C86.3117 11.826 83.8342 9.26172 79.7879 9.26172H77.194V22.6883H79.7034L79.7012 22.686ZM73.4902 25.111V6.83443C73.4902 6.63805 73.6592 6.4668 73.8579 6.4668H80.6739C83.9506 6.4668 85.7477 7.11986 87.4854 8.88723C89.1363 10.6295 89.9309 12.8239 89.9309 15.6713C89.9309 18.811 88.9947 21.2863 87.0858 23.1084C85.3161 24.7959 83.3501 25.4832 80.3245 25.4832H73.8579C73.6592 25.4832 73.4902 25.3074 73.4902 25.111Z" fill="white"/>
<path d="M105.353 22.6312C105.554 22.6312 105.725 22.8025 105.725 23.0011V25.1133C105.725 25.3097 105.554 25.4855 105.353 25.4855H95.2648C95.0661 25.4855 94.8926 25.3097 94.8926 25.1133V6.83443C94.8926 6.63805 95.0661 6.4668 95.2648 6.4668H98.2332C98.4319 6.4668 98.5963 6.63805 98.5963 6.83443V22.6312H105.355H105.353Z" fill="white"/>
<path d="M0 0V32H32.0023V0H0ZM16.0023 28.6456C9.01499 28.6456 3.35893 22.985 3.35893 15.9977C3.35893 9.01042 9.01499 3.35208 16.0023 3.34979C22.9873 3.34979 28.6479 9.01955 28.6479 15.9977C28.6479 22.9759 22.9873 28.6456 16.0023 28.6456Z" fill="white"/>
<path d="M16.0031 6.44604C10.7284 6.45746 6.45607 10.7229 6.44922 16.0045C6.45607 21.2815 10.7284 25.5515 16.0031 25.5584C21.287 25.5515 25.5501 21.2815 25.5615 16.0045C25.5501 10.7229 21.287 6.45746 16.0031 6.44604Z" fill="white"/>
</g>
<defs>
<clipPath id="clip0_457_3125">
<rect width="105.723" height="32" fill="white"/>
</clipPath>
</defs>
</svg>
