<?xml version="1.0" encoding="utf-8"?>
<!-- Generator: Adobe Illustrator 23.0.3, SVG Export Plug-In . SVG Version: 6.00 Build 0)  -->
<svg version="1.1" id="Layer_1" xmlns="http://www.w3.org/2000/svg" xmlns:xlink="http://www.w3.org/1999/xlink" x="0px" y="0px"
	 viewBox="0 0 512 512" style="enable-background:new 0 0 512 512;" xml:space="preserve">
<style type="text/css">
	.st0{fill:#004C45;}
</style>
<g>
	<path class="st0" d="M0,0v512h512V0H0z M256,458.3c-111.8,0-202.3-90.6-202.3-202.4c0-111.8,90.5-202.3,202.3-202.4
		c111.8,0,202.3,90.7,202.3,202.4C458.3,367.6,367.8,458.3,256,458.3L256,458.3z"/>
	<path class="st0" d="M256,103.1c-84.4,0.2-152.7,68.4-152.9,152.9c0.1,84.4,68.5,152.7,152.9,152.9
		c84.5-0.1,152.7-68.4,152.9-152.9C408.8,171.6,340.6,103.3,256,103.1L256,103.1z"/>
</g>
</svg>
