<?xml version="1.0" encoding="utf-8"?>
<!-- Generator: Adobe Illustrator 23.0.3, SVG Export Plug-In . SVG Version: 6.00 Build 0)  -->
<svg version="1.1" id="mapsvg" xmlns="http://www.w3.org/2000/svg" xmlns:xlink="http://www.w3.org/1999/xlink" x="0px" y="0px"
	 viewBox="0 0 867 664" style="enable-background:new 0 0 867 664;" xml:space="preserve">
	 <link xmlns="http://www.w3.org/1999/xhtml" rel="stylesheet" href="../../includes/blocks/countries-map/style.css" />
<path id="bangladesh" class="country" d="M75.2,118.6l0.1,0.7v5.8l0.2,2.5l0.5,2l0.1,0.8l-0.5,0.6l-0.5,0.1l-0.5-1l-1.1-0.7l-1.6-0.8l-0.7-0.5l-0.8,0.2
	l-1.2,1.2l-0.5,1.2l0.2,1.6l0.4,1.6l0.8,0.9l0.1,1l0.3,1.3l0.4,1.2l0.2,1.3h-0.3l-1-1.6l-0.9-1.8l-2.3-3.3l-0.7-6v-2.9l-1.6-3.5
	l-1-4.8l-0.4-1.2l0.5-1.6l0.1-0.6l-0.3,0.1l-0.8,0.8l-1-1.9l-0.7-1.7l-2.7-3.6l-0.8-1.6v-1.5l-1.2,1.5l-1.6,1.1l-1.6,1.6l-1.1,0.5
	l-3.4,0.3l-2-2.2l-2.8-5.4L43.5,99l0.4-3.2l-0.7-3v-1.5L43,90.2l-0.5,0.2l-0.2,0.7l0.1,1.2l-0.2,0.9l-2.4-0.2l-2.3-0.4l2,1.6
	l2.1,0.4l1.2,1.4l0.1,1.2l-0.1,1.2l-1.2,0.9l-1,0.5l0.2,1.2l1.2,1.4l-1.5,0.4l-0.4,0.9v1.3l0.7,1.2l0.3,0.9l-0.2,0.8l0.7,0.9l1,1.8
	l0.3,1.3l-0.4,1.8l-0.6,0.7l-1,0.7l-2.3,2.3l-1.2,2.6l-0.9,1.2l-1.2,0.2l-0.5-0.5l-1-0.7V119l0.3-1l2-2.4l-1.1,0.3l-1.2,0.7
	l-1.8,1.3l-0.6-1.6l-0.4-1.5v-1.9l1.5-2.8l-1.7,1.4l-0.5,1.7l0.2,2l-0.2,1.4l-0.7,1.9l-0.9,1.2l-1.5,0.7l-0.6,1.2l-1,0.8v-1.6
	l-0.3-2.2l-1.1-5.1l-0.2,1.1l0.5,3.2v2.1l-0.8,1.6l-1.6,1.7l-1.2,0.2l-0.7-0.3l-1.2-1.1l-1.2-1.5l-0.2-2.5l-0.5-1.4l0.1-1.6
	l-0.1-1.5l-1.3-4.2l-0.8-2.1l0.1-0.7v-0.3l-0.4-2.8l-0.5-1.7l-0.3-1.8l1.3-2.6L15.2,97l-1.5-0.3l-1.4-0.4l-0.3-0.7l0.6-2.5L12,92
	l-1-1l-0.3-0.4l-0.3-0.5l-0.5-1.3l0.9-2.7L12,83l0.2-1.2l0.2-2.1l0.1-0.8l-0.2-0.8l-1.3-0.9l-2.3-0.4l-1.7-0.8l-1-1.2l-0.8-0.5
	l-1,0.3L3,74.4l-1.1-1.2L1,71.9l0.1-0.6l0.2-0.9l1.7-3.6l0.6-0.1l1.5,0.7h0.6l1-1.4l1.4-4.1H10l1.7,0.1l1.2,0.2L14,62l1.2-0.3
	l0.6-0.5l0.3-0.6L16,60l-1.5-0.8L14,58.6L13.6,57l-0.4-0.6l-2.9-0.1l-1.5-0.8L8,54.9l-1.5-2.2l-1.9-1.8l-1.7-0.4l-0.7-0.5L1.8,49
	L2,47.8l0.5-1.2l0.4-1.2l1.4-1.5l1.6-1.4l0.7-1l1-1l0.1-0.6l-0.2-0.6l-0.8-0.6l-0.6-0.2L6.1,38l0.4-1.1l0.8-0.1l1.6,1l1.7,1.5l1,1.4
	v1.2l0.6,0.2h0.6l1.1,0.5l1.2-0.2l0.7,0.3l0.5-0.1l0.2-0.6l-0.5-0.9l-0.4-0.7l0.5-0.7l0.5-0.1l0.6,0.2l0.8,0.6l0.6,1.2l0.1,1.9
	l1.3,1.7l1.7,1.2l1.3,0.6l1.6,0.4l1.4-0.4l0.7-1.2l-0.3-1.1l0.2-1l0.5-0.5h0.8l0.6,0.8l1.8,4.2L29.9,50l0.4,5.1l-0.5,3.3l0.1,0.7
	l0.2,0.5l0.3,0.2H31l2.3,0.6l1.9,0.7l2.1,0.6l3.1,0.5l1.9-0.2h1l1.9,0.2l5-0.3l4.2-0.1l1.6,0.5l1.4,0.2l4.6-0.3l4.6-0.2l2.5,1.1
	l2.8,1.7l1.5,1.3l0.3,0.7l-0.2,0.6L73,67.8h-0.9L69.9,67l-0.4,0.2v1.7l-0.1,0.3L69,70.7l-1.3,3.5l-0.3,1.5l-0.3,0.4l-0.3,0.2h-1
	L65,76.5l-0.3,0.6l-0.5,1.2l-0.4,1.2l-0.5,0.4l-1.2-0.6l-0.8,0.1l-0.9,0.3l-0.9,0.7L58.8,81l-0.7,0.3l-2.2-0.2l-0.4,0.1l-0.3,0.6
	L55,82.6l-1.7,1.8l-0.6,2.8L52.1,89l0.1,1.4l1.4,3.7l1,4.8l0.4,0.5l0.3,0.2l0.2-0.1v-1v-1.2l0.5-0.3l0.6,0.2l0.6,1l0.6,1.9l0.7,0.7
	l1.1,0.2l1.2-0.4l0.9-0.9l0.4-0.9L61.8,97l-0.1-1.4l0.6-1.3l2.1-2l0.3-0.6l-0.1-1.7v-1.6l0.8-0.1l1.1,0.3l1.4-0.8h0.4l0.6,0.8l1-0.1
	l0.7,3.4l0.7,3v1.4l0.1,3.1l0.3,2.5l0.5,0.6l0.6,1.3l0.6,1.5l0.4,0.9l0.3,2.8l0.4,2l0.5,6.4L75.2,118.6L75.2,118.6z M43.6,101.2
	l0.3,0.8l-0.9-0.5l-0.7-0.5l-0.4-0.7l0.7-0.4L43.6,101.2L43.6,101.2z M45.9,116.6l-2.8,0.6l-1.5-0.2l2.7-4.6l-0.1-2.1l-0.4-1.7
	l-1.4-1.4l-0.1-1l-0.6-1.3l-0.3-1.5l1.5-0.5l1.2,0.9l0.2,0.5l0.3,1.3l0.6,1.3l2.1,2.7v1.7l-0.6,4L45.9,116.6L45.9,116.6z
	 M58.6,111.5l-0.8,0.5l-0.7-0.5l-0.9-1.7l0.5-2.2l0.3-0.3l0.5,0.7l0.6,1.5l0.4,1.2L58.6,111.5L58.6,111.5z M51.9,115.1l-1.7,1.2
	l0.6-7.3l1.3,2.7l0.4,1.5L51.9,115.1z M63.8,121.1l-0.6,1.4l-0.3-1l0.3-1.3l0.3-0.7h0.2l0.3,0.8L63.8,121.1L63.8,121.1z M65,126.8
	l-1,0.1l-0.5-0.5l0.2-0.7l-0.3-2.3l0.8-0.2h0.4l0.2,0.7l0.2,1.3L65,126.8z"/>
<path id="indonesia" class="country" d="M571.7,662.8h-1.5l-0.5-0.2l-0.1-1.5l0.5-0.8l3.5-1.1l1.4-1l2-2l1.2-0.5l0.3-0.2h0.2l0.2,1.5l0.5,0.9l0.1,0.5
	l-1.8,0.8l-1.6,1.8l-3.5,1.2l-0.9,0.5L571.7,662.8z M554.3,657.6l-0.8,0.2l-1.8-0.5l-0.4-0.3l1.5-0.8l1.2-1.2l1.4-0.1l0.8,0.2
	l-0.3,1.4L554.3,657.6z M579.4,652.8l-1.5,0.6v-1.2l1.2-1.5l1-0.5l0.6,0.6v0.3l-1.5,0.5L579.4,652.8z M523.8,637.5l0.7,0.7l2.7,1.4
	l0.4,0.6l0.2,1l0.5,0.7l1.2,0.1l1.3-0.2l1,0.5l0.8,0.7l1.3,1.4l1.2,1.6l1.4,0.9l0.8,1.3l-0.5,1.2l-1.7,1.6l-0.9,0.4l-1.3,0.1l-2,1
	l-0.7-0.5l-2.3-0.3l-1.8-0.7l-1.5-1.3l-0.9-1.4l-1.2-1.2l-1.9-0.8l-3.5-2.4l-2.1-0.2l-0.9,0.2H513l-4.5-1.1l-0.7-0.6l-0.6-0.8
	l-0.5-0.8l-0.3-0.9l0.6-0.8l0.6-0.5l2.5-0.9l1.8-0.3h2.1l3.1-0.3l2.9,0.5l0.9-0.3l1.5-1l0.5,0.3L523.8,637.5L523.8,637.5z
	 M604.2,632.2l0.6,0.2l2.1-1l0.4,0.2l0.4,0.5v1.3l-0.8,1.2l-2,0.1l-0.3,0.3v0.7l0.2,0.6l0.5,0.5l0.6,0.9l0.6,2.1l-1.2,0.9l-0.6,1.7
	l-2,1.5l-2.2,2.5l-1.7,1.3l-1.5,1.5l-1.3,1l-1.7,0.3l-2.5,0.2l-3.3,1.8l-1.9,0.8h-1.8l-1.7-0.6l-0.6-0.7l0.2-0.9l0.6-0.8l0.7-0.6
	l0.4-0.8l-1.9-1l-0.2-0.8l0.8-2.1l0.5-2.2l0.7-1.5l2.7-2.7l1.6-1.3l1-0.5l0.3,0.6l0.6,0.7l0.4,0.1l0.3-0.2l2.4,0.2l0.6-0.2l0.9-1.1
	l0.6-0.6l0.4-1.2l0.1-0.8l2.1-0.6l1.2-0.6l1-0.9l3-1.5l0.5-0.4l-0.1,1.5L604.2,632.2L604.2,632.2z M451.8,627.6l-0.5,0.6l-1.3-1
	l-0.3-0.5l1-0.6l0.3-0.1l0.8,0.7L451.8,627.6z M572.2,623.9l-0.5,1l-0.9-0.3l0.3-0.9l0.5-0.5l1.3-0.8l1.3-0.1l0.8,0.3l0.3,0.3
	l-2,0.3L572.2,623.9z M514.8,627.1l-0.6,0.2l-0.6-0.2l0.3-1.5l-0.4-1l0.7-0.8l0.2-1.4l0.3-0.4l0.4,0.4l0.2,0.3l0.3,0.1h0.7l0.2,0.6
	v0.6l-0.3,0.6l-0.9,0.6l-0.6,0.7L514.8,627.1L514.8,627.1z M577.8,620.8l-0.3,0.7H573l0.1-0.9l1.2-1l0.4-0.3l1.4-0.3l1.9,0.6
	L577.8,620.8L577.8,620.8z M468.6,625l-2.1,3.5l0.7,0.5l0.4,0.5l-3.5,0.7l-1.4-0.4L462,630l-3.5-0.6l-2.5-0.8l-0.3-0.6l0.2-0.7
	l0.7,0.2l1.9,0.1l0.7-0.3v-2.2l-0.3-2.9l2.6-2.3l1.4-0.9l1.6-0.6l4,1.3l0.7,0.4l0.5,0.5l0.3,0.8L468.6,625L468.6,625z M593.6,620.4
	l-1,1l-0.7,1.8l-0.6,0.5l-1.3,0.3l-0.8-1.8l-1.5,0.1l0.7-1.6l0.7-0.6h0.9l0.4,0.6l0.2,0.1l2.1-2.6h0.4l0.4,0.1l0.3,0.3L593.6,620.4
	L593.6,620.4z M587.7,619.5l-2.3,0.5l-1.4,2h-1.2l-0.6,0.9l-0.1,0.3l0.1,0.4l-0.1,0.4l-0.5,0.4l-1-0.6l-0.9,0.7l-0.4,0.2l-1.3-0.8
	h-1.2l-0.4-0.1l1.6-1.5l2.1-1.4l0.3-0.5l-0.8-0.1l-0.5-0.2l-0.1-0.3l1.3-0.2h0.9l0.7,0.4h0.4l2.9-1.7l1.2,0.4l0.8,0.4L587.7,619.5
	L587.7,619.5z M832.4,621.4l-0.8,0.2l-4.1-0.5l-0.4-0.7v-0.3l0.9-0.7l0.9-1.2l1.4-0.4h0.4l1.7,2.7L832.4,621.4L832.4,621.4z
	 M483.6,621h-0.4l-0.7-0.3l0.3-0.7l-0.4-1.2l0.1-0.9l0.9-0.5h1.9l0.1,0.7L483.6,621z M508.4,618.9h-0.7l-0.1-0.7l0.3-0.7l0.7-0.3
	h0.3l0.5,0.6l0.1,0.3l-0.5,0.4L508.4,618.9z M598.3,617.2l0.4,1l1.3-0.6l1.2-0.1l2.8,0.1l2.1,0.2l1.2,0.4l0.1,2l-0.6,0.4l-10.7,1.5
	l-1.1-0.5l-0.4-0.5l1.2-1.5l-0.5-0.7l0.6-1.2l1.3-0.8L598.3,617.2L598.3,617.2z M651.4,616.6l2.9,0.6l1.6-0.1l0.3,0.6l-1.6,1.4
	l-3.3-1.1l-0.6-1.2L651.4,616.6L651.4,616.6z M569,625l-2.3,0.6l-1.4,0.6l-1.4,0.7L563,627l-1.6,0.1l-2.2-0.1l-1.5,0.2l-4.2,1.9
	l-1.6,0.2l-1.4,0.5l-0.5-0.7l-0.6-0.5l-1.4-0.1h-1.4l-1.4,1.7l-2.3-0.4l-0.9,0.2l-0.8,0.4l-0.8,0.1l-0.9-0.1l-3.3-1.3l-3.8-0.8
	l-3.8,0.3l-3.2-0.7l-1.8,0.5l-1.7,0.8l-0.5-0.8l-0.6-0.7l-0.5-1.1v-1.2l0.2-0.9l0.5-0.8l0.3-0.8l0.1-0.9l0.7,0.4l0.7-0.2l2.2-0.9
	l2.2-1.4l2-0.5l1.2-0.1l1,0.3l1-0.1l1-0.3l1.6,1.2l0.7,0.2l2.2,0.1l2,0.6l1.8,0.9l2.6,0.9l1.6,1.2l1.2,0.5l0.9,0.1l0.8-0.2l1-0.8
	l1.2-0.3h1l1.9-0.2l0.8-0.2l0.9-0.4l0.9,0.3l0.8,0.4l3.2,2.1l1,0.1l1.8-0.5l0.5-0.6l0.3-0.9l0.5-0.7l0.7-0.6l0.8-0.5l2.4-0.8
	l1.6-0.8l1.2-1.4l-2.6-0.6l0.6-1l0.9-0.5l1.2,0.2l1,0.8l0.4,2.9l-0.8,0.4l-0.5,0.4l-0.3,0.6l-1.5,1.1l0.6,1.3l-0.4,0.6L569,625
	L569,625z M701,620.2l-1.4,0.5l0.9-1.3l3.1-2.9l1.1,0.5l1.5,0.1l-2.2,1.3l-2.2,0.6L701,620.2z M494.8,620.2l0.8,0.6h0.8l1.6-1
	l0.9-0.4h1l1,0.2l1,0.7l0.3,1.2l0.4,0.3l0.6-1.4l0.8-0.4l0.8-0.3l1.3,0.1l1,0.7l0.9,2v1.7l0.3,0.6l0.6,0.5l0.5,0.7l-0.4,0.7
	l-0.4,0.3l-1.2,0.3l-0.6-0.1l-0.5-0.5l-0.6-0.2l-1.3,0.2L503,627l0.2,0.6l1,0.3l0.3,0.3l-0.1,0.4l-0.4,0.1l-1.3-0.5l-0.9,0.1
	l-3.2,0.7h-0.8l-0.5-0.7v-1.8L497,626l-2.4,2.2l-0.7,0.5L493,629l-1-0.1l-3.5,1.3l-1.1-0.2h-1l-3.7,1.4l-2,0.4h-1l-1-0.1l-0.9,0.1
	l-0.8,0.6l-1.6,0.5l-1.7-0.4l-1.4-0.5l-1.4-0.7l-0.3-0.8l0.1-1l0.6-1.4l-0.4-2.4l0.3-1.1l0.6-1.1l0.8-0.4l1.1-0.1l1.8-1l1.7-1.3
	l0.9,0.1l2.2,0.9l1.3,0.1l2.2-0.1l0.9,0.5l0.4,1.2l0.5,0.5l0.6,0.3l1.5,2.1l1.4-0.1l1.2,0.4l2.2-1.3h1.7l0.5-1l-1-1.1l-1.2-0.9
	l-0.6-0.2h-0.7l-0.6-0.1l-2.7-1.9l-0.8-1l-0.5-1.2l0.3-0.9l1.8-0.8l0.9-0.2l3.2,0.5l0.5,0.5l0.9,1.9L494.8,620.2L494.8,620.2z
	 M449.1,617.5l1.7,0.9l2.3,2.5l0.2,0.7l-0.7,0.7l-1.7,1.1l-3.7,1.7l-0.6,0.8l-0.8,1.5l-0.2,0.7l-0.3,0.4l-0.4,0.3l-0.8,0.2l-0.9-0.3
	l0.8-1v-1.2l-0.6-1.2l-0.8-0.9l-1.6-1.2l-1.8-1.2l-1.8-0.6l-1.9-0.3l-0.7-0.5l-1.2-1.4l-0.4-0.8l-0.2-0.8l0.1-0.8h0.5l1.9,0.2
	l3.5,0.9l1.7,0.1l1-0.2l2.6-1.8h0.6l2.4,0.8L449.1,617.5L449.1,617.5z M684.3,614.2l-1,1.5l-1.1-0.1l-2-2l0.1-1.4l0.2-0.5l0.8-0.2
	l2.6,0.4l0.5,1.2L684.3,614.2L684.3,614.2z M634.6,609.5l0.2,0.8v0.3l-2,0.3l-1.9,0.9l-1,1l-0.8,1.3l-2.6-0.5l-2.3-0.1l-1-0.5h-1.2
	l-1.4,0.4l-2,1.2l-0.5,0.1l0.2-1.7l0.6-1.1l2.2-2.5l1.8,0.6l2.1,0.2l2.4-0.5l1.7-1.2l2.4-0.6l1.9,1.5L634.6,609.5L634.6,609.5z
	 M644.8,608.8l-1.1,0.4l0.3-1.2l-0.1-1l1.7,0.3v0.8l-0.2,0.3L644.8,608.8z M826.4,619.4l-3.8,2.2l-5.1-0.4h-1.8l-3,0.5l-0.6-0.4
	l0.6-2l2.4-5.4l2.9-4.8l1.2-1.2l1.7-1.2l1.8-0.9l4.1-1l3.7,0.2l0.5,0.4l1.6,1.6l1,1.2l0.4,1.8l-1.6,3.1l-1.8,2.9l-2.8,2.3
	L826.4,619.4z M708.6,614.9l-0.3,0.2l-2-0.2h-1.2l0.2-1.2l-0.6-0.9l0.8-1.4v-1.6l0.9-0.2l0.1-0.9l1-2.4l0.6-0.5l0.8-0.2l1-1.4
	l0.6-0.4l0.6-1.1l0.9-0.5l-0.1-0.9l0.5-0.5l1.4-0.4l0.9,0.5l0.6,0.9l-1.5,1.2l0.8,2.8l-1.2,3.1l-0.7,0.9l-1.3,0.8l-0.4,0.8l-1.5,1.5
	l-0.5,1.3l-0.1,0.5L708.6,614.9L708.6,614.9z M719.3,601.9l-0.2,0.8l-0.7-0.4l-0.7-0.9l-1-0.1l-0.7-0.2l-0.4-0.5l2.8-0.2
	L719.3,601.9z M432.2,600.7l-0.2,0.6l-0.8-0.2l-0.8-1.1l0.4-0.3l0.4-0.1l0.6,0.1L432.2,600.7z M665.2,601.5l-0.7,0.4l-1.2-0.9
	l-0.3-0.3l0.8-0.8l0.8-0.2l0.5,0.4l0.2,0.4l-0.1,0.4V601.5z M536.1,600.5l-1.7,0.1l-0.5-0.2l-0.1-1.6l1.8,0.7h0.6L536.1,600.5
	L536.1,600.5z M422.9,600.3l-0.3,0.2l-2.8-0.1l-1.8,1.3l-1.2,0.4h-4.4l-0.5-0.2h-0.4l-0.2,0.3l-1.4-0.2l-4.5-1.2l-0.6-1.1l0.7-1.2
	l1.6-1.7l3.3-0.3l14.8-0.1l1.6,1.4l0.2,0.5l-3.2,1L422.9,600.3z M447.9,598.1l-1.3,0.3l-1.2-0.6V597l0.3-0.7l1.9-0.4h1l1.1,0.5
	l0.7,0.5l0.4,0.6h-2L447.9,598.1z M763.4,594.5l-0.3,0.3l-0.4-0.5v-0.3l0.6-0.9l0.6-0.5h0.6l-0.2,0.7L763.4,594.5L763.4,594.5z
	 M282.5,592.7l-1,0.4l-0.8-0.3l-0.3-0.5l1.2-1.2l0.5-0.3l0.6-0.1l0.3,0.6L282.5,592.7L282.5,592.7z M764,591.2l-0.9,0.1l-0.4-1.3
	l0.7-0.3l0.8,0.8L764,591.2z M765.7,589.3l-0.4,0.1v-0.8l0.5-0.7l0.5-0.4h0.6L765.7,589.3z M761.1,589.4l-0.3,1.2l-0.3,1.3l-1.5,1.4
	l-0.9,2.2l-0.5,0.6l-2,1l-1.8-1.2l-0.5-1.1l0.8-4.9l0.8,0.2h0.5l0.2-0.4l-1.2-0.5l-0.2-2.8l0.1-1.1l0.9-0.2l1.1,0.8l1.4,1.5l1.6,1.2
	L761.1,589.4L761.1,589.4z M317.1,582.3l1.6,1.9l1.4,1l1.7,0.5h1.8l1.8,0.2l2,0.7l2.1,0.3l1-0.1l0.9-0.4h0.7l0.6,0.3l1.4,1.6
	l1.6,1.4l0.4,0.7l1.1,3.5l1.2,1l1.7,0.3h2l2,0.1l4.5,0.8l1.8-0.1l1.6-0.8l1.4,0.5l3.8,1l1.9,0.2l2.1-0.3h2.2l1,0.3l1,0.4l0.8,0.2
	h0.9l1.5-0.8l1-1.5l0.8-1.9l0.6-2l0.4-0.8l0.6-0.7l0.8-0.5l0.8-0.3l2.3,0.2l0.5,0.5l2.5,3.3l0.4,0.3l2.6,0.2l0.7-0.1l1.6-0.7h0.9
	l1.7,0.8l0.7,0.7l0.8,0.5l4.1,0.5l1.6,1.4l0.8,0.2l2.9-0.2l2,0.1l1.7,0.4l0.8,2l0.6,2.1l0.4,0.7l1.7,0.7l0.7,0.6l-0.2,2.1l0.2,2
	l3.6,1.7l3.8,1l4.1,0.1l4.1-0.3l2.1-0.4l2.6-0.7h0.5l5.1,2.3l0.4,0.3l0.6,1.7v1.8l-0.9,4.2l-0.1,1.2l0.1,1.2l1,2.5l0.5,0.7l1.8,1.3
	l0.1,0.7l-0.3,0.7l-2.1-0.6l-1.2-0.6l-0.7-1l-1-0.5l-1.9,0.2l-3.6-0.9l-4-1.5l-7.1-3.1h-2l-1.9,0.4l-1.9,0.8l-2.1,0.6l-1.5,0.2
	l-1.5-0.2l-3.8-0.8l-3.9-0.5l-9.9-0.3l-2.8-0.7l-4.6-0.4l-3.7-0.6l-3.7-0.9l-9.3-4.3l-3-1.1l-9.3-2l-1.4-0.2l-3.4,0.2l-2.1-0.6h-1.9
	l-2.8,0.6l-0.9,0.5l-1.1,1h-1.9l-1.9-0.2l-5-1l-1.8-0.6l-1.8-0.9l-1.6-1.2l-0.8-0.4l-4.3-1.2l-3.5-0.4l-7.2-0.5l-1.6-0.3l-1.3-0.4
	l-0.7-0.9l0.1-1.2l0.5-1l0.7-1l0.5-1l-5.3-2.1l-4.1-1.2l-1.8-0.2h-1.8l-2,0.2l-2-0.1l-0.9-0.3l-1-0.1l-1,0.2l-0.8-0.1l-0.2-0.9
	l0.5-0.8l1-0.9l0.6-0.2l0.3,1.4l0.3,0.3l0.9,0.3l0.4-0.1l1.6-1.8l0.4-0.9l0.8-2.4l0.8,0.5l0.8-0.3l0.5-0.4l1.3-5.6l1.2-1.6l1.5-1.4
	l0.8-0.3l1.5,0.8l3,0.3l1.8,0.6l1.8,0.1l1.7,0.3l2.4,1l0.9-0.1l0.9-0.3l1.3-1.1l0.6-1.7l1.9,0.9l2.8,0.3l0.7,0.5H317.1z
	 M589.7,581.8l-0.2,0.8l-0.6-0.9l-0.5-0.5v-1l0.8,0.4L589.7,581.8L589.7,581.8z M532.1,587.1l-0.7,2.7l-0.3-1l-0.1-2.5l-0.4-1.2
	l0.3-1.4l-0.1-3.6l0.5-1.7l0.9,2.1l0.3,1.1L532.1,587.1L532.1,587.1z M404.5,579.1l-0.3,0.6h-1.6l-0.3-0.6l1-1.2l0.7-0.1l0.6,0.4
	L404.5,579.1L404.5,579.1z M732.8,579.8l-1,1.6l-0.7-0.6h-0.4l-0.2-0.9l0.2-1.9l-0.8-2.1h1.2l0.3,0.6l0.3,0.2l1.2,2.1L732.8,579.8
	L732.8,579.8z M764.5,577.5l-0.1,0.6v1.2l0.3,1.1l-0.7,1.2l0.6,1.6l0.1,0.8v1.2l-0.2,0.5l-0.5,1.5l-0.5,0.5l-0.4,0.2l-0.4,0.5
	l-3.2-0.5l-1.4-1.1l-1.2-1.2l-0.3-0.5l-1.4-1.3l-0.3-0.4v-0.7l1.2-0.2h1.2v-0.6l0.7-2.3l-1.9-1.4l-0.3-0.6l0.7-0.4l1.5,0.5l1.9-2.5
	l0.6-0.5l0.3-1.4l1.1-0.2l0.7,0.2l0.5,0.9l0.2,0.8l-0.2,0.7l0.9,0.4l0.8,1.7L764.5,577.5z M734.8,580.7l-1.3,1.4l1.3-3.3l0.3-1.7
	l1.2-1l1.7-5.1l0.4,0.1l0.6,0.5l-0.9,3.7l-2.4,2.6L734.8,580.7z M235.3,573.7l-1.3,0.1l-2.5-2l-0.4-0.6l0.7-0.6h0.7l2.8,1.3l0.6,0.6
	L235.3,573.7L235.3,573.7z M582.8,570.3l-0.1,1.7l-0.6-0.1l-0.5-0.6l-0.1-0.6v-0.4l0.3-0.3L582.8,570.3L582.8,570.3z M556.9,573.1
	l-1,0.4l-2-1.9l-0.8-1.5l0.2-0.9l0.6-0.8l0.3-0.2l-0.1-0.8l0.8-0.4h0.9l0.6,1.1l0.7,0.3l0.3,1L556.9,573.1z M566.7,570.3l-0.4,1.1
	l-0.9,0.8l-0.7,0.1l-0.8-0.2l-1.3-0.7l-0.3,0.8h-1.1l-0.4-1l0.8-3l1.2-1.2l-0.1-1.2l-0.9-2.5l0.6-1.3l2.5-1l2.2-1.2l0.7-0.3l0.6,0.9
	l0.3,4.2l-2.4,3.3l0.5,2.1L566.7,570.3z M575.5,558.6l0.4,3.5l-0.1,0.9l-0.9-1.4l-0.3-0.3l-0.3,0.3l-0.3,0.2h-0.5l-0.6,1.4v1.3
	l-0.5,0.9l-0.2,2.9l0.2,0.8l0.7-0.4l0.4-0.1l1.6,1.2l0.8,0.8l-0.2,1l-1.1,1l-1.3,0.4l-0.9-0.4l-0.3,0.2l-0.6,0.5l-0.4,0.7l0.1,0.7
	l-1.1,1.9l-0.6,0.5l-1.3-0.6l-0.8,0.5h-0.6l-1-1.9v-0.9l0.9-1v-0.7l0.5-0.8l1-1.2l0.6-0.9v-0.5l0.4-2l0.2-0.8l0.3-0.9l0.5-1.8v-3.5
	l1.5-2.9l1.5-0.8l0.6-0.1l-0.1,0.8L575.5,558.6L575.5,558.6z M745.3,553.6l0.8,0.9l-1.9-0.7l-2.8-1.4l-0.2-1l2.3,1.4L745.3,553.6
	L745.3,553.6z M576.5,551.5l-1.6,2l-1.2-0.1l-1.3-1.3l-0.4-1.4v-0.5l0.9-0.8l3.1,0.3l0.6,0.7L576.5,551.5L576.5,551.5z M663.4,542.9
	l-2.8,0.9l0.6-1.6l0.4-0.4l1.4,0.4L663.4,542.9z M658.7,544.3l-0.4,0.6l-0.9,0.4h-0.8l0.3-0.6l-0.2-0.3l-0.6,0.2l-1,0.5l-1.2,0.9
	l-0.7-0.5l-0.2-0.7v-0.3l1.5-1.3l1.7-0.2l2.3-1.2h1.1l-0.3,0.8l-0.4,0.6l-0.2,0.6V544.3L658.7,544.3z M666,542.3v0.7l-0.1,0.2
	l-0.9-0.2h-0.6l-0.6-1.2l0.2-0.3l1.2,0.4l0.4,0.1L666,542.3L666,542.3z M465.1,540.9l-0.6,2.8l-1-1.6l1.2-1.9l0.5-0.4L465.1,540.9
	L465.1,540.9z M647.8,538.5l0.4,0.7l-1.6-0.5l-0.7-0.7l0.7-0.4l0.4-0.1L647.8,538.5z M463.1,547.5l-3.5,3l-0.6-0.8l0.3-3.1l-0.9-1.9
	v-1.4l0.7-2.5l0.9-1.9l2-1.3l0.5-0.1l-0.1,2.3l0.4,0.9l0.2,0.8l-0.2,0.6l0.4,3l0.2,0.7l-0.5,0.9L463.1,547.5L463.1,547.5z
	 M635.6,534.7l2.7,1.3l0.6,0.8l0.5,1l0.5,0.5l0.6,0.4l1.1,0.9l0.3,1.3l-0.2,2.6l-1.2,0.2l-1.2,0.4l-2.3,1.5l-1.2,0.3l-1.2,0.1
	l-0.9,0.4l-0.9,0.1l-2.3-0.8l-2.2-1l-3.2-1.7l-0.6-0.4l-0.5-0.9l-1.5-1.6l-0.4-1.1l-0.1-3l0.4-0.7l0.6-0.4l2.2,0.7l1.4-0.7l4.1-0.6
	l4.1,0.1L635.6,534.7z M654.1,532.3l-0.8,1.4l-1.4-0.1l-0.3-0.2l1.7-0.9L654.1,532.3z M309.2,533.4l-0.3,0.3l-0.9-0.2l-0.7-0.5
	l-0.4-0.4l-0.1-0.5l0.9-0.6l1.9,0.6L309.2,533.4L309.2,533.4z M318.7,531.7l-0.7,0.4l-0.4-0.4l-0.1-0.4l0.3-0.6h0.9l0.4,0.2
	L318.7,531.7z M682.9,531.2l3.8,1.8l1.9,0.3l3.3-0.2l1.2,0.2l3.1,2.3l0.9,1.6l0.3,1.4l0.5,1.3l0.8,0.3l0.9,0.1l1.2,1.9l0.2,0.6
	l-0.9,4.7l-3.7-1.8l-3.5-2l-1.5-0.8l-4.1-1.7l-0.6-0.6l-0.5-0.8l-1.8-1l-3.6-0.2h-1.3l-0.5,0.2l0.1,0.6v1.2l-0.9,0.3l-2.2-0.7
	l-2-0.3l-1.7-0.7l-2.3-0.4l-0.3-0.3l0.2-0.5l-0.1-0.5l-0.5-0.2l-1,0.1l-1,0.5l-0.8,0.6l-1.2,1.6l-0.6,0.6l-2,0.3l-0.8-0.2l-0.8-0.4
	l-2.3-2.9l-0.8-0.6l-0.9-0.5l-0.8-0.2l-0.8,0.4l-0.4,0.9l-0.2,1.1l-0.2,0.6l-1,1.7l-0.8,1l-0.3-0.1l0.4-1.6v-0.9l-0.5-1l-0.3-1
	l3.8-4.6l1.4-1.2l6.1-0.4l3.6,0.2l2-0.1l1.3-0.3l1.1,0.2l0.3,0.9l0.7,0.7h0.9l1.7-0.7l1.5-1.2l0.9-0.5l0.9-0.1l1,0.1l0.9,0.3
	L682.9,531.2L682.9,531.2z M203.6,536.3l0.6,2.3l-1.9-1.6v-1.2l-0.3-0.7l-1.2-0.9l-0.9-1.2l-0.4-2.7l0.3-0.6h0.8l3.5,3.6l0.2,0.6
	l-0.1,1.3l-0.5,0.4L203.6,536.3L203.6,536.3z M330.8,533.3l-0.3,1.7l-0.4,0.6l-1.4,0.8l-0.5,0.5L327,537l-0.2-0.9l-0.4-0.6l-1.4-0.7
	l-0.4,0.2l-0.2,1.1l-2.6,0.7h-0.7l0.4-1.4l-0.7-1.1l0-1.2l-0.1-0.6l-0.3-0.3l0.7-0.9l-0.1-1l0.7-1.2l0.4-2.7l2.8-0.6l0.6,0.5
	l3.3,0.6l2.3,1.6l1.2,2.2L330.8,533.3L330.8,533.3z M199.9,529.1l-1.2,1.3h-1.9l-0.4-0.8l0.1-2l-0.5-0.6v-0.3l0.3-1.2l0.4-0.3
	l3.1,2.8L199.9,529.1z M758.5,519.1l-0.5,0.2l-0.2-0.7l0.3-0.9l0.3-0.1h0.3l0.5,0.3L758.5,519.1L758.5,519.1z M194,522.7l0.1,0.4
	l-2.7-1.4l-1.3-0.4l-1.2-1.6l0.4-0.7v-1.1l0.2-0.4l0.8-0.2l1.1,0.8l0.8,1.9l1.3,1.7L194,522.7L194,522.7z M622.5,524.4l-0.3,0.3
	l-1-0.9l-0.7-2.5l-0.6-0.7l-0.6-2.3l0.2-0.7l0.8-1h0.6l0.5,0.6l-0.3,2.5l1.5,3.2L622.5,524.4L622.5,524.4z M586.4,516.3l0.3,0.7h-1
	l-0.4-1.2l0.1-0.7L586.4,516.3z M622,513.6l5,0.5l-0.7,0.6l-5.4,0.9l-1.9-0.2l-5.9,0.6h-0.8l-0.1-0.9l-0.6-0.6l0.9-0.6l1.2-0.1
	l3.3,0.2L622,513.6z M575,514.1l-1.2,1.3l-0.1-0.7l0.3-0.7l0.3-0.5l0.5-0.2L575,514.1z M692.7,512l0.2,1l1,0.9l-0.3,1.4l-0.4,0.2
	l0.2,0.6l0.4,0.5l-0.8,0.3l-0.6-0.2l-0.9,0.4l-0.6,0.6l-1.9,0.3l-0.7-0.6l-3.4-0.7l-2.2-1.5l-0.3-0.5l4.2-1.7l1.8-0.5h1.5l1.9-0.6
	L692.7,512L692.7,512z M604.7,512.3l1.5,0.6h0.5l0.5-0.7l0.3-0.1l0.7,0.3l0.2,1.1l1-0.2l0.8,0.4l0.2,0.3l-0.1,1.1l-2.9,0.2l-2.1,0.9
	l-2.8-0.8l-3.2,1.4l-1.9,0.5h-1.7l-1.4-2.4l0.8-2.8l0.6-0.5l1.1-0.2l3-0.1L604.7,512.3L604.7,512.3z M776.4,510.4l6.5,0.8l1.7-0.1
	l3.7,0.3l3.1,1.1l5.4,0.2l1.6,0.3l1.2,0.7l-3,0.6l-1.4,0.6l-2.6,0.3l-2.2-0.3l-1.6,0.3l-0.6-0.6l-2.3-0.6l-3-1.2l-6.2-1.4l-0.3-0.9
	L776.4,510.4L776.4,510.4z M343,510.9l-1.9,0.7l-0.6-1.5l1.2-0.5l1.3,0.4L343,510.9z M295.4,511.7l0.6,1.2l0.8,1l0.6,1.1l0.8,5.2
	l2.6,4.5l7.4,1.8l-1.2,0.7l-0.6,0.6l-0.5,0.8l-1.1,3.1l0.1,0.7l0.6,1.1l0.1,1.2h-0.9l-1-0.3l-0.8-0.4l-0.8-0.6l-0.8-0.4l-0.9-0.3
	l-1.5-0.9l-2-0.6l-2.1-0.5l-1-1.3l-0.5-1.6l0.5-2.4l-0.5-0.7l-0.7-0.6l-0.9-1.8l-0.3-2l-1.3-0.8l-1.7-0.5l-0.8-0.4l-3.5,0.8
	l-0.8-0.2l-0.7-0.6l-1.9-0.6l0.1-1.2l0.9-0.9l2-0.9l1-0.8l0.2-1l-0.4-0.7l0.1-0.8l0.6-0.8l0.8-0.6l2.1-0.8l0.9,1.4l0.4,1.2l0.6,0.8
	l0.9-1.2l-0.6-2l1.6-0.5h1.5l1.2,0.6l0.8,0.9L295.4,511.7L295.4,511.7z M582.3,512.3l-1.2,0.1l-0.8-0.5l0.1-2.4l0.7-0.5l0.3,0.1
	l0.2,0.7l0.3,0.6l0.6,0.6L582.3,512.3L582.3,512.3z M656.8,511.6l-1,0.7l-0.5,0.2l-2.4-0.4L650,512l-2.9,0.6l-1.7-0.5l-1.1-0.8v-0.9
	l1-2.2l2.2-1.7l0.9-0.3l1.6,0.5l2.6,1.3l2.1,1.5l1.9,1.2L656.8,511.6L656.8,511.6z M576,503.6l0.4,1l-0.6,0.9l0.6,1.6l1.6-2.2
	l1.6-0.3l0.9,0.4l0.6,0.4l0.3,0.8l-0.6,1.8l-1,0.8l-1.3,0.1l-0.6-1l-0.9-0.1l-0.6,2.3l-0.3,0.3l-0.8,0.3l-0.7-0.6l-0.1-0.3l1-1
	l-0.5-3.1l-0.7,0.6l-2,2.8l-1.5,1.2l-0.5-0.6l-0.8-1.9l0.4-2.4l1.2-1.6l1.1,0.1l3-0.5L576,503.6L576,503.6z M355.3,503.8l-3.3,1.7
	l-0.8-0.1l-0.6-0.6l0.4-3.2l0.4-1l2.3-0.1l1.4,0.5l0.7,0.5l0.3,1.1l-0.2,0.6L355.3,503.8L355.3,503.8z M768.2,502.7l-0.8,0.3
	l-0.9-0.3l-0.9-1.2l0.3-1l1-0.7l0.8,0.7l0.3,0.8l0.6,0.1L768.2,502.7z M183,513.5l-1.5,0.1l-3.2-2l-0.8-0.9l-0.2-1.2l-3.1-4.5
	l-0.4-1l1.2-3.7l3.1-0.9l1,0.6l0.4,1.7l1.8,3l0.6,1.7l0.4,0.7l0.2,0.6l-0.2,0.4l1.3,1.8l0.9,1.2l0.1,1.8L183,513.5L183,513.5z
	 M703.4,505.9l-0.6,0.5l-2-0.4l-1-1l-0.7-1.3l-0.5-1.2l-0.1-0.9l-0.6-1.1l0.1-0.4l3.7-1.2l0.7,0.4h1.5l0.7,0.8l-0.5,3.6l-0.7,2.1
	V505.9z M701.8,497.2l-0.4,0.8l-0.8,0.6l-7,1l0.6-0.6l0.3-0.6l0.4-0.3l0.7,0.1l0.3-0.2l0.4-0.1l0.4,0.1l0.7-0.2l1.4,0.2l1.5-0.1
	l-0.1-0.8L701.8,497.2z M775,495.2l3.5,0.6h1.3l1.2,0.7l1.5-0.3l0.9,0.2l2.9,2.5l1.4,1.6l2.1,1.4l1.5,0.5l-1.2,1.3l-2.3,0.7h-0.9
	l-1.8-0.8l-1.4,0.1l-1.2-0.9l-0.2-1.5l-1.3-3.3l-1.7,0.9l-2-1.5h-0.5l-0.1,0.3l-0.8-0.5l-0.7-1L775,495.2L775,495.2z M642.9,497.3
	l-0.2,0.3l-1.8-0.4l-0.5-0.2l0.9-2.3l0.8,0.1l0.7,2.2L642.9,497.3L642.9,497.3z M697.3,493.2h-0.9l-1.7-0.7l1-0.6l0.6-0.1l0.5-0.4
	h0.3l0.7,0.3l0.4,0.5L697.3,493.2L697.3,493.2z M554,491.2l0.7,0.7l-0.4,0.8l-0.6-0.2h-1.5h-0.6l-0.7,0.5h-0.4l0.3-0.8l1.2-1.2
	l0.8,0.2L554,491.2L554,491.2z M743.7,496.4l4.1,0.2l2.1-0.2l2,0.2l0.8,0.4l1.4,1.2l-0.4,0.8l-0.2,1.7l0.7,1.6l1.2,1.6l1,1.7
	l0.2,0.8l-0.4,1.8l-0.3,0.9l-1.2,1.5l-0.6,1.6l0.4,2l0.2,2v1.8l0.2,1.8l0.6,1.9l2.7,5.1l1.6,3.5l0.5-1.9l-0.1-2.1l0.6-0.8l0.8-0.4
	l1,0.4l0.3,0.9l0.1,1.9l0.9,3.7l1.2,0.2l1.2-0.6l0.2,1.2v2.1l0.6,1.7l0.5,0.6l2,1.4l0.9,0.2l2.6,0.3l2,0.1l1.9-0.5l1.2-1.2l1.1-1.4
	l3.8-3.1l1.2-1.5l1.1-2.3l0.4-0.5l3.8-2.5l0.4-0.9l0.5-1.7l0.8-1.6l0.6-0.8l3.6-0.8l3.8-0.4l3.7-1.5l1.6-1.3l0.1-0.9l-0.8-1.5v-0.7
	l0.9-0.6l3.3-1.9l3.9-1.9l2.9-1.4h1.7l1.6,1.2l1.7,1l8.8,2.8l1.4,0.9l1.2,1.2l1.8,0.8l2,0.4l1.8,0.8l1.7,1l3.7,1.8l5,2.2l1.3,0.1
	l4.7-0.1l0.8,0.4l0.8,0.6l0.7,0.1l5.4,0.4l0.8,0.4l0.8,0.6l0.4,1.6h3.7v60.9l-0.5,1.7l-1.2,2.6l-0.2,2.1l0.9,1.6l0.9,1.1v36.3
	l-0.9-0.5l-2.3-1.8l-2-2.1l-1.3-1.9l-1.3-1.7l-6.3-5.3l-1.6-1.7l-0.3-0.5l0.2-0.5l0.7-0.9l1.3-2.6l-1.4,1.6l-1.6,1.3l-2.3,0.1
	l-2.3,0.3l-2.1,0.8l-2.2,0.3l-1.1-0.4l-0.6-1l-0.3-1l-0.2-1.1l-0.9,1.7l-1.8,0.9l-2.5,2l-0.7-0.4l-0.4-0.7l-0.1-0.8l0.5-0.8l0.3-0.9
	l0.5-2.1l1.1-1.2l0.7-2.4l0.5-0.9l0.2-0.8l-0.6-1l-1.1-0.3l-0.7-0.6l-0.8-1.6l-0.5-0.6l-1-0.7l-0.7-0.8l0.8-0.6l1.2-0.2h0.9l1.6,0.4
	h0.7l1.9-0.6l-1.1,0.2h-1l-3.3-1l-2.1-1.2l-1.9-2.2V597l1.4-0.4l2.9-0.5l-0.9-1.2l-1.3-1l-0.5-1.7l-0.9-1.1l-2.2-1.6l-1.3-1.8
	l-1.2-3.7l-1.2-2.8l0.3-1l1-0.7l-1.5-0.1l-1.4-0.5l0.7-1.3l1.6-0.8l-1.4,0.2l-1.4,0.4l-0.6,0.1l-0.6-0.1l-0.4-0.5v-0.8l0.2-1.4
	l-0.2-1.3l-1.2-0.6l-1-0.9l-0.6-0.4h-0.8l-0.7-0.6l-0.6-0.9l-7.4-3.9L806,565l-0.7,0.5l-0.7,0.2l-0.9-0.6l-0.9-0.4l-1,0.1l-0.9-0.4
	l-0.9-0.2h-1l-3.9-1.2l-3.7-1.9l-3-0.8l-1.8-1.1l-1.9-0.9l-4.3-0.9l-4.4-0.6h-1.6l-1.3,0.2H772l-7.2-4.2l-1.2-1.9l0.1-1.2l0.3-0.9
	l2.9-0.3l-2.1-0.3l-0.9,0.1l-1.7,0.8l-0.9,0.1l-1.3-0.5l-1.2-0.6l-2,0.6l-1-1l-0.4-1l-0.5-0.5h-0.8l-1,0.4l-1-0.1l-0.7-0.7l-0.5-0.9
	l-0.7-0.6l-0.9-0.5l-1.4-1.2l-0.7-1.6l0.1-2.8l0.2-1l1.4-1.6l1-1.5l-1.2-0.2l-1.1,0.7l-0.5,0.7l-0.2,0.9l-0.1,2.9l-0.9,0.8l-1.3-0.1
	l0.4,1.7l-0.8,1.7l-1.5,1.8l-0.1,0.9l0.2,0.9l-0.3,0.9l-2.5,2.6l-0.8,0.1h-1.9l-1.9,0.4l-0.9-0.6l-0.7-0.8l-0.5-0.9l-0.8-2l-0.6-2
	l1.9-2.5l-0.7-2.2l-1.3-1.9l-3.3-2.7l-3.4-2.5l-1.5-0.5l-2.5-0.2l-0.8-0.2l-0.8-1l-0.6-1.1l1.6-0.5l2.7-1.3h1.5l4.1,0.7l1.3,0.6
	l1.2,0.4l2.8-2.1l2.2-2.8l1.4-0.6l1.2-0.2l1.2,0.3l2.4,1l1.9,0.5l1.3,0.1l0.7,0.9l0.8,0.4l0.2-1.3l0.7-1.5l1.3-0.5l0.7-0.1l0.5-0.4
	l-0.1-1.4l-1.8-0.2l1-1.2l0.9-0.6l0.3-0.6v-0.7l-3.5,1.4l-3.6,0.6l-2.1-0.2h-2.2l-4.3,0.9h-1.6l-3.8-0.4l-2.1-0.5l-1.6,0.4h-1.6
	L723,520l-1.4-1.4l-0.7-1L720,517l-0.4-0.9l-1-3.5l-0.1-2.5h-1.6l-1.6-0.3l-7.1-2.5l-0.9,0.6l-1,0.3l-1,0.1l-1-0.1l-1-0.4l0.1-0.7
	l0.7-1.6l0.7-0.6l1-0.5l0.6-0.9l1-2.6l0.1-0.9l-0.1-0.9l0.1-0.7l0.6-0.4l2.7-0.8l5.6-1.3l1.4-0.8l1.2-1.2l1.4-0.7l0.6-0.8l0.7-0.6
	l4.3-1.6l1.9-0.1l1.9,0.2l3.8,0.9l3.6,1.5l3.1,2L743.7,496.4L743.7,496.4z M269.7,490.1l1.5,1.6l0.4,0.6l-0.8,0.9l-0.6,1.2l-0.3,0.3
	l-1.2-0.5l-0.8,1.2l-0.5-1.9l-1.2-1.2l0.7-1.3l0.3-0.1h0.4l0.4,0.3l1.8-1.2L269.7,490.1z M647.2,489.8l1.9,2.4l-1.3,2.3l0.9,1.3
	l2.4,0.1l0.6,0.5l0.4,0.6l0.3,0.8l-0.6,0.6l-1.3,0.6l-1.5-0.8l-0.4-0.8l-0.3-0.3l-2.1,0.6l-0.6,0.1l-0.4-1.2l0.5-1.6l-1.4-0.7
	l-1.3-1.6v-0.6l0.5-1.2l-0.1-0.9l0.8-0.1l1.4,1.2l0.6-1.2l0.6-0.5L647.2,489.8z M642,492.7l-1,0.4h-1.2l-0.2-1.7l0.4-2.2l1-0.4
	l1.6,0.5l-0.6,0.6l0.4,1.2L642,492.7L642,492.7z M257.7,490.2l-2.1,0.6l-2.4-0.4l0.3-1l1.2-1.2h1l1.9,0.8l0.6,0.7L257.7,490.2
	L257.7,490.2z M700.2,484.6l2.8,0.7l0.6-0.1l4.1,1.8l0.6,0.9l-0.2,0.6l0.6,0.8l-1.3,1.2l-0.6,0.1l-0.7-0.5l-1.3-0.3l-1.5,0.5l-1-0.4
	l-0.8-1.2l-1.4-0.7l-2-2.3l-1,0.1l0.3,0.9l0.9,0.6l1.2,1.8l0.7,0.2h0.7l0.9,0.8v1.2l-2.4,0.5l-0.8-0.8l-0.2-1.5l-1.3,0.5l-0.5,0.5
	l-0.4,0.1l-0.9-1.6l-2.6-0.1l-1.8-0.9l0.8-0.9l0.1-0.9l1.1-0.5l1.2,0.4l1.2-0.6l0.8,0.2l0.6-0.4l2.3-0.2L700.2,484.6z M171.4,493.2
	l-1,0.8l-1.5-0.7l0.5-1l0.2-1.4l0.9-1.2l0.3-1.3l-1.7-3.7l0.8-0.1l0.7,0.4l1.2,2.4l1,1.5l-0.4,2L171.4,493.2L171.4,493.2z
	 M274.7,487.5l0.5,0.3l0.6-0.8l1.1,1.2l0.7,0.6l0.9,0.6h-0.9l-0.4,0.5l-0.2,0.1l-3.5-1.9l-2.2,0.6l-1.5-0.5l-0.4-0.4l0.8-1l0.8-2.3
	l1.5,0.6l0.4,0.7l-0.1,0.2l1,0.4L274.7,487.5L274.7,487.5z M679.6,487.6h-0.7l-0.6-0.9l-1.6-1.1l-1-1.8l3.8,3L679.6,487.6z
	 M645.3,484.7l-0.1,0.5l-0.5-0.7l-0.3-0.2l0.4-1.7l0.2-0.3l0.3,1.2L645.3,484.7L645.3,484.7z M273.2,483.6l0.1,0.4l-0.8-0.5
	l-0.5-0.3l-0.3-0.3l-1.7-2.2l0.7,0.1l1.9,1.9L273.2,483.6L273.2,483.6z M250.3,475.8l-1.8,0.1l-0.5-0.2l0.2-1.5l0.6-0.9h0.8l0.9,1.4
	L250.3,475.8L250.3,475.8z M644.8,474.2l-0.6,0.2l-0.2-0.1l-0.2-0.6l0.3-1.2h0.7l0.3,0.2l0.1,0.8L644.8,474.2L644.8,474.2z
	 M644,471.8l-0.6,0.5l-0.5-0.2l-0.3-0.7l0.1-0.5l0.4-0.3l0.6,0.2L644,471.8z M253,473.8l-0.3,0.2l-1.4-2.1l0.3-1.2l0.3-0.3l0.8,0.7
	l0.6,0.8l0.5,0.9L253,473.8L253,473.8z M259.2,471.6l0.1,0.5l-1.5-0.9v-0.7l0.2-0.3l0.9,0.7L259.2,471.6z M265.9,471.1l-1,0.5
	l-1.3-1.5v-0.3l0.1-0.3l0.2-0.2l0.8,0.8l0.9,0.3L265.9,471.1L265.9,471.1z M246.1,472.5l-0.3,0.6l-0.6-0.5l-3.2-0.7l-1.1-0.1
	l-2.8-0.8l-0.8-0.4l-0.6-0.5l0.2-1l0.4-0.6l0.2-1.7l0.7-0.7l1.4,1.2l1.5,1.1l0.9,0.5l2.7,1.1l0.9,0.5L246.1,472.5z M252.6,467.6
	l0.1,0.9l-1.1-0.2l-0.8-1.1l0.6-0.7l0.4-0.3l0.4,1L252.6,467.6z M248.3,470.5l-0.5,0.5l-0.8-0.1l-0.9-0.5l-1.2-1l-1.3-0.9l-1.6-0.6
	l-1-0.2l-0.4-0.2l0.4-1.7l1.1-0.1l3.5,1.6l1.2,0.9L248.3,470.5L248.3,470.5z M262.4,465.4l1,0.7l0.8-0.5v0.6l-0.2,0.6l-1,1.7
	l-1.7-0.4l-0.4-0.5l-0.1-0.4l0.2-0.3l0.1-0.8h0.7L262.4,465.4L262.4,465.4z M271.5,464.9l0.1,1.2l0.9,0.6l0.2,0.9l-0.2,1.4l-0.9,1.7
	l-0.4,0.4l-1.2-0.3l-0.4-0.6l-0.2-0.4l0.2-0.3l-0.9-0.4l0.6-0.6l-0.4-0.9l-2.4,0.6h-0.7l-0.1-1l0.1-0.4l1.8-1.3l1.1-0.2l1.2,0.3
	L271.5,464.9L271.5,464.9z M236.3,468.5l-0.8,0.5l-0.9-0.8l-0.8-1.2l-0.4-1.2l-0.3-1.9l-0.1-1.4l0.5-0.8h0.3l1.3,0.8l0.9,1.4
	l0.5,0.4l0.1,1.3l-0.3,1.4L236.3,468.5L236.3,468.5z M155.5,460.8l3.5,4.6l1.4,0.6l1.9,2.1l0.5,0.7l-0.5,1.4l-0.4,4.2l-0.9,1
	l-2.2-0.5v-0.7l-1.3-3.1l-2.3-1.7l-0.9-0.1l-0.6-1.8l-1.2-2.1l-3.6-3.9h2.7l1.3-0.9l0.3-0.8l0.2-0.2L155.5,460.8L155.5,460.8z
	 M237.4,460.9l0.1,2.1l-1.2-0.5l-1-0.8l-1.5-0.6l-1.8-0.2l-1.4-0.5l-0.9-1v-0.5l0.1-0.4l0.3-0.3l6.9,1.9L237.4,460.9z M603.4,468.5
	l-3.1,2.8l-0.9,1.3l-0.8,1.4l-1.2,1.6l-1.4,1.4l-0.7,0.4l-1.7,0.8l-1,0.3l-1.9,0.1l-5.7,1.2l-1.9,0.1h-1.9l-3.5-0.3l-0.7-0.1
	l-1.4-1.4l-1.6-1.2l-1.4-0.1l-1.4,0.1l-10.3,0.1l-3.6,0.2l-3.6,0.5l-2-0.2l-1.9-0.6l-1.5-0.2l-1.5,0.1l-6.8,0.9l-1.7-0.1l-3.5-1.1
	l-2-0.2l-2,0.3l-1.8,1l-0.7,0.7l-1.9,2.3l-1.1,1.7l-0.8,2.1l-0.7,2.1l-0.4,1.7v1.8l0.3,2l0.5,2l0.6,1.5l2.3,3.5l0.5,0.5l2.5,1
	l1.5,1.3l1.4,3.5l1,1.8h1l1.2-0.1l1.9,0.2l1.9,0.5l1.9-1.1l1-2.1l1.1-1.5l2.5-2.9l1.4-1.3l0.9-0.5l0.9,0.2l0.8,0.8l0.9,0.6l1.9,0.3
	l1.9-0.2l2-0.9l0.7-0.6l0.6-0.7l1.7-0.6h4.1l2.1,0.2l3.8-0.2v-0.5l-0.7-0.6l-0.2-0.5l0.7-0.3l2.4-0.7l2.5-0.5l1.8,0.3l1.6,0.9l0.6,1
	l0.3,1.2l-0.6,3l-0.3,0.7l-1.3,0.4l-1.2-0.4l-1.2-1.5l-1.7-0.6l-2.4,0.5l-0.8,0.4l-0.7,0.6l-1.4,1.6l-1.2,1.8l-2.4,2.8l-2.8,2.4
	l-1.4,0.9l-1.5,0.6l-4.9,1.6l-1.3,1.2l-1,1.6l-1.2,0.5l-1.3,0.2l-1-0.3l-1.9-0.9l-0.6,0.7l-0.1,1.2l1,0.4l1.5,1.2l1.2,1.7l0.8,0.4
	l1.7,0.6l0.7,0.5l1.3,1.5l2,3.5l0.7,1.9l1.2,1.5l3.5,2.6l0.2,0.7l-0.2,0.9l0.3,0.8l1.2,1.5l0.3,0.9l-1.3,1.2l-0.1,1.7l-0.8,2.3
	l-0.2,0.8v0.7l0.6,0.7l0.7,0.5l0.9,0.3l0.8,0.5l1.5,1.8l0.8,0.5l0.5,0.7v1l0.7,0.6l0.6,1l1,0.3l0.5-0.3l0.3-0.4l0.8,0.2l0.5,0.7
	l0.3,0.9l0.1,1v2l-0.4,0.7h-0.9l-1.6-0.8l-0.1,0.6l0.1,0.6l-0.8,0.2l-0.9-0.1l-2.3,0.1l-4.3,1.2l-1.5,0.7l-1,1.3l-0.1,0.9l0.4,1.9
	l-0.6,0.7l-2,0.3l-2.8-0.5l-1.7-0.5l-0.9-0.4l-1.2-1.3l-0.5-1.6l0.9-4.9l0.3-0.6l0.4-0.6l0.5-0.9l0.1-1l-1.3-1.3l-2-0.5l-1.7-1.1
	l-6.5-5.9l-0.4-0.6v-1l0.3-0.9l2.1-3.2l0.3-0.6l0.3-2.6l-0.1-2.1l-0.2-2.1l-1-1.3l-1.8-0.4h-1.9l-1.8,0.4l-1.8,1.1l-3.3,2.2
	l-1.3,1.3l-0.3,1.5l0.8,1.6l1,1.5l0.5,1.7l0.7,5.8v0.7l-0.9,1.7l-0.3,3.8l0.4,5.4l0.6,3.3l-0.3,1.8l-1.5,3.9l-0.5,2.1v0.9l1.8,4
	l0.4,1.6l0.2,1.7l-1.9-0.8h-0.9l-0.9,0.2l-2,0.3h-2l-0.7,0.3l-1.5,1.1l-0.9,0.4l-0.8,0.1l-2.7-1.3l-1.5-1.5l-1.4-1.6l-0.3-1.8
	l0.5-1.9l0.7-2l1.4-3.3l-0.1-2.2l0.5-1.8l0.8-1.8l0.3-1.6l0.2-6.3l-0.2-0.6l-1.9-3.8l-0.2-0.6v-1l0.2-1v-0.9l-0.4-0.7L514,541
	l-0.9-0.3l-2,0.3l-4,1l-1.2-0.9l-0.9-1.4l-0.6-1.9l-0.3-2l0.1-1.9l0.6-1.8l-0.5-1.3l-0.7-1.4v-0.7l0.4-0.6l0.7-0.5l0.9-0.3l0.8-0.6
	l2.2-1.9l0.7-1.6v-2l0.6-1.9l1.2-1.8l1.3-1.6l0.4-1.7l-0.6-2.7l0.3-1.2l-0.2-1.4v-1.4l0.8-2.7l2.4-5.5l2.4-2.9l0.9-0.8l1.2,1.4
	l0.9,1.6v-1.4l-0.3-1.4l-0.9-3.3l-0.8-6.4l0.2-0.6l0.8,0.1l0.9-0.6l0.4-1l-0.9-2.4v-0.8l1.7-3.4l1.4-1.2l0.6-0.8l0.3-2l0.7-0.8
	l0.9-0.6l1.2-1.4l0.6-1.8l0.4-0.1l0.5-0.1l0.7,1.6l0.8,0.6l1.6,0.5l1.4-0.6l0.4-0.8l0.5-0.7l0.9-0.7l0.7-0.8l0.8-1.8l1.1-1.7
	l0.7-0.6l0.9-0.4l1-0.2h0.9l2.1,1.1l1.2,0.2l1.2-0.1l0.8,0.2l0.6,0.5l0.5,0.9l0.7,0.8l0.6,0.4l0.7,0.2l4.5-0.3l3.9,0.9l5.4,0.2
	l1.8,0.5l1.8,0.7l2.2,1.3l0.8,0.3l0.9-0.1l1.1-1.2l0.9-0.3h0.9l3.5,0.2l9.3,1.4l1.4-0.2l5.6-2.8l2.3-2.6l2-0.7l0.7-1.2l0.4-1.4
	l0.7-0.4l1.7-0.4l0.7-0.4l1.2-1.8l1.4-1.6l0.7-0.5l2,0.2l0.9,0.7l1.2,2.3l-0.2,0.4l-1.3,1.2l-0.4,0.5l-1.5,3.2l-1,1.6l-1.2,1.4
	L603.4,468.5z M224.5,450.9l0.9,1.3l0.2,0.9l-0.6,1l-0.2,1.4l-1.9,1.2l-1.7-0.3l-0.5-0.4l-1.1-2.3l0.1-2l0.7-0.7l1.5,0.1l1.6-1.1
	l1.2,0.8L224.5,450.9z M649.9,470.9l1.2,0.4l1.2-0.1l0.6-0.7l0.2-0.9l0.6-1.7l1.4-1.2l1-0.2l0.7-0.5l-0.1-1.3l0.1-1.3l1.1-1.4
	l3.3-1.9l1.9-0.7l2.4-0.2l0.3,0.7l-0.3,1l0.5,1.6l-0.2,4.2l-0.6,0.6l-2.5,1.5l-2.8,1.2l-0.8,0.5l-0.7,1.2l0.1,1.2l2.2,1.5l3.5,1.4
	l0.7,0.7l0.5,1.2l0.1,1.3l0.8,0.6l1.2,0.3l0.8,0.6l0.6,0.8l-5.9-2l-1.5-0.9l-1.9-0.1l-1.8-0.3l-1.9-0.8l-2-0.2l-1,0.6l-0.4,1.1
	l-0.2,1.2l0.4,1.5v0.9l-0.4,1.6l1.5,4.8l1.8,3.9l2.7,4l1.3,1.4l1.5,1.2l-2.4-0.4l-0.7-1.3l-3.1-1.3l-0.6-0.8l-2-3.8l-0.6-0.7
	l-1.8-1.3l-0.8-0.9l-0.3-1.3l0.2-1.3l-0.1-1.9l0.1-1.9l0.4-2.3l-0.7-0.8l-0.9-0.7l-1-1.7l-0.3-2l0.1-1.2l0.4-1l0.6-0.9l0.1-0.8
	l-1.4-1.2l-1.5-3.5l-0.1-1.8l1.9-3.5v-1.7l0.4-1l0.2-1.1l1-2.3l1.6-2l2.8-2.8l1.1-0.6l1.2-0.4l0.1,0.7l-0.2,0.6l-2,2.8l-0.3,0.6v1.2
	l1,0.7l1.1,1.4l0.2,1.9v2l-0.2,2l-0.4,0.7l-1.7,2.1l-3.8,2.4l-0.3,0.6v0.7l0.7,0.8L649.9,470.9L649.9,470.9z M153.1,450.9l-0.1,0.4
	l-1.7-1.7l-1.9-0.9l0.8-0.2l1.6,0.3l0.6,0.2l0.6,0.9L153.1,450.9z M661.7,451.3l-2.6,0.3l-0.6-0.8l-0.7-3.5l1.8-2.8l2.3-1.6l1.6-0.4
	h0.5l1.4,2l-1.1,4l-1.2,2.1L661.7,451.3L661.7,451.3z M611.9,441.6l-0.2,0.4l-0.6-1.9l0.5-1l0.7,0.3l0.2,0.3l-0.7,0.9L611.9,441.6
	L611.9,441.6z M138.8,446.3l-1,0.2l-1-0.4l-0.8-0.9l-4.4-2.7h-1.4l-1-0.7l-1.2-0.2l-1.2-1.8l-0.3-1l0.9-0.5l0.6-1l1.5,0.4l1.7,1.7
	l1.7,0.6l0.5,0.3l0.8,1l3.9,2.4l0.4,0.8l0.3,0.8L138.8,446.3L138.8,446.3z M341.9,437.4l-0.8,0.8l-0.8-0.5l1.3-1.7l0.3-0.1
	L341.9,437.4z M290.8,438.1l-0.7,0.1l-0.2-0.5v-0.8l-0.1-0.7l-0.2-0.5v-0.8l0.6,0.4l0.5,0.4l0.6,0.3l0.5,0.2l0.2,0.1l-0.5,1.2
	L290.8,438.1L290.8,438.1z M299.3,433.3v1.2l-1.2-0.7l-0.2-1.2l0.4-0.4l0.8,0.2L299.3,433.3L299.3,433.3z M485.2,431.3l-0.2,0.5
	l-1.4-1.3l-0.4-1l0.2-0.7l1.4-0.1l0.7,0.5L485.2,431.3L485.2,431.3z M616,428.8l-0.4,0.5l-2-0.9l0.1-1.4l-0.3-0.7l-0.5-0.7l-0.2-0.7
	l0.2-0.8l1.2,1l0.7,1.6l0.9,1.5L616,428.8z M635.5,423.4l-0.3,0.2l-0.6-0.4l-0.4-0.5v-0.5l0.4-0.2l0.9,0.7v0.4L635.5,423.4z
	 M633.3,421.7v0.7l-0.9-1.5L632,419l0.8,0.7l0.9,1.4L633.3,421.7L633.3,421.7z M488.9,416.6l0.6,1.6l0.1,0.6l-3,0.8l-1.8-1.9
	l0.4-0.8h1.6L488.9,416.6L488.9,416.6z M332.5,424.7l-2.2,0.6l-1.3-0.8l1.4-1l0.5-0.1l0.3-0.2l0.1-0.4l-2.5-0.7l-0.7-0.6l-0.7-1.5
	v-1l3.2-2.6l0.8-0.3l0.1,1.1l2.2,2.7l0.1,1.8l-0.1,0.6L332.5,424.7L332.5,424.7z M467.2,413.8l0.6,0.3h0.8l1-0.3l2.4,0.2h4.2
	l2.9,0.6l2.8,1.7l1.4,0.3h0.6l-0.1,0.1l-1.2,0.5l-0.5,0.9l1.5,1.4l0.1,0.9l1.2,0.9l1.5,1.3v0.4l0.5,0.6l0.3,0.7l-1,0.7l-1.4,0.1
	l-1-0.7l-0.9-0.9l-0.2,1.1l-0.7,0.6l-2.5-0.2h-1.9l-1.9,0.3l0.9,0.2l0.9,0.3l2.9,2.7l0.6,1l-1,2l0.5,0.8l1.2,0.5l1.4,1l1,0.1
	l0.7,0.6v1l0.4,0.9l-1.2,0.4l1.2,0.2l1,0.5l-0.5,0.5l-0.4,0.6l0.5,0.3l1.4,0.5l0.6,0.5l0.3,1.3l1.3,2.1l2.4,2.7l0.5,1v0.9l-0.4,0.8
	l-1.4,0.9l-1.2,1.2l-0.1,0.4l-1.5,0.6l0.7,0.4l0.6,0.5l1,1.6l2.5,2.7l1.2,1l5.1,3.6l2.7,1.6l3.5,3.6l1.8,0.8l0.4,1l-1.5,1.5
	l-2.2,0.8l-3.6,0.4l-3.7-0.5l-1.9-0.4l-1.6-0.9l-1.3-1.8l-1.7-1l0.7,1.1l0.4,1.2l-0.2,1.2l-0.7,0.9l-1.2,0.7l-1.2,0.6l-0.5,0.4
	l-3.1,6.3l-0.5,1.7l-1,7.1v2l1.4,3.7l0.1,2l0.3,0.8l-0.2,0.7l-0.7,0.4l-2.7,1.2l-1.9,0.9l-1.5,1.4l-1.2,1.7l-1.1,1.2l-1.5,0.6
	l-1.1-0.1l-0.8-0.6l-0.6-1.1l-0.3-1.2l-0.2,0.9v0.9l0.5,0.9l0.2,1l-0.3,1l-0.6,0.8l-1.7,0.9l-0.9,0.7l-0.2,1.3l-0.5,0.7l-0.6,0.6
	l-2.4,1.3L463,513l-0.4,0.7l1.3-0.1l1.2,0.1l0.1,1.3l0.4,1l-0.5,2.1l-1.8,1.4l0.9,0.3l0.8,0.5l1.8,0.3l0.6,1.5l-0.3,1.8l-0.3,1.6
	l-1.3,0.5l-0.8-0.3h-0.8l-0.6,0.5l-0.2,0.8l1.2-0.4l-0.1,2.1l-0.3,2l-0.4,1.2l-0.7,0.9l-1.1,0.3l-1-0.7l-0.2,0.8l0.3,0.7l1.4,1.6
	l-0.9,0.4l-0.6,0.6l-0.3,0.8l-1.5,1.9l-0.7,1.4l-0.3,1.5l-0.7,1.2l-11.4,5l-9.3,4.3l-0.7-0.3l-0.5-0.7l-0.3-6.6l-1.2-3.4l-0.2-1.9
	l-1.3,1.7l-0.8-0.2l-0.9-0.4l-0.6-0.6l-0.1-0.7l0.7-2.1l-0.9,1.2l-0.9,0.9l-1-0.1l-0.8-0.5l-0.3-0.7l-0.4-0.1l-1.9,1.9l-2.7,1h-1.5
	l-1.2-0.6v-1.4l-0.1-1.4l-0.3-0.9l-0.7-0.3l-0.7,0.1l-1.9,0.7l-0.7-0.1l-0.4,0.4l-5.1-5.1l-1,4.1l-3.5,2.2l-2.6,1.3l-2.6-0.5
	l-2.6-0.8l-2.6,1l-2.8,2.4l-0.7,0.4h-0.8l-0.6-0.3l0.2-1.8v-1.8l-0.2-4.1l-0.2-0.8l-0.8-1.2l-1.1-0.8l-0.6,0.6l-0.5,0.8h-2.1
	l-2.1-0.6l-1.8,0.4l-3.5,1.6l-1.9,0.3l-1-0.4l-0.6-0.9l0.4-0.8l0.8-0.6l-1.4,0.5l-1.2,0.8l-0.5,0.5l-0.6-0.3l-1.5-1.8l-3.2,0.7
	l-0.4,0.2L365,533l-0.8-0.3l-0.4-0.7l-0.1-3.9l-1.6-7.4l-0.5-3.8l-0.4-0.9l-1.9-1.4l0.1-1.9l1-1.6l0.2-1.9l-0.3-2.1l-0.6-2l-0.7-1.5
	l-1.1-1.3l-1.4-1.4l-1.7-1.1l-3.7-1.2l-2,0.1l-0.7-0.5l-0.5-0.6l0.2-1.2l0.7-0.8l0.9-0.2l0.1-0.5l-1.9-1l-1.6-1.3l-0.5-0.8l-0.1-0.9
	v-2l0.5-1.3l0.3-0.7l0.5-2.2l1-0.7l-0.2-0.4l-0.4-0.3l-0.6-0.7l-0.5-0.8l-1.2-1.4l-2.1-1.7l-0.4-2.9l-0.3-4.2l0.2-1.9l0.7-3.6
	l1.2-1.2l0.9-0.3l0.7-0.5l-0.6-0.1l-0.5,0.2l-0.9,0.1l0.7-3.2l0.3-0.9l1.5-1.8l1.7-1.6l0.7-1.9l1-1.7l4.1-1.7l-1.5,2.1l0.2,0.8
	l0.4,0.7l1.1,0.5l0.3,2.6l1.3,1.5l1.3,1.4l1,0.7l1.1,1l0.8,0.9l0.8,0.8l1.2,0.7l3.3,3.2l1.4,0.9l1,0.9l0.7,0.3l1.8-0.3l5.3-2.3
	l0.9-0.1l1.7-0.4l3,0.1l3.2,0.8h1l1-0.5l1.4,0.1l1.3,0.2l0.6-0.2l1.9-1.6l2.5-0.5l0.8-1.6l0.6-1.5l0.3-1.6l1.1-0.7l1.5-0.6l2.2-0.7
	l7.6-0.1l0.7,0.3l0.2,0.8l-0.2,0.6l0.3,0.4h1l0.9,0.4l3.8,1.3l1.6,0.4l0.9-0.1l1.8,1.2l1-0.4l1.3-0.8l1.2-1.2l1.1-0.9l1.6-0.3h2.1
	l2.4-0.3l1.8-0.5l2,0.8l0.6-0.2l0.3-0.8l1.1-1.7l0.5-1.2l0.4-2.2l0.3-0.5l0.8-0.3l0.8-0.4l0.2-0.3l0.3-0.8l-0.2-0.6l-0.5-0.5
	l-0.5-1.8l0.1-0.8l0.3-0.6l0.8-0.3l2.2-1.3l1.9-1.5l1.1-0.8l0.5-0.5v-0.7l-0.8-0.7l-0.8-0.3L443,441v-0.6l0.2-0.6l-0.1-0.5v-0.8
	l0.5-0.9l1.2-1.3l0.9-0.8l1,0.5l1.2-0.2l1.2-0.4l0.6-1.5l0.1-0.7l-0.2-0.6l0.4-2.2l0.1-0.3l0.8-1.4l0.1-0.9l-0.4-2.1l0.3-1.6
	l0.1-3.4l0.5-0.6l0.5-1.7l0.8-1.8l1.7-1l0.9-1.3l0.4-0.2h0.6l2,0.9l1.8-1l1.7-0.1l1.4,0.1l0.8,0.4l0.8,0.3l1.6-1l0.6,0.2
	L467.2,413.8z M634.9,419.1l-0.7,0.3l-1.1-0.1l-0.1-0.8l1.1-1.5l0.7-1.6l-0.8-0.4l-0.7-1v-1.2l0.6-2.2l0.9,0.2l0.9,0.9l0.3,1.7
	l0.6,1.3l-1.2,1.8L634.9,419.1L634.9,419.1z M139.3,399.6l2,0.1l3.7-0.9l2,0.1l1.9,0.6l1.7,0.4l4.3-0.5l0.8,0.1l0.8,0.4l0.6,0.6
	l2,2.1l3.3,2.6l0.9,1.7l0.5,1.9l0.3,0.4l3.7,3.6l0.4,1.5l-0.5,2.1l1.1,1.7l3.6,1.5l2.1,1.2l0.5,0.7l0.3,0.8l1.2,1.2l1.5,0.8l4.6,2.1
	l6,4.4l3.5,2.1l2.8,3.2l1,1.5l0.9,1.6l1.7,2.4l3,2.9l0.7,0.9l0.8,1.3l0.9,1.2l1.1,1.2l1.3,0.8l1.3,0.3l2.2,2.1l1.2,0.7l-0.2-1.7
	l-1-1.5V449l0.2-0.8l0.8-0.7l1-0.2l1.8,0.6l2.9,2.5l1.2,1.5l0.9,2l0.8,2.1l1.2,1.1l1.6,0.4l1.8,0.2l1.6,0.6l3.8,2.9l1.3,1.4l1,1.6
	l0.7,1.9l0.4,2l0.3,0.5l2.5,2.4l1.3,1l1.6,0.5l4.6,0.5l1.6,0.8l1.4,1.4l0.6,1.4l-1,1.2l-3.6,1.9l-3.9,1.3l3.8-0.5l1.9-0.6l1.7-0.9
	l1.7-1.1l2.8-1.5l1-0.3l1.2,0.1l1.1,0.4l1.6,1.5l1.5,1.6l1.2,1.9l0.7,2.1l-1.3,1.1l-1.9,0.8l-2.6,2l-0.3,0.8l0.5,0.5l-0.6,1.5
	l1.5,0.9l0.2,0.8l-1.3,1.1l0.1,0.7l1.5,2.9l0.7,0.7l2.3,1.5l3.6,1.5l2,0.7l2.3,0.6h1l1.7-0.2l0.3,0.6l0.7,2.9l0.3,1.8l0.5,3.9
	l0.6,1.6v2l0.9,1.7l1.8,1.1l1.9,0.9l0.9,0.9v1.3l-0.3,1l-0.6,0.8l-1.9,1.7l-0.3,0.7l-0.3,1.8l0.3,0.8h0.8l0.6-0.4l2.3-2.5l0.6-0.4
	l0.9-0.3l0.9-0.2h4.3l1.8,0.4l1.6,0.8l1.4,1l5.2,6.4l2.3,3.6l0.2,0.9v0.9l-0.4,0.7l-2.2,2.4l-0.3,0.7l-0.7,2.6l0.1,1.9l0.7,0.8
	l0.6,0.9v0.8l-1.4,3.9l-0.1,0.7l0.9,6.4l0.1,1.7l-0.2,2.2l0.1,3.5l-1.2,10.9l-0.2,0.6l-0.9,1.7h-1.2l-0.9-0.3l-0.7-0.6l-0.4-0.8
	l-0.5-0.6l-2.8-2l-0.7,0.3l-2.9,2.5l-0.8,0.4l-1-0.3l-1.5-0.7l-4.8-2.6l-0.3,0.8l-0.1,1.2l0.9,2.9l0.1,1.2l-0.9,0.3h-0.5l-2-1.8
	l-1.8-1.8l-2.1-2.5l-1.5-1.2l-1.4-1.3l-3.8-5l-1-0.8l-6-3.5l-1.2-0.8l-1.5-1.5l-1.7-1.4l-3.6-2l-6.2-5.2l-2.7-3l-3-4.8l-1-1.2
	l-5.1-3.6l-2.7-2.2l-1.2-1.2l-2.7-4.4l-0.8-1.5l-1-1.3l-1.6-1.1l-1.4-1.2l-2.9-3.9l-0.9-1.6l-0.7-1.7l0.1-3.4l-6-10.3l-1.5-3.2
	l-1.4-4.5l-0.3-0.5l-3.3-4l-1.2-1.3l-1.4-1.2l-1.2-1.4l-2.3-4.6l-0.8-1.3L190,483l-4.3-1.7l-1.6-1l-1.3-1.4l-0.8-1.7l-0.9-3.7
	l-2-5.6l-2.3-7.5l-1.5-3.4l-1.7-2.7l-0.5-0.6l-7.8-4.8l-1.3-0.7l-1.4-0.4l-2-0.3l-1.6-1.3l-0.6-2.2l-0.4-3l-0.4-1.8l-0.4-1l-3.3-2.1
	l-1.3-1.7l-1.1-1.8l-1-1.4l-3.6-4.9l-1.2-1.3l-1.5-0.9l-4.5-0.9l-1.3-0.8l-2.2-2.8l-1.3-1.4l-3.9-3.1l-6.7-6.5l-1.4-1.6l-1-1.7
	l-0.8-1.8l-2.9-5l0.2-1l0.4-1.1l-0.1-0.9l-0.3-0.9l0.1-0.8l0.8-0.5l1.9-0.6l2,0.1l1.8,0.3l1.8,0.5l1.7,1.1l3,2.7l1.7,0.9l1.9,0.5
	L139.3,399.6L139.3,399.6z M120.8,390.1l-0.3,0.5l-1-0.2l-1.1-1.5l0.4-0.3l0.7,0.2l1.3,0.3l0.1,0.6L120.8,390.1z"/>
<path id="cambodia" class="country" d="M269,314.6l-2.7-2.2l-5.3-0.8l-0.6-0.9l-0.5-0.2l-0.5,1.2l-2.9,1.2l-1.2-0.7l-0.9-0.9l0.1-1.1l0.9-0.9l1.4-0.6
	l0.7-2.2l-1.2-2.8l-1-0.8l-1-0.6l-1.1,1l-0.9,1.8l-0.9,0.9l-1.3,0.2l-2-0.1l-0.8-2.6l-0.3-2.3l0.3-2.6l0.3-1.5l-1.9-2.1l-0.1-2
	l-0.9-1l-0.3,0.5v0.6l-0.3-0.4l-3-5.9l-0.5-2.8l0.5-2.1l0.3-0.7l-0.9-1.2l-1.2-1.3l-2.1-1.5l-0.1-2.6l-0.5-3.1l-0.6-1.1l-1-1.9
	l-0.5-1.6l-0.2-4.2l0.3-0.3l1.5-0.1l1.9-0.3l0.3-0.7l-0.3-0.6l1.2-1l1.8-2.1l1.4-2.2l1-1.4l0.6-1.4l2-1.9l2.8-1.3l1.9-0.3l1.9-0.5
	l1.9-0.7h0.9l2.3,0.8l1.3,0.2h1.3l1.4,0.1l1.2-0.1l2.8-0.5l3,0.4l2.7-0.3l3.3-0.6l1.6,0.4l1.5,0.6l0.2,1.3l0.3,0.6l0.5,0.5h0.7
	l0.8-0.9l0.7-0.9l0.2-0.2v0.5l0.4,1l0.6,1l0.6,0.7l1.1,0.9h0.7l2.3-0.8l3.4,1.2l0.4,0.6l1.1,1.2l1.2,0.9l2.7,0.1l0.9-2.1l-0.5-1.3
	l-1.5-2.3l-0.4-1.3l0.5-0.2l2.6-0.3l0.4-0.3l0.6-1.5l0.7,0.2l1.4,0.2l1.5-1l0.9-1.1l0.5,0.5l0.5,0.7l0.6,0.4l1.1,0.6l1.2,0.9
	l0.7,0.9l0.6,0.3l1.5-0.2h0.4l0.9-1.1l0.6-0.6l0.5,0.2h0.8l1.6-1.4l0.9-1.2l0.5-0.3l1.4,0.6l0.6-0.1l0.8-1.7l0.9-0.7l0.3,0.9
	l-0.7,1.8l-0.7,1.6l-1.4,1.4l-0.1,1l-0.5,3l0.2,1l0.3,0.8l0.4,0.4l1.2,3l1.1,2.7l1.1,2.2l0.2,1.4l-1,3.6l-1.2,3.2l0.1,1.6l0.5,1.6
	l0.5,2.2l0.2,2.8l-0.3,1.8l-0.5,1.2l-1,1.2l-0.9,0.6l-1-1h-0.8l-1.1,0.3l-0.9,0.5l-1.8,1.7l-2,1.6l-2.7,0.4l-1.1,1.2l-1.2,0.2h-2.1
	l-1.4,0.3l0.1,0.6l-0.1,2.9v0.7l-0.2,0.2l-1,0.1l-1.6-0.4l-2.2-0.7l-1.6-0.1l-0.8,1.2l-0.5,0.5l-0.6,0.1l-0.6,0.2l-0.2,0.6l-0.1,0.7
	l0.3,1.2l0.1,1.9l-0.1,1.3l0.6,0.8l3.4,2.8l1,0.7l0.1,0.4l-0.6,1.5l0.5,2.1h-1.1l-1.8-0.9l-0.8-0.6l-1,0.4l-0.4-0.1l-0.7-1l-0.9-1.1
	l-0.9-0.1l-2,0.4l-2,0.3h-0.8l-0.3,0.2l-1.2,1.6l-0.5-0.3l-2-0.6l-1.7-0.2l-0.4,0.4l0.2,1.3l0.4,1.2l-0.3,0.5l-1,0.7l-1.4,1.2
	l-0.8,0.9l-0.6,0.2h-2l-2.1,0.1l-0.8,0.9l-0.8,0.7L269,314.6L269,314.6z M246.4,300.2l-0.3,0.2h-0.3l-0.3-0.2v-1l0.2-0.6l0.5-0.1
	L246.4,300.2z M250.8,309.6l-0.6,0.6l-0.9-1.3v-0.4L250.8,309.6L250.8,309.6z"/>
<path id="lao_pdr" class="country" d="M231.4,111.6l0.9,1.7l1.9,1.9l2.3,2.6l0.7,1.2l1.5,0.9l0.5,0.9l0.3,1.4l0.2,1l0.3,0.6l0.5,0.2l0.7-0.3l0.5-0.6
	l0.4-1.5l0.3-0.2l0.5,1.3l0.5,0.2l0.7,0.2l0.5,0.5l0.2,1l-0.2,1l-0.6,1.2l-0.4,1.2l-0.2,1.8l-0.3,1.2l0.5,1.2l3.6,5.4l1.7,0.9
	l4.1,1.1l1.5,0.7l1.3,0.7l1.3-0.3l1.2-1.6l1.5-0.9l2.8-1.4l0.8-0.1l1.5,0.5l2.5,1.6l1.8,1.5l1.2,0.8l0.9,0.7l-0.1,0.8l-0.7,0.8
	l-0.9,0.4l-1.2,0.8l-0.7,0.8l0.4,0.3l1.7,0.2l2,0.7l0.6,0.8l0.1,0.7l0.3,1.2l0.3,0.3l1.9-0.2l0.6,0.3l0.7,0.6l0.7,1.5v1.2l-1.4,1.2
	l-0.5,0.7l-0.2,1.2l-1,1.4l-2.5,2.3l-0.7,0.1l-4.7-1.3l-2.2,0.1h-1l-0.5,0.1l-0.3,0.5l0.6,1.4l0.2,1.4l-0.6,1.1l-1.6,0.9l-0.6,0.4
	l-0.1,0.6l0.4,0.6l1.4,0.6l1.7,0.6l5.5,3.6l1.2,0.9l1.6,1.3l1.7,1l4.5,1.3l2,0.8l0.5,0.5v0.5l-0.5,0.8l-0.4,1.3v0.8l0.5,0.8l0.8,1.2
	l1.8,1.8l1,0.8l1.1,0.2l1,0.4l1,1.3l1.2,1.6l0.1,1.2l0.5,1.4l1,1.6l1.4,1.6l2,2l1.2,1.4l0.5,0.5l4.3,3.4l1.1,1.2l1.5,2.4l0.6,0.4
	l0.6,0.5l0.4,1.3l0.1,0.9l0.2,2.9l0.8,0.9l0.7,1.1l0.3,0.8l0.7,0.6l0.7,0.1l0.8-0.6l0.7-0.6l0.3,0.2l0.7,2l0.6,0.7l1.2,0.7l1.1,0.5
	l2.4,2.4l1.3,0.9l0.9,0.3l0.8,0.4l0.2,0.8l-0.3,0.8l-0.5,0.5l-2.8,1.4l-0.4,0.6l0.4,0.9l0.7,1.2l0.8,1l1,1l2,1.6l1.7,1.2l0.9,1.4
	l0.5,0.9l-0.3,1.2l-0.7,1.2l-0.6,1l-1,0.6l-0.3,0.7l0.4,1.1l0.3,0.7l-0.2,0.9l0.1,1.9l-0.9,0.7l-0.8,1.7l-0.6,0.1l-1.4-0.6l-0.5,0.3
	l-0.9,1.2l-1.6,1.4h-0.8l-0.5-0.2l-0.6,0.6l-0.9,1.1h-0.4l-1.7,0.1l-0.6-0.3l-0.7-0.9l-1.2-0.9l-1.1-0.6l-0.6-0.4l-0.5-0.8l-0.5-0.5
	l-0.9,1.1l-1.5,1l-1.4-0.2l-0.7-0.2l-0.6,1.5l-0.4,0.3l-2.6,0.3l-0.5,0.2l0.4,1.3l1.5,2.3l0.5,1.3l-0.9,2.1l-2.6-0.1l-1.2-0.9
	l-1.2-1.2l-0.4-0.6l-3.4-1.2l-2.3,0.8H284l-1.1-0.9l-0.6-0.6l-0.6-1l-0.4-1v-0.5l1-0.4l1.6-0.8l1.3-0.9l0.9-1l0.3-1V244l0.4-3.1
	l0.4-1.5l-0.2-1.8l-0.7-1.4V234l0.3-1.1l0.1-0.7l1-0.9l0.7-1.3l0.4-1.7v-1.2l-0.3-0.7l-1-0.7l-1.6-0.7l-0.9-0.9l-0.4-1v-0.9l0.5-0.8
	l-1.2-0.8l-3-0.9l-1.7-1.2l-0.3-1.3l-1.2-1.7l-2.1-2.1l-1.2-3.1l-0.1-4l0.2-3.3l0.9-3.8l-1.2-2.8l-1.4-1.4l-1.9-1.1l-1.8-1.5l-1.7-2
	l-2-3l-2.4-3.9l-1.6-1.7l-0.8,0.4l-1.7-0.4l-2.7-1.2l-2.3-0.6l-2-0.1l-1.3,0.3l-0.6,0.6v0.6l0.5,0.6l-0.3,0.5l-1,0.3l-0.8,0.6
	l-0.9,1.4v0.1l-0.6,1.9l-1,0.7l-1.5,0.2l-1.5,0.5l-1.5,0.9l-0.7,0.7l0.1,0.5l-0.3,0.1l-0.7-0.3l-0.3-0.6v-1l-0.8-0.6l-1.5-0.3
	l-1.7-1l-2-1.8l-1.4-1l-0.8-0.1l-1.1,0.7l-1.4,1.5l-1.2,0.6l-0.9-0.3l-0.7,0.5l-0.5,1.4l-0.9,1.1l-2,1.2l-0.1,0.1l-2.3,1.6l-1.9,1.6
	l-2.2,2.2l-1,0.3l-1-0.5l-1.5-0.5l-0.8-0.7l1.5-3.6l1.9-4l0.5-1.9l0.1-1.4l-0.2-1.1l-0.7-1.2l-0.7-0.9l-0.1-0.6l0.2-0.6l0.8-0.9
	l1-1.5l0.9-3l1.1-3.2l-0.1-1.9l-0.9-2.1l-0.5-2l0.4-2.7l-0.1-1.1l-0.9-0.5l-3.1-0.5l-1,0.1l-0.8,0.3l-0.8,0.8l-1,0.5l-1.9,0.3
	l-1.8-0.9l-1.5-1.6l-0.4-1.9l1.2-2.3l0.8-1.9l0.5-1.6v-0.8l-0.3-0.8l-0.5-0.1l-1-1l-0.9-1.7l-0.9-0.8l-0.8,0.2l-0.8,0.7l-0.7,1.2
	l-0.6,0.5l-0.4-0.2l0.1-1l0.1-1l0.9-3.8l1.1-2.5l1.3-1.2l1.3-0.5l1.4,0.2l1.2-0.2l0.9-0.6l-0.1-0.3l-1.2-0.1l-0.4-0.7l0.2-1.2
	l0.5-0.8l0.8-0.4l0.7-1.2l0.7-2.1l0.9-1.1h1l1.8-0.9l2.5-1.8l1-1.7l0.9,0.8l-0.3,2l0.5,0.4l0.2,0.7l-0.1,1.2l0.2,0.9l0.4,0.5
	l0.5,0.2l2.6-0.8h1.6l0.7,0.5l0.6,0.3l0.8,0.3l0.6,0.3l0.4-0.1l0.9-0.8l0.3-0.2v-0.4l-0.6-0.8l-0.7-0.6v-1.4l0.3-2.4l0.1-1.2l-0.1-3
	l-0.1-0.8l-0.6-1l-1.6-1.9l-0.5-1.2l-0.3-1.2v-0.7l-0.4-0.8l-0.2-0.8l0.7-0.4l0.9-0.9l0.4-1.4l0.4-1l0.6-0.4l0.5-0.2l0.3,0.1
	l1.3,1.8l1.7-0.9h1.3l1.1,0.5L231.4,111.6z"/>
<path id="myanmar" class="country" d="M215.2,125.8l-1,1.7l-2.5,1.8l-1.8,0.9h-1l-0.9,1.1l-0.7,2.1l-0.8,1.2l-0.8,0.4l-0.5,0.8l-0.2,1.2l0.4,0.7
	l1.2,0.1l0.1,0.3l-0.9,0.6l-1.2,0.2l-1.4-0.2l-1.3,0.5l-1.3,1.2l-1.1,2.5l-0.9,3.8l-0.1,1l-2-1.1l-0.8-0.6l-1-0.2l-1.1,0.7l-0.9,0.8
	l-0.9,0.3l-1.3,0.1l-1.7-0.4l-1.2-0.3l-0.2,0.2l0.6,1.6l0.2,1.3l-0.3,0.7l-0.6,0.5l-0.9,0.4l-1,0.3H185l-1.4-0.6h-1.1l-0.9,0.3
	l-0.6,0.4l-0.3,0.6l-0.5,3.1l-0.5,1L179,157l-0.7,0.1l-0.9-0.1l-1,0.1l-4.4,1.2l-0.6,0.1l-1.4,0.1h-1.3h-0.9l-2.2-1.2l-1-0.1
	l-0.6,0.4l-0.4,1.7l-1.2,1.1l-1.6,2.3l-0.4,3.3l0.2,2.3l-1.5,2.3l-0.1,1.2l0.8,5.3l-0.1,0.6l-0.3,0.3l-0.9,0.2l-1.5,0.6l-1,0.5h-0.5
	l-1.4-0.4h-0.4l0.1,0.4l1.2,2.3l1.2,1.1l1.2-0.1l0.5,0.2l-0.1,0.6l0.5,1.4l1.2,2.3l0.3,1.8l-0.7,1.7l0.1,0.6l0.4,0.4l1,1.6l2.2,2.5
	l2.2,2.7l1.8,2.3l1.3,1.6l3,2.9l0.5,1.4l0.1,2.8l0.7,1.6l0.7,1.2l0.5,1l1.2,3.1l0.5,0.4l2.4-1.9l0.6,0.4l0.3,0.7v0.9l-0.4,1
	l-0.8,0.9l-3.7,2.2l-0.3,1.9l-0.3,2.9l-0.1,3.5l0.2,2.6l-0.1,0.6l-0.4,0.2l-1.4-0.1l-2.1,1.3l-0.7,0.1l-0.9,0.5l-0.7,0.6l-0.2,1
	l0.4,2.9l0.7,2.7l1.4,2l1.2,1.6l1.5,2.2l1.2,1.9l2.5,2.1l3.5,3.1l1.3,1.7l1.2,2.1l0.8,1.8l0.3,2.3l0.3,1.3l0.1,4.4l-0.6,1L182,270
	l0.3,1.2l0.8,1.2v1.3l0.8,2.4l1.3,1.5l1.2,1l0.5,0.8l-0.2,1.2l0.4,1.3l0.3,1.4l0.5,2l1,1.7l1.5,5.1v0.5l-0.6,1l-0.9,0.9l-0.6,0.3
	l-0.6,1l-1.4,2.7l-2.8,4.7l-2.7,3.1l-2.3,2.2l-1.6,1.3l-0.5,0.8v0.6l0.3,1.1l-0.1,2.1l-0.3,1.3l-0.5,1.4l-0.3,1.2l-0.7,0.2l-1.6,2.4
	l-0.7-1.2l-0.4-1.2l0.4-2.8l-0.9-5.3l0.6-0.7l0.6-0.4l1-2l1.4-2l0.1-2.4l1-1.8l-0.2-1.5v-1.7l0.2-1.4l-0.1-1.2l0.8-1.2l1.4-0.9
	l-0.6-0.3l-0.6-0.7l-1.8,1l-0.9-0.3l-0.2-1.1l0.2-1.2l0.1-0.7l0.7-0.8v-1.5l-0.4-1.3l0.5-1.6h-1.1l-0.5-0.3l0.3-0.9l1-0.8l-0.9-1.5
	l0.7-1.6v-2l-0.5-1.8v-1.3l-0.7-2.3l-0.3-2.9l-1.5-2.2l-1.1-3.2l-2.9-4.2l0.1-1.8l-0.1-1.6l-0.6-0.8l-0.8,5.6l-0.6-1.1l-0.2-3.1
	l-0.4-1.5l0.5-2.9l-1.7-2.9l-0.4-2.1l-1.1-3.2l0.3-0.7l1.5,0.7l-1.4-1.9l-1.1,0.4l-0.9-2l-0.2-5.5l-0.9-2l0.5-2.1l-1-7.5l-2.1-2.4
	l0.4-2.1l0.5-1.9l-0.1-3.5l0.5-1.1l1-0.8l-0.9,0.3l-0.8,0.2l-1.9,0.2h-2.1l-0.7-2.5l-1-1.2l-0.9-2.5l-0.5-2.9l0.3-0.6l-1.6-1.2
	l-0.4-0.7l-1.7-1.9l-2-1.4l0.4,1l0.5,0.6l-1,1.7l0.9,2.9l-0.8,1.9l-0.8,2.4l-0.7,1.2l-2.3,2.5l-1.9,0.8l-1.2,0.2l-1.1-0.3l-1.3-1.3
	l-0.3-1.1l-0.2-1.8l-0.5-0.3l-0.5,0.2l0.8,2.3v1.1l1.4,2.1l-0.5,0.6l-2.6,1.2l-0.9-0.2l-0.6,0.2l-0.2,0.9l-0.3,0.5l-4.1,1.3
	l-0.8,1.6l-0.5,1.6l-2,2.3l-2.7,1.9l-0.7-0.1l-0.8-0.5l0.1-2.1l0.9-1.8l-0.3-1.9l-0.2,1.1l-1.7,2.6l-0.8,0.9l-1.6-0.2l-2.2,0.4
	l-0.8-2.7v-0.9l-0.2-0.8l0.3-0.9l-0.1-0.7l-0.6,1.3l-0.2,1.2l-0.8,1.1l-2.2,1.2l-0.1-1.4l-0.1-1.3l0.5-1.2l-0.1-1.8l0.7-2.7
	l-0.1-0.9l-0.2-1l-0.4,1.5l-0.2,1.5l-0.5,0.5l-0.8,0.3l-1.5,1.7l-0.9,1.6l-2.3,1.5l-1.2-0.2l-0.2-1.9l0.9-6.6l0.9-0.9l0.4-1.2
	l0.8-3.9l0.9-1.5l0.3-3.1l0.3-0.5l1.2-2.4l0.4-4.4l-0.5-2.2l-1.1-2.1l-1-6.4l-2.7-5.2l-0.2-1.7l-1.3-2.1l1.2-0.2l-2.5-1.9l-0.3-0.8
	l-0.5-4.3l0.1-2.4l-0.4,0.3l-0.3,1.5l-1,0.6l0.4,2.6l-0.1,0.6l-0.5,1l-2.1-1l-1.5-1.2l-1.7-2.8l-1.7-3.1l0.6-0.5l0.8-0.1l2.4,2.3
	l1.6,0.5l1-0.6l1.2-1l0.6-1.9l-0.6-0.7l-1.2-0.4l-0.8-0.5l-1.2-1.3l-0.2-0.7l-0.3-0.8l-1.2-0.6l-0.9-0.8l0.8-1.4l0.8-1h-2l-2.3-1.7
	l-0.5-0.5l-0.8-0.3l-1.8-0.2l-1.5,0.5l0.7,2.5l-0.1,0.8l-1-0.1l-2.1-3.7l0.6-1l0.9-0.9l-0.5-0.1h-0.9l0.9-3.3l-0.5-0.5l-0.3,1.1
	l-0.5,1l-1.8,2.3l-0.9-0.5l-0.6-0.6l0.9-1.2l0.5-0.3l0.3-0.7l-0.7-1.3l-1-0.9l-0.8-1.4h-0.4l0.4,1.9l-0.2,2.7l-1.9-3l-3.8-4.3
	l-0.9-1.3l-0.2-1.3l-0.4-1.2l-0.3-1.3l-0.1-1l-0.8-0.9l-0.4-1.6l-0.2-1.6l0.5-1.2l1.2-1.2l0.8-0.2l0.7,0.5l1.6,0.8l1.1,0.8l0.5,1
	l0.5-0.1l0.5-0.6l-0.1-0.8l-0.5-2l-0.2-2.5v-5.8l-0.1-0.7l0.9-0.6l0.4-0.7l0.4-1l0.2-0.4h0.5l0.8,0.5l1.4,1.7l0.9,0.4l0.9-0.3
	l0.9-2.5l0.3-0.7l0.5-0.4l0.8,0.1l0.5-0.5l0.2-1.1V112l-0.9-3.3l-0.3-1.5l-0.2-1.5l0.6-1.5l0.8-1.8l-0.2-1.6l0.2-0.6l0.6-0.1
	l0.8,0.4l0.9-0.3l0.7-1l0.3-0.8l0.4-3.7l0.3-3.3l0.1-2.7L88.3,87l-1.1-4.4l0.3-0.8l0.5-0.2l1.6,1.5l0.7,0.3l1.2-0.2l1.2-0.3h0.8
	l1.2,0.5l1.6,0.6l2.5,0.7l1,0.5l0.9-0.1l0.7-1.7l0.8-2.6l1.2-3.7l1.4-2.7l0.4-0.7l1.5-2.2l1.5-2.3l1.3-2.9l0.7-2.1l-0.1-0.9
	l-0.5-0.7l-1-0.5l-0.8-0.5l-0.2-0.4v-0.5l0.4-1.4l0.7-1.6l0.7-0.9l1.9-1.2l1.2-1.4l1.4-1.9l0.8-1.3l0.4-2.6l0.4-0.5l0.8-0.8l0.6-1
	v-0.5l-0.3-0.4l-0.6-1.8l-0.3-2.8l0.1-2.3l0.5-0.9l0.6-1.3l1.2-0.8l1.7-0.6l2.6-1.5l4.5-3.5l1.6-1.2l1.1-0.6l1.1-1.5l1.5-1.6
	l2.1-0.8l1.4-0.3l6.4-1.2l1.1,0.1l1.1,0.6l1.3,2.2l1.2,0.8l1.4,0.6l1-0.2v-0.9l-3.3-5.1l-0.3-1.4l-0.1-1.3l0.4-1l1-1l1.5-1.1
	l1.8-1.4l1.2-1l1.3-0.3l0.5-0.6l0.1-0.8l-0.1-0.9l-0.6-1l0.1-1.3l0.2-1.2l0.6-0.7l1.2-1.8l0.8-1.3l0.4-0.6l0.6-1l1-0.1l1,0.3
	l0.6,0.6l0.6,1.2l0.6,0.9h0.8l0.8-0.1l0.4,0.1l0.8,0.8l1.4,1.9l0.6,0.5l0.6,0.8l0.3,1.6l0.2,1.6l1.8,5.6l0.5,1.2l0.4,0.9l0.8,0.2
	l0.7-0.9l0.3-1l0.7-0.3l0.9,0.2l1.6,0.9l0.8,0.5l0.4,2.8l0.1,3.2l-0.1,1l0.7,2.7l0.2,3l0.1,1.7v1.6l-0.1,2.1l-0.5,2.8l-0.6,2.3
	l0.2,2l-0.4,0.9l-1.5,0.5l-0.1,0.8l0.4,1.2l1.1,1.5v1l-0.5,0.7l-1.1,0.1l-1.5,0.6l-1,2l-1.2,1.6l-0.6,0.3l-2-0.5l-0.5,0.4l-0.7,2.8
	l-0.6,1.2l-0.9,1l-0.8,0.6l-0.7,0.4l-1.6-0.3l-0.8,1.7l-0.9,2.2l-0.1,1.2l0.4,1.8l-0.2,0.5l-0.9,0.4l-1.4,0.8l-0.9,2.6v2.5l0.5,0.8
	l1,0.4l0.7,0.8l0.1,1.2l0.6,1.5l-0.3,1.7l-2,2.5l-0.1,1.4l1.1,0.4l0.9-0.2l1.2-0.6l1.3-1l2.9-1.4l3.2-0.8l2.5-0.2h2.2l1.1,0.3
	l0.3,0.5l3-0.8h0.6h0.5v0.5l-2.2,2.3l-0.4,1.1l0.1,1.2l0.9,1l0.9,0.8l0.7,2l-0.6,1.8l0.4,0.7l0.6,0.8l0.4,1.1l0.1,1.3l-0.4,2.1
	l3.1,1.1l2.7,0.5l2,0.1l1.3,0.5l0.8,0.4l0.5,0.7l0.2,0.8l-0.7,0.6l-1.3,1.8l-0.8,2.4l0.1,1.8l-0.1,1.6l-1.5,2.2l-0.6,1.5l-0.5,1.6
	v0.7l0.3,0.5l0.7,0.3l1.2,0.2l1.4-0.2l3.3,0.4l3.8,0.7l1.5,0.4l0.5,0.7l-0.1,1.5l-0.3,1.4l0.2,1.2l0.6,1l1,0.3l0.9,0.4l0.2,0.8
	l-0.3,1l0.5,0.8l0.5,0.5l1.1,0.3l2.2-0.7l1.5,0.3l1.4,0.5l1.2-0.2l1.2-0.6l2.6-2.6l3-1.4l1-0.3l0.7,0.2l0.2,0.2v0.5l0.3,2.2
	L215.2,125.8L215.2,125.8z M82.4,154.3l0.2,1.7l-0.8-0.7l-1-2.3v-1.5l0.7,0.7L82.4,154.3L82.4,154.3z M90.2,154.9l0.3,2.4l-1.2-0.9
	l-0.4-1.2l-0.1-1.3L90.2,154.9L90.2,154.9z M93.9,160.6l1.9,1.4l0.7-0.1l1.2,0.9v0.4l-0.2,0.7l-0.5,0.6l-1.4,0.6l-1-0.5l-0.4-1.6
	l-1.2-0.7l-0.3-0.6l0.7-0.9L93.9,160.6L93.9,160.6z M93.5,175.7l-0.3,0.2l-1.7-1.4l-1.4-1.8l2.1-0.4l2.1,0.4v1l-0.4,1.6L93.5,175.7z
	 M157,217.1l-0.6,0.2l-0.9-1.2l-0.2-2.6l0.8-0.6l0.4-0.1l0.6,0.3l0.2,0.4l0.1,0.5l-0.2,0.5L157,217.1L157,217.1z M106.3,222.3
	l-1.1,1.7l-0.4-2.5l1.7-1.4l0.9-1.3l0.9-0.9l0.3,1.1l-0.9,2.1L106.3,222.3z M111.7,224.4l-0.3,0.4l-0.7-0.3l-0.2-0.2l1.5-1.9
	l0.2,0.7L111.7,224.4L111.7,224.4z M169.1,270.1l-0.1,2.7l-0.8-1.3L168,270l0.1-1.4l0.2-0.2l0.1,0.2l0.5,0.6L169.1,270.1
	L169.1,270.1z M170.7,278.4l0.4,0.5h0.5l-0.1,1.6l-1.3,2l-0.8,0.3H169l0.3-2.9l-0.5-1.7l0.2-1.2l1.4,0.5L170.7,278.4L170.7,278.4z
	 M165,281.9l-0.1,0.6l-0.9,1.2l-0.8-0.7l-0.2-0.4l0.8-0.8l0.9,0.1l0.2-0.2L165,281.9L165,281.9z M166.2,285.9L166,286l-0.3-0.1
	l-0.5-0.3l-0.6-1.2l0.3-0.8l0.2-0.2h0.5l0.3,0.1l0.1,0.3l-0.2,0.6v0.5L166.2,285.9z M172.4,289.9l-0.7,0.1l-0.3-2.7l0.2-0.4l1,1.3
	l1.4,0.8l-0.5,0.5L172.4,289.9z M165.2,293.5l0.1,0.9l-1-1l-0.2-2.7l0.8,1.7l0.3,0.4L165.2,293.5L165.2,293.5z M173,292.6l-0.4,3.4
	l-1-0.5H171l-0.6-1.9v-0.5l-0.4-1.3l2.4-0.2L173,292.6L173,292.6z M167.5,297l-0.1,0.4h-0.1l-0.4-0.3l0.2-1.6l0.6-1.3l0.6-1.9
	l0.3-0.4l0.1,1l-0.4,2.1l-0.3,1.2L167.5,297L167.5,297z M172.8,305.6h-0.4l-0.3-0.1l-0.3-0.3l0.8-1.8L172.8,305.6z M167.3,305.7
	l1.4,2.9l-0.1,0.4l-0.2,0.2l-0.3-0.1l-0.5-1.5l-1-1l-1.2,0.2l1-1.3l0.4-0.3L167.3,305.7L167.3,305.7z M166.9,322.6l-0.8,1h-0.3
	l0.4-1.6l1.3-1.2l1.2-0.1l-0.1,0.7l-0.8,0.9L166.9,322.6L166.9,322.6z"/>
<path id="malaysia" class="other" d="M476.8,367.9l-1,0.9l-0.3-1l0.1-1.3l1.3-1.2l1.9-0.2l0.3,1l-0.2,1.2l-0.5,0.6L476.8,367.9L476.8,367.9z
	 M483.9,416.9h-0.6l-1.4-0.4l-2.8-1.7l-2.9-0.6h-4.2l-2.4-0.2l-1,0.3h-0.8l-0.6-0.3l-0.6-0.2l-1.6,1l-0.8-0.3l-0.8-0.4l-1.4-0.1
	l-1.7,0.1l-1.8,1l-2-0.9h-0.6l-0.4,0.2l-0.9,1.3l-1.7,1l-0.8,1.8l-0.5,1.7l-0.5,0.6L451,424l-0.3,1.6l0.4,2.1l-0.1,0.9l-0.8,1.4
	l-0.1,0.3l-0.4,2.2l0.1,0.6l-0.1,0.7l-0.6,1.5l-1.2,0.4l-1.2,0.2l-1-0.5l-0.9,0.8l-1.2,1.3l-0.5,0.9v0.8l0.1,0.5l-0.2,0.6v0.6
	l0.1,0.9l0.8,0.3l0.8,0.7v0.7l-0.5,0.5l-1.1,0.8l-1.9,1.5l-2.2,1.3l-0.8,0.3l-0.3,0.6l-0.2,0.8l0.5,1.8l0.5,0.5l0.2,0.6l-0.4,0.7
	l-0.2,0.6l-0.8,0.4l-0.8,0.3l-0.3,0.5l-0.4,2.2l-0.5,1.2l-1.1,1.7l-0.4,0.8l-0.5,0.2l-2-0.8l-1.8,0.5l-2.4,0.3h-2.1l-1.6,0.3
	l-1.1,0.9l-1.2,1.2l-1.3,0.8l-1,0.4l-1.8-1.2l-0.9,0.1l-1.6-0.4l-3.8-1.3l-0.9-0.4h-1l-0.3-0.4l0.2-0.6l-0.2-0.8l-0.7-0.3l-7.6,0.1
	l-2.2,0.7l-1.5,0.6l-1.1,0.7l-0.3,1.6l-0.6,1.5l-0.8,1.6l-2.5,0.5l-1.9,1.5l-0.6,0.2l-1.3-0.2l-1.4-0.1l-1,0.5h-1l-3.2-0.8l-3-0.1
	l-1.7,0.4l-0.9,0.1l-5.3,2.3l-1.8,0.3l-0.7-0.3l-1-0.9l-1.4-0.9l-3.3-3.2l-1.2-0.7l-0.8-0.8l-0.8-0.9l-1.1-1l-1-0.7l-1.3-1.4
	l-1.3-1.5l-0.3-2.6l-1.1-0.5l-0.4-0.7l-0.2-0.8l1.5-2.1l1.1,2.3l0.4,0.5l2.4,1.5l2,0.8l2.1,0.3l2.2,0.1l0.8-0.1l0.8-0.3l0.8,0.3
	l4.5,2.5l1.7,0.4l1.9-0.2l0.7,0.2l2.6,1.9l0.8,0.2l1.3-0.1l-1.6-0.9l-1.1-0.6l-0.5-1.2l0.3-1.2l1-0.8l0.7-0.9l0.3-2.6l0.5-1.4
	l0.9-1.3l0.3-1.2l-1-0.9l-0.2-1.6l0.2-1.3l0.6-0.9l0.9,0.6l0.9,0.6h0.9l0.6-0.2l0.1-0.7l-0.2-1.2v-2.2l1.2-1.8l1.8-1.2l1.7-0.6
	l6.4-1l10.1-2.5l3-1l1.2-0.5l0.9-0.7l1.6-2.3l2.9-3.5l2.1-2.9l4.3-4.2l3.5-3.9l0.5-0.7l0.6-2.2v-1l-0.1-1l0.5-0.5l0.7-0.3h0.2
	l0.5,0.5l1.2,0.6l0.9,0.8l0.6,1l0.4,1v0.8l0.5,0.7l1.5,0.1l0.5,0.8l1.1,1.5l1,1.1l0.6,0.4l0.8-0.2l1.2-1l0.8-1.2l0.6-1.6l-0.4-0.2
	l0.8-1.2l0.2-0.6l-0.4-0.6l-0.5-0.6l-0.2-1.4l-0.3-1.8l-0.2-0.8l0.6-0.6l1.3-0.8l1.3-0.9l1.3-0.7v1.3v2.1l0.4,1.8l0.9,3.1l1,0.4
	l1.2,0.3l0.7-0.1l0.5-0.2l0.1-0.3l-0.8-1.2l-0.2-2.9l-0.6-1.9l-1-1.9l-0.5-0.5l3.8-0.5l0.9-0.6l1.6-1.6l0.6-0.7l0.5-1.7l-1.9-1
	l-0.7-1.2v-1.4l2.2-2.5l0.8-0.6l0.3,0.9l1,0.2h0.9l0.9-0.1l1.3-1.3l0.7-1.8l2.3-2.6l0.8-2l0.5-2.1l5.8-6.4l0.7-1l3.5-6.5l0.4-0.2
	l0.9,0.6l0.3,2l-0.1,0.9l-0.6,1.3l-0.3,1.4h0.4l1.6-0.8l1.7-2.3l1-2l0.8-0.8l1.7,0.5l0.4,0.3l-0.1,1.4l0.2,0.8l0.6,1.7l1.4,1.1
	l1.9,0.7l1.8,1l0.6,0.6l0.4,0.8l0.4,1.3v1.3l-1.3,1.3l0.6,2L485,387l-0.4,1l-1.9,0.9l5.2-0.9l1.3-0.5l1.8-1.3l0.9,1.2l0.9,2
	l-0.7,0.5l-2.3,0.7l-0.1,0.3l0.8,1l0.9-0.1l1.9-0.7l1.7-1.1h0.8l0.9,0.2l1.7,0.7l0.9,0.6l0.8,0.7l0.5,1.5l2,0.5l4,2.1l0.7,0.2h0.8
	l2.1-0.3l0.7,0.3l0.5,0.8l0.2,0.9l-0.1,1l-0.2,0.8l-0.5,0.6l-1.4,1l-3.6,1.3l-3.9,1l-2-0.1L497,403l-1,0.1l-1,0.4l-1.2,2.6l2.3,2.6
	l3.9,2.7l0.5,0.7l-0.1,0.8l-0.6,0.5l-0.8,0.3l-2.2,0.4l-2.2,0.3l-1.8,0.5l-1.8,0.6l-1.8-0.2l-2.5-1.2l-0.7-0.1l-0.8,0.6l-0.8,1.7
	l-0.5,0.4L483.9,416.9z M230.9,383.1l2.8,0.6l1.1,0.5l3.2,5.1l4.2,3.5l1.8,1.3l1.4,0.6l1.9,1.9l1.6,2.4l3.6,6.7l0.6,2.9l0.2,4.5
	l-0.8,6.8l-1,3.4l0.2,1.6l1.3,2.4l-0.4,2.3l0.3,1.9l-0.1,5.3l0.8,1.6l0.8,1l4.5,3.2l0.3,1.2l2.2,4l4.1,8.7l1.2,3.9l-0.1,1.1
	l-0.5,0.4l-1.2,0.4l-1-0.8l-0.3-0.6l0.1-0.7l-0.4-0.7l-1-0.8l-0.6-0.7l0.2,1.2v1.5l-1.2,0.1l-1.6-0.5l-2,0.4l-2.3,1.9l-1.2,0.1
	l-0.9-1.6l-0.4-1.2l-0.7-0.8l-7.6-3.9l-2.8-1l-2.9-3l-6.6-3.4l-4.2-3.3l-1.8-2l-4.3-1.8l-1.8-2.1l-0.9-0.4l-0.9-0.8l1-2.1l-0.4-2.1
	l-0.5-1.8l-3-3.6l-1.5-2.5l-2.8-2.5l-1.2-1.4l-1.1-1.7l0.7-0.6l0.6-0.3l-0.6-1.2l-1.6-2.1l-0.8-2.4V409l-2.3-6.4l-2-8.9l0.4-3.1
	l-0.5-3.4l-1.3-3.2l-1.7-2.3l-0.6-1.9l0.3-0.8l0.4-2.5l0.3-0.5l0.6-0.2l0.7,0.1l1.4,2.2l3.6,1.3l1.1,0.3l1.4-0.5l0.6,0.3l0.6,0.6
	l0.4,1.5l0.9,1.4l1.9-0.2l0.7,0.2h0.4l0.4,1.2l0.2,2.2l-0.2,1.3l-1.4,1.8l-0.2,1.2l0.7,0.8l0.9,0.8l0.5,0.6l0.6-0.1l0.7-0.4l0.6-1.1
	l0.5-0.9l2.4-1l2.5-0.9l0.3,0.1l0.4,0.4l0.8,1.3l0.5,0.3l0.7,0.1l1.2-0.1l1.4-0.8l0.7-1.4l0.3-1.1l1.9-1.9l0.2-1.4L230.9,383.1
	L230.9,383.1z M194.1,379.4l1.2,1.7l-0.6,0.8l-0.3,0.2l-0.7-0.3l-0.7,0.7l-0.7,0.1l-0.6-1.2L191,381l-0.2-0.8l1.1-0.1l0.6,0.3
	l1.2-0.6L194.1,379.4L194.1,379.4z M201.3,398.5l-0.4,0.5l-1.2-0.3l0.2-2.7l0.7-0.3l1.1,0.5l0.5,0.5L201.3,398.5L201.3,398.5z
	 M488.9,416.6l-2.3,0.3H485l0.3-0.6l-0.1-0.8l0.8-0.2l0.9,0.2L488.9,416.6z M218.2,436.1l-0.8,0.3v-0.4l0.2-0.6l0.6-0.6l0.3,0.3
	L218.2,436.1z M265.6,440.2l-0.8,0.2l-0.4-0.1l-0.3-0.6l0.7-1.5l0.2-0.2l0.6,1.6L265.6,440.2L265.6,440.2z M382.7,445.4l-0.5,0.2
	l-0.8-0.6l-0.2-4.9l0.5-0.4l0.4,0.1l0.4,0.9v2.2l0.1,1.9L382.7,445.4L382.7,445.4z"/>
<path id="philippines" class="country" d="M554.2,139.5l-0.8,1.4h-0.6l0.1-0.8l0.8-1.6h0.3L554.2,139.5L554.2,139.5z M555.5,146.7l-0.3,0.2l-0.5-0.1
	l0.4-1.6l0.8-0.4l0.7,0.2L555.5,146.7L555.5,146.7z M548.4,164l0.2,1.6h-1l-1.5-0.9l-0.1-0.5v-0.4l0.3-0.3L548.4,164z M544,168.8
	l-0.1,1.2l-0.8-0.6l-0.2-0.9l0.1-0.6l0.4-0.8l0.5,0.7L544,168.8L544,168.8z M554.9,172.1l-1,1.2l-0.5-0.3l0.6-1.2v-0.4l0.5-0.9
	l0.9-0.3l0.7,0.9L554.9,172.1L554.9,172.1z M541.5,176.9l2.5,0.9l5.5,3.2l2,0.8l2.1,0.6l1.7,0.2l1.5-0.7l0.6-0.8l1.2-2l1.2-0.2
	l0.7,0.7l0.6,1l0.3,1.4l-0.3,1.5l-1.2,1.3l-0.7,1.6l-0.5,5.3v1.6l0.4,1.5l1,2.4l0.5,0.7l1.5,0.9l0.4,0.6l0.1,1.2l0.2,1l1,0.4
	l0.8,0.5l-0.3,1.2l-0.5,1.2l-0.7,2.8l-3.3,6.6l-0.2,1.4l-1.3,2.8l-2.6,0.5l-3,1.4l-1.7,1.1l-1.5,1.4l-0.6,1.8l0.5,0.8l0.3,0.9v0.9
	l-0.5,0.8l-1.5,1.9l-0.6,1.6l-0.6,0.7l-0.3,0.8l0.1,1l0.6,0.9l1.8,3.7l1.9,3.5l0.4,0.4l0.2,0.5l-1.2,0.9v1.7l0.3,1.7l1.7,4.2
	l0.2,1.1l0.6,0.9l0.9,0.9l0.9,0.7l2.8,1.2l1.1,0.2h1.2l0.3-0.8l1-0.3l-0.2-0.8l-1.2-1.2v-0.6l0.6-0.5l0.7-0.3l1.7-1.2l1.8-1l2.2,0.1
	l2.2,0.6l1.5,0.6l1.3,1.1l1.3,1.8l0.9,2v1.1l-0.2,1v0.9l0.7,0.6h2.1l1.1-1.4l0.1-1.7l-0.8-0.6l0.4-0.8l0.6-0.6l0.9,0.5l0.9,1.1
	l3.3,1.2h0.8l0.7,0.2l1.5,0.8l0.7,0.6l-0.8,1.3l-3.3,0.3l-0.9,1l1,2l1.6,1.6l1,1.3l0.9,1.4v1.3l-0.5,1.4l1.4-0.1l1.3,0.3l1.9,1.2
	l0.6,0.1l0.6-0.2l-0.1,4.1l-1.3,3.7l-1.6-0.5L587,277l0.3-1.9l0.9-1.8l-0.5-0.4l-0.9,0l-1,0.4l-1.1,0.1l-1.8-0.2l-3.7-2l-1.5-0.2
	l-0.3-0.9l0.1-1.9l-1.5-2.3l-0.2-0.8l-0.5-0.6l-4.4-2.5l-0.5-0.4l-1.3-2l-3.1-2.8l-0.9-0.3l-0.9-0.1l-0.3,0.7l0.4,1.2l0.2,0.9
	l-0.1,1l0.1,0.8l1.4,1.6l0.2,0.7l1,2l0.1,2.4l-1.2,1l-1.4-1.2v-0.9l-0.2-0.8l-1.5-2.2l-0.5-0.5l-2.8-2.1l-2.2-2.3l-4.8-2.5l-0.6-0.1
	l-0.8,0.2l-0.8,0.3l-2.3,1.2l-0.8,0.9l-0.1,1.3l-1.7,1l-2.3,0.2l-1.8-0.7L540,259l-1.2-0.1l-1.5-2.1l-1.8-0.3l-1.5,1.6l-0.3-3.2
	v-3.2l0.4-0.9l0.8-0.8l3.8-3.4l0.5-1.1l-0.2-1.5l-0.9-1.2l-1.4-0.7l-1.6-0.3l-1.2-0.7l-0.9-1.1l-0.6,1.9l0.6,2.9l0.1,1.9l-0.5,0.7
	h-1l-0.9-0.2l-0.7-0.7l-0.5-1.9l-1.3-1.3l-0.5-1.8l-0.6-0.3l-1.2,0.1l-0.9-0.8l-0.6-2.1l-0.1-2.3l-0.5-1.9l-0.8-1.9l-0.4-1.5
	l-0.7-6.9l-0.2-0.6l-0.4-0.5l-0.8-0.8l-0.6-1l-0.1-0.8l0.2-3.4l0.3-0.8l0.7-0.4l0.9,0.7l0.7,0.8l0.9,0.4l0.8,0.5l1.5,2l0.6,0.3h1.8
	l1.1-0.3l0.5-0.7l0.3-0.9v-1l-1.1-3l-0.3-2.2v-2l0.3-2l1.4-3.3l0.2-2.3l-0.1-3.1l0.3-1.8V197l-0.9-1.6l-0.2-1.8l2.4-8.9l0.8-1.7
	l0.6-1.8l0.2-2.4l1.8-0.6l1.7-1l0.9,0.1l0.9,0.2l2.1-0.5h0.8L541.5,176.9z M556.7,238.1l0.3,0.6h-0.3l-0.2,0.1l-0.8,1.2l0.8,2.2
	l-0.5,1.6l-0.9,0.1l-0.4-0.2l0.2-0.8l0.2-0.4l-0.2-1.1l-0.6-0.7l-0.4-1.3l-0.7-0.8l0.3-1.3l2.2-0.1L556.7,238.1L556.7,238.1z
	 M559.1,254.2v0.7l-3.5-2.5l-0.2-0.4v-0.4l0.2-0.4l3.5,3H559.1z M594.7,261.1l-0.4,1.1l-0.5-0.4l-0.8,0.1l-1.2,0.9l-1.9-1.2l-0.3-1
	l1.4-2.1v-3.2l0.5-0.8l0.5-0.6l0.6-0.3l1.4,2.2l0.5,0.3l1.3,1l-0.3,2l0.1,1.2L594.7,261.1L594.7,261.1z M527.9,259.1v1.2l-2.8-1.7
	l-0.1-0.6l0.1-0.4l0.3-0.3l1.5,0.6L527.9,259.1L527.9,259.1z M554.8,262.7h1l0.3-0.2l1.9,1.4l-0.1,0.7l0.2,0.9l-1.2,1.6l-0.2,0.5
	l-0.6,0.5l-2.1-1.2l-0.8-0.8l-0.2-1.6l0.8-2.4L554.8,262.7L554.8,262.7z M535,263.7l0.8,0.1l2.6-0.5l1.1,0.3l0.7,1l0.9,0.3l0.7,0.5
	l1.3-0.9l1.3,1l1.2,1.8l1.4,1.3l1.3,0.9l0.3,0.7l-0.8,1.2l-0.2,1.5l0.1,1.6l1,3.3l-0.3,0.9l-1,1.3l-0.8,1.4l0.1,0.6l-0.3,0.5l-0.1,1
	l-0.6-0.2l-0.6,0.1l-0.6,0.5l-0.8,1l-1.3-0.3l-0.6-0.3l-0.1-0.8l-0.4-0.6l-0.6-0.4l-1.4-1.4l-0.6-1.1v-1.2l-0.4-1.1l-0.7-1l-1-0.7
	l-0.3-0.7l-0.1-0.8l-0.1-2.2l-1.4-2.7l-0.5-0.6l-1.3-0.7l-1.1-0.9l-0.5-0.9l-0.4-1.4l-0.3-0.2l-0.8,0.1l-0.8-0.2l0.2-1l0.8-0.7
	l1.1-0.1l3,0.4L535,263.7L535,263.7z M577.1,274.1l1.4,2.5l-1.5-1.7l-1.8-1.2l-1.8-2l-1.3-0.7l-0.4-0.4l0.1-0.8l1-0.1h0.4l2.7,3.5
	L577.1,274.1z M585.2,280.7v1.5l-0.6-0.5l-2-2.9l-0.6-1.1l0.6-0.7l1.4,1.1L585.2,280.7L585.2,280.7z M557.7,282.4l-1.3,4.1l-0.9-1.4
	l0.4-0.9l-0.8-0.7l-0.2-0.7l0.3-0.9l0.8-0.8l0.2-2.7l1.7-0.9h0.7l-0.2,0.7v1.2L557.7,282.4L557.7,282.4z M561.3,279.5l-0.5,0.5
	l-0.3-0.1l-0.2-0.9l0.5-0.6l0.2,0.1L561.3,279.5L561.3,279.5z M584.3,283.5l3.1,2l2.2,3.4l0.3,2.6l-0.2,1l-1-1.2l-2.2-1.6l-1.5-0.3
	l-0.5-0.3l0.2-0.9l-1-0.8l-0.1-0.3l-0.9-0.3l-1.3-1.8l-0.9-0.3l-0.9,0.4l-2.1,2.6l-2.2,2v-0.7l0.9-2.3l0.6-3.7l0.4-1.2l-0.4-1.7
	v-1.5l1.6,0.7l2.1,0.7l1.6,0.9l0.3,0.6L584.3,283.5L584.3,283.5z M609.2,279.5l1.2,1.4l0.3,1l-0.1,1.1l0.5,0.5l0.9,0.1l1.2,0.5
	l0.9,1l-0.5,0.9l0.2,1.3l-0.9,1.7l0.1,3l0.5,1v1l-0.1,1l0.2,0.8l1.4,2.8l0.3,0.9l-0.4,0.7l-0.1,0.7l0.9,0.1l1.2,1.2l0.7,1.5
	l-0.2,0.4l-1-1.2l-0.8-0.2l-3.2,0.3l-2-0.5H609l-1.3-2l-1.2-0.3l-0.9-0.9l-1.5-2.3l-0.5-1.3l1-1.3l0.3-1.1v-1l-1,0.2l-0.8-0.3
	l-1-1.3l-0.4-0.7l-0.8-0.6l-1.2-1.5l-1.7-0.6l-0.7-0.4l-1.4-1.2l-1-1.5l-1-2.7l-0.5-2.8l4.4,0.7l4.5-0.1l5.1-0.6L609.2,279.5
	L609.2,279.5z M566.9,283.2l-0.8,0.4l-1.7-1.6l-1-0.8l-0.3-0.4l0.8-0.6h2.2l1.2,1.2l0.2,0.7L566.9,283.2L566.9,283.2z M525.1,285.5
	l0.9,0.2l0.6-0.2l0.6-0.9l0.5,1.3l1.3,1.1l-0.5,1.1l-1.2,0.1l-1.2-0.2l-1.2,0.4l-1.5-0.2l-0.9-1l-1-1.8l-0.5-0.3v-0.8l0.4-0.5
	l-0.2-0.1l0.1-0.3l0.2-0.2l0.3-0.1l0.8,0.8l1.8,1.2L525.1,285.5L525.1,285.5z M524.1,293.3l-1.2,0.6l-0.3-0.4l-0.2-0.8v-0.6l-1.2-3
	l0.9-0.5l0.7,0.3l0.7,0.5l0.6,0.2l0.6,0.9l-0.1,0.6l0.2,0.6L524.1,293.3L524.1,293.3z M564.3,294.7l1.9,0.8l1.8-0.7l1.8,0.2l1.5,1.2
	l-0.5,0.7l-0.1,0.8l3.4-1.7l0.9,0.1v1.5l-0.2,1.3l-0.4,1.3l-0.7,1.5l-1,1.3l-1.3,1l-1.5,0.6l-0.7,0.5l-0.2,0.8v1l-0.3,0.9l-1.6,0.4
	l-2.5,1.7l-5.3,1.2L558,312l-0.9,1l-1,0.9l-0.6,0.2l-0.3-0.4l-0.1-0.4l0.8-2.4l-0.1-1l-0.4-1l0.2-1.9l0.9-1.8l0.5-2l0.2-3.8l0.7-5.3
	v-0.6l-0.6-0.7l-2.1-0.6l-0.8-0.5l0.4-1.1l0.8-0.7h1.1l0.9,0.7l3.3,1.4l1.8,1.2L564.3,294.7L564.3,294.7z M602.8,295.1l-0.3,0.9
	l-0.5-0.2l-0.4-0.4L601,294l-0.2-0.9l0.9,0.5l0.5,0.9L602.8,295.1L602.8,295.1z M598.8,296.8l-2,0.1l-0.9-0.8l-1.2-2.2l1.3-0.5
	l1.2,0.1l0.9,0.8l0.9,1.5L598.8,296.8L598.8,296.8z M598.3,299.2l1.2,0.6l1.3-0.2l1.6-1.3l1.8,0.5l1,1.9l0.5,0.7l0.3,1.3l-0.1,3
	l-0.4,2.8l0.3,0.6l0.8,0.5l0.7,0.6l0.6,0.8l0.4,0.9l0.1,2.1l1,1.8l0.1,0.7l-0.2,0.7l-1.7-0.1l-0.1,0.6v0.8l-0.6-0.5l-1-1.7l-0.9-0.7
	l0.3,2.8l0.3,1.4v1.4l-1.6-1l-1.9-0.6l-0.5-0.6l0.2-1.8V316l-0.8-1.9l1-4v-0.8l-0.2-0.8l-0.8-1.6l-1.2-1.4h-0.8l-1.8,1l-0.9-0.3
	l-0.6-3.8l-0.8-3.6l-0.6-0.9l-0.4-1l0.4-0.8l0.7,0.3l1,1l1.2,0.6l0.6,0.5L598.3,299.2L598.3,299.2z M521.2,296.2l0.3,0.9l-0.5,1.3
	l-0.4,0.3l-0.5-0.6l-1.2-0.4L519,297h0.6l1.1-0.7L521.2,296.2L521.2,296.2z M479.6,347.1l-1.5,1.2l0.2-1.5l0.5-1.4l1.5-2.8l1.2-0.9
	l1.8-2.2l1-1.1l2.5-2.1l2.3-2.3l0.8-0.2h0.8l0.7-0.3l1.5-1.3l3.7-4.2l3.1-3.1l3.2-4l1.5-1.2l0.4-0.4l2.9-3.7l0.9-0.5l1-0.4l0.7-0.5
	l0.6-0.6l1-1.6l0.4-1.9l-0.3-1.1l-0.6-1.6l0.7-2.1l0.6-1l2-4.3l0.6-0.9l0.9,0.6l0.1,0.8l-0.4,1.8v0.9l0.5,0.9l-0.6,1.5l1.5,4.1
	l1.2,2.6v0.8l-1.5,1.5l-0.9,0.5l-1.9,0.4l-0.9,0.5l-1.4,1.2l-0.9,1.6l-0.2,0.8l-0.4,0.7l-4,1.2l-1.9,0.7l-0.8,0.5l-0.5,0.9l0.3,1.6
	l-3.3,5.7l-1.1,1.5l-1.2,1.3l-1.4,0.9l-2,0.5l-1.6,1.1l-1.1,1.9l-1.4,1.6l-1.6,1.3l-1.8,1.2l-1.6,0.8l-1.8,0.6l-0.5,0.8l-0.4,0.9
	l-0.8,0.5l-0.9,0.2L479.6,347.1L479.6,347.1z M585,300.2l1,2.2h-1.3l-0.5-1.6l0.6-0.5L585,300.2L585,300.2z M578.6,330.5l-0.6,0.4
	l-0.3-1.1l0.2-1.5l1.2-5.1l-0.3-1.3l2.1-2.9l1.3-2.7l1.9-2.8l0.2-1.4l1.7-2.8l1.6-3.9l-0.1-1.3l0.4-0.6l0.2-1v-0.8l1.2-1.4l0.3,0.9
	l-0.3,1.8l0.1,0.9l0.2,0.4v1.7l-0.4,2.6l0.4,3l-0.8,3.1l-0.9,1.4l-1.3,1l-1.4,0.6l-1.4,1.5l-0.9,1.8l-0.2,1.6l-2.3,5.5l-2,2.3H578.6
	z M574.7,336.8l-1.1,0.2l-1.2-0.1l-0.8-0.8l-1.3-3.5l-1.5-0.9l-1.8-0.6l-0.9-0.5l-0.8-0.6l-2.5-3.5l-0.2-2.1l0.4-1.2l0.8-1.1
	l0.9-0.3h2l1.1-0.1l2.3-1.6l0.2-0.6v-2.7l-0.2-1.8l-0.6-1.8l0.6-0.8l0.8-0.8l0.9-1.6l0.2-1.2v-1.2l0.2-0.8l0.7-0.4l3.2-1.3l0.6-0.1
	l4.2,1.2l0.9,1.8l0.1,0.6l-0.6,2l-0.6,1.3l-1.4,2l-1,2.2l-0.8,3.3l-0.5,1.1l-1.3,2.1l-0.4,1.2v2.5l-0.2,0.9v0.9l2.6,4.1l0.2,0.6v0.7
	l-0.4,0.9l-1.1,1.6l-0.6,0.6L574.7,336.8L574.7,336.8z M566.8,313.6l-0.5,0.2H566l-1,0.6l-0.4-1.2l0.3-1.9l1.4-1.4l0.4-0.5l0.4-0.3
	h0.5l0.5,0.6l0.1,0.9l-0.9,2.6L566.8,313.6L566.8,313.6z M594.1,311.4l-0.5,0.1l0.8-1.7l0.6,0.3l0.2,0.2v0.8L594.1,311.4
	L594.1,311.4z M522.1,313.4l-2,0.5l-0.5-1.6l1.4-1.5l1.6,0.6l0.9,0.6l-0.5,0.5L522.1,313.4L522.1,313.4z M616.5,322.8l-0.3,0.5
	l-0.4-0.9l-0.9-0.9l-0.9-1.5l-0.6-0.5l0.4-1.2v-1.9l0.9-0.9l0.4-0.3l0.7-0.9l0.3-0.1l0.3,0.8l-0.6,2.4l1,2.8l-0.3,1.8l0.1,0.4
	L616.5,322.8L616.5,322.8z M598.6,324.9l-0.2,0.6h-1.3l-0.5,0.1l-1.2,1.5l-0.7,0.4l-3.9,0.5l-3.1-0.4l-1.1-0.8l-0.7-1.4l-0.2-0.9
	l0.8-1l0.7-0.7l2.5-1.3l0.6-1l1.3-1.2l2.7-0.4l0.3,0.3l0.4,0.2h0.5l1.3,1l1.5,0.6l-0.4,2.4l0.4,0.8L598.6,324.9L598.6,324.9z
	 M609.8,321.7l0.1,0.8l-2.1-2.2l-0.4-1.5l0.7,0.1l0.9,0.6L609.8,321.7L609.8,321.7z M622.6,325.3l-0.2,0.1l-0.9-1.3l0.1-1.4l1.2-2.2
	l0.9,1.9v0.9l-0.1,0.4l0.9,1.1l-0.6,0.5L622.6,325.3L622.6,325.3z M621.7,332.6l1.3,1l1.7-0.3v2.5l0.3,0.7l1.6,2.1l0.2,1.8l-0.9,1.7
	l-0.7,0.8l-1.3,1.2v0.5l0.6,0.6l1.8,0.3l1.4,0.9l0.2,2.6l1.3,2v0.9l-0.5,3.6l0.2,1.5l1,1.2l0.8,0.5l0.4,0.8l0.4,2.1l-0.1,3.6
	l-0.1,1.3l-0.6,1.2l-1.8,2.7l-2.4,2.1l-1.3-0.1l-0.4,0.6l0.8,1.9l-0.3,4.1l-0.5,2.8l-0.8-1.4l-0.5-1.5l-0.5-4l-0.6-1.8l-0.9-1.6
	l-0.4-1.5l-1-1.4l-1.2-3.5l-0.8,0.2l-1.4,1l-0.3,0.7l-0.2,1l-0.3,0.9l-1.6,1.4l-1.3,1.7l-1,1.9l-0.3,1.7l0.9,1.4l0.9,0.5l1.3,1.2
	l0.4,0.6l1.3,3.9v4l-1,1.8l-2.5,3.4l-1.8,1.1l-0.9-0.5l-0.8-2l-0.1-0.8l0.5-1.9v-1.7l-0.6-0.6l-0.7,0.1l-0.3,0.3l-1.6,2.3l-0.7,0.6
	l-1,0.1l-0.8-0.2l-4.7-2l-3.9-2l-3-1.9l-2.3-2.9l-0.5-2.1v-2.2l-1-3.2l-0.1-1.1l0.1-1l1-2l1.2-1l0.7-0.7l0.5-0.8l0.4-1.1l-0.1-1.1
	l-0.4-0.7l-1.9-2.3l-1.6-1.4l-3.3-1.3l-0.8-0.7l-0.8-0.5l-0.9-0.2h-0.9l-1,0.4l-0.3,0.8l0.1,0.8l-0.1,0.7L579,364l-1.8-0.9l-1.7-1.1
	l-0.5-0.8l-0.2-0.9l-0.3-0.6l-0.4-0.6l-0.8,1.4l-1,1.2l-1.2,0.3h-1.2l-0.4-0.5l-0.4-2.7L568,358l-1.6,0.2l-1.9,1.5l-0.4,0.6
	l-0.4,1.3l-2.1,3.6l-1.2,2.8l-1.2,2.7l-0.5,0.9l-0.7,0.6l-1.2-0.2l-1-0.6l-1-1.7l0.3-2l1.2-1.3l0.9-1.4l1.2-4.9l0.1-1.7l0.2-0.7
	l1.8-2.2l1.5-1.4l0.8-0.3l3.3-0.8l1.4-0.6h2l1.7-0.4l1.4-1.1l0.1-1.1v-1.2l0.3-0.7l0.5-0.6l0.7-0.8l0.8-0.6l2.4-0.4l0.8-0.5l0.6-0.7
	l0.9-1.4l1.1,0.4l1.1,0.6l1.9,0.5l1.7,1.2l1.1,1.9l0.2,0.9l0.3,3.1l-0.4,0.7l-1.6,1.4l0.8,0.2l2.2-1.3l1.1-0.5l2.6-0.7l0.6-0.5
	l0.5-0.7l0.9-1.9l0.7-2l0.5-0.8l0.8-0.7l0.8-0.1l2.7,1.4l1.8-0.7l0.5-2.1l0.4-3l0.3-0.8l1-0.8l1.2,0.3l1.7,1.1l1.5,0.4l0.6-0.9
	l0.5-1.7h0.6l2.1,0.6l2-0.4l0.6-2.1l-0.4-2.2l-1.6-6.5l0.9-1.4h0.8l2,1.7l3.8,2.3l1.3,1.4L621.7,332.6L621.7,332.6z M621.1,328.1
	l-0.3,0.4l-0.5-0.9l0.4-1.9l0.3-0.3l0.4,1.2L621.1,328.1L621.1,328.1z M584,334l0.1,1.7l-1.5,0.5l-1.2-0.4l-0.8-1v-0.4h0.7l1.5-0.9
	l0.5-0.2L584,334z M602.1,335.5l-0.5,1l-1.8-0.8l-0.4-0.7l0.2-0.8l0.9-0.3h0.5l0.9,0.9L602.1,335.5z M480.3,350.8l-1.2,0.4l-0.2-1
	l0.1-1l0.8,0.1l0.4,0.3L480.3,350.8L480.3,350.8z M475.8,356.2l-0.8,1.2l-1-1.4l0.1-2l0.3-0.6l1.4-0.3L475.8,356.2z M571.5,364
	l0.2,0.4l-0.1,0.4l-1.7,0.8h-0.6l-0.1-1.3l0.4-0.6l0.8,0.5l0.7-0.6L571.5,364L571.5,364z M618.1,371.3l-0.3,0.9l-1-2.2l-0.4-0.5
	l0.5-1.8l1.2,0.9L618.1,371.3L618.1,371.3z M557.7,380l-1.7,0.2h-0.6l-1.3-1.7l-0.1-0.7l-1-0.8l0.4-0.8l1.4-0.2l2.3-1.1l3.8,1.7
	l0.6,0.6l-1.2,0.4l-0.8,1.6L557.7,380L557.7,380z M542.5,385.8l0.9,1.2l1.2-0.3l1.8,0.3l0.4,0.6l-0.1,0.4l-1.9,1.2l-1.2-1.2
	l-2.2,0.8l-1.1-0.5l-1.4,0.4l-0.9-0.9l0.4-0.9l2.3-1.5L542.5,385.8z M527.6,399.2l-0.5,1l-0.5,0.5l-0.7-0.3l-0.5-0.5l-0.3,0.8
	l-1.4,0.3l-0.9,1.2l-1.3,0.3l-0.9-0.1l0.1-1l2.5-1.5l1.6-0.6l1.4-1.2l0.7-0.1l0.3,0.9L527.6,399.2L527.6,399.2z"/>
<path id="singapore" class="country" d="M261.5,463l-2.5,1.1l-2.8-1l0.9-1.6l1.8-0.4l1.5,0.5l0.8,0.4l0.6,0.4L261.5,463z"/>
<path id="thailand" class="country" d="M198.6,147.5l-0.1,1l0.4,0.2l0.6-0.5l0.7-1.2l0.8-0.6l0.9-0.2l0.9,0.8l0.9,1.7l1,1l0.5,0.1l0.3,0.8l0.1,0.8
	l-0.5,1.6l-0.8,1.9l-1.2,2.3l0.4,1.9l1.5,1.6l1.8,0.9l1.9-0.3l1-0.5l0.8-0.7l0.8-0.3l1-0.1l3.1,0.5l0.9,0.5l0.1,1.1l-0.4,2.7l0.5,2
	l0.9,2.1l0.1,1.9l-1.1,3.2l-0.9,3l-1,1.5l-0.8,0.9l-0.2,0.6l0.1,0.6l0.7,0.9l0.7,1.2l0.2,1.2l-0.1,1.4l-0.5,1.9l-1.9,4l-1.5,3.6
	l0.8,0.7l1.5,0.5l1,0.5l1-0.3l2.2-2.2l1.9-1.6l2.3-1.6l0.1-0.1l2-1.2l0.9-1.1l0.5-1.4l0.7-0.5l0.9,0.3l1.2-0.6l1.4-1.5l1.1-0.7
	l0.8,0.1l1.4,0.9l2,1.8l1.7,1.1l1.5,0.3l0.8,0.6v1l0.3,0.6l0.7,0.3l0.3-0.1l-0.1-0.5l0.7-0.7l1.5-0.9l1.5-0.5l1.5-0.2l1-0.7l0.6-1.9
	l0.9-1.4l0.8-0.6l1-0.3l0.3-0.5l-0.5-0.6v-0.6l0.6-0.6l1.3-0.3l2,0.1l2.3,0.6l2.7,1.2l1.7,0.4l0.8-0.4l1.6,1.7l2.4,3.9l2.1,2.9
	l1.7,2l1.8,1.5l1.9,1.1l1.4,1.4l1.2,2.8l-0.9,3.8l-0.2,3.3l0.1,4l1.2,3.1l2.1,2.1l1.3,1.6l0.3,1.3l1.7,1.2l3,0.9l1.2,0.8l-0.5,0.8
	v0.9l0.4,1l1,0.8l1.6,0.7l1,0.7l0.3,0.7v1.2l-0.4,1.6l-0.7,1.3l-1,0.9l-0.1,0.7l-0.3,1.1v2.2l0.7,1.4l0.2,1.8l-0.4,1.5l-0.4,3.1v1.2
	l-0.4,1l-0.9,1l-1.3,0.9l-1.6,0.8l-1,0.4l-0.2,0.2l-0.7,0.9l-0.9,0.9H279l-0.5-0.5l-0.4-0.6l-0.2-1.3l-1.5-0.6l-1.6-0.4l-3.3,0.6
	l-2.7,0.3l-3-0.4l-2.8,0.6l-1.2,0.1l-1.4-0.1h-1.3l-1.2-0.2l-2.3-0.8l-0.9,0.1l-1.9,0.6l-1.9,0.5l-1.9,0.3l-2.8,1.3l-2,1.9l-0.6,1.4
	l-1,1.4l-1.4,2.2l-1.8,2.1l-1.2,0.9l0.3,0.6l-0.3,0.7l-1.9,0.3l-1.5,0.1l-0.3,0.3l0.2,4.2l0.5,1.6l1,1.9l0.6,1.1l0.5,3.1l0.1,2.6
	l2.1,1.7l1.2,1.3l0.9,1.2l-0.3,0.7l-0.5,2.1l0.5,2.8l3,5.9l0.3,0.4h-0.3l-0.5-1.2l-1.5-1.9l-0.5-2.1l-1.8-2.3l-1-0.9l-0.3,0.8
	l-0.6,0.8l-1.7-1.2L235,284l-1.4-2.3l-0.2,0.6l-0.3,0.5l-1.6-1.8l-1.6-1.5l-1.5-0.5l-0.9-0.5l-0.9-0.8l-1.8-0.8l-4.5,1.2l-5.8-0.9
	l-2.2,0.9l-0.9-0.5l-0.6-1l0.5-1.7l0.1-3.6l0.7-2.5l-0.3-1.9l0.3-0.9l0.3-1.2l-0.9-0.5l-4.1-1l-0.9-0.8l-1.1,0.9l-4.9,0.5l-1.9,0.8
	l-1.7,1.4l-0.5,1.8l1,1.2l0.6,2.1l-1.8,4.6l-0.3,1.4l0.7,5.6l-0.3,3.1l-1,2l-1.5,1.8l-0.6,3.1l-1.2,1.4l-1.6,3.3l-1.1,4.1l-0.8,1.9
	l-0.5,3.5l-3.3,5.3l-0.8,3l-1.2,1.2l0.4,0.9l0.1,1.5l-0.4,4l-0.1,3.3l0.5,1.8l1.6,3.5l-0.4,1l-0.2,1.4l1.3,0.6l0.9,0.2l5.4-1.7
	l1.8,0.4l0.7,1.5l0.4,1.3l0.9,7.3l0.5,1.3l1.1,1.3l1.2,1.4l0.4-0.2l0.1-0.5l0.1-0.6l1.1,1.4l0.8,2.6l2.8,13.5l0.8,1.7l0.7,1.8
	l-1.7-0.9l-0.5-3l-0.5-1.3l-0.6-0.2h-1l-0.1-0.5l0.7-1l-0.1-1.2l-1-1l-1.6,0.8v2.1l0.7,1.6l2.7,3.6l0.9,1.5l1.1,0.4l1.6-0.2l1.9,1.5
	l1.5,1.4l3.7,2.2l2.2-0.2l2.4-0.5l1.6,0.1l1.6,0.6l1.9,1.8l3,4.6l4.9,3.8l-0.5,0.9l-0.2,1.4l-2,2l-0.3,1.2l-0.7,1.4l-1.3,0.7
	l-1.2,0.1l-0.7-0.1l-0.5-0.3l-0.8-1.3l-0.4-0.4l-0.3-0.1l-2.5,0.9l-2.4,1l-0.4,0.9l-0.6,1.1l-0.7,0.4l-0.6,0.1l-0.5-0.6l-0.9-0.8
	l-0.7-0.8l0.2-1.2l1.4-1.8l0.2-1.3l-0.2-2.2l-0.4-1.2h-0.4l-0.7-0.2l-1.9,0.2l-0.9-1.4l-0.4-1.6l-0.6-0.5l-0.6-0.3l-1.4,0.5
	l-1.1-0.3l-3.5-1.4l-1.4-2.2l-0.7-0.1l-0.6,0.2l-0.3,0.5l-0.4,2.5l-0.3,0.8l-4.1-5l-2.8-2.1l0.4-3.8l-0.9-0.7l-1.1-0.1l-0.8-1
	l0.7-2.2l-1.2,0.4l-1.5-0.1l-1.3-0.6l-0.9-3.1l-0.6-0.9l-1.3-1.6h-1.7l-0.6-0.8l0.1-2l-1.2-1.2l-1.7-1l-1.4-0.6l-1.4-3.2l-1.2-0.8
	l-0.9-0.6l-1.3,0.4l-0.4,1.2l-0.9,1.2l-1-0.1l-0.9-0.6l-1.2-3.2l-0.2-2l0.2-3.7l1.4-3.3l0.7-5.3l1.2-3.3l0.8-1.2l1.2-4.6l2.3-5.8
	l0.3-1.2l0.6-1.5l0.3-1.3l0.1-2.1l-0.3-1.1v-0.6l0.5-0.8l1.6-1.3l2.3-2.2l2.7-3.1l2.8-4.7l1.4-2.7l0.6-1l0.6-0.3l0.9-0.9l0.6-1v-0.5
	l-1.5-5.1l-1-1.7l-0.5-2l-0.3-1.4l-0.4-1.3l0.2-1.2l-0.5-0.8l-1.2-1l-1.3-1.4l-0.8-2.4v-1.3l-0.8-1.2l-0.3-1.2l0.5-1.2l0.6-1
	l-0.1-4.4l-0.3-1.3l-0.3-2.3l-0.8-1.8l-1.2-2.1l-1.3-1.7l-3.5-3.1l-2.5-2.1l-1.2-1.9l-1.5-2.2l-1.2-1.6l-1.4-2l-0.7-2.7l-0.4-2.9
	l0.2-0.9l0.7-0.6l0.9-0.5l0.7-0.1l2-1.3l1.4,0.1l0.3-0.3l0.1-0.6l-0.2-2.6v-3.5l0.3-2.9l0.3-1.9l3.7-2.2l0.8-1l0.4-1v-0.9l-0.3-0.7
	l-0.6-0.4l-2.3,1.8l-0.5-0.4l-1.1-3.1l-0.5-0.9l-0.7-1.2l-0.7-1.6l-0.1-2.8l-0.5-1.4l-3-2.9l-1.3-1.6l-1.8-2.3l-2.2-2.6l-2.2-2.5
	l-1.1-1.6l-0.4-0.4l-0.1-0.6l0.7-1.7l-0.3-1.7l-1.1-2.3l-0.5-1.4l0.2-0.6l-0.5-0.2l-1.2,0.1l-1.2-1.2l-1.2-2.3l-0.1-0.4h0.4l1.4,0.4
	h0.5l1-0.5l1.5-0.6l0.9-0.2l0.3-0.3l0.1-0.6l-0.8-5.3l0.1-1.2l1.5-2.3l-0.2-2.3l0.4-3.3l1.6-2.3l1.2-1.1l0.4-1.7l0.6-0.3l1,0.1
	l2.1,1.2l0.9,0.1h1.3l1.4-0.1l0.6-0.1l4.4-1.2l1-0.1l0.9,0.1l0.7-0.1l0.7-0.6l0.5-1l0.6-3.1l0.3-0.5l0.6-0.5l0.9-0.3h1.1l1.4,0.6
	h0.9l1-0.2l0.9-0.4l0.6-0.6l0.3-0.7l-0.2-1.3l-0.6-1.6l0.2-0.2l1.2,0.4l1.7,0.4l1.3-0.1l0.9-0.3l0.8-0.8l1.1-0.7l1,0.2l0.8,0.6
	L198.6,147.5L198.6,147.5z M236.3,288.5l0.1,0.4l-0.9-0.3l-0.3,0.1l-0.9-0.1l-0.5-2.3l0.1-0.5l0.7,0.2l1,1.2l0.5,0.8L236.3,288.5
	L236.3,288.5z M239.3,293.7l-0.3,1.7l-0.9-0.7l0.2-0.9l0.4-0.4L239.3,293.7z M197.8,326.4l-0.2,0.3l-0.6-0.5l-0.5-0.6l-0.2-0.8h1
	l0.5,0.7L197.8,326.4z M197.8,328.2l0.1,0.9l-0.4,1.2L196,331l-0.5-0.9l0.1-1.4l0.2-0.3l1.5,0.1L197.8,328.2z M168.9,337l-0.9,0.2
	l0.1-0.9l0.2-0.6l0.4-0.1l0.2,1L168.9,337z M170.6,355.9l-0.2,1.2h-0.7l-0.7,0.8l-0.3,0.1l-0.6-2.5l0.6-3.5l0.3-0.5l0.5,0.9l1.4,0.4
	l-0.6,2.1L170.6,355.9L170.6,355.9z M173.6,355.4l-0.2,0.3l-0.8-3.1l1.2,0.8L173.6,355.4L173.6,355.4z M181.5,361l0.4,2l-0.6-0.4
	l-0.5-0.9v-1.3l0.1-0.2L181.5,361L181.5,361z M191.1,378.5l-0.3,0.1l-0.6-1.3l0.8-1.9l0.8,2.3L191.1,378.5L191.1,378.5z"/>
<path id="vietnam" class="country" d="M326.9,126.8l-0.8,0.2h-1.9l-1.7,1.6l-1.2,0.7l-1.8,0.6l-1.9,0.9l-0.6,1.6v1.2l-0.3,1.3l-3.1,1.9l-0.9-0.2
	l-0.6-0.7l-0.9,0.1l-0.6,0.3H310l-0.8,0.4l-1.1-0.1l-1-0.6l-0.6-0.1h-0.7l-0.1,0.7l1,2.7l0.3,1.2l-3.3,3.6l0.4,2.3l-0.9,1.8l-2,1.4
	l-3.8,3.7l-1.7,0.1l-1.3,0.8l-2.8,6.1v2.1l-0.4,1.5l0.1,1.5l-1.2,2.9l-1.3,1.2l-0.3,1.5l1.8,3.2l0.2,0.6l1,1.7l0.5,1.2l0.8,1.2
	l2.9,3.2l1.3,1l1.5,0.7l2.8,2.9l1.4,1.8l-0.7,1.3l0.3,2.6l-2-0.8l0.2,0.3l2.4,1.4l3.6,5l3.1,2.5l3.2,2.8l1,2.7l2.9,1.8l3.2,2.6
	l-0.1,0.6l0.9,0.7l2.1,1.4l1.3,1.4l0.5,1.4l0.8,0.2l0.9-0.3l0.9-0.1l0.6,0.1l0.9,1.5l1.3,1.3l0.6,1.2l0.5-0.2l0.4,0.2l0.1,1l0.2,0.7
	l1.8,2l0.9,1.9l2.1,3l1.6,1.7l1.2,1l1.3,0.8l1.2,3.3l0.7,3l1.4,3.3l1,1.5v2.7l0.8,2.8l0.9,1.9l0.3,2l0.3,1l0.3,0.7l1,3.3l-0.3,1.5
	l-0.7-1.5l0.1,4.4l0.6,2.3l-0.3,2.9l0.6,1l1.1,3.2l0.8,1.2l-0.1,3.9l0.4,2l-1-1.2l-0.8-1.4l-1,0.7l-0.9,1.1l1.4,4.2l-1.6-0.4
	l0.1,5.7l0.7,1.3v0.6l-0.2,0.8l-0.4-0.9l-0.1-0.9l-0.3,0.2v0.4l-0.5,1l-0.2,1.2l0.6,1.1l0.1,0.8l-0.4,1l-0.7,1.1l-1.5,0.1l-0.3,2.1
	l-0.5,2.2l-2.7,0.3l-2,1.9l-2.4,0.7l-2.2,1.9l-2.4,1.8l-1.6,0.2l-1.3,0.4l-1.5,2.9l-2.5,0.3l-4.6,2.4l-1.5,1.2l-1.4,0.5l-2,1
	l-0.4-0.4l-0.7-0.9l-1.7-0.4l-0.8-1l-0.2-1.2l-0.2-0.5l-0.4,0.7l-0.3,2.9l-0.3,0.7l-0.7,0.3l-1.5-0.8l-1.4-1.7l-2,1.2l0.6,0.1
	l0.9-0.1l0.7,0.3l0.6,1.2v0.6l-0.3,0.7l-1.9,0.1l-2.5-0.3l-0.5,0.1l2.3,1.2l2.1,0.6l0.9,0.7v0.6l-1.2,0.9l-0.9,1.2v0.7v0.8l-1,0.7
	l-0.6-0.1l-1.8-1.2l-5.1-4.6l0.8,1.3l5.3,5.3l0.9,1.7l0.1,1.2l-0.6,0.6l-0.9,0.7H301l-2.8-2l-4.5-4.7l-1.5-0.6l4.6,5.4l0.8,1.3
	l0.8,1.5l-0.2,0.9l-0.4,0.8l-11,4.9l-1.6,2.1l-1.3,2.7l-2.2,1.5l-1.3,1.3l-3.6,0.8l-2-0.2l2.1-2.4l-1.3-0.9l-0.1-6.3l0.5-6.9l1-3.5
	l1.4-0.9l1.7-0.5v-0.7l-0.2-0.8l-0.9-1.2l-1-0.5l-1.5-0.2l-1.2-1.4l-0.9,0.1l-1.4,0.5l-0.8-0.6l-0.3-1l-1.3-1.2l-1.5-1.2l0.7-0.2
	l0.8-0.7l0.8-0.9l2-0.1h2.1l0.6-0.2l0.8-0.9l1.3-1.2l1.1-0.7l0.2-0.5l-0.4-1.2l-0.2-1.3l0.4-0.4l1.9,0.2l2,0.6l0.5,0.3l1.2-1.6
	l0.3-0.2h0.8l2-0.3l2-0.4l0.9,0.1l0.9,1.1l0.7,1l0.4,0.1l1-0.4l0.8,0.6l1.8,0.9h1.1l-0.5-2.1l0.6-1.5l-0.1-0.4l-1-0.7l-3.4-2.8
	l-0.6-0.8l0.1-1.3l-0.1-1.9l-0.3-1.2v-0.7l0.2-0.6l0.6-0.2l0.6-0.1l0.5-0.5l0.8-1.2l1.6,0.1l2.2,0.7l1.6,0.4l1-0.1l0.2-0.2v-0.7
	l0.1-2.9l-0.1-0.6l1.4-0.3l2.1-0.1l1.2-0.2l1.1-1.2l2.7-0.4l2-1.6l1.8-1.7l0.9-0.5l1.2-0.3h0.8l1,1l0.9-0.6l1-1.2l0.5-1.2l0.3-1.8
	l-0.2-2.8l-0.5-2.2l-0.5-1.6l-0.1-1.6l1.2-3.3l1-3.5l-0.3-1.3l-1.1-2.2l-1.1-2.7l-1.2-3l-0.5-0.5l-0.3-0.8l-0.2-1l0.5-3l0.1-1
	l1.4-1.4l0.7-1.6l0.7-1.8l-0.3-0.9l-0.1-1.9l0.2-0.9l-0.3-0.7l-0.4-1.1l0.3-0.7l1-0.6l0.6-1l0.7-1.2l0.3-1.1l-0.5-0.9l-0.9-1.4
	l-1.7-1.2l-2-1.6l-1-1l-0.8-1l-0.7-1.2l-0.4-0.9l0.4-0.6l2.8-1.4l0.5-0.5l0.3-0.8l-0.2-0.8l-0.8-0.4l-0.9-0.3l-1.3-0.9l-2.4-2.4
	l-1.1-0.5l-1.2-0.7l-0.6-0.7l-0.7-2l-0.3-0.2l-0.7,0.6l-0.8,0.6l-0.7-0.1l-0.6-0.6l-0.3-0.8l-0.7-1.1l-0.8-0.9l-0.2-2.9l-0.1-0.9
	l-0.4-1.3l-0.6-0.5l-0.6-0.4l-1.5-2.4l-1-1.2l-4.3-3.4l-0.5-0.5l-1.2-1.4l-2-2l-1.4-1.6l-1.1-1.6l-0.5-1.4l-0.2-1.2l-1.2-1.6l-1-1.3
	l-0.9-0.4l-1.1-0.2l-1-0.8l-1.8-1.8l-0.8-1.2l-0.5-0.8v-0.8l0.4-1.3l0.5-0.8v-0.6l-0.5-0.5l-2-0.9l-4.5-1.3l-1.7-1l-1.6-1.3
	l-1.2-0.9l-5.5-3.6l-1.7-0.6l-1.4-0.6l-0.4-0.6l0.1-0.6l0.6-0.5l1.6-0.9l0.6-1.1l-0.2-1.4l-0.6-1.4l0.3-0.5l0.5-0.1h1.1l2.2-0.1
	l4.7,1.3l0.7-0.1l2.5-2.3l1-1.4l0.2-1.2l0.5-0.7l1.3-1.2v-1.2l-0.6-1.5l-0.7-0.6l-0.6-0.3l-1.9,0.2l-0.4-0.3l-0.2-1.2l-0.1-0.7
	l-0.6-0.8l-2-0.7l-1.7-0.2l-0.4-0.3l0.7-0.8l1.2-0.8l0.9-0.4l0.7-0.8l0.1-0.8l-0.9-0.7l-1.2-0.8l-1.8-1.5l-2.5-1.6l-1.5-0.5
	l-0.8,0.1l-2.8,1.4l-1.5,0.9l-1.2,1.6l-1.3,0.3l-1.3-0.7l-1.5-0.7l-4.1-1.1l-1.7-0.9l-3.6-5.4l-0.5-1.2l0.3-1.2l0.3-1.8l0.4-1.2
	l0.6-1.2l0.2-1l-0.2-1l-0.5-0.6l-0.7-0.2l-0.5-0.2l-0.5-1.3l-0.3,0.2l-0.4,1.5l-0.5,0.6l-0.7,0.3l-0.5-0.2l-0.3-0.6l-0.2-1l-0.4-1.4
	l-0.4-0.9l-1.6-0.9l-0.7-1.2l-2.3-2.6l-1.9-1.8l-0.9-1.7l0.8-0.6l1-0.9l1.1-1.4l1.2-1.8l0.5-1.1l0.3-0.4l0.7-0.3l0.8,0.2l1.3,0.7
	l2,0.9l1.8,1.1l0.7,1.1l1,1l0.8,0.3l0.4-0.1l1.2-0.8l1-0.9v-0.9l0.9-0.8l1.2-1.3l0.6-0.9l0.4-0.1l0.5,0.3l1.9,2.8l0.4,0.2l0.5-0.4
	l0.7-2.2l0.8-0.8l0.3,0.2l4.6,4.1h0.4l0.5-0.2l0.3-0.6l0.4-1.4l0.7-1.5l1.5-0.8l1.2-0.2l0.4,0.7l1,1l1.2,0.1l2.5-1.8l0.8-0.3h0.9
	l0.9-0.1l0.9-0.7l0.9-0.9l0.3-1.8l0.2-1.6l0.6-0.6l0.7-0.4l1.4-0.6l3.2-1.5l0.8-0.7l0.6-0.4l1.2,0.7l1.5,1.3l0.9,1l0.6,1l0.3,0.9
	l2.3,0.8l1.5,1.1l1,0.8h1l1.1-0.3l0.6-0.7h1.1l1.3,0.1l0.6,0.3l1.1,1.5l0.5,0.2l1-0.1l1.8-0.5l1.5-0.3l1.3,0.6l2.6,1.7l-0.7,1.2
	l-0.6,1.3l-1.2,0.9l-0.8,0.2l-0.5,1.3l-0.2,1.9l0.3,0.9l0.6,0.3l0.7,0.6l0.3,0.8l0.1,1.8v2.1l0.1,0.7l0.6-0.1l0.5-0.3l1.1,0.3
	l1.3,0.5l0.8,0.5l0.7-0.1l0.6,0.5l0.2,1l0.7,0.7l1.9,1.4l1.5,0.1l1.3,1.8l1.3-0.6l0.6,0.8l2.8-0.3l1.9-0.7l0.7,0.2l1.7,1.5
	L326.9,126.8L326.9,126.8z M320.9,131.9l-2.3,2.2h-0.9l0.8-2.5l0.4-0.6l1.4,0.8L320.9,131.9L320.9,131.9z M319.6,136.9l-0.9,0.5
	h-1.1l1.3-0.8l0.7-1.1l0.5-0.4v0.9L319.6,136.9L319.6,136.9z M308.9,138.9l-0.2,0.3l-0.8-0.8l-0.6-0.4l0.4-1.2l1,1.2L308.9,138.9
	L308.9,138.9z M311.6,140l-0.7,0.1l-1.3-1.4l0.7-0.7l1.5,0.5l0.3,0.3v0.3l-0.4,0.7L311.6,140L311.6,140z M313.8,314.9l-1.4,1
	l-0.1-0.8l1.2-0.5l0.4-0.4h0.3L313.8,314.9z M263.1,315l0.3,0.8l-0.1,1.9l-0.6,1.9l0.2,0.8l-0.5,0.5l-1.1-3.5l-1.4-1.5l-0.3-0.6h0.8
	l1.4-1h0.7L263.1,315L263.1,315z M304.8,343.1h-0.5l-0.3-0.3l1.5-1.1l-0.1,0.7v0.4L304.8,343.1z"/>
<path class="country" d="M397.6,207.2c-0.3,0.2-0.6,0.6-0.6,1c0,0.3,0.5,0.4,0.7,0.3c0.2,0,0.4-0.1,0.6-0.2c0.1-0.1,0.3-0.2,0.4-0.2
	c0.1,0.1,0.2,0.1,0.2,0.3c0.1,0.3,0.2,0.6,0.4,0.7c0.2,0.1,0.4,0.3,0.5,0c0.1-0.1,0-0.5,0-0.6c-0.1-0.4,0-0.9-0.1-1.3
	c-0.1-0.6-0.4-1-1-1c-0.1,0-0.2,0.2-0.2,0.2c-0.1,0.1-0.2,0.2-0.3,0.2C398,206.9,397.8,207.1,397.6,207.2z"/>
<path class="country" d="M403.9,212.5c0.1-0.2,0.2-0.2,0.4-0.2c0.2,0,0.9,0,1.1,0.2c0.1,0.2,0.3,0.5,0.1,0.6c-0.2,0.2-0.3,0.3-0.6,0.3
	c-0.3,0-0.4,0-0.7-0.1c-0.3-0.1-0.2-0.3-0.3-0.5C403.8,212.8,403.8,212.7,403.9,212.5z"/>
<path class="country" d="M401.2,218.4c0.2-0.1,0.3-0.4,0.4-0.5c0.1-0.1,0.5,0.1,0.7,0.1c0.2,0.1,0.4,0.3,0.5,0.5
	c0.2,0.3-0.1,0.6-0.1,0.9c-0.1,0.4-0.5,0.6-0.9,0.7c-0.3,0.1-0.7,0-1-0.2c-0.2-0.1-0.1-0.6-0.1-0.8c0-0.1,0-0.3,0.1-0.4
	C400.9,218.5,401,218.5,401.2,218.4z"/>
<path class="country" d="M390.9,212.1c0.1-0.2,0.4-0.4,0.6-0.5c0.1-0.1,0.3-0.1,0.4-0.1c0.3,0.1,0.6,0.4,0.8,0.6l0,0
	c0.3,0.3,0.7,0.5,0.8,0.9c0.1,0.2,0.1,0.4,0,0.6c-0.1,0.2-0.2,0.3-0.4,0.4c-0.2,0.1-0.4,0-0.6-0.2c-0.1-0.1-0.2-0.2-0.3-0.2
	c-0.1-0.1-0.1-0.1-0.3,0c-0.3,0-0.4,0.2-0.6,0.3c-0.1,0-0.3,0.2-0.3,0.3c-0.1,0.1-0.2,0.2-0.3,0.3c-0.3,0.3-0.6,0.5-1,0.5
	c-0.3,0-0.4-0.1-0.6-0.3c-0.1-0.2,0-0.6,0.1-0.9c0-0.2,0.2-0.4,0.4-0.5c0.3-0.2,0.6-0.4,0.9-0.6
	C390.6,212.5,390.7,212.3,390.9,212.1z"/>
<path class="country" d="M390.9,215.7c0.3-0.1,0.7-0.1,1-0.1c0.3,0.1,0.7,0,1,0.1c0.3,0.2,0.5,0.7,0.3,1c-0.1,0.3-0.6,0.6-0.9,0.7
	c-0.3,0.1-0.7,0.1-1.1,0.1l0,0c-0.3,0-0.7-0.1-1-0.3c-0.3-0.3-0.2-0.4,0-0.8C390.3,216.1,390.6,215.8,390.9,215.7z"/>
<path class="country" d="M392.5,218.4c-0.2,0.2-0.3,0.8-0.1,1.1c0.1,0.2,0.4,0.5,0.7,0.5c0.2,0,0.5,0,0.6-0.2c0.1-0.2,0.3-0.6,0.1-0.8
	c-0.2-0.2-0.3-0.5-0.6-0.6c-0.1-0.1-0.3,0-0.5,0C392.7,218.2,392.5,218.3,392.5,218.4"/>
<path class="country" d="M391.1,219.9c0.1-0.1,0.3,0,0.4,0c0.2,0,0.4,0.1,0.5,0.1c0.1,0,0.2,0.2,0.3,0.2c0.1,0.1,0.1,0.3,0,0.4
	c-0.2,0.3-0.4,0.4-0.7,0.4c-0.4,0-0.7-0.2-0.8-0.7C390.9,220.2,391,220,391.1,219.9z"/>
<path class="country" d="M395.7,214.7c0-0.1-0.1-0.2-0.1-0.3c0.1-0.1,0.2-0.1,0.2-0.2c0.1-0.1,0.2-0.1,0.3-0.1c0.2,0,0.3-0.1,0.5-0.1
	c0.1,0,0.2,0.1,0.3,0.1c0.4,0.3,0.3,0.9,0.2,1.3c-0.2,0.5-0.6,0.8-1.2,0.9c-0.4,0.1-1,0-1.2-0.4c-0.1-0.2-0.1-0.4,0-0.5
	c0-0.1,0.1-0.3,0.2-0.4c0.1,0,0.2,0,0.3-0.1c0.1,0,0.2-0.1,0.3-0.1C395.5,214.8,395.7,214.7,395.7,214.7z"/>
<path class="country" d="M385.6,221.4c0.2,0,0.5-0.1,0.7-0.1c0.1,0,0.3,0.2,0.3,0.3c0.1,0.1,0.1,0.3,0.1,0.5c0,0.3-0.1,0.5-0.2,0.7
	c-0.1,0.2-0.4,0.2-0.6,0.1c-0.2,0-0.4-0.1-0.5-0.3c-0.1-0.1-0.1-0.3-0.1-0.3c0-0.2,0-0.4,0-0.6C385.3,221.5,385.4,221.4,385.6,221.4
	z"/>
<path class="country" d="M385.4,224.3c0.3-0.3,0.9-0.2,1.2-0.2c0.3-0.1,0.4,0.2,0.4,0.3c0.1,0.1,0.2,0.3,0.1,0.4c0,0.1-0.1,0.4-0.2,0.5
	c-0.3,0.1-0.5,0.1-0.7,0c-0.4-0.1-0.7-0.1-0.9-0.4C385.2,224.8,385.2,224.5,385.4,224.3z"/>
<path class="country" d="M404.9,310.6c0.2-0.2,0.5-0.7,0.8-0.7c0.7,0,1.5-0.1,1.9,0.7c0.3,0.5,0.3,0.9,0.2,1.5c-0.1,0.7-0.9,1.8-1.6,2
	c-0.3,0.1-0.8,0.1-1.1,0c-0.2,0-0.2-0.2-0.3-0.4c-0.2-0.5-0.2-1-0.1-1.5c0.1-0.3,0.2-0.6,0.2-1C404.7,310.9,404.7,310.8,404.9,310.6
	z"/>
<path class="country" d="M392.9,305.8c0.3,0,0.5,0,0.8,0c0.1-0.2,0.4-0.2,0.6-0.2c0.1,0,0.3,0.1,0.4,0.2c0.2,0.2,0.3,0.5,0.4,0.7
	c0,0.2-0.1,0.4-0.1,0.6c0,0.1,0,0.3-0.1,0.4c-0.2,0.4-0.6,1.1-1.1,0.8c-0.2-0.1-0.5-0.3-0.6-0.5c-0.1-0.2-0.2-0.3-0.4-0.5
	c-0.2-0.1-0.5-0.3-0.6-0.5c-0.1-0.1,0-0.4,0-0.6c0-0.2,0-0.3,0.1-0.4C392.4,305.8,392.6,305.8,392.9,305.8z"/>
<path class="country" d="M394.1,309.4c0.2-0.3,0.5-0.2,0.8-0.2c0.1-0.1,0.3,0,0.5,0.1c0.1,0.1,0.3,0.2,0.4,0.4c0.2,0.3-0.3,1-0.6,1
	c-0.6,0.1-1-0.2-1.2-0.7C393.9,309.7,394,309.6,394.1,309.4z"/>
<path class="country" d="M386.7,308.8c0.3-0.1,0.3-0.3,0.3-0.6c0.4-0.1,0.6-0.5,1.1-0.3c0.3,0.2,0.7,0.5,0.7,0.9c0,0.4,0,0.6-0.2,0.9
	c-0.1,0.2-0.3,0.6-0.5,0.7c-0.3,0.2-0.6,0.2-0.9,0.1c-0.3,0-0.7,0-0.9-0.2c-0.3-0.2-0.5-0.5-0.4-0.9c0-0.2,0.1-0.3,0.2-0.5
	C386.3,308.9,386.6,308.9,386.7,308.8z"/>
<path class="country" d="M383.1,312.3c0.2,0,0.5,0,0.7,0c0.3,0,0.3-0.1,0.5,0c0.2,0.1,0.4,0.2,0.7,0.2c0.4,0.1,1,0.3,1.3,0.6
	c0.1,0.1,0,0.3-0.1,0.4c-0.1,0.1-0.4,0-0.6,0c-0.6,0-1.5-0.1-1.8,0.4c-0.2,0.4-0.5,0.7-0.8,1c-0.2,0.3-0.3,0.4-0.6,0.4
	c-0.1,0-0.4,0-0.4-0.1c0-0.2,0-0.5,0-0.7c0.1-0.6,0.2-1.2,0.6-1.6C382.8,312.7,382.9,312.3,383.1,312.3z"/>
<path class="country" d="M615.8,617.2l-1.1,2.8l-1.2-0.6l1.3-1.6l0.6-0.5L615.8,617.2z M606.4,639.8l-0.6-2.2l-0.6-0.9l-0.5-0.5
	l-0.2-0.6v-0.7l0.3-0.3l2-0.1l0.8-1.2V632l-0.4-0.4l-0.4-0.2l-2.1,1l-0.6-0.2l-0.4-0.4l0.1-1.5l1.7-1.4l1.4-2.5l1-1l2.4-0.9l1-0.3
	l6.9-1.4l1.6-0.1h4.4l5.9-0.3l1.4-0.2l1.9-0.6l1.8-0.7l1-0.6l1-0.4l1.5,0.5l2.5,0.4l0.7,0.4l0.6,0.5l-3,2.6l-3.3,2.3l-2,0.7
	l-2.1,0.4l-1.6,0.8l-1.4,1.3l-1.7,0.7l-1.9,0.3l-1.6,0.4l-1.5,0.8l-2.1,1.3l-0.8,0.1h-0.9l-1.7,0.5l-5.3,1.9l-3.2,2.1L606.4,639.8z
	 M589.5,637l2.6-1.4l4-1.1l-0.1,0.8l-0.4,1.2l-0.6,0.6l-0.9,1.1l-0.6,0.2l-2.4-0.2l-0.3,0.2l-0.4-0.1l-0.6-0.7L589.5,637L589.5,637z
	"/>
<a xlink:href="/locations/cambodia/" target="_top">
	<g id="phnom_penh" class="phnompenh map-pin" data-country="cambodia" data-city="phnom_penh"><path class="st3" d="M271.9,257.1c-7.2,0-13,5.8-13,13c0,9.7,13,24.1,13,24.1s13-14.3,13-24.1C284.9,262.9,279.1,257.1,271.9,257.1z
	 M271.9,274.7c-2.6,0-4.6-2.1-4.6-4.6c0-2.6,2.1-4.6,4.6-4.6s4.6,2.1,4.6,4.6C276.6,272.7,274.5,274.7,271.9,274.7z"/></g>
</a>
<a xlink:href="/locations/vietnam/" target="_top"><g id="ho_chi_minh" class="hochiminh map-pin" data-country="vietnam" data-city="ho_chi_minh">
	<path class="st3" d="M311.2,269.9c-7.2,0-13,5.8-13,13c0,9.7,13,24.1,13,24.1s13-14.3,13-24.1C324.2,275.7,318.4,269.9,311.2,269.9z
	 M311.2,287.4c-2.6,0-4.6-2.1-4.6-4.6c0-2.6,2.1-4.6,4.6-4.6c2.6,0,4.6,2.1,4.6,4.6C315.9,285.4,313.8,287.4,311.2,287.4z"/></g>
</a>
<a xlink:href="/locations/vietnam/" target="_top"><g id="hanoi" class="hanoi map-pin" data-country="vietnam" data-city="hanoi">
	<path class="st3" d="M298.5,96.4c-7.2,0-13,5.8-13,13c0,9.7,13,24.1,13,24.1s13-14.3,13-24.1C311.5,102.2,305.7,96.4,298.5,96.4z
	 M298.5,114c-2.6,0-4.6-2.1-4.6-4.6c0-2.6,2.1-4.6,4.6-4.6c2.6,0,4.6,2.1,4.6,4.6C303.1,111.9,301.1,114,298.5,114z"/></g>
</a>
<a xlink:href="/locations/philippines/" target="_top">
	<g id="manilla" class="manilla map-pin" data-country="philippines" data-city="manilla"><path class="st3" d="M542.5,214.4c-7.2,0-13,5.8-13,13c0,9.7,13,24.1,13,24.1s13-14.3,13-24.1C555.5,220.2,549.7,214.4,542.5,214.4z
	 M542.5,231.9c-2.6,0-4.6-2.1-4.6-4.6c0-2.6,2.1-4.6,4.6-4.6c2.6,0,4.6,2.1,4.6,4.6C547.1,229.9,545.1,231.9,542.5,231.9z"/></g>
</a>
<a xlink:href="/locations/lao-pdr/" target="_top">
	<g id="vientiane" class="vientiane map-pin" data-country="lao_pdr" data-city="vientiane"><path class="st3" d="M241.9,147.3c-7.2,0-13,5.8-13,13c0,9.7,13,24.1,13,24.1s13-14.3,13-24.1C254.8,153.1,249,147.3,241.9,147.3z
	 M241.9,164.9c-2.6,0-4.6-2.1-4.6-4.6c0-2.6,2.1-4.6,4.6-4.6c2.6,0,4.6,2.1,4.6,4.6C246.5,162.8,244.4,164.9,241.9,164.9z"/></g>
</a>
<a xlink:href="/locations/thailand/" target="_top">
	<g id="bangkok" class="bangkok map-pin" data-country="thailand" data-city="bangkok"><path class="st3" d="M203.7,221.3c-7.2,0-13,5.8-13,13c0,9.7,13,24.1,13,24.1s13-14.3,13-24.1C216.7,227.1,210.9,221.3,203.7,221.3z
	 M203.7,238.9c-2.6,0-4.6-2.1-4.6-4.6c0-2.6,2.1-4.6,4.6-4.6c2.6,0,4.6,2.1,4.6,4.6C208.3,236.8,206.3,238.9,203.7,238.9z"/></g>
</a>
<a xlink:href="/locations/singapore/" target="_top">
	<g id="singapore_city" class="singaore_city map-pin" data-country="singapore" data-city="singapore_city"><path class="st3" d="M258.6,425.7c-7.2,0-13,5.8-13,13c0,9.7,13,24.1,13,24.1s13-14.3,13-24.1C271.6,431.5,265.8,425.7,258.6,425.7z
	 M258.6,443.3c-2.6,0-4.6-2.1-4.6-4.6c0-2.6,2.1-4.6,4.6-4.6s4.6,2.1,4.6,4.6C263.2,441.2,261.2,443.3,258.6,443.3z"/></g>
</a>
<a xlink:href="/locations/indonesia/" target="_top">
	<g id="jakarta" class="jakarta map-pin" data-country="indonesia" data-city="jakarta"><path class="st3" d="M311.2,553.2c-7.2,0-13,5.8-13,13c0,9.7,13,24.1,13,24.1s13-14.3,13-24.1C324.2,559,318.4,553.2,311.2,553.2z
	 M311.2,570.8c-2.6,0-4.6-2.1-4.6-4.6s2.1-4.6,4.6-4.6c2.6,0,4.6,2.1,4.6,4.6S313.8,570.8,311.2,570.8z"/></g>
</a>
<a xlink:href="/locations/myanmar/" target="_top">
	<g id="yangoon" class="yangoon map-pin" data-country="myanmar" data-city="yangoon"><path class="st3" d="M141.3,158.9c-7.2,0-13,5.8-13,13c0,9.7,13,24.1,13,24.1s13-14.3,13-24.1C154.2,164.6,148.4,158.9,141.3,158.9z
	 M141.3,176.4c-2.6,0-4.6-2.1-4.6-4.6c0-2.6,2.1-4.6,4.6-4.6c2.6,0,4.6,2.1,4.6,4.6C145.9,174.4,143.8,176.4,141.3,176.4z"/></g>
</a>
<a xlink:href="/locations/bangladesh/" target="_top">
	<g id="dhaka" class="dhaka map-pin" data-country="bangladesh" data-city="dhaka"><path class="st3" d="M38.3,51.3c-7.2,0-13,5.8-13,13c0,9.7,13,24.1,13,24.1s13-14.3,13-24.1C51.3,57.1,45.5,51.3,38.3,51.3z
	 M38.3,68.9c-2.6,0-4.6-2.1-4.6-4.6c0-2.6,2.1-4.6,4.6-4.6s4.6,2.1,4.6,4.6C43,66.8,40.9,68.9,38.3,68.9z"/></g>
</a>
</svg>
