<?xml version="1.0" encoding="utf-8"?>
<!-- Generator: Adobe Illustrator 23.0.3, SVG Export Plug-In . SVG Version: 6.00 Build 0)  -->
<svg id="mapsvg" version="1.1" xmlns="http://www.w3.org/2000/svg" xmlns:xlink="http://www.w3.org/1999/xlink" x="0px" y="0px"
	 viewBox="0 0 1002 698" style="enable-background:new 0 0 1002 698;" xml:space="preserve">
	 <link xmlns="http://www.w3.org/1999/xhtml" rel="stylesheet" href="https://staging.dfdl.com/wp-content/themes/dfdl/includes/blocks/countries-map/style.css"/>
<g id="others_1_">
	<path class="other" d="M577.6,439.2l-1.3,0.7l-1.3,0.9l-1.3,0.8l-0.6,0.6l0.2,0.8l0.3,1.9l0.2,1.4l0.5,0.6l0.4,0.6l-0.1,0.6l-0.8,1.2
		l0.4,0.2l-0.6,1.6l-0.8,1.2l-1.2,1l-0.7,0.2l-0.6-0.4l-1-1.1l-1.1-1.5l-0.5-0.9l-1.5-0.1l-0.5-0.7V448l-0.4-1l-0.6-1l-0.9-0.8
		l-1.2-0.6l-0.5-0.5h1.9l2-0.3l2-0.9l2-1.1l1.7-1.2l1.5-1.4l1.6-1.1l2.5-1.2l0.8,0.1v0.9L577.6,439.2L577.6,439.2z M577.6,439.2h1.8
		l0.5,0.5l1,1.9l0.6,1.9l0.2,2.9l0.8,1.2l-0.1,0.3l-0.5,0.2l-0.7,0.1l-1.2-0.3l-1-0.4l-0.9-3.1l-0.4-1.8v-2.1V439.2L577.6,439.2z"/>
	<path class="other" d="M195.2,49.2l-0.1,0.4l-0.5,1.2l-0.3,1.2l0.2,1l1,1.2L197,55l1.8,0.1l1.6-0.4l0.6,0.2l0.9,1.6l0.6,1.4l-0.9,1.4
		l-0.5,1.2l-0.2,0.9l0.1,0.4l0.5,0.7l0.6,1.2l0.1,1.2l-0.4,0.7l-0.8,0.4l-0.9-0.1h-0.7l-0.9,0.1l-1.4,0.4l-1.3,0.5l-2.5-0.1l-1-1.1
		h-0.5l-2.3,1.4l-2.5-0.2l-4.5,0.5l-1.9,0.1l-2-0.2l-1-0.3l-1.8-1l-1.7-0.7l-1.7,0.7l-0.6,0.1l-1.4,1.7l-2.9,0.6l-2.9,0.4l-0.9-0.2
		l-1.7-0.1v-0.4v-0.4l-0.4-0.3l-0.7-0.3l-1.2-0.1l-1.5-0.4l-0.9-0.4l-3,0.6l-1.7-0.9l-2-1.2l-1-0.5l-0.3-1.9l-0.4-0.6l-0.8-0.6
		l-0.4-0.8l0.3-0.8l2-1.5l0.1-0.3l0.9-2.7l1.3-1l1.3-1.4l0.9-2.2l1.8-2.3l2-2.3l1.5-1.9l0.9-0.9l1.9-0.9l1.6-0.6l1.2-1.2l1.3-0.7
		l1.2-0.3l2,0.2l1.9,0.4l2.1,0.6l0.2,0.5l-0.2,0.9l-0.3,0.9V43l0.3,0.3l2,0.2l2.5-0.1l1.4,0.1l3.1,0.8l0.9,0.6l1,0.4l0.9-0.1l1.2-1
		l1.2-0.8l0.8-0.1l0.5,0.3l1,0.8l2.1,0.7l1.8,0.6l0.6,0.5l-0.2,2.3L195.2,49.2z"/>
	<path class="other" d="M4.8,358.8l1.6,0.1H8l1.2,0.2l2,2.5l5.5,4.5l3,4.6l0.3,1l0.4,0.9l0.7,0.2l0.6,0.4l3,4.5l0.4,0.9v1l0.2,0.7
		l0.8,0.4l1,0.2l0.6,0.7l0.8,3.5v1.2l0.2,0.5l3.7,5.5l0.2,0.7v0.5l0.1,0.4l0.7,1l1.2,2.6l0.6,0.6l0.7,2.3v4.4l-0.3,2l-0.7,2.4
		l-0.8,2.3l-0.9,1.7l-1.2,1.4l-4.2,3l-1.2,0.6l-5.5,1.9l-4,1.8l-3.7,0.5l-3.7-1l-2.8-2.3l-1.4-3.5l-1-3.6l-1.5-4.1l-1.2-12.4
		l-0.5-3.5l-0.8-4.4l0.1-1.9l0.6-1.8v4l0.6,0.5l0.4-0.5l0.4-4.2l0.3-1.8l1.5-4.6v-0.8l-0.2-1.7v-0.9l2.2-3.2l0.6-1.9l0.3-1.9
		l-0.1-2.1l-0.4-2l1.8,0.6l1,0.7l1,0.5l0.8-0.2H12l-0.7-1.2l-2.1-1l-3.5-0.6l-1.1-0.8l-0.4-0.7l0.2-0.8L4.8,358.8z M4.5,361.8
		l-1,0.2l-0.8-1.1l-0.2-0.5l0.2-0.3l0.2-0.2h0.3l0.4,1L4.5,361.8L4.5,361.8z M3,371.3l0.5,1.2l-1.3-0.8L1.2,371l-0.3-0.6l1.8,0.6
		L3,371.3z"/>
	<path class="other" d="M612.1,402.2l-1,0.9l-0.3-1l0.1-1.3l1.3-1.2l1.9-0.2l0.3,1l-0.2,1.2l-0.5,0.6L612.1,402.2L612.1,402.2z
		 M619.2,451.1h-0.6l-1.4-0.4l-2.8-1.7l-2.9-0.6h-4.2l-2.4-0.2l-1,0.3h-0.8l-0.6-0.3l-0.6-0.2l-1.6,1l-0.8-0.3l-0.8-0.4l-1.4-0.1
		l-1.7,0.1l-1.8,1l-2-0.9h-0.6l-0.4,0.2l-0.9,1.3l-1.7,1l-0.8,1.8l-0.5,1.7l-0.5,0.6l-0.1,3.4l-0.3,1.6l0.4,2.1l-0.1,0.9l-0.8,1.4
		l-0.1,0.3l-0.4,2.2l0.2,0.6l-0.1,0.7l-0.6,1.5l-1.2,0.4l-1.2,0.2l-1-0.5l-0.9,0.8l-1.2,1.3l-0.5,0.9v0.8l0.1,0.5l-0.2,0.6v0.6
		l0.1,0.9l0.8,0.3l0.8,0.7v0.7l-0.5,0.5l-1.1,0.8l-1.9,1.5l-2.2,1.3l-0.8,0.3l-0.3,0.6l-0.1,0.8l0.5,1.8l0.5,0.5l0.2,0.6l-0.4,0.7
		l-0.2,0.6l-0.8,0.4l-0.8,0.3l-0.3,0.5l-0.4,2.2l-0.5,1.2l-1.1,1.7l-0.4,0.8l-0.5,0.2l-2-0.8l-1.8,0.5l-2.4,0.3h-2.1l-1.6,0.3
		l-1.1,0.9l-1.2,1.2l-1.3,0.8l-1,0.4l-1.8-1.2l-0.9,0.1l-1.6-0.4l-3.8-1.3l-0.9-0.4h-1l-0.3-0.4l0.2-0.6l-0.2-0.8l-0.7-0.3l-7.6,0.1
		l-2.2,0.7l-1.5,0.6l-1.1,0.7l-0.3,1.6l-0.6,1.5l-0.8,1.6l-2.5,0.5l-1.8,1.6l-0.6,0.2l-1.3-0.2l-1.4-0.1l-1,0.5h-1l-3.2-0.8l-3-0.1
		l-1.7,0.4l-0.9,0.1l-5.3,2.3l-1.8,0.3l-0.7-0.3l-1-0.9l-1.4-0.9l-3.3-3.2l-1.2-0.7l-0.8-0.8l-0.8-0.9l-1.1-1l-1-0.7l-1.3-1.4
		l-1.3-1.5l-0.3-2.6l-1.1-0.5L488,489l-0.2-0.8l1.5-2.1l1.1,2.3l0.4,0.5l2.4,1.5l2,0.8l2.1,0.3l2.2,0.1l0.8-0.1l0.8-0.3l0.8,0.3
		l4.5,2.5l1.7,0.4l1.9-0.2l0.7,0.2l2.6,1.9l0.8,0.2l1.3-0.1l-1.6-0.9l-1.1-0.6l-0.5-1.2l0.3-1.2l1-0.8l0.7-0.9l0.3-2.6l0.4-1.4
		l0.9-1.3l0.3-1.2l-1-0.9l-0.2-1.6l0.2-1.3l0.6-0.9l0.9,0.6l0.9,0.6h0.9l0.6-0.2l0.1-0.7l-0.2-1.2v-2.2l1.2-1.8l1.8-1.2l1.7-0.6
		l6.4-1l10.1-2.5l3-1l1.2-0.5l0.9-0.7l1.6-2.3l2.9-3.5l2.1-2.9l4.3-4.2l3.5-3.9l0.5-0.7l0.6-2.2v-1l-0.1-1l0.5-0.5l0.7-0.3h0.2
		l0.5,0.5l1.2,0.6l0.9,0.8l0.6,1l0.4,1v0.8l0.5,0.7l1.5,0.1l0.5,0.8l1.1,1.5l1,1.1l0.6,0.4l0.8-0.2l1.2-1l0.8-1.2l0.6-1.6l-0.4-0.2
		l0.8-1.2l0.2-0.6l-0.4-0.6l-0.5-0.6l-0.2-1.4l-0.3-1.9l-0.2-0.8l0.6-0.6l1.3-0.8l1.3-0.9l1.3-0.7v1.3v2.1l0.4,1.8l0.9,3.1l1,0.4
		l1.2,0.3l0.7-0.1l0.5-0.2l0.1-0.3l-0.8-1.2l-0.2-2.9l-0.6-1.9l-1-1.9l-0.5-0.5l3.8-0.5l0.9-0.6l1.6-1.6l0.6-0.7l0.5-1.7l-1.9-1
		l-0.7-1.2v-1.4l2.2-2.5l0.8-0.6l0.3,0.9l1,0.2h0.9l0.9-0.1l1.3-1.3l0.7-1.8l2.3-2.6l0.8-2l0.5-2.1l5.8-6.4l0.7-1l3.5-6.5l0.4-0.2
		l0.9,0.6l0.3,2l-0.1,0.9l-0.6,1.3l-0.3,1.4h0.4l1.6-0.8l1.7-2.3l1-2l0.8-0.8l1.7,0.5l0.4,0.3l-0.1,1.4l0.2,0.8l0.6,1.7l1.4,1.1
		l1.9,0.7l1.8,1l0.6,0.6l0.4,0.8l0.4,1.3v1.3l-1.3,1.3l0.6,2l-0.1,1.2l-0.4,1l-1.9,0.9l5.2-0.9l1.3-0.5l1.8-1.3l0.9,1.2l0.9,2
		l-0.7,0.5l-2.3,0.7l-0.1,0.3l0.8,1l0.9-0.1l1.8-0.7l1.7-1.1h0.8l0.9,0.2l1.7,0.7l0.9,0.6l0.8,0.7l0.5,1.5l2,0.5l4,2.1l0.7,0.2h0.8
		l2.1-0.3l0.7,0.3l0.5,0.8l0.2,0.9l-0.1,1l-0.2,0.8L646,435l-1.4,1l-3.6,1.3l-3.9,1l-2-0.1l-2.8-0.8l-1,0.1l-1,0.4l-1.2,2.6l2.3,2.6
		l3.9,2.7l0.5,0.7l-0.1,0.8l-0.6,0.5l-0.8,0.3l-2.2,0.4l-2.2,0.3l-1.8,0.5l-1.8,0.6l-1.8-0.2l-2.5-1.2l-0.7-0.1l-0.8,0.6l-0.8,1.7
		l-0.5,0.4L619.2,451.1z M366.3,417.3l2.8,0.6l1.1,0.5l3.2,5.1l4.2,3.6l1.8,1.3l1.4,0.6l1.9,1.9l1.6,2.4l3.6,6.7l0.6,2.9l0.2,4.5
		l-0.8,6.8l-1,3.4l0.2,1.6l1.3,2.4L388,464l0.3,1.9l-0.1,5.3l0.8,1.6l0.8,1l4.5,3.2l0.3,1.2l2.2,4l4.1,8.7l1.2,3.9l-0.1,1.1
		l-0.5,0.4l-1.2,0.4l-1-0.8l-0.3-0.6l0.1-0.7l-0.4-0.7l-1-0.8l-0.6-0.7l0.2,1.2v1.5l-1.2,0.1l-1.6-0.5l-2,0.4l-2.3,1.9l-1.2,0.1
		l-0.9-1.6l-0.4-1.2l-0.7-0.8l-7.6-3.9l-2.8-1l-2.9-3l-6.6-3.4l-4.2-3.3l-1.8-2l-4.3-1.8l-1.8-2.1l-0.9-0.4l-0.9-0.8l1-2.1l-0.4-2.1
		l-0.5-1.8l-3-3.6l-1.5-2.5l-2.8-2.5l-1.2-1.4l-1.1-1.7l0.7-0.6l0.6-0.3l-0.6-1.2l-1.6-2.1l-0.8-2.4v-4.5l-2.3-6.4l-2-8.9l0.4-3.1
		l-0.5-3.4l-1.3-3.2l-1.7-2.3l-0.6-1.9l0.3-0.8l0.4-2.5l0.3-0.5l0.6-0.2l0.7,0.1l1.4,2.2l3.6,1.3l1.1,0.3l1.4-0.5l0.6,0.3l0.6,0.6
		l0.4,1.5l0.9,1.4l1.9-0.2l0.7,0.2h0.4l0.4,1.2l0.2,2.2l-0.2,1.3l-1.4,1.8L348,425l0.7,0.8l0.9,0.8l0.5,0.6l0.6-0.1l0.7-0.4l0.6-1.1
		l0.5-0.9l2.4-1l2.5-0.9l0.3,0.1l0.4,0.4l0.8,1.3l0.5,0.3l0.7,0.1l1.2-0.1l1.4-0.8l0.7-1.4l0.3-1.1l1.9-1.9l0.2-1.4L366.3,417.3
		L366.3,417.3z M329.5,413.7l1.2,1.7l-0.6,0.8l-0.3,0.2l-0.7-0.3l-0.7,0.7l-0.7,0.1l-0.6-1.2l-0.8-0.5l-0.2-0.8l1.1-0.1l0.6,0.3
		l1.2-0.6L329.5,413.7L329.5,413.7z M336.7,432.8l-0.4,0.5l-1.2-0.3l0.2-2.7l0.7-0.3l1.1,0.5l0.5,0.5L336.7,432.8L336.7,432.8z
		 M624.3,450.8l-2.3,0.3h-1.6l0.3-0.6l-0.1-0.8l0.8-0.2l0.9,0.2L624.3,450.8z M353.5,470.3l-0.8,0.3v-0.4l0.1-0.6l0.6-0.6l0.3,0.3
		L353.5,470.3z M400.9,474.5l-0.8,0.2l-0.4-0.1l-0.3-0.6l0.7-1.5l0.2-0.2l0.6,1.6L400.9,474.5L400.9,474.5z M518.1,479.7l-0.5,0.2
		l-0.8-0.6l-0.2-4.9l0.5-0.4l0.4,0.1l0.4,0.9v2.2l0.1,1.9L518.1,479.7L518.1,479.7z"/>
	<path class="other" d="M137.6,47.2l0.7,0.5l0.1,0.8l-0.1,0.9l-0.7,2l-0.6,1.3l-0.7,2.9l-0.6,5l0.1,0.9l1.9,2.9l0.8,2.2l0.1,1.5
		l-0.8,2.5l-0.9,2.8l-0.5,0.6l-0.5,0.2l-2.4-1l-1.6,0.2l-1.9,0.5l-2-0.1l-1.6-0.3l-2.1,1.2l-2-0.6l-1.3-0.7l-0.8-2l-0.4-0.3
		l-4.2,2.1l-1,0.1l-2.6-1.2l-2.1-1.2l-0.8-0.3l-2-0.4l-1.8-0.2l-2-0.7l-2.5,0.9l-1-0.1l-0.9-0.6l-0.5-1.3L98.2,67l-0.8-0.9l-1.3-0.2
		l-1.8,0.8l-2.7,1l-0.9-0.2l-0.8-0.3L89.6,67l-0.4-1.2l-0.4-0.3h-0.6l-1.1-0.3l-1.4-0.9l-4.1-2.1l-0.5-0.9v-2.1l-0.2-0.8l-0.5-0.9
		l-2.1-0.9l-4.1-1.5l-2.3-1.2l-1.1,0.5l-2.1,0.5l-1.2,1.1l-1.3-0.3L63,54.7l-1.7-0.2l-1,0.4L60,55.5l-1.3,0.7l-1.2-0.6L55.1,55
		L53,54.6l-3.3-0.9l-0.4-1.4l-0.5-1.4L48,50.6l-2.9,0.3l-2.7-1.6l-2.9-2l-1.2-0.7l-0.8-0.2l-0.7,0.3l-0.8,0.5l-0.7,0.1l-1.6-0.9
		l-2-1.2l-2.4-1.5l-2.9-2.1l-1.2-1.2l-0.6-0.9l-0.6-0.8l-2.5-1.4l-2-1.1l-2.4-1.3l-0.4-0.3L16,33.8l-1.4-1l-1.2-0.3L13.2,33
		l-0.3,0.6l-1-0.1l-1.5-1l-1.6-1.1l-1.2-1l-1.3-1l-0.3-0.7l0.5-2.3l0.8-2l0.6-0.4l1-1.3l0.4-2.3v-2l1-2.8l1.4-2.9l2.4-3.2l1-1.1
		l1.2-0.7l2.2-2.3L19,5l1-0.6l1-0.2l0.7,0.3l0.7,1.2l0.9,1.2h1.1l1.3-1l2.6-4.6l3.7-0.9l3.5,0.5l3.1,0.7L39.4,3L40,4.6l0.4,0.8l1,1
		l4.3,2.3l2.5,2.1l3.5,2.8l2.6,1.2l2.3,0.1l1.3,1.1l2,2.2l1.7,2.5l2.1,2.3l1.4-0.1l2-0.7l2.4-1l1.4,0.5l1.3,0.6l0.4,1.2l0.8,2.2
		l0.9,2.3l1.4,0.8l1.6,1.2l0.9,0.9l3,1.7l0.4,0.7l0.6,0.5l0.7,0.3l0.6,0.4l0.9,0.1l3.5-1l0.9,0.1l0.5,0.2v0.4l-0.6,1.6l-0.5,2.1
		l0.6,1l1.5,0.4l3.2,0.3h4.4l1.3,1.1l1.3,1.6l1.3,2.7l0.5,1.2l0.6,0.3l1.2-0.5l0.2-1.2v-1.6l1-0.6l0.6,0.4l0.7,1.3l1.8,1.2l1.3,0.6
		l1.2-0.2l0.5-0.4l0.6-2.2l1-0.3l1.2,0.2l0.5,0.4l0.5,0.9l1.5,0.4l1.5,0.6l1.4,0.7l2,1.7l2.5,0.3h2.8h1.5l1.1,0.1l1-0.1l2.9-1.2
		l1.2-0.1l1.5,0.1L137.6,47.2z"/>
	<path class="other" d="M751.1,651.5l-1.1,2.8l-1.2-0.6l1.3-1.6l0.6-0.5L751.1,651.5z M741.7,674l-0.6-2.2l-0.6-0.9l-0.5-0.5l-0.2-0.6
		v-0.7l0.3-0.3l2-0.1l0.8-1.2v-1.3l-0.4-0.4l-0.4-0.2l-2.1,1l-0.6-0.2l-0.4-0.4l0.1-1.5l1.7-1.4l1.4-2.5l1-1l2.4-0.9l1-0.3l6.9-1.4
		l1.6-0.1h4.4l5.9-0.3l1.4-0.2l1.9-0.6l1.8-0.7l1-0.6l1-0.4l1.5,0.5l2.5,0.4l0.7,0.4l0.6,0.5l-3,2.6l-3.3,2.3l-2,0.7l-2.1,0.4
		l-1.6,0.8l-1.4,1.3l-1.7,0.7l-1.9,0.3l-1.6,0.4l-1.5,0.8l-2.1,1.3l-0.8,0.1h-0.9l-1.7,0.5l-5.3,1.9l-3.2,2.1L741.7,674z
		 M724.8,671.2l2.6-1.4l4-1.1l-0.1,0.8l-0.4,1.2l-0.6,0.6l-0.9,1.1l-0.6,0.2l-2.4-0.2l-0.3,0.2l-0.4-0.1l-0.6-0.7L724.8,671.2
		L724.8,671.2z"/>
</g>
<g id="vietnam" class="country">
	<path d="M462.3,161.1l-0.8,0.2h-1.9l-1.7,1.6l-1.2,0.7L455,164l-1.9,0.9l-0.6,1.6v1.2l-0.3,1.3l-3.1,1.8l-0.9-0.2
		l-0.6-0.7l-0.9,0.1l-0.6,0.3h-0.7l-0.8,0.4l-1.1-0.1l-1-0.6l-0.6-0.1h-0.7l-0.1,0.7l1,2.7l0.3,1.2l-3.3,3.6l0.4,2.3l-0.9,1.8
		l-2,1.4l-3.8,3.7l-1.7,0.1l-1.3,0.8l-2.8,6.1v2.1l-0.4,1.5l0.1,1.5l-1.2,2.9l-1.3,1.2l-0.3,1.5l1.8,3.2l0.2,0.6l1,1.7l0.5,1.2
		l0.8,1.2l2.9,3.2l1.3,1l1.5,0.7l2.8,2.9l1.4,1.8l-0.7,1.3l0.3,2.6l-2-0.8l0.2,0.3l2.4,1.4l3.6,5l3.1,2.5l3.2,2.8l1,2.7l2.9,1.8
		l3.2,2.6l-0.1,0.6l0.9,0.7l2.1,1.4l1.3,1.4l0.5,1.4l0.8,0.2l0.9-0.3l0.9-0.1l0.6,0.1l0.9,1.5l1.3,1.3l0.6,1.2l0.5-0.2l0.4,0.2
		l0.1,1l0.2,0.7l1.8,2l0.9,1.9l2.1,3l1.6,1.7l1.2,1l1.3,0.8l1.2,3.3l0.7,3l1.4,3.3l1,1.5v2.7l0.8,2.8l0.9,1.9l0.3,2l0.3,1l0.3,0.7
		l1,3.3l-0.3,1.5l-0.7-1.5l0.1,4.4l0.6,2.3l-0.3,2.9l0.6,1l1.1,3.2l0.8,1.2l-0.1,3.9l0.4,2l-1-1.2l-0.8-1.4l-1,0.7l-0.9,1.1l1.4,4.2
		l-1.6-0.4l0.1,5.7l0.7,1.3v0.6l-0.2,0.8l-0.4-0.9l-0.1-0.9l-0.3,0.2v0.4l-0.5,1l-0.1,1.2l0.6,1.1l0.1,0.8l-0.4,1l-0.7,1.1l-1.5,0.1
		l-0.3,2.1l-0.5,2.2l-2.7,0.3l-2,1.9l-2.4,0.7l-2.2,1.9l-2.4,1.8l-1.6,0.2l-1.3,0.4l-1.5,2.9l-2.5,0.3l-4.6,2.4l-1.5,1.2l-1.4,0.5
		l-2,1l-0.4-0.4l-0.7-0.9l-1.7-0.4l-0.8-1l-0.2-1.2l-0.2-0.5l-0.4,0.7l-0.3,2.9l-0.3,0.7l-0.7,0.3l-1.5-0.8l-1.4-1.7l-2,1.2l0.6,0.1
		l0.9-0.1l0.7,0.3l0.6,1.2v0.6l-0.3,0.7l-1.9,0.1l-2.5-0.3l-0.5,0.1l2.3,1.2l2.1,0.6l0.9,0.7v0.6l-1.2,0.9l-0.9,1.2v0.7v0.8l-1,0.7
		l-0.6-0.1l-1.8-1.2l-5.1-4.6l0.8,1.3l5.3,5.3l0.9,1.7l0.1,1.2l-0.6,0.6l-0.9,0.7h-1.7l-2.8-2l-4.5-4.7l-1.5-0.6l4.6,5.4l0.8,1.3
		l0.8,1.5l-0.2,0.9l-0.4,0.8l-11,4.9l-1.6,2.1l-1.3,2.7l-2.2,1.5l-1.3,1.3l-3.6,0.8l-2-0.2l2.1-2.4l-1.3-0.9l-0.1-6.3l0.5-6.9l1-3.5
		l1.4-0.9l1.7-0.5v-0.7l-0.2-0.8l-0.9-1.2l-1-0.5l-1.5-0.2l-1.2-1.4l-0.9,0.1l-1.4,0.5l-0.8-0.6l-0.3-1l-1.3-1.2l-1.5-1.2l0.7-0.2
		l0.8-0.7l0.8-0.9l2-0.1h2.1l0.6-0.2l0.8-0.9l1.3-1.2l1.1-0.7l0.2-0.5l-0.4-1.2l-0.2-1.3l0.4-0.4l1.9,0.2l2,0.6l0.5,0.3l1.2-1.6
		l0.3-0.2h0.8l2-0.3l2-0.4l0.9,0.1l0.9,1.1l0.7,1l0.4,0.1l1-0.4l0.8,0.6l1.8,0.9h1.1l-0.5-2.1l0.6-1.5l-0.1-0.4l-1-0.7l-3.4-2.8
		l-0.6-0.8l0.1-1.3l-0.1-1.9l-0.3-1.2v-0.7l0.2-0.6l0.6-0.2l0.6-0.1l0.5-0.5l0.8-1.2l1.6,0.1l2.2,0.7l1.6,0.4l1-0.1l0.2-0.2v-0.7
		l0.1-2.9l-0.1-0.6l1.4-0.3l2.1-0.1l1.2-0.2l1.1-1.2l2.7-0.4l2-1.6l1.8-1.7l0.9-0.5l1.2-0.3h0.8l1,1l0.9-0.6l1-1.2l0.5-1.2l0.3-1.8
		l-0.2-2.8l-0.5-2.2l-0.5-1.6l-0.1-1.6l1.2-3.2l1-3.5l-0.3-1.3L455,295l-1.1-2.7l-1.2-3l-0.5-0.5l-0.3-0.8l-0.2-1l0.5-3l0.1-1
		l1.4-1.4l0.7-1.6l0.7-1.8l-0.3-0.9l-0.1-1.9l0.2-0.9l-0.3-0.7l-0.4-1.1l0.3-0.7l1-0.6l0.6-1l0.7-1.2l0.3-1.1l-0.5-0.9l-0.9-1.4
		l-1.7-1.2l-2-1.6l-1-1l-0.8-1l-0.7-1.2l-0.4-0.9l0.4-0.6l2.8-1.4l0.5-0.5l0.3-0.8l-0.2-0.8l-0.8-0.4l-0.9-0.3l-1.3-0.9l-2.4-2.4
		l-1.1-0.5l-1.2-0.7l-0.6-0.7l-0.7-2l-0.3-0.2l-0.7,0.6l-0.8,0.6l-0.7-0.1l-0.6-0.6l-0.3-0.8l-0.7-1.1l-0.8-0.9l-0.2-2.9l-0.1-0.9
		l-0.4-1.3l-0.6-0.5l-0.6-0.4l-1.5-2.4l-1-1.2l-4.3-3.4l-0.5-0.5l-1.2-1.4l-2-2l-1.4-1.6l-1.1-1.6l-0.5-1.4l-0.2-1.2l-1.2-1.6
		l-1-1.3l-0.9-0.4l-1.1-0.2l-1-0.8l-1.8-1.8l-0.8-1.2l-0.5-0.8v-0.8l0.4-1.3l0.5-0.8v-0.6l-0.5-0.5l-2-0.9l-4.5-1.3l-1.7-1l-1.6-1.3
		l-1.2-0.9l-5.5-3.6l-1.7-0.6l-1.4-0.6l-0.4-0.6l0.1-0.6l0.6-0.5l1.6-0.9l0.6-1.1l-0.2-1.4l-0.6-1.4l0.3-0.5l0.5-0.1h1.1l2.2-0.1
		l4.7,1.3l0.7-0.1l2.5-2.3l1-1.4l0.2-1.2l0.5-0.7l1.3-1.2v-1.2l-0.6-1.5l-0.7-0.6l-0.6-0.3l-1.9,0.2l-0.4-0.3l-0.2-1.2l-0.1-0.7
		l-0.6-0.8l-2-0.7l-1.7-0.2l-0.4-0.3l0.7-0.8l1.2-0.8l0.9-0.4l0.7-0.8l0.1-0.8l-0.9-0.7l-1.2-0.8L403,173l-2.5-1.6l-1.5-0.5
		l-0.8,0.1l-2.8,1.4l-1.5,0.9l-1.2,1.6l-1.3,0.3l-1.3-0.7l-1.5-0.7l-4.1-1.1l-1.7-0.9l-3.6-5.4l-0.5-1.2l0.3-1.2l0.3-1.8l0.4-1.2
		l0.6-1.2l0.2-1l-0.2-1l-0.5-0.6l-0.7-0.2l-0.5-0.2l-0.5-1.3l-0.3,0.2l-0.4,1.5l-0.5,0.6l-0.7,0.3l-0.5-0.2l-0.3-0.6l-0.1-1
		l-0.4-1.4l-0.4-0.9l-1.6-0.9l-0.7-1.2l-2.3-2.6l-1.9-1.8l-0.9-1.7l0.8-0.6l1-0.9l1.1-1.4l1.2-1.8l0.5-1.1l0.3-0.4l0.7-0.3l0.8,0.2
		l1.3,0.7l2,0.9l1.8,1.1l0.7,1.1l1,1l0.8,0.3l0.4-0.1l1.2-0.8l1-0.9V142l0.9-0.8l1.2-1.3l0.6-0.9l0.4-0.1l0.5,0.3l1.9,2.8l0.4,0.2
		l0.5-0.4l0.7-2.2l0.8-0.8l0.3,0.2l4.6,4.1h0.4l0.5-0.2l0.3-0.6l0.4-1.4l0.7-1.5l1.5-0.8l1.2-0.2l0.4,0.7l1,1l1.2,0.1l2.5-1.8
		l0.8-0.3h0.9l0.9-0.1l0.9-0.7l0.9-0.9l0.3-1.8l0.2-1.6l0.6-0.6l0.7-0.4l1.4-0.6l3.2-1.5l0.8-0.7l0.6-0.4l1.2,0.7l1.5,1.3l0.9,1
		l0.6,1l0.3,0.9l2.3,0.8l1.5,1.1l1,0.8h1l1.1-0.3l0.6-0.7h1.1l1.3,0.1l0.6,0.3l1.1,1.5l0.5,0.2l1-0.1l1.9-0.5l1.5-0.3l1.3,0.6
		l2.6,1.7l-0.7,1.2l-0.6,1.3l-1.2,0.9l-0.8,0.2l-0.5,1.3l-0.2,1.9l0.3,0.9l0.6,0.3l0.7,0.6l0.3,0.8l0.1,1.8v2.1l0.1,0.7l0.6-0.1
		l0.5-0.3l1.1,0.3l1.3,0.5l0.8,0.5l0.7-0.1l0.6,0.5l0.2,1l0.7,0.7l1.9,1.4l1.5,0.1l1.3,1.8l1.3-0.6l0.6,0.8l2.8-0.3l1.9-0.7l0.7,0.2
		l1.7,1.5L462.3,161.1L462.3,161.1z M456.2,166.1l-2.3,2.2H453l0.8-2.5l0.4-0.6l1.4,0.8L456.2,166.1L456.2,166.1z M454.9,171.2
		l-0.9,0.5h-1.1l1.3-0.8l0.7-1.1l0.5-0.4v0.9L454.9,171.2L454.9,171.2z M444.2,173.1l-0.2,0.3l-0.8-0.8l-0.6-0.4l0.4-1.2l1,1.2
		L444.2,173.1L444.2,173.1z M446.9,174.3l-0.7,0.1l-1.3-1.4l0.7-0.7l1.5,0.5l0.3,0.3v0.3l-0.4,0.7L446.9,174.3L446.9,174.3z
		 M449.1,349.1l-1.4,1l-0.1-0.8l1.2-0.5l0.4-0.4h0.3L449.1,349.1z M398.4,349.2l0.3,0.8l-0.1,1.9l-0.6,1.9l0.2,0.8l-0.5,0.5
		l-1.1-3.5l-1.4-1.5l-0.3-0.6h0.8l1.4-1h0.7L398.4,349.2L398.4,349.2z M440.2,377.4h-0.5l-0.3-0.3l1.5-1.1l-0.2,0.7v0.4L440.2,377.4
		z"/>
</g>
<g id="thailand" class="country">
	<path d="M334,181.8l-0.1,1l0.4,0.2l0.6-0.5l0.7-1.2l0.8-0.6l0.9-0.1l0.9,0.8l0.9,1.7l1,1l0.5,0.1l0.3,0.8l0.1,0.8
		l-0.5,1.6l-0.8,1.9l-1.2,2.3l0.4,1.9l1.5,1.6l1.8,0.9l1.9-0.3l1-0.5l0.8-0.7l0.8-0.3l1-0.1l3.1,0.5l0.9,0.5l0.1,1.1l-0.4,2.7l0.5,2
		l0.9,2.1l0.1,1.9l-1.1,3.2l-0.9,3l-1,1.5l-0.8,0.9l-0.2,0.6l0.1,0.6l0.7,0.9l0.7,1.2l0.2,1.2l-0.1,1.4l-0.5,1.9l-1.9,4l-1.5,3.6
		l0.8,0.7l1.5,0.5l1,0.5l1-0.3l2.2-2.2l1.9-1.6l2.3-1.6l0.1-0.1l2-1.2l0.9-1.1l0.5-1.4l0.7-0.5l0.9,0.3l1.2-0.6l1.4-1.5l1.1-0.7
		l0.8,0.1l1.4,0.9l2,1.8l1.7,1.1l1.5,0.3l0.8,0.6v1l0.3,0.6l0.7,0.3l0.3-0.1l-0.1-0.5l0.7-0.7l1.5-0.9l1.5-0.5l1.5-0.2l1-0.7
		l0.6-1.9l0.9-1.4l0.8-0.6l1-0.3l0.3-0.5l-0.5-0.6v-0.6l0.6-0.6l1.3-0.3l2,0.1l2.3,0.6l2.7,1.2l1.7,0.4l0.8-0.4l1.6,1.7l2.4,3.9
		l2.1,2.9l1.7,2l1.8,1.5l1.9,1.1l1.4,1.4l1.2,2.8l-0.9,3.8l-0.2,3.3l0.1,4l1.2,3.1l2.1,2.1l1.3,1.6l0.3,1.3l1.7,1.2l3,0.9l1.2,0.8
		l-0.5,0.8v0.9l0.4,1l1,0.8l1.6,0.7l1,0.7l0.3,0.7v1.2l-0.4,1.6l-0.7,1.3l-1,0.9l-0.1,0.7l-0.3,1.1v2.2l0.7,1.4l0.2,1.8l-0.4,1.5
		l-0.4,3.1v1.2l-0.4,1l-0.9,1l-1.3,0.9l-1.6,0.8l-1,0.4l-0.2,0.2l-0.7,0.9l-0.9,0.9h-0.7l-0.5-0.5l-0.4-0.6l-0.2-1.3l-1.5-0.6
		l-1.6-0.4l-3.3,0.6l-2.7,0.3l-3-0.4l-2.8,0.6l-1.2,0.1l-1.4-0.1h-1.3l-1.2-0.2l-2.3-0.8l-0.9,0.1l-1.9,0.6l-1.9,0.5l-1.9,0.3
		l-2.8,1.3l-2,1.9l-0.6,1.4l-1,1.4l-1.4,2.2l-1.8,2.1l-1.2,0.9l0.3,0.6l-0.3,0.7l-1.9,0.3l-1.5,0.1l-0.3,0.3l0.2,4.2l0.5,1.6l1,1.9
		l0.6,1.1l0.5,3.1l0.1,2.6l2.1,1.7l1.2,1.3l0.9,1.2l-0.3,0.7l-0.5,2.1l0.5,2.8l3,5.9l0.3,0.4h-0.3l-0.5-1.2l-1.5-1.9l-0.5-2.1
		l-1.8-2.3l-1-0.9l-0.3,0.8l-0.6,0.8l-1.7-1.2l-1.5-1.2l-1.4-2.3l-0.2,0.6l-0.3,0.5l-1.6-1.8l-1.6-1.5l-1.5-0.5l-0.9-0.5l-0.9-0.8
		l-1.8-0.8l-4.5,1.2l-5.8-0.9l-2.2,0.9l-0.9-0.5l-0.6-1l0.5-1.7l0.1-3.6l0.7-2.5l-0.3-1.9l0.3-0.9l0.3-1.2l-0.9-0.5l-4.1-1l-0.9-0.8
		l-1.1,0.9l-4.9,0.5l-1.9,0.8l-1.7,1.4l-0.5,1.8l1,1.2l0.6,2.1l-1.8,4.6l-0.3,1.4l0.7,5.6l-0.3,3.1l-1,2l-1.5,1.8l-0.6,3.1l-1.2,1.4
		l-1.6,3.3l-1.1,4.1l-0.8,1.9l-0.5,3.5l-3.3,5.3l-0.8,3l-1.2,1.2l0.4,0.9l0.1,1.5l-0.4,4l-0.1,3.3l0.5,1.8l1.6,3.5l-0.4,1l-0.2,1.4
		l1.3,0.6l0.9,0.2l5.4-1.7l1.8,0.4l0.7,1.6l0.4,1.3l0.9,7.3l0.5,1.3l1.1,1.3l1.2,1.4l0.4-0.2l0.1-0.5l0.1-0.6l1.1,1.4l0.8,2.6
		l2.8,13.5l0.8,1.7l0.7,1.8l-1.7-0.9l-0.5-3l-0.5-1.3l-0.6-0.2h-1l-0.1-0.5l0.7-1l-0.1-1.2l-1-1l-1.6,0.8v2.1l0.7,1.6l2.7,3.6
		l0.9,1.5l1.1,0.4l1.6-0.2l1.9,1.5l1.5,1.4l3.7,2.2l2.2-0.2l2.4-0.5l1.6,0.1l1.6,0.6l1.9,1.8l3,4.6l4.9,3.8l-0.5,0.9l-0.2,1.4l-2,2
		l-0.3,1.2l-0.7,1.4l-1.3,0.7L360,425l-0.7-0.1l-0.5-0.3l-0.8-1.3l-0.4-0.4l-0.3-0.1l-2.5,0.9l-2.4,1l-0.4,0.9l-0.6,1.1l-0.7,0.4
		l-0.6,0.1l-0.5-0.6l-0.9-0.8L348,425l0.2-1.2l1.4-1.8l0.2-1.3l-0.2-2.2l-0.4-1.2h-0.4l-0.7-0.2l-1.9,0.2l-0.9-1.4l-0.4-1.5
		l-0.6-0.5l-0.6-0.3l-1.4,0.5l-1.1-0.3l-3.6-1.4l-1.4-2.2l-0.7-0.1l-0.6,0.2l-0.3,0.5l-0.4,2.5l-0.3,0.8l-4.1-5L327,407l0.4-3.8
		l-0.9-0.7l-1.1-0.1l-0.8-1l0.7-2.2l-1.2,0.4l-1.5-0.1l-1.3-0.6l-0.9-3.1l-0.6-0.9l-1.3-1.6h-1.7l-0.6-0.8l0.1-2l-1.2-1.2l-1.7-1
		l-1.4-0.6l-1.4-3.2l-1.2-0.8l-0.9-0.6l-1.3,0.4l-0.4,1.2l-0.9,1.2l-1-0.1l-0.9-0.6l-1.2-3.2l-0.2-2l0.2-3.7l1.4-3.3l0.7-5.3
		l1.2-3.3l0.8-1.2l1.2-4.6l2.3-5.8l0.3-1.2l0.6-1.5l0.3-1.3l0.1-2.1l-0.3-1.1v-0.6l0.5-0.8l1.6-1.3l2.3-2.2l2.7-3.1l2.8-4.7l1.4-2.7
		l0.6-1l0.6-0.3l0.9-0.9l0.6-1v-0.5l-1.5-5.1l-1-1.7l-0.5-2l-0.3-1.4l-0.4-1.3l0.2-1.2l-0.5-0.8l-1.2-1l-1.3-1.4l-0.8-2.4v-1.3
		l-0.8-1.2l-0.3-1.2l0.5-1.2l0.6-1l-0.1-4.4l-0.3-1.3l-0.3-2.3l-0.8-1.8l-1.2-2.1l-1.3-1.7l-3.5-3.1l-2.5-2.1l-1.2-1.9l-1.5-2.2
		l-1.2-1.6l-1.4-2l-0.7-2.7l-0.4-2.9l0.2-0.9l0.7-0.6l0.9-0.5l0.7-0.1l2-1.3l1.4,0.1l0.3-0.3l0.1-0.6l-0.2-2.6v-3.5l0.3-2.9l0.3-1.9
		l3.7-2.2l0.8-1l0.4-1v-0.9l-0.3-0.7l-0.6-0.4l-2.3,1.8l-0.5-0.4l-1.1-3.1l-0.5-0.9l-0.7-1.2l-0.7-1.6l-0.1-2.8l-0.5-1.4l-3-2.9
		l-1.3-1.6l-1.8-2.3l-2.2-2.6l-2.2-2.5l-1.1-1.6l-0.4-0.4l-0.1-0.6l0.7-1.7l-0.3-1.7l-1.1-2.3l-0.5-1.4l0.2-0.6l-0.5-0.2l-1.2,0.1
		l-1.2-1.2l-1.2-2.3l-0.1-0.4h0.4l1.4,0.4h0.5l1-0.5l1.5-0.6l0.9-0.2l0.3-0.3l0.1-0.6l-0.8-5.3l0.1-1.2l1.5-2.3l-0.2-2.3l0.4-3.3
		l1.6-2.3l1.2-1.1l0.4-1.7l0.6-0.3l1,0.1l2.1,1.2l0.9,0.1h1.3l1.4-0.1l0.6-0.1l4.4-1.2l1-0.1l0.9,0.2l0.7-0.1l0.7-0.6l0.5-1l0.6-3.1
		l0.3-0.5l0.6-0.5l0.9-0.3h1.1l1.4,0.6h0.9l1-0.2l0.9-0.4l0.6-0.6l0.3-0.7l-0.2-1.3l-0.6-1.6l0.2-0.2l1.2,0.4l1.7,0.4l1.3-0.1
		l0.9-0.3l0.8-0.8l1.1-0.7l1,0.2l0.8,0.6L334,181.8L334,181.8z M371.7,322.8l0.1,0.4l-0.9-0.3l-0.3,0.1l-0.9-0.1l-0.5-2.3l0.1-0.5
		l0.7,0.2l1,1.2l0.5,0.8L371.7,322.8L371.7,322.8z M374.6,328l-0.3,1.7l-0.9-0.7l0.2-0.9l0.4-0.4L374.6,328z M333.2,360.7L333,361
		l-0.6-0.5l-0.5-0.6l-0.2-0.8h1l0.5,0.7L333.2,360.7z M333.1,362.5l0.1,0.9l-0.4,1.2l-1.5,0.7l-0.5-0.9l0.1-1.4l0.2-0.3l1.5,0.1
		L333.1,362.5z M304.3,371.3l-0.9,0.2l0.1-0.9l0.2-0.6l0.4-0.1l0.2,1L304.3,371.3z M306,390.2l-0.2,1.2h-0.7l-0.7,0.8l-0.3,0.1
		l-0.6-2.5l0.6-3.5l0.3-0.5l0.5,0.9l1.4,0.4l-0.6,2.1L306,390.2L306,390.2z M308.9,389.7l-0.2,0.3l-0.8-3.1l1.2,0.8L308.9,389.7z
		 M316.9,395.2l0.4,2l-0.6-0.4l-0.5-0.9v-1.3l0.1-0.2L316.9,395.2L316.9,395.2z M326.4,412.8l-0.3,0.1l-0.6-1.3l0.8-1.9l0.8,2.3
		L326.4,412.8L326.4,412.8z"/>
</g>
<g id="singapore" class="country">
	<path style="fill: blue" d="M396.8,497.3l-2.5,1.1l-2.8-1l0.9-1.6l1.8-0.4l1.5,0.5l0.8,0.4l0.6,0.4L396.8,497.3z"/>
</g>
<g id="philippines" class="country">
	<path d="M689.5,173.7l-0.8,1.4h-0.6l0.1-0.8l0.8-1.6h0.3L689.5,173.7L689.5,173.7z M690.9,180.9l-0.3,0.2l-0.5-0.1
		l0.4-1.6l0.8-0.4l0.7,0.2L690.9,180.9L690.9,180.9z M683.7,198.3l0.2,1.6h-1l-1.5-0.9l-0.1-0.5V198l0.3-0.3L683.7,198.3z
		 M679.3,203.1l-0.1,1.2l-0.8-0.6l-0.2-0.9l0.1-0.6l0.4-0.8l0.5,0.7L679.3,203.1z M690.3,206.3l-1,1.2l-0.5-0.3l0.6-1.2v-0.4
		l0.5-0.9l0.9-0.3l0.7,0.9L690.3,206.3L690.3,206.3z M676.8,211.1l2.5,0.9l5.5,3.2l2,0.8l2.1,0.6l1.7,0.2l1.5-0.7l0.6-0.8l1.2-2
		l1.2-0.2l0.7,0.7l0.6,1l0.3,1.4l-0.3,1.5l-1.2,1.3l-0.7,1.6l-0.5,5.3v1.6l0.4,1.5l1,2.4l0.5,0.7l1.5,0.9l0.4,0.6l0.1,1.2l0.2,1
		l1,0.4l0.8,0.5l-0.3,1.2l-0.5,1.2l-0.7,2.8l-3.3,6.6l-0.2,1.4l-1.3,2.8l-2.6,0.5l-3,1.4l-1.7,1.1l-1.5,1.4l-0.6,1.8l0.5,0.8
		l0.3,0.9v0.9l-0.5,0.8l-1.5,1.9l-0.6,1.6l-0.6,0.7l-0.3,0.8l0.1,1l0.6,0.9l1.8,3.7l1.9,3.5l0.4,0.4l0.2,0.5l-1.2,0.9v1.7l0.3,1.7
		l1.7,4.2l0.2,1.1l0.6,0.9l0.9,0.9l0.9,0.7l2.8,1.2l1.1,0.2h1.2l0.3-0.8l1-0.3l-0.2-0.8l-1.2-1.2v-0.6l0.6-0.5l0.7-0.3l1.7-1.2
		l1.8-1l2.2,0.1l2.2,0.6l1.5,0.6l1.3,1.1l1.3,1.8l0.9,2v1.1l-0.2,1v0.9l0.7,0.6h2.1l1.1-1.4l0.1-1.7l-0.8-0.6l0.4-0.8l0.6-0.6
		l0.9,0.5l0.9,1.1l3.3,1.2h0.8l0.7,0.2l1.5,0.8l0.7,0.6l-0.8,1.3l-3.2,0.3l-0.9,1l1,2l1.6,1.6l1,1.3l0.9,1.4v1.3l-0.5,1.4l1.4-0.1
		l1.3,0.3l1.9,1.2l0.6,0.1l0.6-0.2l-0.1,4.1l-1.3,3.7l-1.6-0.5l-1.4-1.6l0.3-1.9l0.9-1.9l-0.5-0.4l-0.9,0l-1,0.4l-1.1,0.1l-1.8-0.2
		l-3.7-2l-1.5-0.2l-0.3-0.9l0.1-1.9l-1.5-2.3l-0.2-0.8l-0.5-0.6l-4.4-2.5l-0.5-0.4l-1.3-2l-3.1-2.8l-0.9-0.3l-0.9-0.1l-0.3,0.7
		l0.4,1.2l0.2,0.9l-0.1,1l0.1,0.8l1.4,1.6l0.2,0.7l1,2l0.1,2.4l-1.2,1l-1.4-1.2v-0.9l-0.2-0.8l-1.5-2.2l-0.5-0.5l-2.8-2.1l-2.2-2.3
		l-4.8-2.5l-0.6-0.1l-0.8,0.2l-0.8,0.3l-2.3,1.2l-0.8,0.9l-0.1,1.3l-1.7,1l-2.3,0.1l-1.8-0.7l-1.5-1.3l-1.2-0.1l-1.5-2.1l-1.8-0.3
		l-1.5,1.6l-0.3-3.2v-3.2l0.4-0.9l0.8-0.8l3.8-3.4l0.5-1.1l-0.2-1.5l-0.9-1.2l-1.4-0.7l-1.6-0.3l-1.2-0.7l-0.9-1.1l-0.6,1.9l0.6,2.9
		l0.1,1.9l-0.5,0.7h-1l-0.9-0.2l-0.7-0.7l-0.5-1.9l-1.3-1.3L663,276l-0.6-0.3l-1.2,0.1l-0.9-0.8l-0.6-2.1l-0.1-2.3l-0.5-1.9
		l-0.8-1.9l-0.4-1.5l-0.7-6.9l-0.2-0.6l-0.4-0.5l-0.8-0.8l-0.6-1l-0.1-0.8l0.2-3.4l0.3-0.8l0.7-0.4l0.9,0.7l0.7,0.8l0.9,0.4l0.8,0.5
		l1.5,2l0.6,0.3h1.8l1.1-0.3l0.5-0.7l0.3-0.9v-1l-1.1-3l-0.3-2.2v-2l0.3-2l1.4-3.3l0.2-2.3l-0.1-3.1l0.3-1.8v-1.1l-0.9-1.6l-0.2-1.8
		l2.4-8.9l0.8-1.7l0.6-1.8l0.2-2.4l1.8-0.6l1.7-1l0.9,0.1l0.9,0.2l2.1-0.5h0.8L676.8,211.1z M692.1,272.4l0.3,0.6h-0.3l-0.2,0.1
		l-0.8,1.2l0.8,2.2l-0.5,1.6l-0.9,0.1l-0.4-0.2l0.2-0.8l0.2-0.4l-0.2-1.1l-0.6-0.7l-0.4-1.3l-0.7-0.8l0.3-1.3l2.2-0.1L692.1,272.4
		L692.1,272.4z M694.4,288.4v0.7l-3.5-2.5l-0.2-0.4v-0.4l0.2-0.4l3.5,3H694.4z M730,295.4l-0.4,1.1l-0.5-0.4l-0.8,0.1l-1.2,0.9
		l-1.9-1.2l-0.3-1l1.4-2.1v-3.2l0.5-0.8l0.5-0.6l0.6-0.3l1.4,2.2l0.5,0.3l1.3,1l-0.3,2l0.1,1.2L730,295.4L730,295.4z M663.3,293.4
		v1.2l-2.8-1.7l-0.1-0.6l0.1-0.4l0.3-0.3l1.5,0.6L663.3,293.4L663.3,293.4z M690.1,296.9h1l0.3-0.2l1.9,1.4l-0.1,0.7l0.2,0.9
		l-1.2,1.6l-0.2,0.5l-0.6,0.5l-2.1-1.2l-0.8-0.8l-0.2-1.6l0.8-2.4L690.1,296.9L690.1,296.9z M670.4,297.9l0.8,0.1l2.6-0.5l1.1,0.3
		l0.7,1l0.9,0.3l0.7,0.5l1.3-0.9l1.3,1l1.2,1.8l1.4,1.3l1.3,0.9l0.3,0.7l-0.8,1.2l-0.2,1.5l0.1,1.6l1,3.3l-0.3,0.9l-1,1.3l-0.8,1.4
		l0.1,0.6l-0.3,0.5l-0.1,1l-0.6-0.2l-0.6,0.1l-0.6,0.5l-0.8,1l-1.3-0.3l-0.6-0.3l-0.1-0.8l-0.4-0.6l-0.6-0.4l-1.4-1.4l-0.6-1.1v-1.2
		l-0.4-1.1l-0.7-1l-1-0.7l-0.3-0.7l-0.1-0.8l-0.1-2.1l-1.4-2.7l-0.5-0.6l-1.3-0.7l-1.1-0.9l-0.5-0.9l-0.4-1.4l-0.3-0.2l-0.8,0.1
		l-0.8-0.2l0.2-1l0.8-0.7l1.1-0.1l3,0.4L670.4,297.9L670.4,297.9z M712.5,308.3l1.4,2.5l-1.5-1.7l-1.8-1.2l-1.8-2l-1.3-0.7l-0.4-0.4
		l0.1-0.8l1-0.2h0.4l2.7,3.5L712.5,308.3z M720.6,315v1.5l-0.6-0.5l-2-2.9l-0.6-1.1l0.6-0.7l1.4,1.1L720.6,315L720.6,315z
		 M693.1,316.6l-1.3,4.1l-0.9-1.4l0.4-0.9l-0.8-0.7l-0.2-0.7l0.3-0.9l0.8-0.8l0.2-2.7l1.7-0.9h0.7l-0.2,0.7v1.2L693.1,316.6
		L693.1,316.6z M696.6,313.7l-0.5,0.5l-0.3-0.1l-0.2-0.9l0.5-0.6l0.2,0.1L696.6,313.7z M719.6,317.7l3.1,2l2.2,3.4l0.3,2.6l-0.2,1
		l-1-1.2l-2.2-1.6l-1.5-0.3l-0.5-0.3l0.2-0.9l-1-0.8l-0.1-0.3l-0.9-0.3l-1.3-1.8l-0.9-0.3l-0.9,0.4l-2.1,2.6l-2.2,2v-0.7l0.9-2.3
		l0.6-3.7l0.4-1.2l-0.4-1.7v-1.5l1.6,0.7l2.1,0.7l1.6,0.9l0.3,0.6L719.6,317.7L719.6,317.7z M744.5,313.7l1.2,1.4l0.3,1l-0.1,1.1
		l0.5,0.5l0.9,0.1l1.2,0.5l0.9,1l-0.5,0.9l0.2,1.3l-0.9,1.7l0.1,3l0.5,1v1l-0.1,1l0.2,0.8l1.4,2.8l0.3,0.9l-0.4,0.7l-0.1,0.7
		l0.9,0.1l1.2,1.2l0.7,1.5l-0.2,0.4l-1-1.2l-0.8-0.2l-3.2,0.3l-2-0.5h-1.3l-1.3-2l-1.2-0.3l-0.9-0.9l-1.5-2.3l-0.5-1.3l1-1.3
		l0.3-1.1v-1l-1,0.2l-0.8-0.3l-1-1.3l-0.4-0.7l-0.8-0.6l-1.2-1.5l-1.7-0.6l-0.7-0.4l-1.4-1.2l-1-1.5l-1-2.7l-0.5-2.8l4.4,0.7
		l4.5-0.1l5.1-0.6L744.5,313.7L744.5,313.7z M702.2,317.5l-0.8,0.4l-1.7-1.6l-1-0.8l-0.3-0.4l0.8-0.6h2.2l1.2,1.2l0.2,0.7
		L702.2,317.5L702.2,317.5z M660.5,319.8l0.9,0.2l0.6-0.2l0.6-0.9l0.5,1.3l1.3,1.1l-0.5,1.1l-1.2,0.1l-1.2-0.2l-1.2,0.4l-1.5-0.2
		l-0.9-1l-1-1.8l-0.5-0.3v-0.8l0.4-0.5l-0.2-0.1l0.1-0.3l0.2-0.2l0.3-0.1l0.8,0.8l1.8,1.2L660.5,319.8L660.5,319.8z M659.5,327.5
		l-1.2,0.6l-0.3-0.4l-0.2-0.8v-0.6l-1.2-3l0.9-0.5l0.7,0.3l0.7,0.5l0.6,0.2l0.6,0.9l-0.1,0.6l0.2,0.6L659.5,327.5L659.5,327.5z
		 M699.7,329l1.9,0.8l1.9-0.7l1.8,0.2l1.5,1.2l-0.5,0.7l-0.1,0.8l3.4-1.7l0.9,0.1v1.5l-0.2,1.3l-0.4,1.3l-0.7,1.5l-1,1.3l-1.3,1
		l-1.5,0.6l-0.7,0.5l-0.2,0.8v1l-0.3,0.9l-1.6,0.4l-2.5,1.7l-5.3,1.2l-1.5,0.8l-0.9,1l-1,0.9l-0.6,0.2l-0.3-0.4l-0.1-0.4l0.8-2.4
		l-0.1-1l-0.4-1l0.2-1.9l0.9-1.8l0.5-2l0.1-3.8l0.7-5.3v-0.6l-0.6-0.7l-2.1-0.6l-0.8-0.5l0.4-1.1l0.8-0.7h1.1l0.9,0.7l3.3,1.4
		l1.8,1.2L699.7,329L699.7,329z M738.2,329.3l-0.3,0.9l-0.5-0.2l-0.4-0.4l-0.6-1.3l-0.2-0.9l0.9,0.5l0.5,0.9L738.2,329.3z
		 M734.2,331l-2,0.1l-0.9-0.8l-1.2-2.2l1.3-0.5l1.2,0.1l0.9,0.8l0.9,1.5L734.2,331L734.2,331z M733.6,333.5l1.2,0.6l1.3-0.2l1.6-1.3
		l1.8,0.5l1,1.9l0.5,0.7l0.3,1.3l-0.1,3l-0.4,2.8l0.3,0.6l0.8,0.5l0.7,0.6l0.6,0.8l0.4,0.9l0.1,2.1l1,1.8l0.1,0.7l-0.2,0.7l-1.7-0.1
		l-0.1,0.6v0.8l-0.6-0.5l-1-1.7l-0.9-0.7l0.3,2.8l0.3,1.4v1.4l-1.6-1l-1.9-0.6l-0.5-0.6l0.2-1.8v-0.9l-0.8-1.9l1-4v-0.8l-0.2-0.8
		l-0.8-1.6l-1.2-1.4h-0.8l-1.8,1l-0.9-0.3l-0.6-3.8l-0.8-3.6l-0.6-0.9l-0.4-1l0.4-0.8l0.7,0.3l1,1l1.2,0.6l0.6,0.5L733.6,333.5
		L733.6,333.5z M656.6,330.5l0.3,0.9l-0.5,1.3l-0.4,0.3l-0.5-0.6l-1.2-0.4l-0.1-0.7h0.6l1.1-0.7L656.6,330.5L656.6,330.5z
		 M615,381.4l-1.5,1.2l0.2-1.5l0.5-1.4l1.5-2.8l1.2-0.9l1.8-2.2l1-1.1l2.5-2.1l2.3-2.3l0.8-0.2h0.8l0.7-0.3l1.5-1.3l3.7-4.2l3.1-3.1
		l3.2-4l1.5-1.2l0.4-0.4l2.9-3.7l0.9-0.5l1-0.4l0.7-0.5l0.6-0.6l1-1.6l0.4-1.9l-0.3-1.1l-0.6-1.6l0.7-2.1l0.6-1l2-4.3l0.6-0.9
		l0.9,0.6l0.1,0.8l-0.4,1.8v0.9l0.5,0.9l-0.6,1.5l1.5,4.1l1.2,2.6v0.8l-1.5,1.5l-0.9,0.5l-1.9,0.4l-0.9,0.5l-1.4,1.2l-0.9,1.6
		l-0.2,0.8l-0.4,0.7l-4,1.2l-1.9,0.7l-0.8,0.5l-0.5,0.9l0.3,1.6l-3.3,5.7l-1.1,1.5l-1.2,1.3l-1.4,0.9l-2,0.5l-1.6,1.1l-1.1,1.9
		l-1.4,1.6l-1.6,1.3l-1.8,1.2l-1.6,0.8l-1.8,0.6l-0.5,0.8l-0.4,0.9l-0.8,0.5l-0.9,0.2L615,381.4L615,381.4z M720.3,334.5l1,2.2H720
		l-0.5-1.6l0.6-0.5L720.3,334.5L720.3,334.5z M714,364.7l-0.6,0.4l-0.3-1.1l0.2-1.5l1.2-5.1l-0.3-1.3l2.1-2.9l1.3-2.7l1.9-2.8
		l0.2-1.4l1.7-2.8l1.6-3.9l-0.1-1.3l0.4-0.6l0.2-1v-0.8l1.2-1.4l0.3,0.9l-0.3,1.8l0.1,0.9l0.2,0.4v1.7l-0.4,2.6l0.4,3l-0.8,3.1
		l-0.9,1.4l-1.3,1l-1.4,0.6l-1.4,1.5l-0.9,1.8l-0.2,1.6l-2.3,5.5l-2,2.3H714z M710,371.1l-1.1,0.2l-1.2-0.1l-0.8-0.8l-1.3-3.5
		l-1.5-0.9l-1.8-0.6l-0.9-0.5l-0.8-0.6l-2.5-3.5l-0.2-2.1l0.4-1.2l0.8-1.1l0.9-0.3h2l1.1-0.1l2.3-1.6l0.2-0.6V351l-0.2-1.8l-0.6-1.8
		l0.6-0.8l0.8-0.8l0.9-1.6l0.2-1.2v-1.2l0.2-0.8l0.7-0.4l3.2-1.3l0.6-0.1l4.2,1.2l0.9,1.8l0.1,0.6l-0.6,2l-0.6,1.3l-1.4,2l-1,2.2
		l-0.8,3.3l-0.5,1.1l-1.3,2.1l-0.4,1.2v2.5l-0.2,0.9v0.9l2.6,4.1l0.2,0.6v0.7l-0.4,0.9l-1.1,1.6l-0.6,0.6L710,371.1L710,371.1z
		 M702.2,347.9l-0.5,0.2h-0.4l-1,0.6l-0.4-1.2l0.3-1.9l1.4-1.4l0.4-0.5l0.4-0.3h0.5l0.5,0.6l0.1,0.9l-0.9,2.6L702.2,347.9
		L702.2,347.9z M729.4,345.7l-0.5,0.1l0.8-1.7l0.6,0.3l0.2,0.2v0.8L729.4,345.7L729.4,345.7z M657.5,347.7l-2,0.5l-0.5-1.6l1.4-1.5
		l1.6,0.6l0.9,0.6l-0.5,0.5L657.5,347.7z M751.9,357.1l-0.3,0.5l-0.4-0.9l-0.9-0.9l-0.9-1.5l-0.6-0.5l0.4-1.2v-1.9l0.9-0.9l0.4-0.3
		l0.7-0.9l0.3-0.1l0.3,0.8l-0.6,2.4l1,2.8l-0.3,1.8l0.1,0.4L751.9,357.1L751.9,357.1z M734,359.2l-0.2,0.6h-1.3l-0.5,0.1l-1.2,1.5
		l-0.7,0.4l-3.9,0.5l-3.1-0.4l-1.1-0.8l-0.7-1.4l-0.2-0.9l0.8-1l0.7-0.7l2.5-1.3l0.6-1l1.3-1.2l2.7-0.4l0.3,0.3l0.4,0.2h0.5l1.3,1
		l1.5,0.6l-0.4,2.4l0.4,0.8L734,359.2L734,359.2z M745.2,356l0.1,0.8l-2.1-2.2l-0.4-1.5l0.7,0.1l0.9,0.6L745.2,356z M757.9,359.5
		l-0.2,0.1l-0.9-1.3l0.1-1.4l1.2-2.2l0.9,1.9v0.9l-0.1,0.4l0.9,1.1l-0.6,0.5L757.9,359.5L757.9,359.5z M757,366.9l1.3,1l1.7-0.3v2.5
		l0.3,0.7l1.6,2.1l0.2,1.8l-0.9,1.7l-0.7,0.8l-1.3,1.2v0.5l0.6,0.6l1.8,0.3l1.4,0.9l0.2,2.6l1.3,2v0.9l-0.5,3.6l0.2,1.5l1,1.2
		l0.8,0.5l0.4,0.8l0.4,2.1l-0.1,3.6l-0.1,1.3l-0.6,1.2l-1.8,2.7l-2.4,2.1l-1.3-0.1l-0.4,0.6l0.8,1.9l-0.3,4.1l-0.5,2.8l-0.8-1.4
		l-0.5-1.5l-0.5-4l-0.6-1.8l-0.9-1.6l-0.4-1.5l-1-1.4l-1.2-3.5l-0.8,0.2l-1.4,1l-0.3,0.7l-0.2,1l-0.3,0.9l-1.6,1.4l-1.3,1.7l-1,1.9
		l-0.3,1.7l0.9,1.4l0.9,0.5l1.3,1.2l0.4,0.6l1.3,3.9v4l-1,1.8l-2.5,3.4l-1.8,1.1l-0.9-0.5l-0.8-2l-0.1-0.8l0.5-1.9v-1.7l-0.6-0.6
		l-0.7,0.1l-0.3,0.3l-1.6,2.3l-0.7,0.6l-1,0.1l-0.8-0.1l-4.7-2l-3.9-2l-3-1.9l-2.3-2.9l-0.5-2.1v-2.2l-1-3.2L724,406l0.1-1l1-2
		l1.2-1l0.7-0.7l0.5-0.8l0.4-1.1l-0.1-1.1l-0.4-0.7l-1.9-2.3l-1.6-1.4l-3.3-1.3l-0.8-0.7l-0.8-0.5l-0.9-0.2H717l-1,0.4l-0.3,0.8
		l0.1,0.8l-0.1,0.7l-1.4,4.2l-1.8-0.9l-1.7-1.1l-0.5-0.8l-0.2-0.9l-0.3-0.6l-0.4-0.6l-0.8,1.4l-1,1.2l-1.2,0.3h-1.2l-0.4-0.5
		l-0.4-2.7l-1.3-0.8l-1.6,0.2l-1.9,1.5l-0.4,0.6l-0.4,1.3l-2.1,3.6l-1.2,2.8l-1.2,2.7l-0.5,0.9l-0.7,0.6l-1.2-0.2l-1-0.6l-1-1.7
		l0.3-2l1.2-1.3l0.9-1.4l1.2-4.9l0.1-1.7l0.2-0.7l1.8-2.2l1.5-1.4l0.8-0.3l3.3-0.8l1.4-0.6h2l1.7-0.4l1.4-1.1l0.1-1.1v-1.2l0.3-0.7
		l0.5-0.6l0.7-0.8l0.8-0.6l2.4-0.4l0.8-0.5l0.6-0.7l0.9-1.4l1.1,0.4l1.1,0.6l1.9,0.5l1.7,1.2l1.1,1.9l0.2,0.9l0.3,3.1l-0.4,0.7
		l-1.6,1.4l0.8,0.2l2.2-1.3l1.1-0.5l2.6-0.7l0.6-0.5l0.5-0.7l0.9-1.9l0.7-2l0.5-0.8l0.8-0.7l0.8-0.1l2.7,1.4l1.8-0.7l0.5-2.1l0.4-3
		l0.3-0.8l1-0.8l1.2,0.3l1.7,1.1l1.5,0.4l0.6-0.9l0.5-1.7h0.6l2.1,0.6l2-0.4l0.6-2.1l-0.4-2.2l-1.6-6.5l0.9-1.4h0.8l2,1.7l3.8,2.3
		l1.3,1.4L757,366.9L757,366.9z M756.5,362.4l-0.3,0.4l-0.5-0.9l0.4-1.9l0.3-0.3l0.4,1.2L756.5,362.4z M719.3,368.2l0.1,1.7
		l-1.5,0.5l-1.2-0.4l-0.8-1v-0.4h0.7l1.5-0.9l0.5-0.2L719.3,368.2z M737.4,369.8l-0.5,1l-1.8-0.8l-0.4-0.7l0.2-0.8l0.9-0.3h0.5
		l0.9,0.9L737.4,369.8z M615.7,385l-1.2,0.4l-0.2-1l0.1-1l0.8,0.1l0.4,0.3L615.7,385L615.7,385z M611.2,390.5l-0.8,1.2l-1-1.4l0.1-2
		l0.3-0.6l1.4-0.3L611.2,390.5z M706.9,398.2l0.2,0.4L707,399l-1.7,0.8h-0.6l-0.1-1.3l0.4-0.6l0.8,0.5l0.7-0.6L706.9,398.2
		L706.9,398.2z M753.4,405.6l-0.3,0.9l-1-2.2l-0.4-0.5l0.5-1.8l1.2,0.9L753.4,405.6L753.4,405.6z M693.1,414.3l-1.7,0.2h-0.6
		l-1.3-1.7l-0.1-0.7l-1-0.8l0.4-0.8l1.4-0.2l2.3-1.1l3.8,1.7l0.6,0.6l-1.2,0.4l-0.8,1.6L693.1,414.3L693.1,414.3z M677.8,420.1
		l0.9,1.2l1.2-0.3l1.8,0.3l0.4,0.6l-0.1,0.4l-1.9,1.2l-1.2-1.2l-2.2,0.8l-1.1-0.5l-1.4,0.4l-0.9-0.9l0.4-0.9l2.3-1.5L677.8,420.1z
		 M663,433.4l-0.5,1l-0.5,0.5l-0.7-0.3l-0.5-0.5l-0.3,0.8l-1.4,0.3l-0.9,1.2l-1.3,0.3l-0.9-0.1l0.1-1l2.5-1.5l1.6-0.6l1.4-1.2
		l0.7-0.1l0.3,0.9L663,433.4L663,433.4z"/>
</g>
<g id="myanmar" class="country">
	<path d="M350.6,160l-1,1.7l-2.5,1.8l-1.8,0.9h-1l-0.9,1.1l-0.7,2.1l-0.8,1.2l-0.8,0.4l-0.5,0.8l-0.2,1.2l0.4,0.7
		l1.2,0.1l0.1,0.3l-0.9,0.6l-1.2,0.2l-1.4-0.2l-1.3,0.5l-1.3,1.2l-1.1,2.5l-0.9,3.8l-0.1,1l-2-1.1l-0.8-0.6l-1-0.2l-1.1,0.7
		l-0.9,0.8l-0.9,0.3l-1.3,0.1l-1.7-0.4l-1.2-0.3l-0.2,0.2l0.6,1.6l0.2,1.3l-0.3,0.7l-0.6,0.5l-0.9,0.4l-1,0.3h-0.9l-1.4-0.6h-1.1
		l-0.9,0.3l-0.6,0.4l-0.3,0.6l-0.5,3.1l-0.5,1l-0.7,0.6l-0.7,0.1l-0.9-0.2l-1,0.1l-4.4,1.2l-0.6,0.1l-1.4,0.1h-1.3h-0.9l-2.2-1.2
		l-1-0.1l-0.6,0.4l-0.4,1.7l-1.2,1.1l-1.6,2.3l-0.4,3.3l0.2,2.3l-1.5,2.3l-0.1,1.2l0.8,5.3l-0.1,0.6l-0.3,0.3l-0.9,0.2l-1.6,0.6
		l-1,0.5h-0.5l-1.4-0.4H289l0.1,0.4l1.2,2.3l1.2,1.1l1.2-0.1l0.5,0.2l-0.1,0.6l0.5,1.4l1.2,2.3l0.3,1.8l-0.7,1.7l0.1,0.6l0.4,0.4
		l1,1.6l2.2,2.5l2.2,2.7l1.8,2.3l1.3,1.6l3,2.9l0.5,1.4l0.1,2.8l0.7,1.6l0.7,1.2l0.5,1l1.2,3.1l0.5,0.4l2.4-1.9l0.6,0.4l0.3,0.7v0.9
		l-0.4,1l-0.8,0.9l-3.7,2.2l-0.3,1.9l-0.3,2.9l-0.1,3.5l0.2,2.6l-0.1,0.6l-0.4,0.2l-1.4-0.1l-2.1,1.3l-0.7,0.1l-0.9,0.5l-0.7,0.6
		l-0.2,1l0.4,2.9l0.7,2.7l1.4,2l1.2,1.6l1.5,2.2l1.2,1.9l2.5,2.1l3.5,3.1l1.3,1.7l1.2,2.1l0.8,1.8l0.3,2.3l0.3,1.3l0.1,4.4l-0.6,1
		l-0.5,1.2l0.3,1.2l0.8,1.2v1.3l0.8,2.4l1.3,1.5l1.2,1l0.5,0.8l-0.2,1.2l0.4,1.3l0.3,1.4l0.5,2l1,1.7l1.5,5.1v0.5l-0.6,1l-0.9,0.9
		l-0.6,0.3l-0.6,1l-1.4,2.7l-2.8,4.7l-2.7,3.1l-2.3,2.2l-1.6,1.3l-0.5,0.8v0.6l0.3,1.1l-0.1,2.1l-0.3,1.3l-0.5,1.4l-0.3,1.2
		l-0.7,0.2l-1.6,2.4l-0.7-1.2l-0.4-1.2l0.4-2.8l-0.9-5.3l0.6-0.7l0.6-0.4l1-2l1.4-2l0.1-2.4l1-1.8l-0.2-1.5V332l0.2-1.4l-0.1-1.2
		l0.8-1.2l1.4-0.9l-0.6-0.3l-0.6-0.7l-1.8,1l-0.9-0.3l-0.2-1.1l0.2-1.2l0.1-0.7l0.7-0.8v-1.5l-0.4-1.3l0.5-1.6h-1.1l-0.5-0.3
		l0.3-0.9l1-0.8l-0.9-1.5l0.7-1.6v-2l-0.5-1.8v-1.3l-0.7-2.3l-0.3-2.9l-1.5-2.2l-1.1-3.2l-2.9-4.2l0.1-1.8l-0.2-1.6l-0.6-0.8
		l-0.8,5.6l-0.6-1.1l-0.2-3.1l-0.4-1.5l0.5-2.9l-1.7-2.9l-0.4-2.1l-1.1-3.2l0.3-0.7l1.5,0.7l-1.4-1.9l-1.1,0.4l-0.9-2l-0.2-5.5
		l-0.9-2l0.5-2.1l-1-7.5l-2.1-2.4l0.4-2.1l0.5-1.9l-0.1-3.5l0.5-1.1l1-0.8l-0.9,0.3l-0.8,0.2l-1.9,0.2h-2.1l-0.7-2.5l-1-1.2
		l-0.9-2.5l-0.5-2.9l0.3-0.6l-1.6-1.2l-0.4-0.7l-1.7-1.9l-2-1.4l0.4,1l0.5,0.6l-1,1.7l0.9,2.9l-0.8,1.9l-0.8,2.4l-0.7,1.2l-2.3,2.5
		l-1.9,0.8l-1.2,0.1l-1.1-0.3l-1.3-1.3l-0.3-1.1l-0.2-1.8l-0.5-0.3l-0.5,0.2l0.8,2.3v1.1l1.4,2.1l-0.5,0.6l-2.6,1.2l-0.9-0.2
		l-0.6,0.2l-0.2,0.9l-0.3,0.5l-4.1,1.3l-0.8,1.6l-0.5,1.6l-2,2.3l-2.7,1.9l-0.7-0.1l-0.8-0.5l0.1-2.1l0.9-1.8l-0.3-1.9l-0.2,1.1
		l-1.7,2.6l-0.8,0.9l-1.6-0.2l-2.2,0.4l-0.8-2.7v-0.9l-0.2-0.8l0.3-0.9l-0.1-0.7l-0.6,1.3l-0.2,1.2l-0.8,1.1l-2.2,1.2l-0.1-1.4
		l-0.1-1.3l0.5-1.2l-0.1-1.8l0.7-2.7l-0.1-0.9l-0.2-1l-0.4,1.5l-0.2,1.5l-0.5,0.5l-0.8,0.3l-1.5,1.7l-0.9,1.6l-2.3,1.5l-1.2-0.2
		l-0.2-1.9l0.9-6.6l0.9-0.9l0.4-1.2l0.8-3.9l0.9-1.5l0.3-3.1l0.3-0.5l1.2-2.4l0.4-4.4l-0.5-2.2l-1.1-2.1l-1-6.4l-2.7-5.2l-0.2-1.7
		l-1.3-2.1l1.2-0.2l-2.5-1.9l-0.3-0.8l-0.5-4.3l0.1-2.4l-0.4,0.3l-0.3,1.5l-1,0.6l0.4,2.6l-0.1,0.6l-0.5,1l-2.1-1l-1.6-1.2l-1.7-2.8
		l-1.7-3.1l0.6-0.5l0.8-0.1l2.4,2.3l1.6,0.5l1-0.6l1.2-1l0.6-1.9l-0.6-0.7l-1.2-0.4l-0.8-0.5l-1.2-1.3l-0.2-0.7l-0.3-0.8l-1.2-0.6
		l-0.9-0.8l0.8-1.4l0.8-1h-2l-2.3-1.7l-0.5-0.5l-0.8-0.3l-1.8-0.2l-1.5,0.5l0.7,2.5l-0.1,0.8l-1-0.1l-2.1-3.7l0.6-1l0.9-0.9
		l-0.5-0.1h-0.9l0.9-3.3l-0.5-0.5l-0.3,1.1l-0.5,1l-1.8,2.3l-0.9-0.5l-0.6-0.6l0.9-1.2l0.5-0.3l0.3-0.7l-0.7-1.3l-1-0.9l-0.8-1.4
		h-0.4l0.4,1.9l-0.2,2.7l-1.9-3l-3.8-4.3l-0.9-1.3l-0.2-1.3l-0.4-1.2l-0.3-1.3l-0.1-1l-0.8-0.9l-0.4-1.6l-0.2-1.6l0.5-1.2l1.2-1.2
		l0.8-0.2l0.7,0.5l1.6,0.8l1.1,0.8l0.5,1l0.5-0.1l0.5-0.6l-0.1-0.8l-0.5-2l-0.1-2.5v-5.8l-0.1-0.7l0.9-0.6l0.4-0.7l0.4-1l0.2-0.4
		h0.5l0.8,0.5l1.4,1.7l0.9,0.4l0.9-0.3l0.9-2.5l0.3-0.7l0.5-0.4l0.8,0.1l0.5-0.5l0.2-1.1v-1.2l-0.9-3.3l-0.3-1.5l-0.2-1.5l0.6-1.5
		l0.8-1.8L220,135l0.2-0.6l0.6-0.1l0.8,0.4l0.9-0.3l0.7-1l0.3-0.8l0.4-3.7l0.3-3.3l0.1-2.7l-0.7-1.6l-1.1-4.4l0.3-0.8l0.5-0.2
		l1.6,1.5l0.7,0.3l1.2-0.2l1.2-0.3h0.8l1.2,0.5l1.6,0.6l2.5,0.7l1,0.5l0.9-0.1l0.7-1.7l0.8-2.6l1.2-3.7l1.4-2.7l0.4-0.7l1.5-2.2
		l1.5-2.3l1.3-2.9l0.7-2.1l-0.1-0.9l-0.5-0.7l-1-0.5l-0.8-0.5l-0.2-0.4v-0.5l0.4-1.4l0.7-1.6l0.7-0.9l1.9-1.2l1.2-1.4l1.4-1.9
		l0.8-1.3l0.4-2.6l0.4-0.5l0.8-0.8l0.6-1V80l-0.3-0.4l-0.6-1.8l-0.3-2.8l0.1-2.3l0.5-0.9l0.6-1.3l1.2-0.8l1.7-0.6l2.6-1.5l4.5-3.5
		l1.6-1.2l1.1-0.6l1.1-1.5l1.5-1.6l2.1-0.8l1.4-0.3l6.4-1.2l1.1,0.1l1.1,0.6l1.3,2.2l1.2,0.8l1.4,0.6l1-0.2v-0.9l-3.3-5.1l-0.3-1.4
		l-0.1-1.3l0.4-1l1-1l1.5-1.1l1.8-1.4l1.2-1l1.3-0.3l0.5-0.6l0.1-0.8l-0.1-0.9l-0.6-1l0.1-1.3l0.2-1.2l0.6-0.7l1.2-1.8l0.8-1.3
		l0.4-0.6l0.6-1l1-0.1l1,0.3l0.6,0.6l0.6,1.2l0.6,0.9h0.8l0.8-0.1l0.4,0.1l0.8,0.8l1.4,1.9l0.6,0.5l0.6,0.8l0.3,1.6l0.2,1.6l1.8,5.6
		l0.5,1.2l0.4,0.9l0.8,0.2l0.7-0.9l0.3-1l0.7-0.3l0.9,0.2l1.6,0.9l0.8,0.5l0.4,2.8l0.1,3.2l-0.1,1l0.7,2.7l0.2,3l0.1,1.7v1.6
		l-0.1,2.1l-0.5,2.8l-0.6,2.3l0.2,2l-0.4,0.9l-1.5,0.5l-0.1,0.8l0.4,1.2l1.1,1.5v1l-0.5,0.7l-1.1,0.1l-1.5,0.6l-1,2l-1.2,1.6
		l-0.6,0.3l-2-0.5l-0.5,0.4l-0.7,2.8l-0.6,1.2l-0.9,1l-0.8,0.6l-0.7,0.4l-1.6-0.3l-0.8,1.7l-0.9,2.2l-0.1,1.2l0.4,1.8l-0.2,0.5
		l-0.9,0.4l-1.4,0.8l-0.9,2.6v2.5l0.5,0.8l1,0.4l0.7,0.8l0.1,1.2l0.6,1.5l-0.3,1.7l-2,2.5l-0.1,1.4l1.1,0.4l0.9-0.2l1.2-0.6l1.3-1
		l2.9-1.4l3.2-0.8l2.5-0.2h2.2l1.1,0.3l0.3,0.5l3-0.8h0.6h0.5v0.5l-2.2,2.3l-0.4,1.1l0.1,1.2l0.9,1l0.9,0.8l0.7,2l-0.6,1.8l0.4,0.7
		l0.6,0.8l0.4,1.1l0.1,1.3l-0.4,2.1l3.1,1.1l2.7,0.5l2,0.1l1.3,0.5l0.8,0.4l0.5,0.7l0.2,0.8l-0.7,0.6l-1.3,1.8l-0.8,2.4l0.1,1.8
		l-0.1,1.6l-1.5,2.2l-0.6,1.5l-0.5,1.6v0.7l0.3,0.5l0.7,0.3l1.2,0.2l1.4-0.2l3.3,0.4l3.8,0.7l1.5,0.4l0.5,0.7l-0.1,1.5l-0.3,1.4
		l0.2,1.2l0.6,1l1,0.3l0.9,0.4l0.2,0.8l-0.3,1l0.5,0.8l0.5,0.5l1.1,0.3l2.2-0.7l1.5,0.3l1.4,0.5l1.2-0.2l1.2-0.6l2.6-2.6l3-1.4
		l1-0.3l0.7,0.2l0.2,0.2v0.5l0.3,2.2L350.6,160L350.6,160z M217.7,188.6l0.2,1.7l-0.8-0.7l-1-2.3v-1.5l0.7,0.7L217.7,188.6
		L217.7,188.6z M225.6,189.1l0.3,2.4l-1.2-0.9l-0.4-1.2l-0.1-1.3L225.6,189.1L225.6,189.1z M229.2,194.9l1.9,1.4l0.7-0.1l1.2,0.9
		v0.4l-0.2,0.7l-0.5,0.6l-1.4,0.6l-1-0.5l-0.4-1.6l-1.2-0.7L228,196l0.7-0.9L229.2,194.9L229.2,194.9z M228.8,209.9l-0.3,0.1
		l-1.7-1.4l-1.4-1.9l2.1-0.4l2.1,0.4v1l-0.4,1.6L228.8,209.9z M292.3,251.4l-0.6,0.2l-0.9-1.2l-0.2-2.6l0.8-0.6l0.4-0.1l0.6,0.3
		l0.2,0.4l0.1,0.5l-0.2,0.5L292.3,251.4L292.3,251.4z M241.7,256.5l-1.1,1.7l-0.4-2.5l1.7-1.4l0.9-1.3l0.9-0.9l0.3,1.1l-0.9,2.1
		L241.7,256.5z M247,258.7l-0.3,0.4l-0.7-0.3l-0.2-0.2l1.6-1.9l0.2,0.7L247,258.7z M304.4,304.3l-0.1,2.7l-0.8-1.3l-0.1-1.5l0.1-1.4
		l0.2-0.2l0.1,0.2l0.5,0.6L304.4,304.3z M306,312.7l0.4,0.5h0.5l-0.1,1.6l-1.3,2l-0.8,0.3h-0.3l0.3-2.9l-0.5-1.7l0.2-1.2l1.4,0.5
		L306,312.7L306,312.7z M300.3,316.1l-0.1,0.6l-0.9,1.2l-0.8-0.7l-0.2-0.4l0.8-0.8l0.9,0.1l0.2-0.2L300.3,316.1L300.3,316.1z
		 M301.5,320.1l-0.2,0.1l-0.3-0.1l-0.5-0.3l-0.6-1.2l0.3-0.8l0.2-0.2h0.5l0.3,0.1l0.1,0.3l-0.1,0.6v0.5L301.5,320.1z M307.7,324.2
		l-0.7,0.1l-0.3-2.7l0.2-0.4l1,1.3l1.4,0.8l-0.5,0.5L307.7,324.2z M300.5,327.7l0.1,0.9l-1-1l-0.2-2.7l0.8,1.7l0.3,0.4L300.5,327.7z
		 M308.3,326.9l-0.4,3.4l-1-0.5h-0.5l-0.6-1.9v-0.5l-0.4-1.3l2.4-0.2L308.3,326.9L308.3,326.9z M302.9,331.3l-0.1,0.4h-0.1l-0.4-0.3
		l0.2-1.6l0.6-1.3l0.6-1.9l0.3-0.4l0.1,1l-0.4,2.1l-0.3,1.2L302.9,331.3L302.9,331.3z M308.1,339.8h-0.4l-0.3-0.1l-0.3-0.3l0.8-1.8
		L308.1,339.8z M302.7,340l1.4,2.9l-0.1,0.4l-0.2,0.2l-0.3-0.1l-0.5-1.5l-1-1l-1.2,0.2l1-1.3l0.4-0.3L302.7,340z M302.3,356.8
		l-0.8,1h-0.3l0.4-1.6l1.3-1.2l1.2-0.1l-0.1,0.7l-0.8,0.9L302.3,356.8L302.3,356.8z"/>
</g>
<g id="laos_pdr" class="country">
	<path d="M366.7,145.8l0.9,1.7l1.9,1.9l2.3,2.6l0.7,1.2l1.6,0.9l0.5,0.9l0.3,1.4l0.2,1l0.3,0.6l0.5,0.2l0.7-0.3l0.5-0.6
		l0.4-1.6l0.3-0.2l0.5,1.3l0.5,0.2l0.7,0.2l0.5,0.5l0.2,1l-0.2,1l-0.6,1.2l-0.4,1.2l-0.2,1.8l-0.3,1.2l0.5,1.2l3.6,5.4l1.7,0.9
		l4.1,1.1l1.5,0.7l1.3,0.7l1.3-0.3l1.2-1.6l1.5-0.9l2.8-1.4l0.8-0.1l1.5,0.5l2.5,1.6l1.8,1.5l1.2,0.8l0.9,0.7l-0.1,0.8l-0.7,0.8
		l-0.9,0.4L404,179l-0.7,0.8l0.4,0.3l1.7,0.2l2,0.7l0.6,0.8l0.1,0.7l0.3,1.2l0.3,0.3l1.9-0.2l0.6,0.3l0.7,0.6l0.7,1.5v1.2l-1.4,1.2
		l-0.5,0.7l-0.2,1.2l-1,1.4L407,194l-0.7,0.1l-4.7-1.3l-2.2,0.1h-1l-0.5,0.1l-0.3,0.5l0.6,1.4l0.2,1.4l-0.6,1.1l-1.5,0.9l-0.6,0.4
		l-0.1,0.6l0.4,0.6l1.4,0.6l1.7,0.6l5.5,3.6l1.2,0.9l1.6,1.3l1.7,1l4.5,1.3l2,0.8l0.5,0.5v0.5l-0.5,0.8l-0.4,1.3v0.8l0.5,0.8
		l0.8,1.2l1.8,1.8l1,0.8l1.1,0.2l1,0.4l1,1.3l1.2,1.6l0.2,1.2l0.5,1.4l1,1.6l1.4,1.6l2,2l1.2,1.4l0.5,0.5l4.3,3.4l1.1,1.2l1.5,2.4
		l0.6,0.4l0.6,0.5l0.4,1.3l0.1,0.9l0.2,2.9l0.8,0.9l0.7,1.1l0.3,0.8l0.7,0.6l0.7,0.1l0.8-0.6l0.7-0.6l0.3,0.2l0.7,2l0.6,0.7l1.2,0.7
		l1.1,0.5l2.4,2.4l1.3,0.9l0.9,0.3l0.8,0.4l0.2,0.8l-0.3,0.8l-0.5,0.5l-2.8,1.4l-0.4,0.6l0.4,0.9l0.7,1.2l0.8,1l1,1l2,1.6l1.7,1.2
		l0.9,1.4l0.5,0.9l-0.3,1.2l-0.7,1.2l-0.6,1l-1,0.6l-0.3,0.7l0.4,1.1l0.3,0.7l-0.2,0.9l0.1,1.9l-0.9,0.7l-0.8,1.7l-0.6,0.1l-1.4-0.6
		l-0.5,0.3l-0.9,1.2l-1.6,1.4h-0.8l-0.5-0.2l-0.6,0.6l-0.9,1.1H445l-1.7,0.1l-0.6-0.3l-0.7-0.9l-1.2-0.9l-1.1-0.6l-0.6-0.4l-0.5-0.8
		l-0.5-0.5l-0.9,1.1l-1.5,1l-1.4-0.2l-0.7-0.2l-0.6,1.5l-0.4,0.3l-2.6,0.3l-0.5,0.2l0.4,1.3l1.5,2.3l0.5,1.3l-0.9,2.1l-2.6-0.1
		l-1.2-0.9l-1.2-1.2l-0.4-0.6l-3.4-1.2l-2.3,0.8h-0.7l-1.1-0.9l-0.6-0.6l-0.6-1l-0.4-1v-0.5l1-0.4l1.6-0.8l1.3-0.9l0.9-1l0.3-1v-1.2
		l0.4-3.1l0.4-1.5l-0.2-1.8l-0.7-1.4v-2.2l0.3-1.1l0.1-0.7l1-0.9l0.7-1.3l0.4-1.7v-1.2l-0.3-0.7l-1-0.7l-1.6-0.7l-0.9-0.9l-0.4-1
		v-0.9l0.5-0.8l-1.2-0.8l-3-0.9l-1.7-1.2l-0.3-1.3l-1.2-1.7l-2.1-2.1l-1.2-3.1l-0.1-4l0.2-3.3l0.9-3.8l-1.2-2.8l-1.4-1.4l-1.9-1.1
		l-1.8-1.5l-1.7-2l-2-3l-2.4-3.9l-1.6-1.7l-0.8,0.4l-1.7-0.4l-2.7-1.2l-2.3-0.6l-2-0.1l-1.3,0.3l-0.6,0.6v0.6l0.5,0.6l-0.3,0.5
		l-1,0.3l-0.8,0.6l-0.9,1.4v0.1l-0.6,1.9l-1,0.7l-1.5,0.2l-1.5,0.5l-1.5,0.9l-0.7,0.7l0.1,0.5l-0.3,0.1l-0.7-0.3l-0.3-0.6v-1
		l-0.8-0.6l-1.5-0.3l-1.7-1l-2-1.8l-1.4-1l-0.8-0.1l-1.1,0.7l-1.4,1.5l-1.2,0.6l-0.9-0.3l-0.7,0.5l-0.5,1.4l-0.9,1.1l-2,1.2
		l-0.1,0.1l-2.3,1.6l-1.9,1.6l-2.2,2.2l-1,0.3l-1-0.5l-1.5-0.5l-0.8-0.7l1.5-3.6l1.9-4l0.5-1.9l0.1-1.4l-0.2-1.1l-0.7-1.2l-0.7-0.9
		l-0.1-0.6l0.2-0.6l0.8-0.9l1-1.5l0.9-3l1.1-3.2l-0.1-1.9l-0.9-2.1l-0.5-2l0.4-2.7l-0.1-1.1l-0.9-0.5l-3.1-0.5l-1,0.1l-0.8,0.3
		l-0.8,0.8l-1,0.5l-1.9,0.3l-1.8-0.9l-1.5-1.6l-0.4-1.9l1.2-2.3l0.8-1.9l0.5-1.6V185l-0.3-0.8l-0.5-0.1l-1-1l-0.9-1.7l-0.9-0.8
		l-0.8,0.1l-0.8,0.7l-0.7,1.2l-0.6,0.5l-0.4-0.2l0.1-1l0.1-1l0.9-3.8l1.1-2.5l1.3-1.2l1.3-0.5l1.4,0.2l1.2-0.2l0.9-0.6l-0.1-0.3
		l-1.2-0.1l-0.4-0.7l0.2-1.2l0.5-0.8l0.8-0.4l0.7-1.2l0.7-2.1l0.9-1.1h1l1.8-0.9l2.5-1.8l1-1.7l0.9,0.8l-0.3,2l0.5,0.4l0.2,0.7
		l-0.1,1.2l0.2,0.9l0.4,0.5l0.5,0.2l2.6-0.8h1.6l0.7,0.5l0.6,0.3l0.8,0.3l0.6,0.3l0.4-0.1l0.9-0.8l0.3-0.1v-0.4l-0.6-0.8l-0.7-0.6
		v-1.4l0.3-2.4l0.1-1.2l-0.1-3l-0.1-0.8l-0.6-1l-1.6-1.9l-0.5-1.2l-0.3-1.2v-0.7l-0.4-0.8l-0.2-0.8l0.7-0.4l0.9-0.9l0.4-1.4l0.4-1
		l0.6-0.4l0.5-0.2l0.3,0.1l1.3,1.8l1.7-0.9h1.3l1.1,0.5L366.7,145.8z"/>
</g>
<g id="indonesia" class="country">
	<path d="M707,697.1h-1.5l-0.5-0.2l-0.1-1.5l0.5-0.8l3.5-1.1l1.4-1l2-2l1.2-0.5l0.3-0.2h0.2l0.2,1.5l0.5,0.9l0.1,0.5
		l-1.8,0.8l-1.6,1.8l-3.5,1.2l-0.9,0.5L707,697.1z M689.7,691.8l-0.8,0.2l-1.8-0.5l-0.4-0.3l1.5-0.8l1.2-1.2l1.4-0.1l0.8,0.2
		l-0.3,1.4L689.7,691.8z M714.7,687.1l-1.5,0.6v-1.2l1.2-1.5l1-0.5l0.6,0.6v0.3l-1.5,0.5L714.7,687.1z M659.1,671.8l0.7,0.7l2.7,1.4
		l0.4,0.6l0.2,1l0.5,0.7l1.2,0.1l1.3-0.2l1,0.5l0.8,0.7l1.3,1.4l1.2,1.6l1.4,0.9l0.8,1.3l-0.5,1.2l-1.7,1.6l-0.9,0.4l-1.3,0.1l-2,1
		l-0.7-0.5l-2.3-0.3l-1.8-0.7l-1.5-1.3l-0.9-1.4l-1.2-1.2l-1.9-0.8l-3.5-2.4l-2.1-0.2l-0.9,0.2h-0.9l-4.5-1.1l-0.7-0.6l-0.6-0.8
		l-0.5-0.8l-0.3-0.9l0.6-0.8l0.6-0.5l2.5-0.9l1.8-0.3h2.1l3.1-0.3l2.9,0.5l0.9-0.3l1.5-1l0.5,0.3L659.1,671.8L659.1,671.8z
		 M739.6,666.5l0.6,0.2l2.1-1l0.4,0.2l0.4,0.5v1.3l-0.8,1.2l-2,0.1l-0.3,0.3v0.7l0.2,0.6l0.5,0.5l0.6,0.9l0.6,2.2l-1.2,0.9l-0.6,1.7
		l-2,1.5l-2.2,2.5l-1.7,1.3l-1.5,1.5l-1.3,1l-1.7,0.3l-2.5,0.2l-3.3,1.8l-1.9,0.8h-1.8l-1.7-0.6l-0.6-0.7l0.2-0.9l0.6-0.8l0.7-0.6
		l0.4-0.8l-1.9-1l-0.2-0.8l0.8-2.1l0.5-2.2l0.7-1.5l2.7-2.7l1.6-1.3l1-0.5l0.3,0.6l0.6,0.7l0.4,0.1l0.3-0.1l2.4,0.2l0.6-0.2l0.9-1.1
		l0.6-0.6l0.4-1.2l0.1-0.8l2.1-0.6l1.2-0.6l1-0.9l3-1.5l0.5-0.4l-0.1,1.5L739.6,666.5L739.6,666.5z M587.1,661.9l-0.5,0.6l-1.3-1
		L585,661l1-0.6l0.3-0.1l0.8,0.7L587.1,661.9z M707.6,658.2l-0.5,1l-0.9-0.3l0.3-0.9l0.5-0.5l1.3-0.8l1.3-0.1l0.8,0.3l0.3,0.3
		l-2,0.3L707.6,658.2z M650.1,661.4l-0.6,0.2l-0.6-0.2l0.3-1.5l-0.4-1l0.7-0.8l0.2-1.4l0.3-0.4l0.4,0.4l0.2,0.3l0.3,0.1h0.7l0.2,0.6
		v0.6l-0.3,0.6l-0.9,0.6l-0.6,0.7L650.1,661.4L650.1,661.4z M713.1,655.1l-0.3,0.7h-4.5l0.1-0.9l1.2-1l0.4-0.3l1.4-0.3l1.9,0.6
		L713.1,655.1L713.1,655.1z M604,659.3l-2.1,3.5l0.7,0.5l0.4,0.5l-3.5,0.7l-1.4-0.4l-0.8,0.1l-3.5-0.6l-2.5-0.8l-0.3-0.6l0.2-0.7
		l0.7,0.2l1.9,0.1l0.7-0.3v-2.2l-0.3-2.9l2.6-2.3l1.4-0.9l1.6-0.6l4,1.3l0.7,0.4l0.5,0.5l0.3,0.8L604,659.3L604,659.3z M729,654.7
		l-1,1l-0.7,1.8l-0.6,0.5l-1.3,0.3l-0.8-1.8l-1.5,0.1l0.7-1.6l0.7-0.6h0.9l0.4,0.6l0.2,0.1l2.1-2.6h0.4l0.4,0.1l0.3,0.3L729,654.7
		L729,654.7z M723,653.7l-2.3,0.5l-1.4,2h-1.2l-0.6,0.9l-0.1,0.3l0.1,0.4l-0.1,0.4l-0.5,0.4l-1-0.6l-0.9,0.7l-0.4,0.2l-1.3-0.8h-1.2
		l-0.4-0.1l1.6-1.5l2.1-1.4l0.3-0.5l-0.8-0.1l-0.5-0.2l-0.1-0.3l1.3-0.2h0.9l0.7,0.4h0.4l2.9-1.7l1.2,0.4l0.8,0.4L723,653.7
		L723,653.7z M967.7,655.6l-0.8,0.2l-4.1-0.5l-0.4-0.7v-0.3l0.9-0.7l0.9-1.2l1.4-0.4h0.4l1.7,2.7L967.7,655.6L967.7,655.6z
		 M619,655.3h-0.4l-0.7-0.3l0.3-0.7l-0.4-1.2l0.1-0.9l0.9-0.5h1.9l0.1,0.7L619,655.3z M643.8,653.2H643l-0.2-0.7l0.3-0.7l0.7-0.3
		h0.3l0.5,0.6l0.1,0.3l-0.5,0.4L643.8,653.2z M733.6,651.5l0.4,1l1.3-0.6l1.2-0.1l2.8,0.1l2.1,0.2l1.2,0.4l0.1,2l-0.6,0.4l-10.7,1.5
		l-1.1-0.5l-0.4-0.5l1.2-1.5l-0.5-0.7l0.6-1.2l1.3-0.8L733.6,651.5L733.6,651.5z M786.7,650.8l2.9,0.6l1.6-0.1l0.3,0.6l-1.6,1.4
		l-3.3-1.1l-0.6-1.2L786.7,650.8L786.7,650.8z M704.3,659.2l-2.3,0.6l-1.4,0.6l-1.4,0.7l-0.9,0.2l-1.6,0.1l-2.2-0.1l-1.5,0.2
		l-4.2,1.9l-1.6,0.2l-1.4,0.5l-0.5-0.7l-0.6-0.5l-1.4-0.1H682l-1.4,1.7l-2.3-0.4l-0.9,0.2l-0.8,0.4l-0.8,0.2l-0.9-0.1l-3.3-1.3
		l-3.8-0.8l-3.8,0.3l-3.3-0.7l-1.8,0.5l-1.7,0.8l-0.5-0.8l-0.6-0.7l-0.5-1.1v-1.2l0.2-0.9l0.5-0.8l0.3-0.8l0.1-0.9l0.7,0.4l0.7-0.2
		l2.2-0.9l2.2-1.4l2-0.5l1.2-0.1l1,0.3l1-0.1l1-0.3l1.6,1.2l0.7,0.2l2.2,0.1l2,0.6l1.8,0.9l2.6,0.9l1.6,1.2l1.2,0.5l0.9,0.1l0.8-0.2
		l1-0.8l1.2-0.3h1l1.9-0.2l0.8-0.2l0.9-0.4l0.9,0.3l0.8,0.4l3.2,2.1l1,0.1l1.8-0.5l0.5-0.6l0.3-0.9l0.5-0.7l0.7-0.6l0.8-0.5l2.4-0.8
		l1.6-0.8l1.2-1.4l-2.6-0.6l0.6-1l0.9-0.5l1.2,0.2l1,0.8l0.4,2.9l-0.8,0.4l-0.5,0.4l-0.3,0.6l-1.5,1.1l0.6,1.3l-0.4,0.6L704.3,659.2
		L704.3,659.2z M836.4,654.4l-1.4,0.5l0.9-1.3l3.1-2.9l1.1,0.5l1.5,0.1l-2.2,1.3l-2.2,0.6L836.4,654.4z M630.1,654.4l0.8,0.6h0.8
		l1.6-1l0.9-0.4h1l1,0.2l1,0.7l0.3,1.2l0.4,0.3l0.6-1.4l0.8-0.4l0.8-0.3l1.3,0.1l1,0.7l0.9,2v1.7l0.3,0.6l0.6,0.5l0.5,0.7l-0.4,0.7
		l-0.4,0.3l-1.2,0.3l-0.6-0.1l-0.5-0.5l-0.6-0.2l-1.3,0.2l-1.2,0.4l0.2,0.6l1,0.3l0.3,0.3l-0.1,0.4l-0.4,0.1l-1.3-0.5l-0.9,0.1
		l-3.2,0.7h-0.8l-0.5-0.7v-1.8l-0.3-0.5l-2.4,2.2l-0.7,0.5l-0.9,0.3l-1-0.1l-3.5,1.3l-1.1-0.2h-1l-3.7,1.4l-2,0.4h-1l-1-0.1
		l-0.9,0.1l-0.8,0.6l-1.6,0.5l-1.7-0.4l-1.4-0.5l-1.4-0.7l-0.3-0.8l0.1-1l0.6-1.4l-0.4-2.4l0.3-1.1l0.6-1.1l0.8-0.4l1.1-0.1l1.8-1
		l1.7-1.3l0.9,0.1l2.2,0.9l1.3,0.1l2.2-0.1l0.9,0.5l0.4,1.2l0.5,0.5l0.6,0.3l1.5,2.1l1.4-0.1l1.2,0.4l2.2-1.3h1.7l0.5-1l-1-1.1
		l-1.2-0.9l-0.6-0.2h-0.7l-0.6-0.1l-2.7-1.9l-0.8-1l-0.5-1.2l0.3-0.9l1.9-0.8l0.9-0.2l3.2,0.5l0.5,0.5l0.9,1.9L630.1,654.4
		L630.1,654.4z M584.4,651.8l1.7,0.9l2.3,2.5l0.2,0.7l-0.7,0.7l-1.7,1.1l-3.7,1.7l-0.6,0.8l-0.8,1.5l-0.2,0.7l-0.3,0.4l-0.4,0.3
		l-0.8,0.2l-0.9-0.3l0.8-1v-1.2l-0.6-1.2l-0.8-0.9l-1.6-1.2l-1.8-1.2l-1.8-0.6l-1.9-0.3l-0.7-0.5l-1.2-1.4l-0.4-0.8l-0.2-0.8
		l0.1-0.8h0.5l1.9,0.2l3.5,0.9l1.7,0.1l1-0.2l2.6-1.8h0.6l2.4,0.8L584.4,651.8L584.4,651.8z M819.7,648.5l-1,1.5l-1.1-0.1l-2-2
		l0.1-1.4l0.2-0.5l0.8-0.2l2.6,0.4l0.5,1.2L819.7,648.5L819.7,648.5z M770,643.8l0.2,0.8v0.3l-2,0.3l-1.9,0.9l-1,1l-0.8,1.3
		l-2.6-0.5l-2.3-0.1l-1-0.5h-1.2l-1.4,0.4l-2,1.2l-0.5,0.1l0.2-1.7l0.6-1.1l2.2-2.5l1.8,0.6l2.1,0.2l2.4-0.5l1.7-1.2l2.4-0.6
		l1.9,1.5L770,643.8L770,643.8z M780.1,643l-1.1,0.4l0.3-1.2l-0.1-1l1.7,0.3v0.8l-0.2,0.3L780.1,643z M961.8,653.7l-3.8,2.1
		l-5.1-0.4H951l-3,0.5l-0.6-0.4l0.6-2l2.4-5.4l2.9-4.8l1.2-1.2l1.7-1.2l1.8-0.9l4.1-1l3.7,0.2l0.5,0.4l1.6,1.6l1,1.2l0.4,1.8
		l-1.6,3.1l-1.8,2.9l-2.8,2.3L961.8,653.7z M843.9,649.2l-0.3,0.2l-2-0.2h-1.2l0.2-1.2L840,647l0.8-1.4v-1.6l0.9-0.2l0.1-0.9l1-2.4
		l0.6-0.5l0.8-0.2l1-1.4l0.6-0.4l0.6-1.1l0.9-0.5l-0.1-0.9l0.5-0.5l1.4-0.4l0.9,0.5l0.6,0.9l-1.5,1.2l0.8,2.8l-1.2,3.1L848,644
		l-1.3,0.8l-0.4,0.8l-1.5,1.5l-0.5,1.3l-0.1,0.5L843.9,649.2L843.9,649.2z M854.7,636.1l-0.2,0.8l-0.7-0.4l-0.7-0.9l-1-0.1l-0.7-0.2
		l-0.4-0.5l2.8-0.2L854.7,636.1z M567.5,635l-0.2,0.6l-0.8-0.2l-0.8-1.1l0.4-0.3l0.4-0.1l0.6,0.1L567.5,635z M800.5,635.8l-0.7,0.4
		l-1.2-0.9l-0.3-0.3l0.8-0.8l0.8-0.2l0.5,0.4l0.2,0.4l-0.1,0.4V635.8z M671.5,634.7l-1.7,0.1l-0.5-0.2l-0.1-1.6l1.8,0.7h0.6
		L671.5,634.7L671.5,634.7z M558.2,634.5l-0.3,0.2l-2.8-0.1l-1.8,1.3l-1.2,0.4h-4.4l-0.5-0.2h-0.4l-0.2,0.3l-1.4-0.2l-4.5-1.2
		L540,634l0.7-1.2l1.6-1.7l3.2-0.3l14.8-0.1l1.6,1.4l0.1,0.5l-3.2,1L558.2,634.5z M583.3,632.3l-1.3,0.3l-1.2-0.6v-0.8l0.3-0.7
		l1.9-0.4h1l1.1,0.5l0.7,0.5l0.4,0.6h-2L583.3,632.3z M898.7,628.7l-0.3,0.3l-0.4-0.5v-0.3l0.6-0.9l0.6-0.5h0.6l-0.2,0.7
		L898.7,628.7L898.7,628.7z M417.8,626.9l-1,0.4L416,627l-0.3-0.5l1.2-1.2l0.5-0.3l0.6-0.1l0.3,0.6L417.8,626.9L417.8,626.9z
		 M899.4,625.5l-0.9,0.1l-0.4-1.3l0.7-0.3l0.8,0.8L899.4,625.5z M901.1,623.6l-0.4,0.1v-0.8l0.5-0.7l0.5-0.4h0.6L901.1,623.6z
		 M896.4,623.7l-0.3,1.2l-0.3,1.3l-1.5,1.4l-0.9,2.2l-0.5,0.6l-2,1l-1.8-1.2l-0.5-1.1l0.8-4.9l0.8,0.2h0.5l0.2-0.4l-1.2-0.5
		l-0.2-2.8l0.1-1.1l0.9-0.2l1.1,0.8l1.4,1.5l1.6,1.2L896.4,623.7L896.4,623.7z M452.5,616.6l1.6,1.9l1.4,1l1.7,0.5h1.8l1.8,0.2
		l2,0.7l2.1,0.3l1-0.1l0.9-0.4h0.7l0.6,0.3l1.4,1.6l1.6,1.4l0.4,0.7l1.1,3.5l1.2,1l1.7,0.3h2l2,0.1l4.5,0.8l1.8-0.1l1.6-0.8l1.4,0.5
		l3.8,1l1.9,0.2l2.1-0.3h2.2l1,0.3l1,0.4l0.8,0.2h0.9l1.5-0.8l1-1.5l0.8-1.9l0.6-2l0.4-0.8l0.6-0.7l0.8-0.5l0.8-0.3l2.3,0.2l0.5,0.5
		l2.5,3.3l0.4,0.3l2.6,0.2l0.7-0.1l1.6-0.7h0.9l1.7,0.8l0.7,0.7l0.8,0.5l4.1,0.5l1.6,1.4l0.8,0.2l2.9-0.2l2,0.1l1.7,0.4l0.8,2
		l0.6,2.1l0.4,0.7l1.7,0.7l0.7,0.6l-0.2,2.1l0.2,2l3.6,1.7l3.8,1l4.1,0.1l4.1-0.3l2.1-0.4l2.6-0.7h0.5l5.1,2.3l0.4,0.3l0.6,1.7v1.8
		l-0.9,4.2l-0.1,1.2l0.1,1.2l1,2.5l0.5,0.7l1.8,1.3l0.1,0.7l-0.3,0.7l-2.1-0.6l-1.2-0.6l-0.7-1l-1-0.5l-1.9,0.2l-3.6-0.9l-4-1.5
		l-7.1-3.1h-2l-1.9,0.4l-1.9,0.8l-2.1,0.6l-1.5,0.2l-1.5-0.1l-3.8-0.8l-3.9-0.5l-9.9-0.3l-2.8-0.7l-4.6-0.4l-3.7-0.6l-3.7-0.9
		l-9.3-4.3l-3-1.1l-9.3-2l-1.4-0.2l-3.4,0.2l-2.1-0.6h-1.9l-2.8,0.6l-0.9,0.5l-1.1,1h-1.9l-1.9-0.2l-5-1l-1.8-0.6l-1.8-0.9l-1.6-1.2
		l-0.8-0.4l-4.3-1.2l-3.5-0.4l-7.2-0.5l-1.6-0.3l-1.3-0.4l-0.7-0.9l0.1-1.2l0.5-1l0.7-1l0.5-1l-5.3-2.1l-4.1-1.2l-1.8-0.2h-1.8
		l-2,0.2l-2-0.1l-0.9-0.3l-1-0.1l-1,0.2l-0.8-0.1l-0.2-0.9l0.5-0.8l1-0.9l0.6-0.2l0.3,1.4l0.3,0.3l0.9,0.3l0.4-0.1l1.6-1.8l0.4-0.9
		l0.8-2.4l0.8,0.5l0.8-0.3l0.5-0.4l1.3-5.6l1.2-1.6l1.5-1.4l0.8-0.3l1.5,0.8l3,0.3l1.8,0.6l1.8,0.1l1.7,0.3l2.4,1l0.9-0.1l0.9-0.3
		l1.3-1.1l0.6-1.7l1.9,0.9l2.8,0.3l0.7,0.5H452.5z M725.1,616l-0.2,0.8l-0.6-0.9l-0.5-0.5v-1l0.8,0.4L725.1,616L725.1,616z
		 M667.5,621.4l-0.7,2.7l-0.3-1l-0.1-2.5l-0.4-1.2l0.3-1.4l-0.1-3.6l0.5-1.7l0.9,2.1l0.3,1.1L667.5,621.4L667.5,621.4z M539.8,613.4
		l-0.3,0.6h-1.6l-0.3-0.6l1-1.2l0.7-0.1l0.6,0.4L539.8,613.4L539.8,613.4z M868.2,614l-1,1.6l-0.7-0.6h-0.4l-0.2-0.9l0.2-1.9
		l-0.8-2.1h1.2l0.3,0.6l0.3,0.2l1.2,2.1L868.2,614L868.2,614z M899.9,611.7l-0.1,0.6v1.2l0.3,1.1l-0.7,1.2l0.6,1.6l0.1,0.8v1.2
		l-0.2,0.5l-0.5,1.5l-0.5,0.5l-0.4,0.2l-0.4,0.5l-3.2-0.5l-1.4-1.1l-1.2-1.2l-0.3-0.5l-1.4-1.3l-0.3-0.4v-0.7l1.2-0.2h1.2V616
		l0.7-2.3l-1.9-1.4l-0.3-0.6l0.7-0.4l1.5,0.5l1.9-2.5l0.6-0.5l0.3-1.4l1.1-0.2l0.7,0.2l0.5,0.9l0.2,0.8l-0.2,0.7l0.9,0.4l0.8,1.7
		L899.9,611.7z M870.1,614.9l-1.3,1.4l1.3-3.3l0.3-1.7l1.2-1l1.7-5.1l0.4,0.1l0.6,0.5l-0.9,3.7l-2.4,2.6L870.1,614.9z M370.6,608
		l-1.3,0.1l-2.5-2l-0.4-0.6l0.7-0.6h0.7l2.8,1.3l0.6,0.6L370.6,608L370.6,608z M718.1,604.6l-0.1,1.7l-0.6-0.1l-0.5-0.6l-0.1-0.6
		v-0.4l0.3-0.3L718.1,604.6L718.1,604.6z M692.2,607.3l-1,0.4l-2-1.9l-0.8-1.5l0.2-0.9l0.6-0.8l0.3-0.2l-0.1-0.8l0.8-0.4h0.9
		l0.6,1.1l0.7,0.3l0.3,1L692.2,607.3z M702.1,604.6l-0.4,1.1l-0.9,0.8l-0.7,0.1l-0.8-0.2l-1.3-0.7l-0.3,0.8h-1.1l-0.4-1l0.8-3
		l1.2-1.2l-0.1-1.2l-0.9-2.5l0.6-1.3l2.5-1l2.2-1.2l0.7-0.3l0.6,0.9l0.3,4.2l-2.4,3.3l0.5,2.1L702.1,604.6z M710.8,592.9l0.4,3.5
		l-0.1,0.9l-0.9-1.4l-0.3-0.3l-0.3,0.3l-0.3,0.2h-0.5l-0.6,1.4v1.3l-0.5,0.9l-0.2,2.9l0.1,0.8l0.7-0.4l0.4-0.1l1.6,1.2l0.8,0.8
		l-0.2,1l-1.1,1l-1.3,0.4l-0.9-0.4l-0.3,0.2l-0.6,0.5l-0.4,0.7l0.1,0.7l-1.1,1.9l-0.6,0.5l-1.3-0.6l-0.8,0.5h-0.6l-1-1.9v-0.9l0.9-1
		v-0.7l0.5-0.8l1-1.2l0.6-0.9v-0.5l0.4-2l0.2-0.8l0.3-0.9l0.5-1.9V594l1.5-2.9l1.5-0.8l0.6-0.1L709,591L710.8,592.9L710.8,592.9z
		 M880.7,587.9l0.8,0.9l-1.9-0.7l-2.8-1.4l-0.2-1l2.3,1.4L880.7,587.9L880.7,587.9z M711.8,585.7l-1.6,2l-1.2-0.1l-1.3-1.3l-0.4-1.4
		v-0.5l0.9-0.8l3.1,0.3l0.6,0.7L711.8,585.7L711.8,585.7z M798.8,577.1L796,578l0.6-1.6l0.4-0.4l1.4,0.4L798.8,577.1z M794.1,578.6
		l-0.4,0.6l-0.9,0.4h-0.8l0.3-0.6l-0.2-0.3l-0.6,0.2l-1,0.5l-1.2,0.9l-0.7-0.5l-0.2-0.7v-0.3l1.5-1.3l1.7-0.2l2.3-1.2h1.1l-0.3,0.8
		l-0.4,0.6l-0.2,0.6V578.6L794.1,578.6z M801.4,576.5v0.7l-0.1,0.2l-0.9-0.2h-0.6l-0.6-1.2l0.2-0.3l1.2,0.4l0.4,0.1L801.4,576.5
		L801.4,576.5z M600.4,575.2l-0.6,2.8l-1-1.6l1.2-1.9l0.5-0.4L600.4,575.2L600.4,575.2z M783.2,572.7l0.4,0.7L782,573l-0.7-0.7
		l0.7-0.4l0.4-0.1L783.2,572.7z M598.4,581.7l-3.5,3l-0.6-0.8l0.3-3.1l-0.9-1.9v-1.4l0.7-2.5l0.9-1.9l2-1.3l0.5-0.2l-0.1,2.3
		l0.4,0.9l0.2,0.8l-0.2,0.6l0.4,3l0.2,0.7l-0.5,0.9L598.4,581.7L598.4,581.7z M771,569l2.7,1.3l0.6,0.8l0.5,1l0.5,0.5l0.6,0.4
		l1.1,0.9l0.3,1.3l-0.2,2.6l-1.2,0.2l-1.2,0.4l-2.3,1.5l-1.2,0.3l-1.2,0.1l-0.9,0.4l-0.9,0.1l-2.3-0.8l-2.2-1l-3.2-1.7l-0.6-0.4
		l-0.5-0.9l-1.5-1.6l-0.4-1.1l-0.1-3l0.4-0.7l0.6-0.4l2.2,0.7l1.4-0.7l4.1-0.6l4.1,0.1L771,569z M789.4,566.5l-0.8,1.4l-1.4-0.1
		l-0.3-0.2l1.7-0.9L789.4,566.5z M444.5,567.7l-0.3,0.3l-0.9-0.2l-0.7-0.5l-0.4-0.4l-0.1-0.5l0.9-0.6l1.9,0.6L444.5,567.7
		L444.5,567.7z M454.1,566l-0.7,0.4l-0.4-0.4l-0.1-0.4l0.3-0.6h0.9l0.4,0.2L454.1,566z M818.3,565.4l3.8,1.8l1.9,0.3l3.3-0.2
		l1.2,0.2l3.1,2.3l0.9,1.6l0.3,1.4l0.5,1.3l0.8,0.3l0.9,0.1l1.2,1.9l0.2,0.6l-0.9,4.7l-3.7-1.8l-3.6-2l-1.5-0.8l-4.1-1.7l-0.6-0.6
		l-0.5-0.8l-1.8-1l-3.5-0.2h-1.3l-0.5,0.2l0.1,0.6v1.2l-0.9,0.3l-2.2-0.7l-2-0.3l-1.7-0.7l-2.3-0.4l-0.3-0.3l0.2-0.5l-0.1-0.5
		l-0.5-0.2l-1,0.1l-1,0.5l-0.8,0.6l-1.2,1.6l-0.6,0.6l-2,0.3l-0.8-0.2l-0.8-0.4l-2.3-2.9l-0.8-0.6l-0.9-0.5l-0.8-0.2l-0.8,0.4
		l-0.4,0.9l-0.2,1.1l-0.2,0.6l-1,1.7l-0.8,1l-0.3-0.1l0.4-1.6v-0.9l-0.5-1l-0.3-1l3.9-4.6l1.4-1.2l6.1-0.4l3.6,0.2l2-0.1l1.3-0.3
		l1.1,0.2l0.3,0.9l0.7,0.7h0.9l1.7-0.7l1.5-1.2l0.9-0.5l0.9-0.1l1,0.1l0.9,0.3L818.3,565.4L818.3,565.4z M338.9,570.6l0.6,2.3
		l-1.9-1.6v-1.2l-0.3-0.7l-1.2-0.9l-0.9-1.2l-0.4-2.7l0.3-0.6h0.8l3.5,3.5l0.2,0.6l-0.1,1.3l-0.5,0.4L338.9,570.6L338.9,570.6z
		 M466.1,567.6l-0.3,1.7l-0.4,0.6l-1.4,0.8l-0.5,0.5l-1.3-0.1l-0.2-0.9l-0.4-0.6l-1.4-0.7l-0.4,0.2l-0.2,1.1l-2.6,0.7h-0.7l0.4-1.4
		l-0.7-1.1l0-1.2l-0.1-0.6l-0.3-0.3l0.7-0.9l-0.1-1l0.7-1.2l0.4-2.7l2.8-0.6l0.6,0.5l3.3,0.6l2.3,1.6l1.2,2.2L466.1,567.6
		L466.1,567.6z M335.3,563.4l-1.2,1.3h-1.9l-0.4-0.8l0.1-2l-0.5-0.6V561l0.3-1.2l0.4-0.3l3.1,2.8L335.3,563.4z M893.8,553.4
		l-0.5,0.2l-0.2-0.7l0.3-0.9l0.3-0.1h0.3l0.5,0.3L893.8,553.4L893.8,553.4z M329.4,556.9l0.1,0.4l-2.7-1.4l-1.3-0.4l-1.2-1.6
		l0.4-0.7v-1.1l0.2-0.4l0.8-0.2l1.1,0.8l0.8,1.9l1.3,1.7L329.4,556.9L329.4,556.9z M757.8,558.7l-0.3,0.3l-1-0.9l-0.7-2.5l-0.6-0.7
		l-0.6-2.3l0.2-0.7l0.8-1h0.6l0.5,0.6l-0.3,2.5l1.5,3.2L757.8,558.7L757.8,558.7z M721.8,550.6l0.3,0.7h-1l-0.4-1.2l0.1-0.7
		L721.8,550.6z M757.3,547.9l5,0.5l-0.7,0.6l-5.4,0.9l-1.9-0.2l-5.9,0.6h-0.8l-0.1-0.9l-0.6-0.6l0.9-0.6l1.2-0.1l3.3,0.2
		L757.3,547.9z M710.4,548.3l-1.2,1.3l-0.1-0.7l0.3-0.7l0.3-0.5l0.5-0.2L710.4,548.3z M828.1,546.3l0.2,1l1,0.9l-0.3,1.4l-0.4,0.2
		l0.2,0.6l0.4,0.5l-0.8,0.3l-0.6-0.2l-0.9,0.4l-0.6,0.6l-1.9,0.3l-0.7-0.6l-3.4-0.7l-2.2-1.5l-0.3-0.5l4.2-1.7l1.8-0.5h1.5l1.9-0.6
		L828.1,546.3L828.1,546.3z M740.1,546.5l1.5,0.6h0.5l0.5-0.7l0.3-0.1l0.7,0.3l0.2,1.1l1-0.1l0.8,0.4l0.2,0.3l-0.1,1.1l-2.9,0.2
		l-2.1,0.9l-2.8-0.8l-3.2,1.4l-1.9,0.5h-1.7l-1.4-2.4l0.8-2.8l0.6-0.5l1.1-0.2l3-0.1L740.1,546.5L740.1,546.5z M911.8,544.7l6.5,0.8
		l1.7-0.1l3.7,0.3l3.1,1.1l5.4,0.2l1.6,0.3l1.2,0.7l-3,0.6l-1.4,0.6l-2.6,0.3l-2.2-0.3l-1.6,0.3l-0.6-0.6l-2.3-0.6l-3-1.2l-6.2-1.4
		l-0.3-0.9L911.8,544.7L911.8,544.7z M478.3,545.1l-1.9,0.7l-0.6-1.5l1.2-0.5l1.3,0.4L478.3,545.1z M430.8,545.9l0.6,1.2l0.8,1
		l0.6,1.1l0.8,5.2l2.6,4.5l7.4,1.8l-1.2,0.7l-0.6,0.6l-0.5,0.8l-1.1,3.1l0.1,0.7l0.6,1.1l0.1,1.2h-0.9l-1-0.3l-0.8-0.4l-0.8-0.6
		l-0.8-0.4l-0.9-0.3l-1.5-0.9l-2-0.6l-2.1-0.5l-1-1.3l-0.5-1.6l0.5-2.4l-0.5-0.7l-0.7-0.6l-0.9-1.8l-0.3-2l-1.3-0.8l-1.7-0.5
		l-0.8-0.4l-3.5,0.8l-0.8-0.2l-0.7-0.6l-1.9-0.6l0.1-1.2l0.9-0.9l2-0.9l1-0.8l0.2-1l-0.4-0.7l0.1-0.8l0.6-0.8l0.8-0.6l2.1-0.8
		l0.9,1.4l0.4,1.2l0.6,0.8l0.9-1.2l-0.6-2l1.6-0.5h1.5l1.2,0.6l0.8,0.9L430.8,545.9L430.8,545.9z M717.7,546.5l-1.2,0.1l-0.8-0.5
		l0.1-2.4l0.7-0.5l0.3,0.1l0.2,0.7l0.3,0.6l0.6,0.6L717.7,546.5L717.7,546.5z M792.1,545.8l-1,0.7l-0.5,0.2l-2.4-0.4l-2.8,0.1
		l-2.9,0.6l-1.7-0.5l-1.1-0.8v-0.9l1-2.2l2.2-1.7l0.9-0.3l1.6,0.5l2.6,1.3l2.1,1.5l1.9,1.2L792.1,545.8L792.1,545.8z M711.4,537.9
		l0.4,1l-0.6,0.9l0.6,1.6l1.6-2.2l1.6-0.3l0.9,0.4l0.6,0.4l0.3,0.8l-0.6,1.8l-1,0.8l-1.3,0.1l-0.6-1l-0.9-0.1l-0.6,2.3l-0.3,0.3
		l-0.8,0.3l-0.7-0.6l-0.1-0.3l1-1l-0.5-3.1l-0.7,0.6l-2,2.8l-1.5,1.2l-0.5-0.6l-0.8-1.9l0.4-2.4l1.2-1.6l1.1,0.1l3-0.5L711.4,537.9
		L711.4,537.9z M490.7,538l-3.3,1.7l-0.8-0.1l-0.6-0.6l0.4-3.2l0.4-1l2.3-0.1l1.4,0.5l0.7,0.5l0.3,1.1l-0.1,0.6L490.7,538L490.7,538
		z M903.5,537l-0.8,0.3l-0.9-0.3l-0.9-1.2l0.3-1l1-0.7l0.8,0.7l0.3,0.8l0.6,0.1L903.5,537z M318.4,547.7l-1.5,0.1l-3.2-2l-0.8-0.9
		l-0.2-1.2l-3.1-4.5l-0.4-1l1.2-3.7l3.1-0.9l1,0.6l0.4,1.7l1.8,3l0.6,1.7l0.4,0.7l0.2,0.6l-0.2,0.4l1.3,1.8l0.9,1.2l0.1,1.8
		L318.4,547.7L318.4,547.7z M838.7,540.2l-0.6,0.5l-2-0.4l-1-1l-0.7-1.3l-0.5-1.2l-0.1-0.9l-0.6-1.1l0.1-0.4l3.7-1.2l0.7,0.4h1.5
		l0.7,0.8l-0.5,3.6l-0.7,2.1V540.2z M837.2,531.5l-0.4,0.8l-0.8,0.6l-7,1l0.6-0.6l0.3-0.6l0.4-0.3l0.7,0.1l0.3-0.2l0.4-0.1l0.4,0.1
		l0.7-0.2l1.4,0.2l1.5-0.1l-0.1-0.8L837.2,531.5z M910.4,529.4l3.5,0.6h1.3l1.2,0.7l1.5-0.3l0.9,0.2l2.9,2.5l1.4,1.6l2.1,1.4
		l1.5,0.5l-1.2,1.3l-2.3,0.7h-0.9l-1.8-0.8L919,538l-1.2-0.9l-0.2-1.5l-1.3-3.3l-1.7,0.9l-2-1.5h-0.5l-0.1,0.3l-0.8-0.5l-0.7-1
		L910.4,529.4L910.4,529.4z M778.3,531.5l-0.2,0.3l-1.8-0.4l-0.5-0.2l0.9-2.3l0.8,0.1l0.7,2.2L778.3,531.5L778.3,531.5z
		 M832.6,527.4h-0.9l-1.7-0.7l1-0.6l0.6-0.1l0.5-0.4h0.3l0.7,0.3l0.4,0.5L832.6,527.4L832.6,527.4z M689.3,525.5l0.7,0.7l-0.4,0.8
		l-0.6-0.2h-1.5H687l-0.7,0.5h-0.4l0.3-0.8l1.2-1.2l0.8,0.2L689.3,525.5L689.3,525.5z M879.1,530.7l4.1,0.2l2.1-0.2l2,0.2l0.8,0.4
		l1.4,1.2l-0.4,0.8l-0.2,1.7l0.7,1.6l1.2,1.6l1,1.7l0.2,0.8l-0.4,1.8l-0.3,0.9l-1.2,1.5l-0.6,1.6l0.4,2l0.2,2v1.9l0.2,1.8l0.6,1.9
		l2.7,5.1l1.6,3.5l0.5-1.9l-0.1-2.1l0.6-0.8l0.8-0.4l1,0.4l0.3,0.9l0.1,1.9l0.9,3.7l1.2,0.2l1.2-0.6l0.2,1.2v2.1l0.6,1.7l0.5,0.6
		l2,1.4l0.9,0.2l2.6,0.3l2,0.1l1.9-0.5l1.2-1.2l1.1-1.4l3.8-3.1l1.2-1.5l1.1-2.3l0.4-0.5l3.8-2.5l0.4-0.9l0.5-1.7l0.8-1.6l0.6-0.8
		l3.6-0.8l3.8-0.4l3.7-1.5l1.6-1.3l0.1-0.9l-0.8-1.5v-0.7l0.9-0.6l3.3-1.9l3.9-1.9l2.9-1.4h1.7l1.6,1.2l1.7,1l8.8,2.8l1.4,0.9
		l1.2,1.2l1.8,0.8l2,0.4l1.8,0.8l1.7,1l3.7,1.8l5,2.2l1.3,0.1l4.7-0.1l0.8,0.4l0.8,0.6l0.7,0.1l5.4,0.4l0.8,0.4l0.8,0.6l0.4,1.6h3.7
		V622l-0.5,1.7l-1.2,2.6l-0.2,2.1l0.9,1.6l0.9,1.1v36.3l-0.9-0.5l-2.3-1.8l-2-2.1l-1.3-1.9l-1.3-1.7l-6.3-5.2l-1.6-1.7l-0.3-0.5
		l0.2-0.5l0.7-0.9l1.3-2.6l-1.4,1.6l-1.6,1.3l-2.3,0.1l-2.3,0.3L978,652l-2.2,0.3l-1.1-0.4l-0.6-1l-0.3-1l-0.2-1.1l-0.9,1.7
		l-1.8,0.9l-2.5,2l-0.7-0.4l-0.4-0.7l-0.1-0.8l0.5-0.8l0.3-0.9l0.5-2.1l1.1-1.2l0.7-2.4l0.5-0.9l0.2-0.8l-0.6-1l-1.1-0.3l-0.7-0.6
		l-0.8-1.6l-0.5-0.6l-1-0.7l-0.7-0.8l0.8-0.6l1.2-0.2h0.9l1.6,0.4h0.7l1.9-0.6l-1.1,0.2h-1l-3.3-1l-2.1-1.2l-1.9-2.2v-0.4l1.4-0.4
		l2.9-0.5l-0.9-1.2l-1.3-1l-0.5-1.7l-0.9-1.1l-2.2-1.6l-1.3-1.8l-1.2-3.7l-1.2-2.8l0.3-1l1-0.7l-1.5-0.1l-1.4-0.5l0.7-1.3l1.6-0.8
		l-1.4,0.2l-1.4,0.4l-0.6,0.1l-0.6-0.1l-0.4-0.5v-0.8l0.2-1.4l-0.2-1.3l-1.2-0.6l-1-0.9l-0.6-0.4h-0.8l-0.7-0.6l-0.6-0.9l-7.4-3.9
		l-0.4-1.2l-0.7,0.5L940,600l-0.9-0.6l-0.9-0.4l-1,0.1l-0.9-0.4l-0.9-0.2h-1l-3.9-1.2l-3.7-1.9l-3-0.8l-1.8-1.1l-1.9-0.9l-4.3-0.9
		l-4.4-0.6h-1.6l-1.3,0.2h-1.3l-7.2-4.2l-1.2-1.9l0.1-1.2l0.3-0.9l2.9-0.3l-2.1-0.3l-0.9,0.1l-1.7,0.8l-0.9,0.1l-1.3-0.5l-1.2-0.6
		l-2,0.6l-1-1l-0.4-1l-0.5-0.5h-0.8l-1,0.4l-1-0.1l-0.7-0.7l-0.5-0.9l-0.7-0.6l-0.9-0.5l-1.4-1.2l-0.7-1.6l0.1-2.8l0.2-1l1.4-1.6
		l1-1.5l-1.2-0.2L883,569l-0.5,0.7l-0.2,0.9l-0.1,2.9l-0.9,0.8l-1.3-0.1l0.4,1.7l-0.8,1.7l-1.5,1.9l-0.1,0.9l0.2,0.9l-0.3,0.9
		l-2.5,2.6l-0.8,0.1h-1.9l-1.9,0.4l-0.9-0.6l-0.7-0.8l-0.5-0.9l-0.8-2l-0.6-2l1.9-2.5l-0.7-2.2l-1.3-1.9l-3.2-2.7l-3.4-2.5l-1.5-0.5
		l-2.5-0.2l-0.8-0.2l-0.8-1l-0.6-1.1l1.6-0.5l2.7-1.3h1.5l4.1,0.7l1.3,0.6l1.2,0.4l2.8-2.1l2.2-2.8l1.4-0.6l1.2-0.2l1.2,0.3l2.4,1
		l1.9,0.5l1.3,0.1l0.7,0.9l0.8,0.4l0.2-1.3l0.7-1.5l1.3-0.5l0.7-0.1l0.5-0.4l-0.1-1.4l-1.8-0.2l1-1.2l0.9-0.6l0.3-0.6V553l-3.5,1.4
		l-3.6,0.6l-2.1-0.2h-2.2l-4.3,0.9H869l-3.8-0.4l-2.1-0.5l-1.6,0.4H860l-1.6-1.1l-1.4-1.4l-0.7-1l-0.9-0.7l-0.4-0.9l-1-3.5l-0.1-2.5
		h-1.6l-1.6-0.3l-7.1-2.5l-0.9,0.6l-1,0.3l-1,0.1l-1-0.1l-1-0.4l0.1-0.7l0.7-1.6l0.7-0.6l1-0.5l0.6-0.9l1-2.6l0.1-0.9l-0.1-0.9
		l0.1-0.7l0.6-0.4l2.7-0.8l5.6-1.3l1.4-0.8l1.2-1.2l1.4-0.7l0.6-0.8l0.7-0.6l4.3-1.6l1.9-0.1l1.9,0.2l3.8,0.9l3.6,1.5l3.1,2
		L879.1,530.7L879.1,530.7z M405.1,524.3l1.5,1.6l0.4,0.6l-0.8,0.9l-0.6,1.2l-0.3,0.3l-1.2-0.5l-0.8,1.2l-0.5-1.9l-1.2-1.2l0.7-1.3
		l0.3-0.1h0.4l0.4,0.3l1.8-1.2L405.1,524.3z M782.5,524.1l1.9,2.4l-1.3,2.3l0.9,1.3l2.4,0.1l0.6,0.5l0.4,0.6l0.3,0.8l-0.6,0.6
		l-1.3,0.6l-1.5-0.8l-0.4-0.8l-0.3-0.3l-2.1,0.6l-0.6,0.1l-0.4-1.2l0.5-1.6l-1.4-0.7l-1.3-1.6v-0.6l0.5-1.2l-0.1-0.9l0.8-0.1
		l1.4,1.2l0.6-1.2l0.6-0.5L782.5,524.1z M777.4,526.9l-1,0.4h-1.2l-0.2-1.7l0.4-2.2l1-0.4l1.6,0.5l-0.6,0.6l0.4,1.2L777.4,526.9
		L777.4,526.9z M393,524.5l-2.1,0.6l-2.4-0.4l0.3-1l1.2-1.2h1l1.9,0.8l0.6,0.7L393,524.5L393,524.5z M835.6,518.9l2.8,0.7l0.6-0.1
		l4.1,1.8l0.6,0.9l-0.2,0.6l0.6,0.8l-1.3,1.2l-0.6,0.1l-0.7-0.5l-1.3-0.3l-1.5,0.5l-1-0.4l-0.8-1.2l-1.4-0.7l-2-2.3l-1,0.1l0.3,0.9
		l0.9,0.6l1.2,1.8l0.7,0.2h0.7l0.9,0.8v1.2l-2.4,0.5l-0.8-0.8l-0.2-1.5l-1.3,0.5l-0.5,0.5l-0.4,0.1l-0.9-1.6l-2.6-0.1l-1.8-0.9
		l0.8-0.9l0.1-0.9l1.1-0.5l1.2,0.4l1.2-0.6l0.8,0.2l0.6-0.4l2.3-0.2L835.6,518.9z M306.8,527.5l-1,0.8l-1.5-0.7l0.5-1l0.2-1.4
		l0.9-1.2l0.3-1.3l-1.7-3.7l0.8-0.1l0.7,0.4l1.2,2.4l1,1.5l-0.4,2L306.8,527.5L306.8,527.5z M410.1,521.7l0.5,0.3l0.6-0.8l1.1,1.2
		l0.7,0.6l0.9,0.6h-0.9l-0.4,0.5l-0.2,0.1l-3.5-1.9l-2.2,0.6l-1.5-0.5l-0.4-0.4l0.8-1l0.8-2.3l1.5,0.6l0.4,0.7l-0.1,0.2l1,0.4
		L410.1,521.7L410.1,521.7z M814.9,521.9h-0.7l-0.6-0.9l-1.6-1.1l-1-1.8l3.8,3L814.9,521.9z M780.7,518.9l-0.1,0.5l-0.5-0.7
		l-0.3-0.2l0.4-1.7l0.2-0.3l0.3,1.2L780.7,518.9L780.7,518.9z M408.6,517.9l0.1,0.4l-0.8-0.5l-0.5-0.3l-0.3-0.3l-1.7-2.2l0.7,0.1
		l1.9,1.9L408.6,517.9L408.6,517.9z M385.6,510.1l-1.8,0.1l-0.5-0.2l0.2-1.5l0.6-0.9h0.8l0.9,1.4L385.6,510.1L385.6,510.1z
		 M780.1,508.4l-0.6,0.2l-0.2-0.1l-0.2-0.6l0.3-1.2h0.7l0.3,0.2l0.1,0.8L780.1,508.4L780.1,508.4z M779.4,506l-0.6,0.5l-0.5-0.2
		l-0.3-0.7l0.1-0.5l0.4-0.3l0.6,0.2L779.4,506z M388.3,508.1l-0.3,0.2l-1.4-2.1l0.3-1.2l0.3-0.3l0.8,0.7l0.6,0.8l0.5,0.9
		L388.3,508.1L388.3,508.1z M394.5,505.9l0.1,0.5l-1.5-0.9v-0.7l0.2-0.3l0.9,0.7L394.5,505.9z M401.2,505.3l-1,0.5l-1.3-1.5V504
		l0.1-0.3l0.2-0.2l0.8,0.8l0.9,0.3L401.2,505.3L401.2,505.3z M381.4,506.7l-0.3,0.6l-0.6-0.5l-3.2-0.7l-1.1-0.1l-2.8-0.8l-0.8-0.4
		l-0.6-0.5l0.2-1l0.4-0.6l0.2-1.7l0.7-0.7l1.4,1.2l1.5,1.1l0.9,0.5l2.7,1.1l0.9,0.5L381.4,506.7z M387.9,501.8l0.1,0.9l-1.1-0.2
		l-0.8-1.1l0.6-0.7l0.4-0.3l0.4,1L387.9,501.8z M383.7,504.7l-0.5,0.5l-0.8-0.1l-0.9-0.5l-1.2-1l-1.3-0.9l-1.6-0.6l-1-0.2l-0.4-0.2
		l0.4-1.7l1.1-0.1l3.5,1.6l1.2,0.9L383.7,504.7L383.7,504.7z M397.7,499.7l1,0.7l0.8-0.5v0.6l-0.2,0.6l-1,1.7l-1.7-0.4l-0.4-0.5
		l-0.1-0.4l0.2-0.3l0.1-0.8h0.7L397.7,499.7L397.7,499.7z M406.9,499.1l0.1,1.2l0.9,0.6l0.2,0.9l-0.2,1.4l-0.9,1.7l-0.4,0.4
		l-1.2-0.3l-0.4-0.6l-0.1-0.4l0.2-0.3l-0.9-0.4l0.6-0.6l-0.4-0.9l-2.4,0.6h-0.7l-0.1-1l0.1-0.4l1.8-1.3l1.1-0.2l1.2,0.3L406.9,499.1
		L406.9,499.1z M371.7,502.8l-0.8,0.5l-0.9-0.8l-0.8-1.2l-0.4-1.2l-0.3-1.9l-0.1-1.4l0.5-0.8h0.3l1.3,0.8l0.9,1.4l0.5,0.4l0.1,1.3
		l-0.3,1.4L371.7,502.8L371.7,502.8z M290.8,495.1l3.5,4.6l1.4,0.6l1.9,2.1l0.5,0.7l-0.5,1.4l-0.4,4.2l-0.9,1l-2.2-0.5v-0.7
		l-1.3-3.1l-2.3-1.7l-0.9-0.1l-0.6-1.8l-1.2-2.1l-3.6-3.9h2.7l1.3-0.9l0.3-0.8l0.2-0.2L290.8,495.1L290.8,495.1z M372.7,495.2
		l0.1,2.1l-1.2-0.5l-1-0.8l-1.5-0.6l-1.8-0.2l-1.4-0.5l-0.9-1v-0.5l0.1-0.4l0.3-0.3l6.9,1.9L372.7,495.2z M738.8,502.7l-3.1,2.8
		l-0.9,1.3l-0.8,1.4l-1.2,1.6l-1.4,1.4l-0.7,0.4l-1.7,0.8l-1,0.3l-1.9,0.1l-5.7,1.2l-1.9,0.1h-1.9l-3.5-0.3l-0.7-0.2l-1.4-1.4
		l-1.6-1.2l-1.4-0.1l-1.4,0.1l-10.3,0.1l-3.6,0.2l-3.6,0.5l-2-0.2l-1.9-0.6l-1.5-0.2l-1.5,0.1l-6.8,0.9l-1.7-0.1l-3.5-1.1l-2-0.2
		l-2,0.3l-1.8,1l-0.7,0.7l-1.9,2.3l-1.1,1.7l-0.8,2.1l-0.7,2.1l-0.4,1.7v1.8l0.3,2l0.5,2l0.6,1.5l2.3,3.5l0.5,0.5l2.5,1l1.5,1.3
		l1.4,3.5l1,1.8h1l1.2-0.1l1.9,0.2l1.9,0.5l1.9-1.1l1-2.1l1.1-1.5l2.5-2.9l1.4-1.3l0.9-0.5l0.9,0.2l0.8,0.8l0.9,0.6l1.9,0.3l1.9-0.2
		l2-0.9l0.7-0.6l0.6-0.7l1.7-0.6h4.1l2.1,0.2l3.8-0.2v-0.5l-0.7-0.6l-0.2-0.5l0.7-0.3l2.4-0.7l2.5-0.5l1.8,0.3l1.6,0.9l0.6,1
		l0.3,1.2l-0.6,3l-0.3,0.7l-1.3,0.4l-1.2-0.4l-1.2-1.5l-1.7-0.6l-2.4,0.5l-0.8,0.4l-0.7,0.6l-1.4,1.6l-1.2,1.8l-2.4,2.8l-2.8,2.4
		l-1.4,0.9l-1.5,0.6l-4.9,1.6l-1.3,1.2l-1,1.6l-1.2,0.5l-1.3,0.2l-1-0.3l-1.9-0.9l-0.6,0.7l-0.1,1.2l1,0.4l1.5,1.2l1.2,1.7l0.8,0.4
		l1.7,0.6l0.7,0.5l1.3,1.5l2,3.5l0.7,1.9l1.2,1.5l3.5,2.6l0.2,0.7l-0.2,0.9l0.3,0.8l1.2,1.5l0.3,0.9l-1.3,1.2l-0.1,1.7l-0.8,2.3
		l-0.2,0.8v0.7l0.6,0.7l0.7,0.5l0.9,0.3l0.8,0.5l1.5,1.8l0.8,0.5l0.5,0.7v1l0.7,0.6l0.6,1l1,0.3l0.5-0.3l0.3-0.4l0.8,0.2l0.5,0.7
		l0.3,0.9l0.1,1v2l-0.4,0.7h-0.9l-1.6-0.8l-0.1,0.6l0.1,0.6l-0.8,0.2l-0.9-0.1l-2.3,0.1l-4.3,1.2l-1.5,0.7l-1,1.3l-0.1,0.9l0.4,1.9
		l-0.6,0.7l-2,0.3l-2.8-0.5l-1.7-0.5l-0.9-0.4l-1.2-1.3l-0.5-1.6l0.9-4.9l0.3-0.6l0.4-0.6l0.5-0.9l0.1-1l-1.3-1.3l-2-0.5l-1.7-1.1
		l-6.5-5.9l-0.4-0.6v-1l0.3-0.9l2.1-3.2l0.3-0.6l0.3-2.6l-0.1-2.1l-0.2-2.1l-1-1.3l-1.8-0.4h-1.9l-1.8,0.4l-1.8,1.1l-3.3,2.2
		l-1.3,1.3l-0.3,1.5l0.8,1.6l1,1.5l0.5,1.7l0.7,5.8v0.7l-0.9,1.7l-0.3,3.8l0.4,5.4l0.6,3.3l-0.3,1.8l-1.5,3.9l-0.5,2.1v0.9l1.8,4
		l0.4,1.6l0.2,1.7l-1.9-0.8h-0.9l-0.9,0.2l-2,0.3h-2l-0.7,0.3l-1.5,1.1l-0.9,0.4l-0.8,0.1l-2.7-1.3l-1.5-1.5l-1.4-1.6l-0.3-1.8
		l0.5-1.9l0.7-2l1.4-3.3l-0.1-2.2l0.5-1.8l0.8-1.8l0.3-1.6l0.2-6.3l-0.2-0.6l-1.9-3.8l-0.2-0.6v-1l0.2-1v-0.9l-0.4-0.7l-0.8-0.6
		l-0.9-0.3l-2,0.3l-4,1l-1.2-0.9l-0.9-1.4l-0.6-1.9l-0.3-2l0.2-1.9l0.6-1.8l-0.5-1.3l-0.7-1.4V563l0.4-0.6l0.7-0.5l0.9-0.3l0.8-0.6
		l2.2-1.9l0.7-1.6v-2l0.6-1.9l1.2-1.8l1.3-1.6l0.4-1.7l-0.6-2.7l0.3-1.2l-0.2-1.4v-1.4l0.8-2.7l2.4-5.5l2.4-2.9l0.9-0.8l1.2,1.4
		l0.9,1.6v-1.4l-0.3-1.4l-0.9-3.3l-0.8-6.4l0.2-0.6l0.8,0.1l0.9-0.6l0.4-1l-0.9-2.4V515l1.7-3.4l1.4-1.2l0.6-0.8l0.3-2l0.7-0.8
		l0.9-0.6l1.2-1.4l0.6-1.8l0.4-0.1l0.5-0.1l0.7,1.6l0.8,0.6l1.6,0.5l1.4-0.6l0.4-0.8l0.5-0.7l0.9-0.7l0.7-0.8l0.8-1.8l1.1-1.7
		l0.7-0.6l0.9-0.4l1-0.2h0.9l2.1,1.1l1.2,0.2l1.2-0.1l0.8,0.2l0.6,0.5l0.5,0.9l0.7,0.8l0.6,0.4l0.7,0.2l4.5-0.3l3.9,0.9l5.4,0.2
		l1.8,0.5l1.8,0.7l2.2,1.3l0.8,0.3l0.9-0.1l1.1-1.2l0.9-0.3h0.9l3.5,0.2l9.3,1.4l1.4-0.2l5.6-2.8l2.3-2.6l2-0.7l0.7-1.2l0.4-1.4
		l0.7-0.4l1.7-0.4l0.7-0.4l1.2-1.8l1.4-1.6l0.7-0.5l2,0.2l0.9,0.7l1.2,2.3l-0.2,0.4l-1.3,1.2l-0.4,0.5l-1.5,3.2l-1,1.6l-1.2,1.4
		L738.8,502.7z M359.9,485.2l0.9,1.3l0.2,0.9l-0.6,1l-0.2,1.4l-1.9,1.2l-1.7-0.3l-0.5-0.4l-1.1-2.3l0.1-2l0.7-0.7l1.5,0.1l1.6-1.1
		l1.2,0.8L359.9,485.2z M785.2,505.2l1.2,0.4l1.2-0.1l0.6-0.7l0.2-0.9l0.6-1.7l1.4-1.2l1-0.2l0.7-0.5l-0.1-1.3l0.1-1.3l1.1-1.4
		l3.3-1.9l1.9-0.7l2.4-0.2l0.3,0.7l-0.3,1l0.5,1.6l-0.2,4.2l-0.6,0.6l-2.5,1.5l-2.8,1.2l-0.8,0.5l-0.7,1.2l0.1,1.2l2.2,1.5l3.5,1.4
		l0.7,0.7l0.5,1.2l0.1,1.3l0.8,0.6l1.2,0.3l0.8,0.6l0.6,0.8l-5.9-2l-1.5-0.9l-1.9-0.1l-1.8-0.3l-1.9-0.8l-2-0.2l-1,0.6l-0.4,1.1
		l-0.2,1.2l0.4,1.5v0.9l-0.4,1.6l1.5,4.8l1.8,3.9l2.7,4l1.3,1.4l1.5,1.2l-2.4-0.4l-0.7-1.3l-3.1-1.3l-0.6-0.8l-2-3.8l-0.6-0.7
		l-1.8-1.3l-0.8-0.9l-0.3-1.3l0.2-1.3l-0.1-1.9l0.1-1.9l0.4-2.3l-0.7-0.8l-0.9-0.7l-1-1.7l-0.3-2l0.1-1.2l0.4-1l0.6-0.9l0.1-0.8
		l-1.4-1.2l-1.5-3.5l-0.1-1.8l1.9-3.5v-1.7l0.4-1l0.2-1.1l1-2.3l1.6-2l2.8-2.8l1.1-0.6l1.2-0.4l0.1,0.7l-0.2,0.6l-2,2.8l-0.3,0.6
		v1.2l1,0.7l1.1,1.4l0.2,1.9v2l-0.2,2l-0.4,0.7l-1.7,2.1l-3.8,2.4l-0.3,0.6v0.7l0.7,0.8L785.2,505.2L785.2,505.2z M288.4,485.2
		l-0.1,0.4l-1.7-1.7l-1.9-0.9l0.8-0.2l1.6,0.3l0.6,0.2l0.6,0.9L288.4,485.2z M797.1,485.6l-2.6,0.3l-0.6-0.8l-0.7-3.5l1.8-2.8
		l2.3-1.6l1.6-0.4h0.5l1.4,2l-1.1,4l-1.2,2.1L797.1,485.6L797.1,485.6z M747.3,475.8l-0.2,0.4l-0.6-1.9l0.5-1l0.7,0.3l0.2,0.3
		l-0.7,0.9L747.3,475.8L747.3,475.8z M274.2,480.5l-1,0.2l-1-0.4l-0.8-0.9l-4.4-2.7h-1.4l-1-0.7l-1.2-0.2l-1.2-1.8l-0.3-1l0.9-0.5
		l0.6-1l1.5,0.4l1.7,1.7l1.7,0.6l0.5,0.3l0.8,1l3.9,2.4l0.4,0.8l0.3,0.8L274.2,480.5L274.2,480.5z M477.2,471.7l-0.8,0.8l-0.8-0.5
		l1.3-1.7l0.3-0.1L477.2,471.7z M426.1,472.4l-0.7,0.1l-0.2-0.5v-0.8l-0.1-0.7L425,470v-0.8l0.6,0.4l0.5,0.4l0.6,0.3l0.5,0.2
		l0.2,0.1l-0.5,1.2L426.1,472.4L426.1,472.4z M434.7,467.6v1.2l-1.2-0.7l-0.2-1.2l0.4-0.4l0.8,0.2L434.7,467.6L434.7,467.6z
		 M620.6,465.6l-0.2,0.5l-1.4-1.3l-0.4-1l0.2-0.7l1.4-0.1l0.7,0.5L620.6,465.6L620.6,465.6z M751.3,463.1l-0.4,0.5l-2-0.9l0.1-1.4
		l-0.3-0.7l-0.5-0.7L748,459l0.2-0.8l1.2,1l0.7,1.6l0.9,1.5L751.3,463.1z M770.9,457.6l-0.3,0.2l-0.6-0.4l-0.4-0.5v-0.5l0.4-0.2
		l0.9,0.7v0.4L770.9,457.6z M768.7,455.9v0.7l-0.9-1.5l-0.4-1.8l0.8,0.7l0.9,1.4L768.7,455.9L768.7,455.9z M624.3,450.8l0.6,1.6
		l0.1,0.6l-3,0.8l-1.8-1.9l0.4-0.8h1.6L624.3,450.8L624.3,450.8z M467.9,458.9l-2.2,0.6l-1.3-0.8l1.4-1l0.5-0.1l0.3-0.2l0.1-0.4
		l-2.5-0.7l-0.7-0.6l-0.7-1.5v-1l3.2-2.6l0.8-0.3l0.1,1.1l2.2,2.7l0.1,1.8l-0.1,0.6L467.9,458.9L467.9,458.9z M602.5,448l0.6,0.3
		h0.8l1-0.3l2.4,0.2h4.2l2.9,0.6l2.8,1.7l1.4,0.3h0.6l-0.1,0.1l-1.2,0.5l-0.5,0.9l1.5,1.4l0.1,0.9l1.2,0.9l1.5,1.3v0.4l0.5,0.6
		l0.3,0.7l-1,0.7l-1.4,0.1l-1-0.7l-0.9-0.9l-0.2,1.1l-0.7,0.6l-2.5-0.2h-1.9l-1.9,0.3l0.9,0.2l0.9,0.3l2.9,2.7l0.6,1l-1,2l0.5,0.8
		l1.2,0.5l1.4,1l1,0.1l0.7,0.6v1l0.4,0.9l-1.2,0.4l1.2,0.2l1,0.5l-0.5,0.5l-0.4,0.6l0.5,0.3l1.4,0.5l0.6,0.5l0.3,1.3l1.3,2.1
		l2.4,2.7l0.5,1v0.9l-0.4,0.8l-1.4,0.9l-1.2,1.2l-0.1,0.4l-1.5,0.6l0.7,0.4l0.6,0.5l1,1.6l2.5,2.7l1.2,1l5.1,3.6l2.7,1.6l3.5,3.6
		l1.8,0.8l0.4,1l-1.5,1.6l-2.2,0.8l-3.6,0.4l-3.7-0.5l-1.9-0.4l-1.6-0.9l-1.3-1.8l-1.7-1l0.7,1.1l0.4,1.2l-0.2,1.2l-0.7,0.9
		l-1.2,0.7l-1.2,0.6l-0.5,0.4l-3.1,6.3l-0.5,1.7l-1,7.1v2l1.4,3.7l0.1,2l0.3,0.8l-0.2,0.7l-0.7,0.4l-2.7,1.2l-1.9,0.9l-1.5,1.4
		l-1.2,1.7l-1.1,1.2l-1.5,0.6l-1.1-0.1l-0.8-0.6L606,537l-0.3-1.2l-0.2,0.9v0.9l0.5,0.9l0.2,1l-0.3,1l-0.6,0.8l-1.7,0.9l-0.9,0.7
		l-0.2,1.3l-0.5,0.7l-0.6,0.6l-2.4,1.3l-0.5,0.5l-0.4,0.7l1.3-0.1l1.2,0.1l0.1,1.3l0.4,1l-0.5,2.1l-1.8,1.4l0.9,0.3l0.8,0.5l1.8,0.3
		l0.6,1.5l-0.3,1.8l-0.3,1.6l-1.3,0.5l-0.8-0.3h-0.8l-0.6,0.5l-0.2,0.8l1.2-0.4l-0.1,2.1l-0.3,2l-0.4,1.2l-0.7,0.9l-1.1,0.3l-1-0.7
		l-0.2,0.8l0.3,0.7l1.4,1.6l-0.9,0.4l-0.6,0.6l-0.3,0.8l-1.5,1.9l-0.7,1.4l-0.3,1.5l-0.7,1.2l-11.4,5l-9.3,4.3l-0.7-0.3l-0.5-0.7
		l-0.3-6.6l-1.2-3.4l-0.2-1.9l-1.3,1.7l-0.8-0.2l-0.9-0.4l-0.6-0.6l-0.1-0.7l0.7-2.1l-0.9,1.2l-0.9,0.9l-1-0.1l-0.8-0.5l-0.3-0.7
		l-0.4-0.1l-1.9,1.9l-2.7,1H556l-1.2-0.6V573l-0.1-1.4l-0.3-0.9l-0.7-0.3l-0.7,0.1l-1.9,0.7l-0.7-0.1l-0.4,0.4l-5.1-5.1l-1,4.1
		l-3.5,2.2l-2.6,1.3l-2.6-0.5l-2.6-0.8l-2.6,1l-2.8,2.4l-0.7,0.4h-0.8l-0.6-0.3l0.2-1.8v-1.8l-0.2-4.1l-0.2-0.8l-0.8-1.2l-1.1-0.8
		l-0.6,0.6l-0.5,0.8h-2.1l-2.1-0.6l-1.8,0.4l-3.5,1.6l-1.9,0.3l-1-0.4l-0.6-0.9l0.4-0.8l0.8-0.6l-1.4,0.5l-1.2,0.8l-0.5,0.5
		l-0.6-0.3l-1.5-1.8l-3.2,0.7l-0.4,0.2l-0.8,0.6l-0.8-0.3l-0.4-0.7l-0.1-3.9l-1.6-7.4l-0.5-3.8l-0.4-0.9l-1.9-1.4l0.1-1.9l1-1.6
		l0.2-1.9l-0.3-2.1l-0.6-2l-0.7-1.5l-1.1-1.3l-1.4-1.4l-1.7-1.1l-3.7-1.2l-2,0.1l-0.7-0.5l-0.5-0.6l0.2-1.2l0.7-0.8l0.9-0.2l0.1-0.5
		l-1.9-1l-1.6-1.3l-0.5-0.8l-0.2-0.9v-2l0.5-1.3l0.3-0.7l0.5-2.2l1-0.7l-0.2-0.4l-0.4-0.3l-0.6-0.7l-0.5-0.8l-1.2-1.4l-2.1-1.7
		l-0.4-2.9l-0.3-4.2l0.2-1.9l0.7-3.6l1.2-1.2l0.9-0.3l0.7-0.5l-0.6-0.1l-0.5,0.2l-0.9,0.1l0.7-3.2l0.3-0.9l1.5-1.8l1.7-1.6l0.7-1.9
		l1-1.7l4.1-1.7l-1.5,2.1l0.2,0.8l0.4,0.7l1.1,0.5l0.3,2.6l1.3,1.5l1.3,1.4l1,0.7l1.1,1l0.8,0.9l0.8,0.8l1.2,0.7l3.3,3.2l1.4,0.9
		l1,0.9l0.7,0.3l1.8-0.3l5.3-2.3l0.9-0.1l1.7-0.4l3,0.1l3.2,0.8h1l1-0.5l1.4,0.1l1.3,0.2l0.6-0.2l1.9-1.6l2.5-0.5l0.8-1.6l0.6-1.5
		l0.3-1.6l1.1-0.7l1.5-0.6l2.2-0.7l7.6-0.1l0.7,0.3l0.2,0.8l-0.2,0.6l0.3,0.4h1l0.9,0.4l3.8,1.3l1.6,0.4l0.9-0.1l1.8,1.2l1-0.4
		l1.3-0.8l1.2-1.2l1.1-0.9l1.6-0.3h2.1l2.4-0.3l1.8-0.5l2,0.8l0.6-0.2l0.3-0.8l1.1-1.7l0.5-1.2l0.4-2.2l0.3-0.5l0.8-0.3l0.8-0.4
		l0.2-0.3l0.3-0.8l-0.2-0.6l-0.5-0.5l-0.5-1.8l0.2-0.8l0.3-0.6l0.8-0.3l2.2-1.3l1.9-1.5l1.1-0.8l0.5-0.5v-0.7l-0.8-0.7l-0.8-0.3
		l-0.1-0.9v-0.6l0.2-0.6l-0.1-0.5v-0.8l0.5-0.9l1.2-1.3l0.9-0.8l1,0.5l1.2-0.2l1.2-0.4l0.6-1.5l0.1-0.7l-0.2-0.6l0.4-2.2l0.1-0.3
		l0.8-1.4l0.1-0.9l-0.4-2.1l0.3-1.6l0.1-3.4l0.5-0.6l0.5-1.7l0.8-1.8l1.7-1l0.9-1.3l0.4-0.2h0.6l2,0.9l1.8-1l1.7-0.1l1.4,0.1
		l0.8,0.4l0.8,0.3l1.6-1l0.6,0.2L602.5,448z M770.3,453.3l-0.7,0.3l-1.1-0.1l-0.1-0.8l1.1-1.5l0.7-1.6l-0.8-0.4l-0.7-1v-1.2l0.6-2.2
		l0.9,0.2l0.9,0.9l0.3,1.7l0.6,1.3l-1.2,1.8L770.3,453.3L770.3,453.3z M274.6,433.9l2,0.1l3.7-0.9l2,0.1l1.9,0.6l1.7,0.4l4.3-0.5
		l0.8,0.1l0.8,0.4l0.6,0.6l2,2.1l3.3,2.6l0.9,1.7l0.5,1.9l0.3,0.4l3.7,3.6l0.4,1.5l-0.5,2.1l1.1,1.7l3.6,1.5l2.1,1.2l0.5,0.7
		l0.3,0.8l1.2,1.2l1.5,0.8l4.6,2.1l6,4.4l3.5,2.1l2.8,3.2l1,1.5l0.9,1.6l1.7,2.4l3,2.9l0.7,0.9l0.8,1.3l0.9,1.2l1.1,1.2l1.3,0.8
		l1.3,0.3l2.1,2.1l1.2,0.7l-0.2-1.7l-1-1.5v-0.9l0.2-0.8l0.8-0.7l1-0.2l1.8,0.6l2.9,2.5l1.2,1.5l0.9,2l0.8,2.1l1.2,1.1l1.6,0.4
		l1.8,0.1l1.6,0.6l3.8,2.9l1.3,1.4l1,1.6l0.7,1.9l0.4,2l0.3,0.5l2.5,2.4l1.3,1l1.6,0.5l4.6,0.5l1.6,0.8l1.4,1.4l0.6,1.4l-1,1.2
		l-3.6,1.9l-3.9,1.3l3.8-0.5l1.9-0.6l1.7-0.9l1.7-1.1l2.8-1.5l1-0.3l1.2,0.1l1.1,0.4l1.6,1.5l1.5,1.6l1.2,1.9l0.7,2.1l-1.3,1.1
		l-1.9,0.8l-2.6,2l-0.3,0.8l0.5,0.5l-0.6,1.5l1.5,0.9l0.2,0.8l-1.3,1.1l0.1,0.7l1.5,2.9l0.7,0.7l2.3,1.5l3.6,1.5l2,0.7l2.3,0.6h1
		l1.7-0.2l0.3,0.6l0.7,2.9l0.3,1.8l0.5,3.9l0.6,1.6v2l0.9,1.7l1.8,1.1l1.9,0.9l0.9,0.9v1.3l-0.3,1l-0.6,0.8l-1.9,1.7l-0.3,0.7
		l-0.3,1.8l0.3,0.8h0.8l0.6-0.4l2.3-2.5l0.6-0.4l0.9-0.3l0.9-0.2h4.3l1.8,0.4l1.6,0.8l1.4,1l5.2,6.4l2.3,3.5l0.2,0.9v0.9l-0.4,0.7
		l-2.2,2.4l-0.3,0.7l-0.7,2.6l0.1,1.9l0.7,0.8l0.6,0.9v0.8l-1.4,3.9l-0.2,0.7l0.9,6.4l0.1,1.7l-0.2,2.2l0.1,3.5l-1.2,10.9l-0.2,0.6
		l-0.9,1.7h-1.2l-0.9-0.3l-0.7-0.6l-0.4-0.8l-0.5-0.6l-2.8-2l-0.7,0.3l-2.9,2.5l-0.8,0.4l-1-0.3l-1.5-0.7l-4.8-2.6l-0.3,0.8
		l-0.1,1.2l0.9,2.9l0.1,1.2l-0.9,0.3h-0.5l-2-1.8l-1.8-1.8l-2.1-2.5l-1.5-1.2l-1.4-1.3l-3.8-5l-1-0.8l-6-3.5l-1.2-0.8L385,595
		l-1.7-1.4l-3.6-2l-6.2-5.2l-2.7-3l-3-4.8l-1-1.2l-5.1-3.6l-2.7-2.2l-1.2-1.2l-2.7-4.4l-0.8-1.5l-1-1.3l-1.6-1.1l-1.4-1.2l-2.9-3.9
		l-0.9-1.6l-0.7-1.7l0.1-3.4l-6-10.3l-1.5-3.2l-1.4-4.5l-0.3-0.5l-3.3-4l-1.2-1.3l-1.4-1.2l-1.2-1.4l-2.3-4.6l-0.8-1.3l-1.2-0.9
		l-4.3-1.7l-1.6-1l-1.3-1.4l-0.8-1.7l-0.9-3.7l-2-5.6l-2.3-7.5l-1.5-3.4l-1.7-2.7l-0.5-0.6l-7.8-4.8l-1.3-0.7l-1.4-0.4l-2-0.3
		l-1.5-1.3l-0.6-2.2l-0.4-3l-0.4-1.8l-0.4-1l-3.3-2.1l-1.3-1.7L287,467l-1-1.4l-3.6-4.9l-1.2-1.3l-1.5-0.9l-4.5-0.9l-1.3-0.8
		l-2.2-2.8l-1.3-1.4l-3.9-3.1l-6.7-6.5l-1.4-1.6l-1-1.7l-0.8-1.8l-2.9-5l0.2-1l0.4-1.1l-0.1-0.9l-0.3-0.9l0.1-0.8l0.8-0.5l1.9-0.6
		l2,0.1l1.8,0.3l1.8,0.5l1.7,1.1l3,2.7l1.7,0.9l1.9,0.5L274.6,433.9L274.6,433.9z M256.1,424.3l-0.3,0.5l-1-0.2l-1.1-1.5l0.4-0.3
		l0.7,0.1l1.3,0.3l0.1,0.6L256.1,424.3z"/>
</g>
<g id="cambodia" class="country">
	<path d="M404.3,348.9l-2.7-2.2l-5.3-0.8l-0.6-0.9l-0.5-0.2l-0.5,1.2l-2.9,1.2l-1.2-0.7l-0.9-0.9l0.1-1.1l0.9-0.9
		l1.4-0.6l0.7-2.2l-1.2-2.8l-1-0.8l-1-0.6l-1.1,1l-0.9,1.8l-0.9,0.9l-1.3,0.2l-2-0.1l-0.8-2.6l-0.3-2.3l0.3-2.6l0.3-1.5l-1.9-2.1
		l-0.1-2l-0.9-1l-0.3,0.5v0.6l-0.3-0.4l-3-5.9l-0.5-2.8l0.5-2.1l0.3-0.7l-0.9-1.2l-1.2-1.3l-2.1-1.5l-0.1-2.6l-0.5-3.1l-0.6-1.1
		l-1-1.9l-0.5-1.6l-0.2-4.2l0.3-0.3l1.5-0.1l1.9-0.3l0.3-0.7l-0.3-0.6l1.2-1l1.8-2.1l1.4-2.2l1-1.4l0.6-1.4l2-1.9l2.8-1.3l1.9-0.3
		l1.9-0.5l1.9-0.7h0.9l2.3,0.8l1.3,0.2h1.3l1.4,0.1l1.2-0.1l2.8-0.5l3,0.4l2.7-0.3l3.3-0.6l1.6,0.4l1.5,0.6l0.2,1.3l0.3,0.6l0.5,0.5
		h0.7l0.8-0.9l0.7-0.9l0.2-0.2v0.5l0.4,1l0.6,1l0.6,0.7l1.1,0.9h0.7l2.3-0.8l3.4,1.2l0.4,0.6l1.1,1.2l1.2,0.9l2.7,0.1l0.9-2.1
		l-0.5-1.3l-1.5-2.3l-0.4-1.3l0.5-0.2l2.6-0.3l0.4-0.3l0.6-1.5l0.7,0.2l1.4,0.2l1.5-1l0.9-1.1l0.5,0.5l0.5,0.7l0.6,0.4l1.1,0.6
		l1.2,0.9l0.7,0.9l0.6,0.3l1.5-0.2h0.4l0.9-1.1l0.6-0.6l0.5,0.2h0.8l1.6-1.4l0.9-1.2l0.5-0.3l1.4,0.6l0.6-0.1l0.8-1.7l0.9-0.7
		l0.3,0.9l-0.7,1.8l-0.7,1.6l-1.4,1.4l-0.1,1l-0.5,3l0.2,1l0.3,0.8l0.4,0.4l1.2,3l1.1,2.7l1.1,2.2l0.2,1.4l-1,3.5l-1.2,3.2l0.1,1.6
		l0.5,1.6l0.5,2.2l0.2,2.8l-0.3,1.8l-0.5,1.2l-1,1.2l-0.9,0.6l-1-1h-0.8l-1.1,0.3l-0.9,0.5l-1.8,1.7l-2,1.6l-2.7,0.4l-1.1,1.2
		l-1.2,0.2h-2.2l-1.4,0.3l0.1,0.6l-0.1,2.9v0.7l-0.2,0.2l-1,0.1l-1.6-0.4l-2.2-0.7l-1.6-0.1l-0.8,1.2l-0.5,0.5l-0.6,0.1l-0.6,0.2
		l-0.2,0.6l-0.1,0.7l0.3,1.2l0.1,1.9l-0.1,1.3l0.6,0.8l3.4,2.8l1,0.7l0.1,0.4l-0.6,1.5l0.5,2.1h-1.1l-1.8-0.9l-0.8-0.6l-1,0.4
		l-0.4-0.1l-0.7-1l-0.9-1.1l-0.9-0.1l-2,0.4l-2,0.3h-0.8l-0.3,0.2l-1.2,1.6l-0.5-0.3l-2-0.6l-1.7-0.2l-0.4,0.4l0.2,1.3l0.4,1.2
		l-0.3,0.5l-1,0.7l-1.4,1.2l-0.8,0.9l-0.6,0.2h-2l-2.1,0.1l-0.8,0.9l-0.8,0.7L404.3,348.9L404.3,348.9z M381.7,334.4l-0.3,0.2h-0.3
		l-0.3-0.2v-1l0.2-0.6l0.5-0.1L381.7,334.4z M386.2,343.8l-0.6,0.6l-0.9-1.3v-0.4L386.2,343.8L386.2,343.8z"/>
</g>
<g id="bangladesh" class="country">
	<path d="M210.6,152.8l0.1,0.7v5.8l0.2,2.5l0.5,2l0.1,0.8l-0.5,0.6l-0.5,0.1l-0.5-1l-1.1-0.7l-1.6-0.8l-0.7-0.5
		l-0.8,0.2l-1.2,1.2l-0.5,1.2l0.2,1.6l0.4,1.6l0.8,0.9l0.1,1l0.3,1.3l0.4,1.2l0.2,1.3h-0.3l-1-1.6l-0.9-1.8l-2.3-3.3l-0.7-6V158
		l-1.6-3.5l-1-4.8l-0.4-1.2l0.5-1.6l0.1-0.6l-0.3,0.1l-0.8,0.8l-1-1.9l-0.7-1.7l-2.7-3.6l-0.8-1.6v-1.5l-1.2,1.5l-1.6,1.1l-1.6,1.6
		l-1.1,0.5L184,142l-2-2.2l-2.8-5.4l-0.4-1.2l0.4-3.2l-0.7-3v-1.5l-0.2-1.1l-0.5,0.2l-0.2,0.7l0.1,1.2l-0.2,0.9l-2.4-0.2l-2.3-0.4
		l2,1.6l2.1,0.4l1.2,1.4l0.1,1.2l-0.1,1.2l-1.2,0.9l-1,0.5l0.2,1.2l1.2,1.4l-1.5,0.4l-0.4,0.9v1.3l0.7,1.2l0.3,0.9l-0.2,0.8l0.7,0.9
		l1,1.8l0.3,1.3l-0.4,1.8l-0.6,0.7l-1,0.7l-2.3,2.3l-1.2,2.6l-0.9,1.2l-1.2,0.2l-0.5-0.5l-1-0.7v-1.3l0.3-1l2-2.4l-1.1,0.3l-1.2,0.7
		l-1.8,1.3l-0.6-1.6l-0.4-1.5v-1.8l1.5-2.8l-1.7,1.4l-0.5,1.7l0.2,2l-0.2,1.4l-0.7,1.9l-0.9,1.2l-1.5,0.7l-0.6,1.2l-1,0.8V155
		l-0.3-2.1l-1.1-5.1l-0.2,1.1l0.5,3.2v2.1l-0.8,1.6l-1.6,1.7l-1.2,0.2l-0.7-0.3l-1.2-1.1l-1.2-1.5l-0.2-2.5l-0.5-1.4l0.1-1.6
		l-0.1-1.6l-1.3-4.2l-0.8-2.1l0.1-0.7v-0.3l-0.4-2.8l-0.5-1.7l-0.3-1.8l1.3-2.6l-0.5-0.4l-1.5-0.3l-1.4-0.4l-0.3-0.7l0.6-2.5l-0.7-1
		l-1-1l-0.3-0.4l-0.3-0.5l-0.5-1.3l0.9-2.7l1.3-3.1l0.2-1.2l0.2-2.1l0.1-0.8l-0.2-0.8l-1.3-0.9l-2.3-0.4l-1.7-0.8l-1-1.2l-0.8-0.5
		l-1,0.3l-1.3-0.5l-1.1-1.2l-0.9-1.4l0.1-0.6l0.2-0.9l1.7-3.6l0.6-0.1l1.5,0.7h0.6l1-1.4l1.4-4.1h1.9l1.7,0.1l1.2,0.2l1.2-0.1
		l1.2-0.3l0.6-0.5l0.3-0.6l-0.1-0.6l-1.5-0.8l-0.6-0.6l-0.4-1.6l-0.4-0.6l-2.9-0.1l-1.5-0.8l-0.8-0.7l-1.5-2.2l-1.9-1.8l-1.7-0.4
		l-0.7-0.5l-0.4-0.8l0.2-1.2l0.5-1.2l0.4-1.2l1.4-1.5l1.6-1.4l0.7-1l1-1l0.1-0.6l-0.2-0.6l-0.8-0.6l-0.6-0.2l-0.1-0.4l0.4-1.1
		l0.8-0.1l1.6,1l1.7,1.5l1,1.4v1.2l0.6,0.2h0.6l1.1,0.5l1.2-0.2l0.7,0.3l0.5-0.1l0.2-0.6l-0.5-0.9l-0.4-0.7l0.5-0.7l0.5-0.1l0.6,0.2
		l0.8,0.6l0.6,1.2l0.1,1.9l1.3,1.7l1.7,1.2l1.3,0.6l1.6,0.4l1.4-0.4l0.7-1.2l-0.3-1.1l0.2-1l0.5-0.5h0.8l0.6,0.8l1.8,4.2l-0.4,1.8
		l0.4,5.1l-0.5,3.3l0.1,0.7l0.2,0.5l0.3,0.2h0.5l2.3,0.6l1.9,0.7l2.1,0.6l3.1,0.5l1.9-0.2h1l1.9,0.2l5-0.3l4.2-0.1l1.6,0.5l1.4,0.2
		l4.6-0.3l4.6-0.2l2.5,1.1l2.8,1.7l1.5,1.3l0.3,0.7l-0.2,0.6l-0.5,0.3h-0.9l-2.2-0.8l-0.4,0.2v1.7l-0.1,0.3l-0.5,1.5l-1.3,3.5
		l-0.3,1.5l-0.3,0.4l-0.3,0.2h-1l-0.8,0.2l-0.3,0.6l-0.5,1.2l-0.4,1.2l-0.5,0.4l-1.2-0.6l-0.8,0.1l-0.9,0.3l-0.9,0.7l-0.6,0.8
		l-0.7,0.3l-2.2-0.2l-0.4,0.1l-0.3,0.6l-0.2,0.7l-1.7,1.8l-0.6,2.8l-0.5,1.8l0.1,1.4l1.4,3.7l1,4.8l0.4,0.5l0.3,0.2l0.2-0.1v-1v-1.2
		l0.5-0.3l0.6,0.2l0.6,1l0.6,1.9l0.7,0.7l1.1,0.2l1.2-0.4l0.9-0.9l0.4-0.9l-0.3-1.8l-0.1-1.4l0.6-1.3l2.1-2l0.3-0.6l-0.1-1.7v-1.6
		l0.8-0.1l1.1,0.3l1.4-0.8h0.4l0.6,0.8l1-0.1l0.7,3.4l0.7,3v1.4l0.1,3.1l0.3,2.5l0.5,0.6l0.6,1.3l0.6,1.5l0.4,0.9l0.3,2.8l0.4,2
		l0.5,6.4L210.6,152.8L210.6,152.8z M179,135.5l0.3,0.8l-0.9-0.5l-0.7-0.5l-0.4-0.7l0.7-0.4L179,135.5z M181.2,150.9l-2.8,0.6
		l-1.5-0.2l2.7-4.6l-0.1-2.1l-0.4-1.7l-1.4-1.4l-0.1-1l-0.6-1.3l-0.3-1.5l1.5-0.5l1.2,0.9l0.2,0.5l0.3,1.3l0.6,1.3l2.1,2.7v1.7
		l-0.6,4L181.2,150.9L181.2,150.9z M193.9,145.7l-0.8,0.5l-0.7-0.5l-0.9-1.7l0.5-2.2l0.3-0.3l0.5,0.7l0.6,1.5l0.4,1.2L193.9,145.7
		L193.9,145.7z M187.3,149.4l-1.7,1.2l0.6-7.3l1.3,2.7l0.4,1.5L187.3,149.4z M199.1,155.4l-0.6,1.4l-0.3-1l0.3-1.3l0.3-0.7h0.2
		l0.3,0.8L199.1,155.4z M200.3,161l-1,0.1l-0.5-0.5l0.2-0.7l-0.3-2.3l0.8-0.2h0.4l0.2,0.7l0.2,1.3L200.3,161z"/>
</g>


<a xlink:href="/locations/myanmar/" target="_top">
	<g id="yangoon" class="yangoon map-pin" data-country="myanmar" data-city="yangoon"><path class="st3" d="M276.9,192.9c-7.2,0-13,5.8-13,13c0,9.7,13,24.1,13,24.1s13-14.3,13-24.1C289.9,198.7,284.1,192.9,276.9,192.9
		z M276.9,210.5c-2.6,0-4.6-2.1-4.6-4.6c0-2.6,2.1-4.6,4.6-4.6c2.6,0,4.6,2.1,4.6,4.6C281.6,208.4,279.5,210.5,276.9,210.5z"/></g>
</a>
<a xlink:href="/locations/laos-pdr/" target="_top">
	<g id="vientiane" class="vientiane map-pin" data-country="laos_pdr" data-city="vientiane"><path class="st3" d="M377.5,181.4c-7.2,0-13,5.8-13,13c0,9.7,13,24.1,13,24.1s13-14.3,13-24.1C390.5,187.2,384.7,181.4,377.5,181.4
		z M377.5,199c-2.6,0-4.6-2.1-4.6-4.6c0-2.6,2.1-4.6,4.6-4.6c2.6,0,4.6,2.1,4.6,4.6C382.2,196.9,380.1,199,377.5,199z"/></g>
</a>
<a xlink:href="/locations/singapore/" target="_top">
	<g id="singapore_city" class="singaore_city map-pin" data-country="singapore" data-city="singapore_city"><path class="st3" d="M394.3,459.8c-7.2,0-13,5.8-13,13c0,9.7,13,24.1,13,24.1s13-14.3,13-24.1C407.2,465.6,401.4,459.8,394.3,459.8
		z M394.3,477.4c-2.6,0-4.6-2.1-4.6-4.6c0-2.6,2.1-4.6,4.6-4.6c2.6,0,4.6,2.1,4.6,4.6C398.9,475.3,396.8,477.4,394.3,477.4z"/></g>
</a>
<a xlink:href="/locations/cambodia/" target="_top">
	<g id="phnom_penh" class="phnompenh map-pin" data-country="cambodia" data-city="phnom_penh"><path class="st3" d="M407.6,291.2c-7.2,0-13,5.8-13,13c0,9.7,13,24.1,13,24.1s13-14.3,13-24.1C420.6,297,414.8,291.2,407.6,291.2z
		 M407.6,308.8c-2.6,0-4.6-2.1-4.6-4.6c0-2.6,2.1-4.6,4.6-4.6c2.6,0,4.6,2.1,4.6,4.6C412.2,306.7,410.2,308.8,407.6,308.8z"/></g>
</a>
<a xlink:href="/locations/philippines/" target="_top">
	<g id="manilla" class="manilla map-pin" data-country="philippines" data-city="manilla"><path class="st3" d="M678.2,248.4c-7.2,0-13,5.8-13,13c0,9.7,13,24.1,13,24.1s13-14.3,13-24.1C691.1,254.2,685.4,248.4,678.2,248.4
		z M678.2,266c-2.6,0-4.6-2.1-4.6-4.6c0-2.6,2.1-4.6,4.6-4.6c2.6,0,4.6,2.1,4.6,4.6C682.8,263.9,680.7,266,678.2,266z"/></g>
</a>
<a xlink:href="/locations/thailand/" target="_top">
	<g id="koh_samui" class="kohsamui map-pin" data-country="thailand" data-city="koh_samui"><path class="st3" d="M332.4,325.9c-7.2,0-13,5.8-13,13c0,9.7,13,24.1,13,24.1s13-14.3,13-24.1C345.4,331.7,339.6,325.9,332.4,325.9
		z M332.4,343.5c-2.6,0-4.6-2.1-4.6-4.6c0-2.6,2.1-4.6,4.6-4.6c2.6,0,4.6,2.1,4.6,4.6C337.1,341.4,335,343.5,332.4,343.5z"/></g>
</a>
<a xlink:href="/locations/myanmar/" target="_top">
	<g id="naypyidaw" class="naypyidaw map-pin" data-country="myanmar" data-city="naypyidaw"><path class="st3" d="M266.5,143.2c-7.2,0-13,5.8-13,13c0,9.7,13,24.1,13,24.1s13-14.3,13-24.1C279.5,149,273.7,143.2,266.5,143.2z
		 M266.5,160.8c-2.6,0-4.6-2.1-4.6-4.6c0-2.6,2.1-4.6,4.6-4.6c2.6,0,4.6,2.1,4.6,4.6C271.2,158.7,269.1,160.8,266.5,160.8z"/></g>
</a>
<a xlink:href="/locations/indonesia/" target="_top">
	<g id="jakarta" class="jakarta map-pin" data-country="indonesia" data-city="jakarta"><path class="st3" d="M446.9,587.3c-7.2,0-13,5.8-13,13c0,9.7,13,24.1,13,24.1s13-14.3,13-24.1C459.9,593.1,454.1,587.3,446.9,587.3
		z M446.9,604.8c-2.6,0-4.6-2.1-4.6-4.6s2.1-4.6,4.6-4.6c2.6,0,4.6,2.1,4.6,4.6S449.5,604.8,446.9,604.8z"/></g>
</a>
<a xlink:href="/locations/vietnam/" target="_top"><g id="ho_chi_minh" class="hochiminh map-pin" data-country="vietnam" data-city="ho_chi_minh">
	<path class="st3" d="M446.9,303.9c-7.2,0-13,5.8-13,13c0,9.7,13,24.1,13,24.1s13-14.3,13-24.1C459.9,309.7,454.1,303.9,446.9,303.9
		z M446.9,321.5c-2.6,0-4.6-2.1-4.6-4.6c0-2.6,2.1-4.6,4.6-4.6c2.6,0,4.6,2.1,4.6,4.6C451.5,319.5,449.5,321.5,446.9,321.5z"/></g>
</a>
<a xlink:href="/locations/vietnam/" target="_top"><g id="hanoi" class="hanoi map-pin" data-country="vietnam" data-city="hanoi">
	<path class="st3" d="M434.2,130.5c-7.2,0-13,5.8-13,13c0,9.7,13,24.1,13,24.1s13-14.3,13-24.1C447.2,136.3,441.4,130.5,434.2,130.5
		z M434.2,148.1c-2.6,0-4.6-2.1-4.6-4.6s2.1-4.6,4.6-4.6c2.6,0,4.6,2.1,4.6,4.6S436.8,148.1,434.2,148.1z"/></g>
</a>
<a xlink:href="/locations/bangladesh/" target="_top">
	<g id="dhaka" class="dhaka map-pin" data-country="bangladesh" data-city="dhaka"><path class="st3" d="M174,85.4c-7.2,0-13,5.8-13,13c0,9.7,13,24.1,13,24.1s13-14.3,13-24.1C187,91.2,181.2,85.4,174,85.4z M174,103
		c-2.6,0-4.6-2.1-4.6-4.6c0-2.6,2.1-4.6,4.6-4.6c2.6,0,4.6,2.1,4.6,4.6C178.6,100.9,176.6,103,174,103z"/></g>
</a>
<a xlink:href="/locations/thailand/" target="_top">
	<g id="bangkok" class="bangkok map-pin" data-country="thailand" data-city="bangkok"><path class="st3" d="M339.4,255.4c-7.2,0-13,5.8-13,13c0,9.7,13,24.1,13,24.1s13-14.3,13-24.1C352.3,261.2,346.5,255.4,339.4,255.4
		z M339.4,273c-2.6,0-4.6-2.1-4.6-4.6c0-2.6,2.1-4.6,4.6-4.6s4.6,2.1,4.6,4.6C344,270.9,341.9,273,339.4,273z"/></g>
</a>
</svg>
