<?xml version="1.0" encoding="utf-8"?>
<!-- Generator: Adobe Illustrator 23.0.3, SVG Export Plug-In . SVG Version: 6.00 Build 0)  -->
<svg version="1.1" id="Layer_1" xmlns="http://www.w3.org/2000/svg" xmlns:xlink="http://www.w3.org/1999/xlink" x="0px" y="0px"
	 viewBox="0 0 42 30" style="enable-background:new 0 0 42 30;" xml:space="preserve">
<style type="text/css">
	.st0{fill:#F1361D;}
	.st1{fill-rule:evenodd;clip-rule:evenodd;fill:#FFDC42;}
</style>
<path class="st0" d="M39,0H3C1.3,0,0,1.3,0,3v24c0,1.7,1.3,3,3,3h36c1.7,0,3-1.3,3-3V3C42,1.3,40.7,0,39,0z"/>
<path class="st1" d="M15.1,4.7l1.5,0.2l1.1,1l0.2-1.5l1-1.1l-1.5-0.2l-1.1-1l-0.2,1.5L15.1,4.7z M19,9.7L20.3,9l1.5,0L21,7.7l0-1.5
	L19.7,7l-1.5,0L19,8.3L19,9.7z M17.3,18l-1.2,0.8l0-1.5l-0.8-1.2l1.5,0l1.2-0.8l0,1.5l0.8,1.2L17.3,18z M18.4,14.1l1.5-0.2l1.3,0.7
	L21,13.2l0.7-1.3L20.2,12l-1.3-0.7l0.2,1.5L18.4,14.1z"/>
<path class="st1" d="M10,12.3l-3.5,2.5l1.3-4.1L4.3,8.1l4.3,0L10,4l1.4,4.1l4.3,0l-3.5,2.6l1.3,4.1L10,12.3z"/>
</svg>
