<?xml version="1.0" encoding="utf-8"?>
<!-- Generator: Adobe Illustrator 23.0.3, SVG Export Plug-In . SVG Version: 6.00 Build 0)  -->
<svg version="1.1" id="Layer_1" xmlns="http://www.w3.org/2000/svg" xmlns:xlink="http://www.w3.org/1999/xlink" x="0px" y="0px"
	 viewBox="0 0 42 30" style="enable-background:new 0 0 42 30;" xml:space="preserve">
<style type="text/css">
	.st0{fill:#FFFFFF;}
	.st1{fill:#FFFFFF;filter:url(#Adobe_OpacityMaskFilter);}
	.st2{mask:url(#mask0_567_48910_1_);}
	.st3{fill-rule:evenodd;clip-rule:evenodd;fill:#D02F44;}
	.st4{fill:#46467F;}
	.st5{clip-path:url(#SVGID_2_);fill-rule:evenodd;clip-rule:evenodd;fill:#F3F3F3;}
	.st6{clip-path:url(#SVGID_2_);fill-rule:evenodd;clip-rule:evenodd;fill:#F2F2F2;}
	.st7{clip-path:url(#SVGID_2_);fill-rule:evenodd;clip-rule:evenodd;fill:#F1F1F1;}
	.st8{clip-path:url(#SVGID_2_);fill-rule:evenodd;clip-rule:evenodd;fill:#F0F0F0;}
	.st9{clip-path:url(#SVGID_2_);fill-rule:evenodd;clip-rule:evenodd;fill:#F5F5F5;}
	.st10{clip-path:url(#SVGID_2_);fill-rule:evenodd;clip-rule:evenodd;fill:#F4F4F4;}
	.st11{clip-path:url(#SVGID_2_);fill-rule:evenodd;clip-rule:evenodd;fill:#F9F9F9;}
	.st12{clip-path:url(#SVGID_2_);fill-rule:evenodd;clip-rule:evenodd;fill:#F8F8F8;}
	.st13{clip-path:url(#SVGID_2_);fill-rule:evenodd;clip-rule:evenodd;fill:#F6F6F6;}
	.st14{clip-path:url(#SVGID_2_);fill-rule:evenodd;clip-rule:evenodd;fill:#FDFDFD;}
	.st15{clip-path:url(#SVGID_2_);fill-rule:evenodd;clip-rule:evenodd;fill:#FCFCFC;}
	.st16{clip-path:url(#SVGID_2_);fill-rule:evenodd;clip-rule:evenodd;fill:#FBFBFB;}
	.st17{clip-path:url(#SVGID_2_);fill-rule:evenodd;clip-rule:evenodd;fill:#FAFAFA;}
	.st18{clip-path:url(#SVGID_2_);fill-rule:evenodd;clip-rule:evenodd;fill:#FFFFFF;}
	.st19{clip-path:url(#SVGID_2_);fill-rule:evenodd;clip-rule:evenodd;fill:#FEFEFE;}
</style>
<g>
	<path class="st0" d="M3,0h36c1.7,0,3,1.3,3,3v24c0,1.7-1.3,3-3,3H3c-1.7,0-3-1.3-3-3V3C0,1.3,1.3,0,3,0z"/>
</g>
<defs>
	<filter id="Adobe_OpacityMaskFilter" filterUnits="userSpaceOnUse" x="0" y="0" width="42" height="30">
		<feColorMatrix  type="matrix" values="1 0 0 0 0  0 1 0 0 0  0 0 1 0 0  0 0 0 1 0"/>
	</filter>
</defs>
<mask maskUnits="userSpaceOnUse" x="0" y="0" width="42" height="30" id="mask0_567_48910_1_">
	<path class="st1" d="M3,0h36c1.7,0,3,1.3,3,3v24c0,1.7-1.3,3-3,3H3c-1.7,0-3-1.3-3-3V3C0,1.3,1.3,0,3,0z"/>
</mask>
<g class="st2">
	<g>
		<path class="st3" d="M42,0H0v2h42V0z M42,4H0v2h42V4z M0,8h42v2H0V8z M42,12H0v2h42V12z M0,16h42v2H0V16z M42,20H0v2h42V20z M0,24
			h42v2H0V24z M42,28H0v2h42V28z"/>
	</g>
	<g>
		<rect class="st4" width="18" height="14"/>
	</g>
	<g>
		<g>
			<g>
				<defs>
					<path id="SVGID_1_" d="M4,3c0,0.6-0.4,1-1,1S2,3.6,2,3c0-0.6,0.4-1,1-1S4,2.4,4,3z M8,3c0,0.6-0.4,1-1,1C6.4,4,6,3.6,6,3
						c0-0.6,0.4-1,1-1C7.6,2,8,2.4,8,3z M11,4c0.6,0,1-0.4,1-1c0-0.6-0.4-1-1-1s-1,0.4-1,1C10,3.6,10.4,4,11,4z M16,3
						c0,0.6-0.4,1-1,1s-1-0.4-1-1c0-0.6,0.4-1,1-1S16,2.4,16,3z M5,6c0.6,0,1-0.4,1-1c0-0.6-0.4-1-1-1C4.4,4,4,4.4,4,5
						C4,5.6,4.4,6,5,6z M10,5c0,0.6-0.4,1-1,1S8,5.6,8,5c0-0.6,0.4-1,1-1S10,4.4,10,5z M13,6c0.6,0,1-0.4,1-1c0-0.6-0.4-1-1-1
						c-0.6,0-1,0.4-1,1C12,5.6,12.4,6,13,6z M16,7c0,0.6-0.4,1-1,1s-1-0.4-1-1s0.4-1,1-1S16,6.4,16,7z M11,8c0.6,0,1-0.4,1-1
						s-0.4-1-1-1s-1,0.4-1,1S10.4,8,11,8z M8,7c0,0.6-0.4,1-1,1C6.4,8,6,7.6,6,7s0.4-1,1-1C7.6,6,8,6.4,8,7z M3,8c0.6,0,1-0.4,1-1
						S3.6,6,3,6S2,6.4,2,7S2.4,8,3,8z M6,9c0,0.6-0.4,1-1,1c-0.6,0-1-0.4-1-1s0.4-1,1-1C5.6,8,6,8.4,6,9z M9,10c0.6,0,1-0.4,1-1
						S9.6,8,9,8S8,8.4,8,9S8.4,10,9,10z M14,9c0,0.6-0.4,1-1,1c-0.6,0-1-0.4-1-1s0.4-1,1-1C13.6,8,14,8.4,14,9z M15,12
						c0.6,0,1-0.4,1-1c0-0.6-0.4-1-1-1s-1,0.4-1,1C14,11.6,14.4,12,15,12z M12,11c0,0.6-0.4,1-1,1s-1-0.4-1-1c0-0.6,0.4-1,1-1
						S12,10.4,12,11z M7,12c0.6,0,1-0.4,1-1c0-0.6-0.4-1-1-1c-0.6,0-1,0.4-1,1C6,11.6,6.4,12,7,12z M4,11c0,0.6-0.4,1-1,1
						s-1-0.4-1-1c0-0.6,0.4-1,1-1S4,10.4,4,11z"/>
				</defs>
				<clipPath id="SVGID_2_">
					<use xlink:href="#SVGID_1_"  style="overflow:visible;"/>
				</clipPath>
				<rect x="2" y="10" class="st5" width="2" height="0"/>
				<rect x="2" y="10" class="st6" width="2" height="0.7"/>
				<rect x="2" y="10.7" class="st7" width="2" height="0.7"/>
				<rect x="2" y="11.3" class="st8" width="2" height="0.7"/>
				<path class="st8" d="M2,12h2H2z"/>
				<rect x="6" y="10" class="st5" width="2" height="0"/>
				<rect x="6" y="10" class="st6" width="2" height="0.7"/>
				<rect x="6" y="10.7" class="st7" width="2" height="0.7"/>
				<rect x="6" y="11.3" class="st8" width="2" height="0.7"/>
				<path class="st8" d="M6,12h2H6z"/>
				<rect x="10" y="10" class="st5" width="2" height="0"/>
				<rect x="10" y="10" class="st6" width="2" height="0.7"/>
				<rect x="10" y="10.7" class="st7" width="2" height="0.7"/>
				<rect x="10" y="11.3" class="st8" width="2" height="0.7"/>
				<path class="st8" d="M10,12h2H10z"/>
				<rect x="14" y="10" class="st5" width="2" height="0"/>
				<rect x="14" y="10" class="st6" width="2" height="0.7"/>
				<rect x="14" y="10.7" class="st7" width="2" height="0.7"/>
				<rect x="14" y="11.3" class="st8" width="2" height="0.7"/>
				<path class="st8" d="M14,12h2H14z"/>
				<rect x="12" y="8" class="st9" width="2" height="0.7"/>
				<rect x="12" y="8.7" class="st10" width="2" height="0.7"/>
				<rect x="12" y="9.3" class="st5" width="2" height="0.7"/>
				<rect x="12" y="10" class="st6" width="2" height="0"/>
				<rect x="8" y="8" class="st9" width="2" height="0.7"/>
				<rect x="8" y="8.7" class="st10" width="2" height="0.7"/>
				<rect x="8" y="9.3" class="st5" width="2" height="0.7"/>
				<rect x="8" y="10" class="st6" width="2" height="0"/>
				<rect x="4" y="8" class="st9" width="2" height="0.7"/>
				<rect x="4" y="8.7" class="st10" width="2" height="0.7"/>
				<rect x="4" y="9.3" class="st5" width="2" height="0.7"/>
				<rect x="4" y="10" class="st6" width="2" height="0"/>
				<rect x="2" y="6" class="st11" width="2" height="0.7"/>
				<rect x="2" y="6.7" class="st12" width="2" height="0.7"/>
				<rect x="2" y="7.3" class="st13" width="2" height="0.7"/>
				<rect x="2" y="8" class="st9" width="2" height="0"/>
				<rect x="6" y="6" class="st11" width="2" height="0.7"/>
				<rect x="6" y="6.7" class="st12" width="2" height="0.7"/>
				<rect x="6" y="7.3" class="st13" width="2" height="0.7"/>
				<rect x="6" y="8" class="st9" width="2" height="0"/>
				<rect x="10" y="6" class="st11" width="2" height="0.7"/>
				<rect x="10" y="6.7" class="st12" width="2" height="0.7"/>
				<rect x="10" y="7.3" class="st13" width="2" height="0.7"/>
				<rect x="10" y="8" class="st9" width="2" height="0"/>
				<rect x="14" y="6" class="st11" width="2" height="0.7"/>
				<rect x="14" y="6.7" class="st12" width="2" height="0.7"/>
				<rect x="14" y="7.3" class="st13" width="2" height="0.7"/>
				<rect x="14" y="8" class="st9" width="2" height="0"/>
				<rect x="12" y="4" class="st14" width="2" height="0"/>
				<rect x="12" y="4" class="st15" width="2" height="0.7"/>
				<rect x="12" y="4.7" class="st16" width="2" height="0.7"/>
				<rect x="12" y="5.3" class="st17" width="2" height="0.7"/>
				<rect x="8" y="4" class="st14" width="2" height="0"/>
				<rect x="8" y="4" class="st15" width="2" height="0.7"/>
				<rect x="8" y="4.7" class="st16" width="2" height="0.7"/>
				<rect x="8" y="5.3" class="st17" width="2" height="0.7"/>
				<rect x="4" y="4" class="st14" width="2" height="0"/>
				<rect x="4" y="4" class="st15" width="2" height="0.7"/>
				<rect x="4" y="4.7" class="st16" width="2" height="0.7"/>
				<rect x="4" y="5.3" class="st17" width="2" height="0.7"/>
				<path class="st18" d="M16,2h-2H16z"/>
				<rect x="14" y="2" class="st18" width="2" height="0.7"/>
				<rect x="14" y="2.7" class="st19" width="2" height="0.7"/>
				<rect x="14" y="3.3" class="st14" width="2" height="0.7"/>
				<rect x="14" y="4" class="st15" width="2" height="0"/>
				<path class="st18" d="M12,2h-2H12z"/>
				<rect x="10" y="2" class="st18" width="2" height="0.7"/>
				<rect x="10" y="2.7" class="st19" width="2" height="0.7"/>
				<rect x="10" y="3.3" class="st14" width="2" height="0.7"/>
				<rect x="10" y="4" class="st15" width="2" height="0"/>
				<path class="st18" d="M8,2H6H8z"/>
				<rect x="6" y="2" class="st18" width="2" height="0.7"/>
				<rect x="6" y="2.7" class="st19" width="2" height="0.7"/>
				<rect x="6" y="3.3" class="st14" width="2" height="0.7"/>
				<rect x="6" y="4" class="st15" width="2" height="0"/>
				<path class="st18" d="M4,2H2H4z"/>
				<rect x="2" y="2" class="st18" width="2" height="0.7"/>
				<rect x="2" y="2.7" class="st19" width="2" height="0.7"/>
				<rect x="2" y="3.3" class="st14" width="2" height="0.7"/>
				<rect x="2" y="4" class="st15" width="2" height="0"/>
			</g>
		</g>
	</g>
</g>
</svg>
