<svg width="48" height="35" viewBox="0 0 48 35" fill="none" xmlns="http://www.w3.org/2000/svg">
<rect x="0.428571" y="0.428571" width="47.1429" height="33.4286" rx="3" fill="white" stroke="#F5F5F5" stroke-width="0.857143"/>
<mask id="mask0_413_29741" style="mask-type:alpha" maskUnits="userSpaceOnUse" x="0" y="0" width="48" height="35">
<rect x="0.428571" y="0.428571" width="47.1429" height="33.4286" rx="3" fill="white" stroke="white" stroke-width="0.857143"/>
</mask>
<g mask="url(#mask0_413_29741)">
<path fill-rule="evenodd" clip-rule="evenodd" d="M24 25.1426C28.4183 25.1426 32 21.5609 32 17.1426C32 12.7243 28.4183 9.14258 24 9.14258C19.5817 9.14258 16 12.7243 16 17.1426C16 21.5609 19.5817 25.1426 24 25.1426Z" fill="#E01B41"/>
<mask id="mask1_413_29741" style="mask-type:alpha" maskUnits="userSpaceOnUse" x="16" y="9" width="16" height="17">
<path fill-rule="evenodd" clip-rule="evenodd" d="M24 25.1426C28.4183 25.1426 32 21.5609 32 17.1426C32 12.7243 28.4183 9.14258 24 9.14258C19.5817 9.14258 16 12.7243 16 17.1426C16 21.5609 19.5817 25.1426 24 25.1426Z" fill="white"/>
</mask>
<g mask="url(#mask1_413_29741)">
<path fill-rule="evenodd" clip-rule="evenodd" d="M15.9993 18.2853C18.285 20.4282 21.7136 21.7139 23.9993 18.2853C26.285 14.8567 30.8564 14.8567 31.9993 18.2853C33.1421 21.7139 31.9993 25.1424 31.9993 25.1424H15.9993C15.9993 25.1424 13.7136 16.1424 15.9993 18.2853Z" fill="#0E4B9C"/>
</g>
<path opacity="0.75" fill-rule="evenodd" clip-rule="evenodd" d="M10.5822 6.09684C10.74 5.82353 11.0895 5.72989 11.3628 5.88769L12.3526 6.45912C12.6259 6.61691 12.7195 6.96639 12.5617 7.2397L9.70458 12.1884C9.54678 12.4617 9.1973 12.5554 8.92399 12.3976L7.93425 11.8261C7.66094 11.6684 7.56729 11.3189 7.72509 11.0456L10.5822 6.09684ZM35.6475 6.45939C35.3742 6.61718 35.2806 6.96666 35.4384 7.23997L38.2955 12.1887C38.4533 12.462 38.8028 12.5556 39.0761 12.3978L40.0659 11.8264C40.3392 11.6686 40.4328 11.3191 40.275 11.0458L37.4179 6.09712C37.2601 5.82381 36.9106 5.73016 36.6373 5.88796L35.6475 6.45939ZM32.6785 8.17344C32.4052 8.33123 32.3115 8.68071 32.4693 8.95402L35.3265 13.9027C35.4843 14.176 35.8338 14.2697 36.1071 14.1119L37.0968 13.5405C37.3701 13.3827 37.4638 13.0332 37.306 12.7599L34.4488 7.81117C34.291 7.53786 33.9415 7.44421 33.6682 7.60201L32.6785 8.17344ZM7.72519 23.2397C7.5674 22.9664 7.66104 22.6169 7.93435 22.4591L8.92409 21.8877C9.1974 21.7299 9.54689 21.8236 9.70468 22.0969L12.5618 27.0456C12.7196 27.3189 12.626 27.6684 12.3527 27.8262L11.3629 28.3976C11.0896 28.5554 10.7401 28.4618 10.5823 28.1884L7.72519 23.2397ZM10.9034 20.7447C10.6301 20.9025 10.5365 21.252 10.6942 21.5253L13.5514 26.474C13.7092 26.7473 14.0587 26.841 14.332 26.6832L15.3217 26.1118C15.595 25.954 15.6887 25.6045 15.5309 25.3312L12.6737 20.3825C12.5159 20.1091 12.1665 20.0155 11.8931 20.1733L10.9034 20.7447ZM35.3264 20.3827C35.4842 20.1094 35.8336 20.0158 36.107 20.1736L37.0967 20.745C37.37 20.9028 37.4637 21.2523 37.3059 21.5256L34.4487 26.4743C34.2909 26.7476 33.9414 26.8413 33.6681 26.6835L32.6784 26.112C32.4051 25.9542 32.3114 25.6048 32.4692 25.3314L35.3264 20.3827ZM39.076 21.888C38.8027 21.7302 38.4532 21.8238 38.2954 22.0971L35.4383 27.0459C35.2805 27.3192 35.3741 27.6687 35.6474 27.8265L36.6372 28.3979C36.9105 28.5557 37.26 28.462 37.4178 28.1887L40.2749 23.24C40.4327 22.9667 40.3391 22.6172 40.0658 22.4594L39.076 21.888ZM14.3319 7.6021C14.0586 7.44431 13.7091 7.53795 13.5513 7.81126L10.6941 12.76C10.5363 13.0333 10.63 13.3828 10.9033 13.5406L11.893 14.112C12.1664 14.2698 12.5158 14.1761 12.6736 13.9028L15.5308 8.95412C15.6886 8.68081 15.5949 8.33133 15.3216 8.17353L14.3319 7.6021Z" fill="#262626"/>
</g>
</svg>
