<svg width="48" height="35" viewBox="0 0 48 35" fill="none" xmlns="http://www.w3.org/2000/svg">
<rect x="0.428571" y="0.428571" width="47.1429" height="33.4286" rx="3" fill="white" stroke="#F5F5F5" stroke-width="0.857143"/>
<mask id="mask0_413_29730" style="mask-type:alpha" maskUnits="userSpaceOnUse" x="0" y="0" width="48" height="35">
<rect x="0.428571" y="0.428571" width="47.1429" height="33.4286" rx="3" fill="white" stroke="white" stroke-width="0.857143"/>
</mask>
<g mask="url(#mask0_413_29730)">
<path fill-rule="evenodd" clip-rule="evenodd" d="M0 11.4286H48V0H0V11.4286Z" fill="#FFA44A"/>
<path fill-rule="evenodd" clip-rule="evenodd" d="M0 34.2856H48V22.8571H0V34.2856Z" fill="#1A9F0B"/>
<path d="M23.9999 21.1429C26.209 21.1429 27.9999 19.3521 27.9999 17.1429C27.9999 14.9338 26.209 13.1429 23.9999 13.1429C21.7907 13.1429 19.9999 14.9338 19.9999 17.1429C19.9999 19.3521 21.7907 21.1429 23.9999 21.1429Z" fill="#181A93" fill-opacity="0.15" stroke="#181A93" stroke-width="1.14286"/>
<path fill-rule="evenodd" clip-rule="evenodd" d="M24.0003 18.2856C24.6315 18.2856 25.1431 17.7739 25.1431 17.1427C25.1431 16.5116 24.6315 15.9999 24.0003 15.9999C23.3691 15.9999 22.8574 16.5116 22.8574 17.1427C22.8574 17.7739 23.3691 18.2856 24.0003 18.2856Z" fill="#181A93"/>
</g>
</svg>
