<svg width="10" height="17" viewBox="0 0 10 17" fill="none" xmlns="http://www.w3.org/2000/svg">
<path d="M7.63636 0.5H1.81818C0.814545 0.5 0 1.31455 0 2.31818V14.6818C0 15.6855 0.814545 16.5 1.81818 16.5H7.63636C8.64 16.5 9.45455 15.6855 9.45455 14.6818V2.31818C9.45455 1.31455 8.64 0.5 7.63636 0.5ZM4.72727 15.7727C4.12364 15.7727 3.63636 15.2855 3.63636 14.6818C3.63636 14.0782 4.12364 13.5909 4.72727 13.5909C5.33091 13.5909 5.81818 14.0782 5.81818 14.6818C5.81818 15.2855 5.33091 15.7727 4.72727 15.7727ZM8 12.8636H1.45455V2.68182H8V12.8636Z" fill="#004C45"/>
</svg>
