<svg width="16" height="16" viewBox="0 0 16 16" fill="none" xmlns="http://www.w3.org/2000/svg">
<path d="M14.2222 0H1.77778C0.795556 0 0 0.795556 0 1.77778V14.2222C0 15.2044 0.795556 16 1.77778 16H14.2222C15.2044 16 16 15.2044 16 14.2222V1.77778C16 0.795556 15.2044 0 14.2222 0ZM5.33333 12.4444H3.09067V6.22222H5.33333V12.4444ZM4.17244 5.08178C3.48711 5.08178 3.02933 4.62489 3.02933 4.01511C3.02933 3.40533 3.48622 2.94844 4.248 2.94844C4.93333 2.94844 5.39111 3.40533 5.39111 4.01511C5.39111 4.62489 4.93422 5.08178 4.17244 5.08178ZM13.3333 12.4444H11.1627V9.04356C11.1627 8.10311 10.584 7.88622 10.3671 7.88622C10.1502 7.88622 9.42667 8.03111 9.42667 9.04356C9.42667 9.18844 9.42667 12.4444 9.42667 12.4444H7.184V6.22222H9.42667V7.09067C9.71556 6.584 10.2942 6.22222 11.3796 6.22222C12.4649 6.22222 13.3333 7.09067 13.3333 9.04356V12.4444Z" fill="white"/>
</svg>
