<?xml version="1.0" encoding="utf-8"?>
<!-- Generator: Adobe Illustrator 23.0.3, SVG Export Plug-In . SVG Version: 6.00 Build 0)  -->
<svg version="1.1" id="Layer_1" xmlns="http://www.w3.org/2000/svg" xmlns:xlink="http://www.w3.org/1999/xlink" x="0px" y="0px"
	 viewBox="0 0 16 8" style="enable-background:new 0 0 16 8;" xml:space="preserve">
<style type="text/css">
	.st0{fill:#77DD77;}
</style>
<path class="st0" d="M1.5,4c0-1.4,1.1-2.5,2.5-2.5h3.2V0H4C1.8,0,0,1.8,0,4s1.8,4,4,4h3.2V6.5H4C2.6,6.5,1.5,5.4,1.5,4z M4.8,4.8
	h6.4V3.2H4.8V4.8z M12,0H8.8v1.5H12c1.4,0,2.5,1.1,2.5,2.5S13.4,6.5,12,6.5H8.8V8H12c2.2,0,4-1.8,4-4S14.2,0,12,0z"/>
</svg>
