<?xml version="1.0" encoding="utf-8"?>
<!-- Generator: Adobe Illustrator 23.0.3, SVG Export Plug-In . SVG Version: 6.00 Build 0)  -->
<svg version="1.1" id="Layer_1" xmlns="http://www.w3.org/2000/svg" xmlns:xlink="http://www.w3.org/1999/xlink" x="0px" y="0px"
	 viewBox="0 0 16 16" style="enable-background:new 0 0 16 16;" xml:space="preserve">
<style type="text/css">
	.st0{fill:#004C45;}
</style>
<path class="st0" d="M14.2,0H1.8C0.8,0,0,0.8,0,1.8v12.4c0,1,0.8,1.8,1.8,1.8h12.4c1,0,1.8-0.8,1.8-1.8V1.8C16,0.8,15.2,0,14.2,0z
	 M5.3,12.4H3.1V6.2h2.2V12.4z M4.2,5.1C3.5,5.1,3,4.6,3,4s0.5-1.1,1.2-1.1c0.7,0,1.1,0.5,1.1,1.1S4.9,5.1,4.2,5.1z M13.3,12.4h-2.2
	V9c0-0.9-0.6-1.2-0.8-1.2S9.4,8,9.4,9c0,0.1,0,3.4,0,3.4H7.2V6.2h2.2v0.9c0.3-0.5,0.9-0.9,2-0.9c1.1,0,2,0.9,2,2.8V12.4z"/>
</svg>
