<?xml version="1.0" encoding="utf-8"?>
<!-- Generator: Adobe Illustrator 23.0.3, SVG Export Plug-In . SVG Version: 6.00 Build 0)  -->
<svg version="1.1" id="Layer_1" xmlns="http://www.w3.org/2000/svg" xmlns:xlink="http://www.w3.org/1999/xlink" x="0px" y="0px"
	 viewBox="0 0 16 16" style="enable-background:new 0 0 16 16;" xml:space="preserve">
<style type="text/css">
	.st0{fill:#ED4337;}
</style>
<path class="st0" d="M8,12c0.2,0,0.3-0.1,0.5-0.2c0.1-0.1,0.2-0.3,0.2-0.5S8.6,11,8.5,10.9c-0.1-0.1-0.3-0.2-0.5-0.2
	c-0.2,0-0.3,0.1-0.5,0.2c-0.1,0.1-0.2,0.3-0.2,0.5s0.1,0.3,0.2,0.5C7.7,11.9,7.8,12,8,12z M7.5,8.9h1.2V3.9H7.5V8.9z M8,16
	c-1.1,0-2.1-0.2-3.1-0.6s-1.8-1-2.6-1.7c-0.7-0.7-1.3-1.6-1.7-2.5S0,9.1,0,8c0-1.1,0.2-2.1,0.6-3.1s1-1.8,1.7-2.5S3.9,1,4.9,0.6
	S6.9,0,8,0c1.1,0,2.1,0.2,3.1,0.6s1.8,1,2.5,1.7s1.3,1.6,1.7,2.5S16,6.9,16,8c0,1.1-0.2,2.1-0.6,3.1s-1,1.8-1.7,2.5
	c-0.7,0.7-1.6,1.3-2.5,1.7S9.1,16,8,16z M8,14.8c1.9,0,3.5-0.7,4.8-2s2-2.9,2-4.8c0-1.9-0.7-3.5-2-4.8s-2.9-2-4.8-2
	c-1.9,0-3.5,0.7-4.8,2s-2,2.9-2,4.8c0,1.9,0.7,3.5,2,4.8S6.1,14.8,8,14.8z"/>
</svg>
