<svg width="16" height="16" xmlns="http://www.w3.org/2000/svg" x="0px" y="0px"
	 viewBox="0 0 16 16" fill="none">
<link  href="../../style.css" rel="stylesheet" xmlns="http://www.w3.org/1999/xhtml"></link>
<path class="share-icon" d="M14,0H2C0.9,0,0,0.9,0,2v12c0,1.1,0.9,2,2,2h12c1.1,0,2-0.9,2-2V2C16,0.9,15.1,0,14,0z M13,5.1c-0.3,0.4-0.6,0.7-1,1
	c0,0.1,0,0.1,0,0.2s0,0.2,0,0.2C12,9.2,9.9,12,6.2,12C5,12,3.9,11.6,3,11h0.5c1.4,0,1.9-0.2,2.6-0.7C5.2,10.3,4.3,9.8,4,9
	c0.1,0,0.6,0.1,0.7,0.1c0.2,0,0.6,0,0.8-0.3c-1-0.2-2-0.8-2-1.8c0.3,0.2,0.6,0.3,0.9,0.3c0.2,0,0.3-0.1,0.5-0.1
	C4,6.8,3.5,6.1,3.5,5.4c0-0.4,0-0.8,0.1-1c0.9,1.1,2.2,2,3.9,2c0,0,0-0.1,0-0.2C7.5,5,8.5,4,9.8,4c0.6,0,1.1,0.2,1.6,0.6
	C11.8,4.5,12.6,4.2,13,4c-0.2,0.5-0.7,1.1-1.2,1.4C12.2,5.4,12.6,5.3,13,5.1z"/>
</svg>
