<?xml version="1.0" encoding="utf-8"?>
<!-- Generator: Adobe Illustrator 23.0.3, SVG Export Plug-In . SVG Version: 6.00 Build 0)  -->
<svg version="1.1" id="Layer_1" xmlns="http://www.w3.org/2000/svg" xmlns:xlink="http://www.w3.org/1999/xlink" x="0px" y="0px"
	 viewBox="0 0 16 16" style="enable-background:new 0 0 16 16;" xml:space="preserve">
<style type="text/css">
	.st0{fill:#004C45;}
	.st1{fill:#FFFFFF;}
</style>
<path class="st0" d="M2,0h12c1.1,0,2,0.9,2,2v12c0,1.1-0.9,2-2,2H2c-1.1,0-2-0.9-2-2V2C0,0.9,0.9,0,2,0z"/>
<path class="st1" d="M13,4c-0.4,0.2-1.2,0.5-1.6,0.6c0,0,0,0,0,0C10.9,4.2,10.4,4,9.8,4C8.5,4,7.5,5,7.5,6.2c0,0.1,0,0.2,0,0.2
	c-1.7,0-3-0.9-3.9-2c-0.1,0.2-0.1,0.6-0.1,1c0,0.7,0.5,1.4,1.4,1.8c-0.2,0-0.3,0.1-0.5,0.1c-0.3,0-0.6-0.1-0.9-0.3c0,0,0,0,0,0
	c0,1,1,1.6,2,1.8C5.3,9.1,4.9,9.1,4.7,9.1C4.6,9.1,4.1,9,4,9c0.3,0.8,1.2,1.3,2.1,1.3C5.4,10.8,4.9,11,3.5,11H3c0.9,0.6,2,1,3.2,1
	C9.9,12,12,9.2,12,6.5c0,0,0-0.1,0-0.2c0,0,0,0,0,0c0,0,0,0,0,0c0-0.1,0-0.1,0-0.2c0.4-0.3,0.7-0.6,1-1c-0.4,0.2-0.8,0.3-1.2,0.3
	C12.3,5.1,12.8,4.5,13,4z"/>
</svg>
