<svg width="16" height="16" viewBox="0 0 16 16" fill="none" xmlns="http://www.w3.org/2000/svg">
<path d="M14.2222 0H1.77778C0.795556 0 0 0.795556 0 1.77778V14.2222C0 15.2044 0.795556 16 1.77778 16H8.552V9.81244H6.46933V7.39022H8.552V5.608C8.552 3.54222 9.81511 2.416 11.6587 2.416C12.28 2.41422 12.9004 2.44622 13.5182 2.50933V4.66933H12.2489C11.2444 4.66933 11.0489 5.144 11.0489 5.84444V7.38667H13.4489L13.1369 9.80889H11.0347V16H14.2222C15.2044 16 16 15.2044 16 14.2222V1.77778C16 0.795556 15.2044 0 14.2222 0Z" fill="white"/>
</svg>
