<svg width="18" height="15" viewBox="0 0 18 15" fill="none" xmlns="http://www.w3.org/2000/svg">
<path d="M17.6238 1.9674C17.4168 1.1934 16.8066 0.5832 16.0326 0.3762C14.6286 1.87755e-07 9 0 9 0C9 0 3.3714 1.87755e-07 1.9674 0.3762C1.1934 0.5832 0.5832 1.1934 0.3762 1.9674C-2.68221e-08 3.3714 0 7.2 0 7.2C0 7.2 -2.68221e-08 11.0286 0.3762 12.4326C0.5832 13.2066 1.1934 13.8168 1.9674 14.0238C3.3714 14.4 9 14.4 9 14.4C9 14.4 14.6286 14.4 16.0326 14.0238C16.8075 13.8168 17.4168 13.2066 17.6238 12.4326C18 11.0286 18 7.2 18 7.2C18 7.2 18 3.3714 17.6238 1.9674ZM7.2 10.3176V4.0824L12.6 7.2L7.2 10.3176Z" fill="white"/>
</svg>
