<svg width="261" height="40" viewBox="0 0 261 40" fill="none" xmlns="http://www.w3.org/2000/svg">
<g clip-path="url(#clip0_457_7408)">
<path d="M15.4351 22.0629H14.7124L14.4563 21.8159C15.3528 20.773 15.8925 19.4191 15.8925 17.9463C15.8925 14.6621 13.2304 12 9.94625 12C6.66209 12 4 14.6621 4 17.9463C4 21.2304 6.66209 23.8925 9.94625 23.8925C11.4191 23.8925 12.773 23.3528 13.8159 22.4563L14.0629 22.7124V23.4351L18.6369 28L20 26.6369L15.4351 22.0629ZM9.94625 22.0629C7.66838 22.0629 5.82962 20.2241 5.82962 17.9463C5.82962 15.6684 7.66838 13.8296 9.94625 13.8296C12.2241 13.8296 14.0629 15.6684 14.0629 17.9463C14.0629 20.2241 12.2241 22.0629 9.94625 22.0629Z" fill="#004C45"/>
</g>
<path d="M71.5078 21.4688C71.5078 22 71.4089 22.4661 71.2109 22.8672C71.013 23.2682 70.7448 23.6042 70.4062 23.875C70.0677 24.1406 69.6719 24.3411 69.2188 24.4766C68.7656 24.612 68.2812 24.6797 67.7656 24.6797C67.4167 24.6797 67.0911 24.651 66.7891 24.5938C66.4922 24.5365 66.2292 24.4688 66 24.3906C65.7708 24.3073 65.5781 24.2214 65.4219 24.1328C65.2708 24.0443 65.1615 23.9661 65.0938 23.8984C65.026 23.8307 64.9766 23.7344 64.9453 23.6094C64.9193 23.4792 64.9062 23.2943 64.9062 23.0547C64.9062 22.8932 64.9115 22.7578 64.9219 22.6484C64.9323 22.5391 64.9479 22.4505 64.9688 22.3828C64.9948 22.3151 65.026 22.2682 65.0625 22.2422C65.1042 22.2109 65.151 22.1953 65.2031 22.1953C65.276 22.1953 65.3776 22.2396 65.5078 22.3281C65.6432 22.4115 65.8151 22.5052 66.0234 22.6094C66.2318 22.7135 66.4792 22.8099 66.7656 22.8984C67.0573 22.9818 67.3932 23.0234 67.7734 23.0234C68.0234 23.0234 68.2474 22.9948 68.4453 22.9375C68.6432 22.875 68.8099 22.7891 68.9453 22.6797C69.0859 22.5703 69.1927 22.4349 69.2656 22.2734C69.3385 22.112 69.375 21.9323 69.375 21.7344C69.375 21.5052 69.3125 21.3099 69.1875 21.1484C69.0625 20.9818 68.8984 20.8359 68.6953 20.7109C68.4974 20.5807 68.2708 20.4609 68.0156 20.3516C67.7604 20.237 67.4974 20.1172 67.2266 19.9922C66.9557 19.8672 66.6927 19.7266 66.4375 19.5703C66.1823 19.4089 65.9531 19.2188 65.75 19C65.5521 18.776 65.3906 18.513 65.2656 18.2109C65.1406 17.9089 65.0781 17.5469 65.0781 17.125C65.0781 16.6406 65.1667 16.2161 65.3438 15.8516C65.526 15.4818 65.7682 15.1771 66.0703 14.9375C66.3776 14.6927 66.737 14.5104 67.1484 14.3906C67.5651 14.2708 68.0052 14.2109 68.4688 14.2109C68.7083 14.2109 68.9479 14.2292 69.1875 14.2656C69.4271 14.3021 69.651 14.3516 69.8594 14.4141C70.0677 14.4766 70.2526 14.5469 70.4141 14.625C70.5755 14.7031 70.6823 14.7682 70.7344 14.8203C70.7865 14.8724 70.8203 14.9167 70.8359 14.9531C70.8568 14.9896 70.8724 15.0391 70.8828 15.1016C70.8984 15.1589 70.9089 15.2344 70.9141 15.3281C70.9193 15.4167 70.9219 15.5286 70.9219 15.6641C70.9219 15.8151 70.9167 15.9427 70.9062 16.0469C70.901 16.151 70.888 16.237 70.8672 16.3047C70.8516 16.3724 70.8255 16.4219 70.7891 16.4531C70.7578 16.4844 70.7135 16.5 70.6562 16.5C70.599 16.5 70.5078 16.4635 70.3828 16.3906C70.2578 16.3177 70.1042 16.2396 69.9219 16.1562C69.7396 16.0677 69.5286 15.9896 69.2891 15.9219C69.0495 15.849 68.7865 15.8125 68.5 15.8125C68.276 15.8125 68.0807 15.8411 67.9141 15.8984C67.7474 15.9505 67.6068 16.026 67.4922 16.125C67.3828 16.2188 67.2995 16.3333 67.2422 16.4688C67.1901 16.6042 67.1641 16.7474 67.1641 16.8984C67.1641 17.1224 67.224 17.3177 67.3438 17.4844C67.4688 17.6458 67.6328 17.7917 67.8359 17.9219C68.0443 18.0469 68.2786 18.1667 68.5391 18.2812C68.7995 18.3906 69.0651 18.5078 69.3359 18.6328C69.6068 18.7578 69.8724 18.901 70.1328 19.0625C70.3932 19.2188 70.625 19.4089 70.8281 19.6328C71.0312 19.8516 71.1953 20.112 71.3203 20.4141C71.4453 20.7109 71.5078 21.0625 71.5078 21.4688ZM74.9297 24.2344C74.9297 24.2865 74.9141 24.3333 74.8828 24.375C74.8516 24.4115 74.7969 24.4427 74.7188 24.4688C74.6458 24.4948 74.5469 24.513 74.4219 24.5234C74.2969 24.5391 74.138 24.5469 73.9453 24.5469C73.7526 24.5469 73.5938 24.5391 73.4688 24.5234C73.3438 24.513 73.2422 24.4948 73.1641 24.4688C73.0911 24.4427 73.0391 24.4115 73.0078 24.375C72.9766 24.3333 72.9609 24.2865 72.9609 24.2344V17.2812C72.9609 17.2292 72.9766 17.1849 73.0078 17.1484C73.0391 17.1068 73.0911 17.0729 73.1641 17.0469C73.2422 17.0156 73.3438 16.9922 73.4688 16.9766C73.5938 16.9609 73.7526 16.9531 73.9453 16.9531C74.138 16.9531 74.2969 16.9609 74.4219 16.9766C74.5469 16.9922 74.6458 17.0156 74.7188 17.0469C74.7969 17.0729 74.8516 17.1068 74.8828 17.1484C74.9141 17.1849 74.9297 17.2292 74.9297 17.2812V24.2344ZM75.0781 14.9062C75.0781 15.3021 74.9974 15.5755 74.8359 15.7266C74.6745 15.8776 74.375 15.9531 73.9375 15.9531C73.4948 15.9531 73.1953 15.8802 73.0391 15.7344C72.888 15.5885 72.8125 15.3255 72.8125 14.9453C72.8125 14.5495 72.8906 14.276 73.0469 14.125C73.2083 13.9688 73.5104 13.8906 73.9531 13.8906C74.3906 13.8906 74.6875 13.9661 74.8438 14.1172C75 14.263 75.0781 14.526 75.0781 14.9062ZM83.1797 17.75C83.1797 18 83.151 18.1849 83.0938 18.3047C83.0365 18.4245 82.9661 18.4844 82.8828 18.4844H82.0625C82.1771 18.6094 82.2578 18.7526 82.3047 18.9141C82.3568 19.0703 82.3828 19.2344 82.3828 19.4062C82.3828 19.8125 82.3151 20.1745 82.1797 20.4922C82.0443 20.8047 81.849 21.0703 81.5938 21.2891C81.3438 21.5026 81.0391 21.6667 80.6797 21.7812C80.3255 21.8906 79.9297 21.9453 79.4922 21.9453C79.2682 21.9453 79.0547 21.9193 78.8516 21.8672C78.6484 21.8099 78.4922 21.7448 78.3828 21.6719C78.3203 21.7396 78.263 21.8203 78.2109 21.9141C78.1641 22.0078 78.1406 22.112 78.1406 22.2266C78.1406 22.3776 78.2057 22.5026 78.3359 22.6016C78.4714 22.6953 78.6589 22.7474 78.8984 22.7578L80.5938 22.8203C80.9896 22.8359 81.3411 22.8932 81.6484 22.9922C81.9609 23.0859 82.2214 23.2214 82.4297 23.3984C82.6432 23.5703 82.8047 23.7786 82.9141 24.0234C83.0286 24.2682 83.0859 24.5469 83.0859 24.8594C83.0859 25.2031 83.0104 25.526 82.8594 25.8281C82.7083 26.1354 82.4818 26.401 82.1797 26.625C81.8776 26.849 81.4974 27.026 81.0391 27.1562C80.5859 27.2865 80.0547 27.3516 79.4453 27.3516C78.8516 27.3516 78.3438 27.3047 77.9219 27.2109C77.5052 27.1172 77.1615 26.987 76.8906 26.8203C76.625 26.6536 76.4297 26.4531 76.3047 26.2188C76.1849 25.9896 76.125 25.737 76.125 25.4609C76.125 25.2891 76.1458 25.125 76.1875 24.9688C76.2344 24.8125 76.2995 24.6615 76.3828 24.5156C76.4714 24.375 76.5781 24.2396 76.7031 24.1094C76.8281 23.9792 76.9714 23.8542 77.1328 23.7344C76.9089 23.6146 76.7344 23.4531 76.6094 23.25C76.4896 23.0417 76.4297 22.8151 76.4297 22.5703C76.4297 22.263 76.5 21.9844 76.6406 21.7344C76.7812 21.4792 76.9635 21.25 77.1875 21.0469C77.0052 20.8646 76.8594 20.6458 76.75 20.3906C76.6406 20.1354 76.5859 19.8177 76.5859 19.4375C76.5859 19.0312 76.6562 18.6693 76.7969 18.3516C76.9427 18.0286 77.1432 17.7578 77.3984 17.5391C77.6536 17.3151 77.9583 17.1458 78.3125 17.0312C78.6667 16.9115 79.0573 16.8516 79.4844 16.8516C79.7031 16.8516 79.9115 16.8646 80.1094 16.8906C80.3125 16.9167 80.5 16.9531 80.6719 17H82.8828C82.9714 17 83.0417 17.0573 83.0938 17.1719C83.151 17.2865 83.1797 17.4792 83.1797 17.75ZM80.6562 19.3984C80.6562 19.0234 80.5521 18.7318 80.3438 18.5234C80.1354 18.3151 79.8411 18.2109 79.4609 18.2109C79.2682 18.2109 79.099 18.2448 78.9531 18.3125C78.8073 18.375 78.6849 18.4635 78.5859 18.5781C78.4922 18.6875 78.4219 18.8177 78.375 18.9688C78.3281 19.1146 78.3047 19.2682 78.3047 19.4297C78.3047 19.7839 78.4089 20.0651 78.6172 20.2734C78.8255 20.4766 79.1146 20.5781 79.4844 20.5781C79.6823 20.5781 79.8542 20.5469 80 20.4844C80.1458 20.4219 80.2656 20.3359 80.3594 20.2266C80.4583 20.1172 80.5312 19.9922 80.5781 19.8516C80.6302 19.7057 80.6562 19.5547 80.6562 19.3984ZM81.1172 24.9609C81.1172 24.7266 81.0234 24.5469 80.8359 24.4219C80.6484 24.2969 80.3906 24.2292 80.0625 24.2188L78.6641 24.1797C78.5286 24.2786 78.4193 24.375 78.3359 24.4688C78.2578 24.5573 78.1927 24.6432 78.1406 24.7266C78.0938 24.8099 78.0625 24.8906 78.0469 24.9688C78.0312 25.0469 78.0234 25.1276 78.0234 25.2109C78.0234 25.4714 78.1536 25.6693 78.4141 25.8047C78.6797 25.9401 79.0521 26.0078 79.5312 26.0078C79.8281 26.0078 80.0781 25.9766 80.2812 25.9141C80.4844 25.8568 80.6484 25.7786 80.7734 25.6797C80.8984 25.5807 80.987 25.4688 81.0391 25.3438C81.0911 25.224 81.1172 25.0964 81.1172 24.9609ZM91.1484 24.2344C91.1484 24.2865 91.1328 24.3333 91.1016 24.375C91.0703 24.4115 91.0182 24.4427 90.9453 24.4688C90.8724 24.4948 90.7708 24.513 90.6406 24.5234C90.5156 24.5391 90.3594 24.5469 90.1719 24.5469C89.9792 24.5469 89.8177 24.5391 89.6875 24.5234C89.5625 24.513 89.4635 24.4948 89.3906 24.4688C89.3177 24.4427 89.2656 24.4115 89.2344 24.375C89.2031 24.3333 89.1875 24.2865 89.1875 24.2344V20.2578C89.1875 19.9193 89.1615 19.6536 89.1094 19.4609C89.0625 19.2682 88.9922 19.1042 88.8984 18.9688C88.8047 18.8281 88.6823 18.7214 88.5312 18.6484C88.3854 18.5703 88.2135 18.5312 88.0156 18.5312C87.7656 18.5312 87.513 18.6224 87.2578 18.8047C87.0026 18.987 86.737 19.2526 86.4609 19.6016V24.2344C86.4609 24.2865 86.4453 24.3333 86.4141 24.375C86.3828 24.4115 86.3281 24.4427 86.25 24.4688C86.1771 24.4948 86.0781 24.513 85.9531 24.5234C85.8281 24.5391 85.6693 24.5469 85.4766 24.5469C85.2839 24.5469 85.125 24.5391 85 24.5234C84.875 24.513 84.7734 24.4948 84.6953 24.4688C84.6224 24.4427 84.5703 24.4115 84.5391 24.375C84.5078 24.3333 84.4922 24.2865 84.4922 24.2344V17.2656C84.4922 17.2135 84.5052 17.1693 84.5312 17.1328C84.5573 17.0911 84.6042 17.0573 84.6719 17.0312C84.7396 17.0052 84.8255 16.987 84.9297 16.9766C85.0391 16.9609 85.1745 16.9531 85.3359 16.9531C85.5026 16.9531 85.6406 16.9609 85.75 16.9766C85.8594 16.987 85.9427 17.0052 86 17.0312C86.0625 17.0573 86.1068 17.0911 86.1328 17.1328C86.1589 17.1693 86.1719 17.2135 86.1719 17.2656V18.0703C86.5573 17.6536 86.9479 17.3411 87.3438 17.1328C87.7448 16.9245 88.1615 16.8203 88.5938 16.8203C89.0677 16.8203 89.4661 16.8984 89.7891 17.0547C90.1172 17.2109 90.3802 17.4245 90.5781 17.6953C90.7812 17.9609 90.9271 18.2734 91.0156 18.6328C91.1042 18.9922 91.1484 19.4245 91.1484 19.9297V24.2344ZM98.8906 24.2188C98.8906 24.2708 98.8724 24.3177 98.8359 24.3594C98.8047 24.401 98.75 24.4349 98.6719 24.4609C98.5938 24.487 98.4896 24.5078 98.3594 24.5234C98.2292 24.5391 98.0625 24.5469 97.8594 24.5469C97.6615 24.5469 97.4948 24.5391 97.3594 24.5234C97.2292 24.5078 97.125 24.487 97.0469 24.4609C96.9688 24.4349 96.9115 24.401 96.875 24.3594C96.8438 24.3177 96.8281 24.2708 96.8281 24.2188V14.6719C96.8281 14.6198 96.8438 14.5729 96.875 14.5312C96.9115 14.4896 96.9688 14.4557 97.0469 14.4297C97.1302 14.4036 97.237 14.3828 97.3672 14.3672C97.4974 14.3516 97.6615 14.3438 97.8594 14.3438C98.0625 14.3438 98.2292 14.3516 98.3594 14.3672C98.4896 14.3828 98.5938 14.4036 98.6719 14.4297C98.75 14.4557 98.8047 14.4896 98.8359 14.5312C98.8724 14.5729 98.8906 14.6198 98.8906 14.6719V24.2188ZM107.633 24.2344C107.633 24.2865 107.617 24.3333 107.586 24.375C107.555 24.4115 107.503 24.4427 107.43 24.4688C107.357 24.4948 107.255 24.513 107.125 24.5234C107 24.5391 106.844 24.5469 106.656 24.5469C106.464 24.5469 106.302 24.5391 106.172 24.5234C106.047 24.513 105.948 24.4948 105.875 24.4688C105.802 24.4427 105.75 24.4115 105.719 24.375C105.688 24.3333 105.672 24.2865 105.672 24.2344V20.2578C105.672 19.9193 105.646 19.6536 105.594 19.4609C105.547 19.2682 105.477 19.1042 105.383 18.9688C105.289 18.8281 105.167 18.7214 105.016 18.6484C104.87 18.5703 104.698 18.5312 104.5 18.5312C104.25 18.5312 103.997 18.6224 103.742 18.8047C103.487 18.987 103.221 19.2526 102.945 19.6016V24.2344C102.945 24.2865 102.93 24.3333 102.898 24.375C102.867 24.4115 102.812 24.4427 102.734 24.4688C102.661 24.4948 102.562 24.513 102.438 24.5234C102.312 24.5391 102.154 24.5469 101.961 24.5469C101.768 24.5469 101.609 24.5391 101.484 24.5234C101.359 24.513 101.258 24.4948 101.18 24.4688C101.107 24.4427 101.055 24.4115 101.023 24.375C100.992 24.3333 100.977 24.2865 100.977 24.2344V17.2656C100.977 17.2135 100.99 17.1693 101.016 17.1328C101.042 17.0911 101.089 17.0573 101.156 17.0312C101.224 17.0052 101.31 16.987 101.414 16.9766C101.523 16.9609 101.659 16.9531 101.82 16.9531C101.987 16.9531 102.125 16.9609 102.234 16.9766C102.344 16.987 102.427 17.0052 102.484 17.0312C102.547 17.0573 102.591 17.0911 102.617 17.1328C102.643 17.1693 102.656 17.2135 102.656 17.2656V18.0703C103.042 17.6536 103.432 17.3411 103.828 17.1328C104.229 16.9245 104.646 16.8203 105.078 16.8203C105.552 16.8203 105.951 16.8984 106.273 17.0547C106.602 17.2109 106.865 17.4245 107.062 17.6953C107.266 17.9609 107.411 18.2734 107.5 18.6328C107.589 18.9922 107.633 19.4245 107.633 19.9297V24.2344Z" fill="#004C45"/>
<rect x="149" y="0.5" width="112" height="39" rx="8" fill="#10B565"/>
<path d="M177.328 22.9688C177.328 23.099 177.323 23.2109 177.312 23.3047C177.307 23.3932 177.297 23.4714 177.281 23.5391C177.266 23.6016 177.245 23.6562 177.219 23.7031C177.193 23.75 177.151 23.8047 177.094 23.8672C177.036 23.9245 176.924 24 176.758 24.0938C176.596 24.1875 176.396 24.2786 176.156 24.3672C175.922 24.4505 175.651 24.5208 175.344 24.5781C175.042 24.6354 174.714 24.6641 174.359 24.6641C173.667 24.6641 173.042 24.5573 172.484 24.3438C171.927 24.1302 171.453 23.8125 171.062 23.3906C170.672 22.9635 170.372 22.4323 170.164 21.7969C169.956 21.1615 169.852 20.4219 169.852 19.5781C169.852 18.7188 169.966 17.9557 170.195 17.2891C170.424 16.6224 170.745 16.0625 171.156 15.6094C171.568 15.1562 172.06 14.8125 172.633 14.5781C173.211 14.3438 173.846 14.2266 174.539 14.2266C174.82 14.2266 175.091 14.25 175.352 14.2969C175.612 14.3438 175.852 14.4062 176.07 14.4844C176.294 14.5573 176.495 14.6432 176.672 14.7422C176.849 14.8411 176.971 14.9271 177.039 15C177.112 15.0677 177.161 15.125 177.188 15.1719C177.214 15.2188 177.234 15.2786 177.25 15.3516C177.266 15.4245 177.276 15.5104 177.281 15.6094C177.292 15.7083 177.297 15.8307 177.297 15.9766C177.297 16.1328 177.292 16.2656 177.281 16.375C177.271 16.4844 177.253 16.5729 177.227 16.6406C177.201 16.7083 177.169 16.7578 177.133 16.7891C177.096 16.8203 177.055 16.8359 177.008 16.8359C176.93 16.8359 176.831 16.7917 176.711 16.7031C176.591 16.6094 176.435 16.5078 176.242 16.3984C176.055 16.2839 175.828 16.1823 175.562 16.0938C175.302 16 174.99 15.9531 174.625 15.9531C174.224 15.9531 173.865 16.0365 173.547 16.2031C173.234 16.3646 172.966 16.599 172.742 16.9062C172.523 17.2083 172.357 17.5755 172.242 18.0078C172.128 18.4401 172.07 18.9271 172.07 19.4688C172.07 20.0625 172.13 20.5781 172.25 21.0156C172.375 21.4479 172.549 21.8047 172.773 22.0859C173.003 22.3672 173.276 22.5781 173.594 22.7188C173.917 22.8542 174.279 22.9219 174.68 22.9219C175.044 22.9219 175.359 22.8802 175.625 22.7969C175.891 22.7083 176.117 22.612 176.305 22.5078C176.497 22.4036 176.654 22.3099 176.773 22.2266C176.898 22.1432 176.995 22.1016 177.062 22.1016C177.115 22.1016 177.156 22.112 177.188 22.1328C177.219 22.1536 177.245 22.1953 177.266 22.2578C177.286 22.3203 177.302 22.4089 177.312 22.5234C177.323 22.6328 177.328 22.7812 177.328 22.9688ZM185.734 20.6797C185.734 21.2734 185.656 21.8151 185.5 22.3047C185.344 22.7943 185.107 23.2161 184.789 23.5703C184.471 23.9245 184.073 24.1979 183.594 24.3906C183.115 24.5833 182.555 24.6797 181.914 24.6797C181.294 24.6797 180.755 24.5938 180.297 24.4219C179.839 24.25 179.458 24 179.156 23.6719C178.854 23.3438 178.63 22.9401 178.484 22.4609C178.339 21.9818 178.266 21.4349 178.266 20.8203C178.266 20.2266 178.344 19.6849 178.5 19.1953C178.661 18.7005 178.901 18.2786 179.219 17.9297C179.536 17.5755 179.932 17.3021 180.406 17.1094C180.885 16.9167 181.445 16.8203 182.086 16.8203C182.711 16.8203 183.253 16.9062 183.711 17.0781C184.169 17.2448 184.547 17.4922 184.844 17.8203C185.146 18.1484 185.37 18.5521 185.516 19.0312C185.661 19.5104 185.734 20.0599 185.734 20.6797ZM183.711 20.7578C183.711 20.4141 183.682 20.099 183.625 19.8125C183.573 19.5208 183.482 19.2682 183.352 19.0547C183.221 18.8411 183.047 18.6745 182.828 18.5547C182.615 18.4349 182.344 18.375 182.016 18.375C181.724 18.375 181.469 18.4297 181.25 18.5391C181.031 18.6432 180.852 18.7995 180.711 19.0078C180.57 19.2109 180.464 19.4583 180.391 19.75C180.323 20.0365 180.289 20.3646 180.289 20.7344C180.289 21.0781 180.318 21.3958 180.375 21.6875C180.432 21.974 180.523 22.224 180.648 22.4375C180.779 22.651 180.953 22.8177 181.172 22.9375C181.391 23.0521 181.661 23.1094 181.984 23.1094C182.281 23.1094 182.539 23.0573 182.758 22.9531C182.977 22.8438 183.156 22.6875 183.297 22.4844C183.438 22.2812 183.542 22.0365 183.609 21.75C183.677 21.4583 183.711 21.1276 183.711 20.7578ZM193.953 24.2344C193.953 24.2865 193.938 24.3333 193.906 24.375C193.875 24.4115 193.823 24.4427 193.75 24.4688C193.677 24.4948 193.576 24.513 193.445 24.5234C193.32 24.5391 193.164 24.5469 192.977 24.5469C192.784 24.5469 192.622 24.5391 192.492 24.5234C192.367 24.513 192.268 24.4948 192.195 24.4688C192.122 24.4427 192.07 24.4115 192.039 24.375C192.008 24.3333 191.992 24.2865 191.992 24.2344V20.2578C191.992 19.9193 191.966 19.6536 191.914 19.4609C191.867 19.2682 191.797 19.1042 191.703 18.9688C191.609 18.8281 191.487 18.7214 191.336 18.6484C191.19 18.5703 191.018 18.5312 190.82 18.5312C190.57 18.5312 190.318 18.6224 190.062 18.8047C189.807 18.987 189.542 19.2526 189.266 19.6016V24.2344C189.266 24.2865 189.25 24.3333 189.219 24.375C189.188 24.4115 189.133 24.4427 189.055 24.4688C188.982 24.4948 188.883 24.513 188.758 24.5234C188.633 24.5391 188.474 24.5469 188.281 24.5469C188.089 24.5469 187.93 24.5391 187.805 24.5234C187.68 24.513 187.578 24.4948 187.5 24.4688C187.427 24.4427 187.375 24.4115 187.344 24.375C187.312 24.3333 187.297 24.2865 187.297 24.2344V17.2656C187.297 17.2135 187.31 17.1693 187.336 17.1328C187.362 17.0911 187.409 17.0573 187.477 17.0312C187.544 17.0052 187.63 16.987 187.734 16.9766C187.844 16.9609 187.979 16.9531 188.141 16.9531C188.307 16.9531 188.445 16.9609 188.555 16.9766C188.664 16.987 188.747 17.0052 188.805 17.0312C188.867 17.0573 188.911 17.0911 188.938 17.1328C188.964 17.1693 188.977 17.2135 188.977 17.2656V18.0703C189.362 17.6536 189.753 17.3411 190.148 17.1328C190.549 16.9245 190.966 16.8203 191.398 16.8203C191.872 16.8203 192.271 16.8984 192.594 17.0547C192.922 17.2109 193.185 17.4245 193.383 17.6953C193.586 17.9609 193.732 18.2734 193.82 18.6328C193.909 18.9922 193.953 19.4245 193.953 19.9297V24.2344ZM199.859 23.5469C199.859 23.776 199.844 23.9531 199.812 24.0781C199.786 24.1979 199.75 24.2839 199.703 24.3359C199.656 24.3828 199.586 24.4271 199.492 24.4688C199.404 24.5052 199.297 24.5365 199.172 24.5625C199.052 24.5938 198.919 24.6172 198.773 24.6328C198.633 24.6484 198.49 24.6562 198.344 24.6562C197.953 24.6562 197.615 24.6068 197.328 24.5078C197.042 24.4089 196.805 24.2578 196.617 24.0547C196.43 23.8464 196.292 23.5859 196.203 23.2734C196.115 22.9609 196.07 22.5911 196.07 22.1641V18.5938H195.234C195.135 18.5938 195.06 18.5339 195.008 18.4141C194.956 18.2891 194.93 18.0833 194.93 17.7969C194.93 17.6458 194.935 17.5182 194.945 17.4141C194.961 17.3099 194.982 17.2292 195.008 17.1719C195.034 17.1094 195.065 17.0651 195.102 17.0391C195.143 17.013 195.19 17 195.242 17H196.07V15.4453C196.07 15.3932 196.083 15.3464 196.109 15.3047C196.141 15.263 196.193 15.2292 196.266 15.2031C196.344 15.1719 196.445 15.151 196.57 15.1406C196.701 15.125 196.859 15.1172 197.047 15.1172C197.24 15.1172 197.398 15.125 197.523 15.1406C197.654 15.151 197.755 15.1719 197.828 15.2031C197.901 15.2292 197.953 15.263 197.984 15.3047C198.016 15.3464 198.031 15.3932 198.031 15.4453V17H199.547C199.599 17 199.643 17.013 199.68 17.0391C199.721 17.0651 199.755 17.1094 199.781 17.1719C199.807 17.2292 199.826 17.3099 199.836 17.4141C199.852 17.5182 199.859 17.6458 199.859 17.7969C199.859 18.0833 199.833 18.2891 199.781 18.4141C199.729 18.5339 199.654 18.5938 199.555 18.5938H198.031V21.8672C198.031 22.2474 198.091 22.5339 198.211 22.7266C198.331 22.9141 198.544 23.0078 198.852 23.0078C198.956 23.0078 199.049 23 199.133 22.9844C199.216 22.9635 199.289 22.9427 199.352 22.9219C199.419 22.8958 199.474 22.875 199.516 22.8594C199.562 22.8385 199.604 22.8281 199.641 22.8281C199.672 22.8281 199.701 22.8385 199.727 22.8594C199.758 22.875 199.781 22.9115 199.797 22.9688C199.812 23.0208 199.826 23.0938 199.836 23.1875C199.852 23.2812 199.859 23.401 199.859 23.5469ZM207.062 24.2578C207.062 24.3307 207.036 24.388 206.984 24.4297C206.932 24.4714 206.849 24.5 206.734 24.5156C206.625 24.5365 206.461 24.5469 206.242 24.5469C206.008 24.5469 205.836 24.5365 205.727 24.5156C205.622 24.5 205.547 24.4714 205.5 24.4297C205.458 24.388 205.438 24.3307 205.438 24.2578V23.7031C205.151 24.0104 204.823 24.25 204.453 24.4219C204.089 24.5938 203.682 24.6797 203.234 24.6797C202.865 24.6797 202.523 24.6302 202.211 24.5312C201.904 24.4375 201.635 24.2969 201.406 24.1094C201.182 23.9167 201.008 23.6797 200.883 23.3984C200.758 23.1172 200.695 22.7891 200.695 22.4141C200.695 22.0078 200.773 21.6562 200.93 21.3594C201.091 21.0573 201.328 20.8099 201.641 20.6172C201.958 20.4193 202.352 20.2734 202.82 20.1797C203.289 20.0859 203.833 20.0391 204.453 20.0391H205.133V19.6172C205.133 19.3984 205.109 19.2083 205.062 19.0469C205.021 18.8802 204.948 18.7422 204.844 18.6328C204.745 18.5234 204.609 18.4427 204.438 18.3906C204.271 18.3385 204.062 18.3125 203.812 18.3125C203.484 18.3125 203.19 18.349 202.93 18.4219C202.674 18.4948 202.448 18.5755 202.25 18.6641C202.052 18.7526 201.885 18.8333 201.75 18.9062C201.62 18.9792 201.513 19.0156 201.43 19.0156C201.372 19.0156 201.32 18.9974 201.273 18.9609C201.232 18.9245 201.195 18.8724 201.164 18.8047C201.138 18.737 201.117 18.6536 201.102 18.5547C201.086 18.4557 201.078 18.3464 201.078 18.2266C201.078 18.0651 201.091 17.9375 201.117 17.8438C201.143 17.75 201.193 17.6667 201.266 17.5938C201.339 17.5156 201.466 17.4323 201.648 17.3438C201.831 17.25 202.044 17.1641 202.289 17.0859C202.534 17.0078 202.799 16.9453 203.086 16.8984C203.378 16.8464 203.677 16.8203 203.984 16.8203C204.531 16.8203 204.997 16.875 205.383 16.9844C205.773 17.0885 206.094 17.2526 206.344 17.4766C206.594 17.6953 206.776 17.9792 206.891 18.3281C207.005 18.6771 207.062 19.0911 207.062 19.5703V24.2578ZM205.133 21.2734H204.383C204.065 21.2734 203.794 21.2969 203.57 21.3438C203.346 21.3906 203.164 21.4609 203.023 21.5547C202.883 21.6484 202.779 21.763 202.711 21.8984C202.648 22.0286 202.617 22.1797 202.617 22.3516C202.617 22.6432 202.708 22.8724 202.891 23.0391C203.078 23.2057 203.336 23.2891 203.664 23.2891C203.94 23.2891 204.193 23.2188 204.422 23.0781C204.656 22.9375 204.893 22.7318 205.133 22.4609V21.2734ZM214.305 23.125C214.305 23.2604 214.299 23.375 214.289 23.4688C214.284 23.5573 214.273 23.6328 214.258 23.6953C214.247 23.7578 214.232 23.8099 214.211 23.8516C214.195 23.888 214.156 23.9375 214.094 24C214.031 24.0573 213.924 24.1302 213.773 24.2188C213.622 24.3021 213.451 24.3776 213.258 24.4453C213.065 24.513 212.854 24.5677 212.625 24.6094C212.401 24.651 212.169 24.6719 211.93 24.6719C211.393 24.6719 210.917 24.5885 210.5 24.4219C210.089 24.2552 209.742 24.0104 209.461 23.6875C209.18 23.3594 208.966 22.9609 208.82 22.4922C208.68 22.0234 208.609 21.487 208.609 20.8828C208.609 20.1849 208.695 19.5833 208.867 19.0781C209.044 18.5677 209.289 18.1458 209.602 17.8125C209.914 17.4792 210.284 17.2318 210.711 17.0703C211.138 16.9089 211.607 16.8281 212.117 16.8281C212.326 16.8281 212.529 16.8464 212.727 16.8828C212.93 16.9193 213.117 16.9688 213.289 17.0312C213.466 17.0938 213.622 17.1641 213.758 17.2422C213.898 17.3203 213.997 17.388 214.055 17.4453C214.112 17.5026 214.151 17.5521 214.172 17.5938C214.198 17.6302 214.216 17.6797 214.227 17.7422C214.242 17.8047 214.253 17.8828 214.258 17.9766C214.268 18.0651 214.273 18.1745 214.273 18.3047C214.273 18.6068 214.247 18.8203 214.195 18.9453C214.143 19.0651 214.076 19.125 213.992 19.125C213.904 19.125 213.81 19.0885 213.711 19.0156C213.612 18.9427 213.495 18.862 213.359 18.7734C213.224 18.6849 213.062 18.6042 212.875 18.5312C212.688 18.4583 212.464 18.4219 212.203 18.4219C211.693 18.4219 211.302 18.6198 211.031 19.0156C210.76 19.4062 210.625 19.9818 210.625 20.7422C210.625 21.1172 210.659 21.4479 210.727 21.7344C210.794 22.0208 210.893 22.2604 211.023 22.4531C211.159 22.6458 211.326 22.7917 211.523 22.8906C211.727 22.9844 211.961 23.0312 212.227 23.0312C212.497 23.0312 212.729 22.9922 212.922 22.9141C213.12 22.8307 213.292 22.7396 213.438 22.6406C213.583 22.5417 213.706 22.4531 213.805 22.375C213.904 22.2917 213.987 22.25 214.055 22.25C214.102 22.25 214.141 22.263 214.172 22.2891C214.203 22.3151 214.227 22.3646 214.242 22.4375C214.263 22.5052 214.279 22.5938 214.289 22.7031C214.299 22.8125 214.305 22.9531 214.305 23.125ZM219.859 23.5469C219.859 23.776 219.844 23.9531 219.812 24.0781C219.786 24.1979 219.75 24.2839 219.703 24.3359C219.656 24.3828 219.586 24.4271 219.492 24.4688C219.404 24.5052 219.297 24.5365 219.172 24.5625C219.052 24.5938 218.919 24.6172 218.773 24.6328C218.633 24.6484 218.49 24.6562 218.344 24.6562C217.953 24.6562 217.615 24.6068 217.328 24.5078C217.042 24.4089 216.805 24.2578 216.617 24.0547C216.43 23.8464 216.292 23.5859 216.203 23.2734C216.115 22.9609 216.07 22.5911 216.07 22.1641V18.5938H215.234C215.135 18.5938 215.06 18.5339 215.008 18.4141C214.956 18.2891 214.93 18.0833 214.93 17.7969C214.93 17.6458 214.935 17.5182 214.945 17.4141C214.961 17.3099 214.982 17.2292 215.008 17.1719C215.034 17.1094 215.065 17.0651 215.102 17.0391C215.143 17.013 215.19 17 215.242 17H216.07V15.4453C216.07 15.3932 216.083 15.3464 216.109 15.3047C216.141 15.263 216.193 15.2292 216.266 15.2031C216.344 15.1719 216.445 15.151 216.57 15.1406C216.701 15.125 216.859 15.1172 217.047 15.1172C217.24 15.1172 217.398 15.125 217.523 15.1406C217.654 15.151 217.755 15.1719 217.828 15.2031C217.901 15.2292 217.953 15.263 217.984 15.3047C218.016 15.3464 218.031 15.3932 218.031 15.4453V17H219.547C219.599 17 219.643 17.013 219.68 17.0391C219.721 17.0651 219.755 17.1094 219.781 17.1719C219.807 17.2292 219.826 17.3099 219.836 17.4141C219.852 17.5182 219.859 17.6458 219.859 17.7969C219.859 18.0833 219.833 18.2891 219.781 18.4141C219.729 18.5339 219.654 18.5938 219.555 18.5938H218.031V21.8672C218.031 22.2474 218.091 22.5339 218.211 22.7266C218.331 22.9141 218.544 23.0078 218.852 23.0078C218.956 23.0078 219.049 23 219.133 22.9844C219.216 22.9635 219.289 22.9427 219.352 22.9219C219.419 22.8958 219.474 22.875 219.516 22.8594C219.562 22.8385 219.604 22.8281 219.641 22.8281C219.672 22.8281 219.701 22.8385 219.727 22.8594C219.758 22.875 219.781 22.9115 219.797 22.9688C219.812 23.0208 219.826 23.0938 219.836 23.1875C219.852 23.2812 219.859 23.401 219.859 23.5469ZM233.273 20.7344C233.273 21.3542 233.182 21.9089 233 22.3984C232.818 22.888 232.549 23.3021 232.195 23.6406C231.841 23.9792 231.404 24.237 230.883 24.4141C230.362 24.5911 229.763 24.6797 229.086 24.6797C228.451 24.6797 227.88 24.6016 227.375 24.4453C226.87 24.2839 226.443 24.0417 226.094 23.7188C225.745 23.3958 225.477 22.9948 225.289 22.5156C225.107 22.0312 225.016 21.4661 225.016 20.8203V14.6719C225.016 14.6198 225.031 14.5729 225.062 14.5312C225.094 14.4896 225.148 14.4557 225.227 14.4297C225.31 14.4036 225.417 14.3828 225.547 14.3672C225.677 14.3516 225.844 14.3438 226.047 14.3438C226.245 14.3438 226.409 14.3516 226.539 14.3672C226.669 14.3828 226.773 14.4036 226.852 14.4297C226.93 14.4557 226.984 14.4896 227.016 14.5312C227.052 14.5729 227.07 14.6198 227.07 14.6719V20.6406C227.07 21.0417 227.12 21.3906 227.219 21.6875C227.318 21.9792 227.458 22.2214 227.641 22.4141C227.828 22.6068 228.049 22.7526 228.305 22.8516C228.565 22.9453 228.854 22.9922 229.172 22.9922C229.495 22.9922 229.784 22.9427 230.039 22.8438C230.294 22.7448 230.51 22.6016 230.688 22.4141C230.865 22.2214 231 21.987 231.094 21.7109C231.193 21.4297 231.242 21.112 231.242 20.7578V14.6719C231.242 14.6198 231.258 14.5729 231.289 14.5312C231.32 14.4896 231.375 14.4557 231.453 14.4297C231.531 14.4036 231.635 14.3828 231.766 14.3672C231.901 14.3516 232.068 14.3438 232.266 14.3438C232.464 14.3438 232.625 14.3516 232.75 14.3672C232.88 14.3828 232.984 14.4036 233.062 14.4297C233.141 14.4557 233.195 14.4896 233.227 14.5312C233.258 14.5729 233.273 14.6198 233.273 14.6719V20.7344ZM240.266 22.2656C240.266 22.6615 240.19 23.0104 240.039 23.3125C239.893 23.6146 239.685 23.8672 239.414 24.0703C239.143 24.2734 238.823 24.4245 238.453 24.5234C238.083 24.6276 237.682 24.6797 237.25 24.6797C236.99 24.6797 236.74 24.6589 236.5 24.6172C236.266 24.5807 236.055 24.5339 235.867 24.4766C235.68 24.4141 235.523 24.3516 235.398 24.2891C235.273 24.2266 235.182 24.1693 235.125 24.1172C235.068 24.0599 235.023 23.974 234.992 23.8594C234.961 23.7396 234.945 23.5651 234.945 23.3359C234.945 23.1849 234.951 23.0651 234.961 22.9766C234.971 22.8828 234.987 22.8099 235.008 22.7578C235.029 22.7005 235.055 22.6641 235.086 22.6484C235.117 22.6276 235.156 22.6172 235.203 22.6172C235.26 22.6172 235.344 22.651 235.453 22.7188C235.568 22.7812 235.708 22.8516 235.875 22.9297C236.042 23.0078 236.234 23.0807 236.453 23.1484C236.677 23.2161 236.93 23.25 237.211 23.25C237.388 23.25 237.544 23.2318 237.68 23.1953C237.82 23.1589 237.94 23.1068 238.039 23.0391C238.143 22.9714 238.221 22.8854 238.273 22.7812C238.326 22.6771 238.352 22.5573 238.352 22.4219C238.352 22.2656 238.302 22.1328 238.203 22.0234C238.109 21.9089 237.982 21.8099 237.82 21.7266C237.664 21.6432 237.484 21.5651 237.281 21.4922C237.083 21.4193 236.878 21.3385 236.664 21.25C236.456 21.1615 236.25 21.0599 236.047 20.9453C235.849 20.8307 235.669 20.6901 235.508 20.5234C235.352 20.3568 235.224 20.1562 235.125 19.9219C235.031 19.6875 234.984 19.4062 234.984 19.0781C234.984 18.7448 235.049 18.4401 235.18 18.1641C235.31 17.8828 235.497 17.6432 235.742 17.4453C235.987 17.2474 236.284 17.0938 236.633 16.9844C236.987 16.875 237.383 16.8203 237.82 16.8203C238.039 16.8203 238.25 16.8359 238.453 16.8672C238.661 16.8984 238.849 16.9375 239.016 16.9844C239.182 17.0312 239.323 17.0833 239.438 17.1406C239.552 17.1927 239.633 17.2396 239.68 17.2812C239.732 17.3177 239.768 17.3568 239.789 17.3984C239.81 17.4349 239.826 17.4818 239.836 17.5391C239.846 17.5911 239.854 17.6589 239.859 17.7422C239.87 17.8203 239.875 17.9193 239.875 18.0391C239.875 18.1797 239.87 18.2943 239.859 18.3828C239.854 18.4714 239.841 18.5417 239.82 18.5938C239.805 18.6458 239.781 18.6823 239.75 18.7031C239.719 18.7188 239.682 18.7266 239.641 18.7266C239.594 18.7266 239.521 18.7005 239.422 18.6484C239.323 18.5911 239.198 18.5312 239.047 18.4688C238.901 18.4062 238.729 18.349 238.531 18.2969C238.339 18.2396 238.117 18.2109 237.867 18.2109C237.69 18.2109 237.536 18.2292 237.406 18.2656C237.276 18.3021 237.169 18.3542 237.086 18.4219C237.003 18.4896 236.94 18.5703 236.898 18.6641C236.857 18.7526 236.836 18.849 236.836 18.9531C236.836 19.1146 236.885 19.25 236.984 19.3594C237.083 19.4688 237.214 19.5651 237.375 19.6484C237.536 19.7318 237.719 19.8099 237.922 19.8828C238.13 19.9557 238.339 20.0365 238.547 20.125C238.76 20.2083 238.969 20.3073 239.172 20.4219C239.38 20.5365 239.565 20.6771 239.727 20.8438C239.888 21.0104 240.018 21.2109 240.117 21.4453C240.216 21.6745 240.266 21.9479 240.266 22.2656Z" fill="white"/>
<defs>
<clipPath id="clip0_457_7408">
<rect width="24" height="24" fill="white" transform="translate(0 8)"/>
</clipPath>
</defs>
</svg>
