<svg version="1.1" id="Layer_1" xmlns="http://www.w3.org/2000/svg" xmlns:xlink="http://www.w3.org/1999/xlink" x="0px" y="0px"
	 viewBox="0 0 16 16" style="enable-background:new 0 0 16 16;" xml:space="preserve">
<style type="text/css">
	.st0{fill:none;}
	.st1{fill:#004C45;}
</style>
<rect class="st0" width="16" height="16"/>
<link  href="../../style.css" rel="stylesheet" xmlns="http://www.w3.org/1999/xhtml"></link>
<path class="icon-search st1" d="M11.4,10.1h-0.7l-0.3-0.2c0.9-1,1.4-2.4,1.4-3.9c0.1-3.3-2.6-6-5.9-6C2.7,0,0,2.7,0,5.9c0,3.3,2.7,5.9,5.9,5.9
	c1.5,0,2.8-0.5,3.9-1.4l0.2,0.3v0.7l4.6,4.6l1.4-1.4L11.4,10.1z M5.9,10.1c-2.3,0-4.1-1.8-4.1-4.1s1.8-4.1,4.1-4.1S10,3.7,10,6
	C10.1,8.2,8.2,10.1,5.9,10.1z"/>
</svg>
