<?xml version="1.0" encoding="utf-8"?>
<!-- Generator: Adobe Illustrator 23.0.3, SVG Export Plug-In . SVG Version: 6.00 Build 0)  -->
<svg version="1.1" id="Layer_1" xmlns="http://www.w3.org/2000/svg" xmlns:xlink="http://www.w3.org/1999/xlink" x="0px" y="0px"
	 viewBox="0 0 16 16" style="enable-background:new 0 0 16 16;" xml:space="preserve">
<style type="text/css">
	.st0{fill:#77DD77;}
</style>
<path class="st0" d="M14.2,0H1.8C0.8,0,0,0.8,0,1.8v12.4c0,1,0.8,1.8,1.8,1.8h6.8V9.8H6.5V7.4h2.1V5.6c0-2.1,1.3-3.2,3.1-3.2
	c0.6,0,1.2,0,1.9,0.1v2.2h-1.3c-1,0-1.2,0.5-1.2,1.2v1.5h2.4l-0.3,2.4H11V16h3.2c1,0,1.8-0.8,1.8-1.8V1.8C16,0.8,15.2,0,14.2,0z"/>
</svg>
