<svg width="16" height="17" viewBox="0 0 16 17" fill="none" xmlns="http://www.w3.org/2000/svg">
<path d="M8 0.5C3.584 0.5 0 4.084 0 8.5C0 12.916 3.584 16.5 8 16.5H12V14.9H8C4.528 14.9 1.6 11.972 1.6 8.5C1.6 5.028 4.528 2.1 8 2.1C11.472 2.1 14.4 5.028 14.4 8.5V9.644C14.4 10.276 13.832 10.9 13.2 10.9C12.568 10.9 12 10.276 12 9.644V8.5C12 6.292 10.208 4.5 8 4.5C5.792 4.5 4 6.292 4 8.5C4 10.708 5.792 12.5 8 12.5C9.104 12.5 10.112 12.052 10.832 11.324C11.352 12.036 12.248 12.5 13.2 12.5C14.776 12.5 16 11.22 16 9.644V8.5C16 4.084 12.416 0.5 8 0.5ZM8 10.9C6.672 10.9 5.6 9.828 5.6 8.5C5.6 7.172 6.672 6.1 8 6.1C9.328 6.1 10.4 7.172 10.4 8.5C10.4 9.828 9.328 10.9 8 10.9Z" fill="#004C45"/>
</svg>
