<?xml version="1.0" encoding="utf-8"?>
<!-- Generator: Adobe Illustrator 23.0.3, SVG Export Plug-In . SVG Version: 6.00 Build 0)  -->
<svg version="1.1" id="Layer_1" xmlns="http://www.w3.org/2000/svg" xmlns:xlink="http://www.w3.org/1999/xlink" x="0px" y="0px"
	 viewBox="0 0 16.7 13.3" style="enable-background:new 0 0 16.7 13.3;" xml:space="preserve">
<style type="text/css">
	.st0{fill:#77DD77;}
</style>
<path class="st0" d="M1.2,13.3c-0.3,0-0.6-0.1-0.9-0.4C0.1,12.7,0,12.4,0,12.1V1.3C0,1,0.1,0.7,0.4,0.4C0.6,0.1,0.9,0,1.2,0h14.2
	c0.3,0,0.6,0.1,0.9,0.4s0.4,0.5,0.4,0.9v10.8c0,0.3-0.1,0.6-0.4,0.9s-0.5,0.4-0.9,0.4L1.2,13.3L1.2,13.3z M8.3,7L1.2,2.4v9.7h14.2
	V2.4L8.3,7z M8.3,5.8l7-4.5h-14L8.3,5.8z M1.2,2.4V1.3v10.8V2.4z"/>
</svg>
