<svg width="16" height="17" viewBox="0 0 16 17" fill="none" xmlns="http://www.w3.org/2000/svg">
<path d="M14.2222 0.5H1.77778C0.795556 0.5 0 1.29556 0 2.27778V14.7222C0 15.7044 0.795556 16.5 1.77778 16.5H14.2222C15.2044 16.5 16 15.7044 16 14.7222V2.27778C16 1.29556 15.2044 0.5 14.2222 0.5ZM5.33333 12.9444H3.09067V6.72222H5.33333V12.9444ZM4.17244 5.58178C3.48711 5.58178 3.02933 5.12489 3.02933 4.51511C3.02933 3.90533 3.48622 3.44844 4.248 3.44844C4.93333 3.44844 5.39111 3.90533 5.39111 4.51511C5.39111 5.12489 4.93422 5.58178 4.17244 5.58178ZM13.3333 12.9444H11.1627V9.54356C11.1627 8.60311 10.584 8.38622 10.3671 8.38622C10.1502 8.38622 9.42667 8.53111 9.42667 9.54356C9.42667 9.68844 9.42667 12.9444 9.42667 12.9444H7.184V6.72222H9.42667V7.59067C9.71556 7.084 10.2942 6.72222 11.3796 6.72222C12.4649 6.72222 13.3333 7.59067 13.3333 9.54356V12.9444Z" fill="#004C45"/>
</svg>
