<?xml version="1.0" encoding="utf-8"?>
<!-- Generator: Adobe Illustrator 23.0.3, SVG Export Plug-In . SVG Version: 6.00 Build 0)  -->
<svg version="1.1" id="Layer_1" xmlns="http://www.w3.org/2000/svg" xmlns:xlink="http://www.w3.org/1999/xlink" x="0px" y="0px"
	 viewBox="0 0 120.3 125.4" style="enable-background:new 0 0 120.3 125.4;" xml:space="preserve">
<style type="text/css">
	.st0{fill:none;stroke:#66948F;}
</style>
<g>
	<path class="st0" d="M40.3,0.5l-39.8,0V42h39.8V0.5z M4.7,21.2c0-9.1,7-16.4,15.7-16.4s15.7,7.3,15.7,16.4c0,9.1-7,16.4-15.7,16.4
		S4.7,30.3,4.7,21.2L4.7,21.2z"/>
	<path class="st0" d="M36.1,21.2c0-9.1-7-16.4-15.7-16.4c-8.7,0-15.7,7.3-15.7,16.4c0,9.1,7,16.4,15.7,16.4
		C29.1,37.6,36.1,30.3,36.1,21.2z"/>
	<path class="st0" d="M8.5,21.2c0-6.8,5.3-12.4,11.9-12.4c6.6,0,11.9,5.5,11.9,12.4c0,6.8-5.3,12.4-11.9,12.4
		C13.8,33.6,8.5,28.1,8.5,21.2z"/>
	<path class="st0" d="M32.3,21.2c0-6.8-5.3-12.4-11.9-12.4c-6.6,0-11.9,5.5-11.9,12.4c0,6.8,5.3,12.4,11.9,12.4
		C26.9,33.6,32.2,28.1,32.3,21.2L32.3,21.2z"/>
	<path class="st0" d="M80.1,42H40.3v41.5h39.8V42z M44.4,62.7c0-9.1,7-16.4,15.7-16.4c8.7,0,15.7,7.3,15.7,16.4
		c0,9.1-7,16.4-15.7,16.4C51.5,79.1,44.4,71.8,44.4,62.7L44.4,62.7z"/>
	<path class="st0" d="M75.9,62.7c0-9.1-7-16.4-15.7-16.4c-8.7,0-15.7,7.3-15.7,16.4c0,9.1,7,16.4,15.7,16.4
		C68.8,79.1,75.9,71.8,75.9,62.7z"/>
	<path class="st0" d="M48.3,62.7c0-6.8,5.3-12.4,11.9-12.4c6.6,0,11.9,5.5,11.9,12.4c0,6.8-5.3,12.4-11.9,12.4
		C53.6,75.1,48.3,69.6,48.3,62.7z"/>
	<path class="st0" d="M72,62.7c0-6.8-5.3-12.4-11.9-12.4c-6.6,0-11.9,5.5-11.9,12.4c0,6.8,5.3,12.4,11.9,12.4
		C66.7,75.1,72,69.6,72,62.7L72,62.7z"/>
	<path class="st0" d="M40.3,42H0.5v41.5h39.8V42z M4.7,62.7c0-9.1,7-16.4,15.7-16.4s15.7,7.3,15.7,16.4c0,9.1-7,16.4-15.7,16.4
		S4.7,71.8,4.7,62.7L4.7,62.7z"/>
	<path class="st0" d="M36.1,62.7c0-9.1-7-16.4-15.7-16.4c-8.7,0-15.7,7.3-15.7,16.4c0,9.1,7,16.4,15.7,16.4
		C29.1,79.1,36.1,71.8,36.1,62.7z"/>
	<path class="st0" d="M8.5,62.7c0-6.8,5.3-12.4,11.9-12.4c6.6,0,11.9,5.5,11.9,12.4c0,6.8-5.3,12.4-11.9,12.4
		C13.8,75.1,8.5,69.6,8.5,62.7z"/>
	<path class="st0" d="M32.3,62.7c0-6.8-5.3-12.4-11.9-12.4c-6.6,0-11.9,5.5-11.9,12.4c0,6.8,5.3,12.4,11.9,12.4
		C26.9,75.1,32.2,69.6,32.3,62.7L32.3,62.7z"/>
	<path class="st0" d="M119.8,83.4H80.1v41.5h39.8V83.4z M84.2,104.2c0-9.1,7-16.4,15.7-16.4s15.7,7.3,15.7,16.4
		c0,9.1-7,16.4-15.7,16.4S84.2,113.2,84.2,104.2L84.2,104.2z"/>
	<path class="st0" d="M115.7,104.2c0-9.1-7-16.4-15.7-16.4c-8.7,0-15.7,7.3-15.7,16.4c0,9.1,7,16.4,15.7,16.4
		S115.7,113.2,115.7,104.2z"/>
	<path class="st0" d="M88.1,104.2c0-6.8,5.3-12.4,11.9-12.4c6.6,0,11.9,5.5,11.9,12.4c0,6.8-5.3,12.4-11.9,12.4
		C93.4,116.5,88.1,111,88.1,104.2z"/>
	<path class="st0" d="M111.8,104.2c0-6.8-5.3-12.4-11.9-12.4c-6.6,0-11.9,5.5-11.9,12.4c0,6.8,5.3,12.4,11.9,12.4
		C106.5,116.5,111.8,111,111.8,104.2L111.8,104.2z"/>
	<path class="st0" d="M40.3,83.4H0.5v41.5h39.8V83.4z M4.7,104.2c0-9.1,7-16.4,15.7-16.4s15.7,7.3,15.7,16.4c0,9.1-7,16.4-15.7,16.4
		S4.7,113.2,4.7,104.2L4.7,104.2z"/>
	<path class="st0" d="M36.1,104.2c0-9.1-7-16.4-15.7-16.4c-8.7,0-15.7,7.3-15.7,16.4c0,9.1,7,16.4,15.7,16.4
		C29.1,120.6,36.1,113.2,36.1,104.2z"/>
	<path class="st0" d="M8.5,104.2c0-6.8,5.3-12.4,11.9-12.4c6.6,0,11.9,5.5,11.9,12.4c0,6.8-5.3,12.4-11.9,12.4
		C13.8,116.5,8.5,111,8.5,104.2z"/>
	<path class="st0" d="M32.3,104.2c0-6.8-5.3-12.4-11.9-12.4c-6.6,0-11.9,5.5-11.9,12.4c0,6.8,5.3,12.4,11.9,12.4
		C26.9,116.5,32.2,111,32.3,104.2L32.3,104.2z"/>
	<path class="st0" d="M80.1,83.4H40.3v41.5h39.8V83.4z M44.4,104.2c0-9.1,7-16.4,15.7-16.4c8.7,0,15.7,7.3,15.7,16.4
		c0,9.1-7,16.4-15.7,16.4C51.5,120.6,44.4,113.2,44.4,104.2L44.4,104.2z"/>
	<path class="st0" d="M75.9,104.2c0-9.1-7-16.4-15.7-16.4c-8.7,0-15.7,7.3-15.7,16.4c0,9.1,7,16.4,15.7,16.4
		C68.8,120.6,75.9,113.2,75.9,104.2z"/>
	<path class="st0" d="M48.3,104.2c0-6.8,5.3-12.4,11.9-12.4c6.6,0,11.9,5.5,11.9,12.4c0,6.8-5.3,12.4-11.9,12.4
		C53.6,116.5,48.3,111,48.3,104.2z"/>
	<path class="st0" d="M72,104.2c0-6.8-5.3-12.4-11.9-12.4c-6.6,0-11.9,5.5-11.9,12.4c0,6.8,5.3,12.4,11.9,12.4
		C66.7,116.5,72,111,72,104.2L72,104.2z"/>
</g>
</svg>
