<?xml version="1.0" encoding="utf-8"?>
<!-- Generator: Adobe Illustrator 23.0.3, SVG Export Plug-In . SVG Version: 6.00 Build 0)  -->
<svg version="1.1" id="Layer_1" xmlns="http://www.w3.org/2000/svg" xmlns:xlink="http://www.w3.org/1999/xlink" x="0px" y="0px"
	 viewBox="0 0 152 126" style="enable-background:new 0 0 152 126;" xml:space="preserve">
<style type="text/css">
	.st0{fill:none;stroke:#FFFFFF;}
</style>
<path class="st0" d="M101,42.3h50V0.9l-50,0V42.3z M145.8,21.6c0,9-8.9,16.4-19.8,16.4s-19.8-7.3-19.8-16.4c0-9,8.8-16.3,19.8-16.3
	S145.8,12.6,145.8,21.6L145.8,21.6z"/>
<path class="st0" d="M126,38c10.9,0,19.8-7.3,19.8-16.4c0-9-8.9-16.3-19.8-16.3c-10.9,0-19.8,7.3-19.8,16.3
	C106.2,30.7,115.1,38,126,38z"/>
<path class="st0" d="M126,34c-8.3,0-14.9-5.5-14.9-12.4c0-6.8,6.7-12.3,14.9-12.4c8.2,0,14.9,5.5,14.9,12.4
	C140.9,28.5,134.3,34,126,34z"/>
<path class="st0" d="M111.1,21.6c0,6.8,6.7,12.3,14.9,12.4c8.2,0,14.9-5.5,14.9-12.4c0-6.8-6.7-12.3-14.9-12.4
	C117.8,9.3,111.1,14.8,111.1,21.6L111.1,21.6z"/>
<path class="st0" d="M51,83.7h50V42.3H51V83.7z M95.8,63c0,9-8.9,16.4-19.8,16.4C65.1,79.4,56.2,72,56.2,63c0-9,8.8-16.3,19.8-16.3
	C86.9,46.7,95.8,54,95.8,63L95.8,63z"/>
<path class="st0" d="M76,79.4c10.9,0,19.8-7.3,19.8-16.4c0-9-8.9-16.3-19.8-16.3S56.2,54,56.2,63C56.2,72,65.1,79.4,76,79.4z"/>
<path class="st0" d="M76,75.4c-8.3,0-14.9-5.5-14.9-12.4c0-6.8,6.7-12.3,14.9-12.4c8.2,0,14.9,5.5,14.9,12.4
	C90.9,69.8,84.3,75.4,76,75.4z"/>
<path class="st0" d="M61.1,63c0,6.8,6.7,12.3,14.9,12.4c8.2,0,14.9-5.5,14.9-12.4c0-6.8-6.7-12.3-14.9-12.4
	C67.8,50.7,61.1,56.2,61.1,63L61.1,63z"/>
<path class="st0" d="M101,83.7h50V42.3h-50V83.7z M145.8,63c0,9-8.9,16.4-19.8,16.4S106.2,72,106.2,63c0-9,8.8-16.3,19.8-16.3
	S145.8,54,145.8,63L145.8,63z"/>
<path class="st0" d="M126,79.4c10.9,0,19.8-7.3,19.8-16.4c0-9-8.9-16.3-19.8-16.3c-10.9,0-19.8,7.3-19.8,16.3
	C106.2,72,115.1,79.4,126,79.4z"/>
<path class="st0" d="M126,75.4c-8.3,0-14.9-5.5-14.9-12.4c0-6.8,6.7-12.3,14.9-12.4c8.2,0,14.9,5.5,14.9,12.4
	C140.9,69.8,134.3,75.4,126,75.4z"/>
<path class="st0" d="M111.1,63c0,6.8,6.7,12.3,14.9,12.4c8.2,0,14.9-5.5,14.9-12.4c0-6.8-6.7-12.3-14.9-12.4
	C117.8,50.7,111.1,56.2,111.1,63L111.1,63z"/>
<path class="st0" d="M1,125.1h50V83.7H1V125.1z M45.8,104.4c0,9-8.9,16.4-19.8,16.4s-19.8-7.3-19.8-16.4c0-9,8.8-16.3,19.8-16.3
	S45.8,95.4,45.8,104.4L45.8,104.4z"/>
<path class="st0" d="M26,120.7c10.9,0,19.8-7.3,19.8-16.4c0-9-8.9-16.3-19.8-16.3c-10.9,0-19.8,7.3-19.8,16.3
	C6.2,113.4,15.1,120.7,26,120.7z"/>
<path class="st0" d="M26,116.8c-8.3,0-14.9-5.5-14.9-12.4C11.1,97.6,17.8,92,26,92c8.2,0,14.9,5.5,14.9,12.4
	C40.9,111.2,34.3,116.7,26,116.8z"/>
<path class="st0" d="M11.1,104.4c0,6.8,6.7,12.3,14.9,12.4c8.2,0,14.9-5.5,14.9-12.4C40.9,97.6,34.3,92,26,92
	C17.8,92,11.1,97.6,11.1,104.4L11.1,104.4z"/>
<path class="st0" d="M101,125.1h50V83.7h-50V125.1z M145.8,104.4c0,9-8.9,16.4-19.8,16.4s-19.8-7.3-19.8-16.4
	c0-9,8.8-16.3,19.8-16.3S145.8,95.4,145.8,104.4L145.8,104.4z"/>
<path class="st0" d="M126,120.7c10.9,0,19.8-7.3,19.8-16.4c0-9-8.9-16.3-19.8-16.3c-10.9,0-19.8,7.3-19.8,16.3
	C106.2,113.4,115.1,120.7,126,120.7z"/>
<path class="st0" d="M126,116.8c-8.3,0-14.9-5.5-14.9-12.4c0-6.8,6.7-12.3,14.9-12.4c8.2,0,14.9,5.5,14.9,12.4
	C140.9,111.2,134.3,116.7,126,116.8z"/>
<path class="st0" d="M111.1,104.4c0,6.8,6.7,12.3,14.9,12.4c8.2,0,14.9-5.5,14.9-12.4c0-6.8-6.7-12.3-14.9-12.4
	C117.8,92,111.1,97.6,111.1,104.4L111.1,104.4z"/>
<path class="st0" d="M51,125.1h50V83.7H51V125.1z M95.8,104.4c0,9-8.9,16.4-19.8,16.4c-10.9,0-19.8-7.3-19.8-16.4
	c0-9,8.8-16.3,19.8-16.3C86.9,88,95.8,95.4,95.8,104.4L95.8,104.4z"/>
<path class="st0" d="M76,120.7c10.9,0,19.8-7.3,19.8-16.4c0-9-8.9-16.3-19.8-16.3s-19.8,7.3-19.8,16.3
	C56.2,113.4,65.1,120.7,76,120.7z"/>
<path class="st0" d="M76,116.8c-8.3,0-14.9-5.5-14.9-12.4C61.1,97.6,67.8,92,76,92c8.2,0,14.9,5.5,14.9,12.4
	C90.9,111.2,84.3,116.7,76,116.8z"/>
<path class="st0" d="M61.1,104.4c0,6.8,6.7,12.3,14.9,12.4c8.2,0,14.9-5.5,14.9-12.4C90.9,97.6,84.3,92,76,92
	C67.8,92,61.1,97.6,61.1,104.4L61.1,104.4z"/>
</svg>
