<?xml version="1.0" encoding="utf-8"?>
<!-- Generator: Adobe Illustrator 23.0.3, SVG Export Plug-In . SVG Version: 6.00 Build 0)  -->
<svg version="1.1" id="Layer_1" xmlns="http://www.w3.org/2000/svg" xmlns:xlink="http://www.w3.org/1999/xlink" x="0px" y="0px"
	 viewBox="0 0 120.3 125.4" style="enable-background:new 0 0 120.3 125.4;" xml:space="preserve">
<style type="text/css">
	.st0{fill:none;stroke:#FFFFFF;}
</style>
<g>
	<path class="st0" d="M80.1,42h39.8V0.5l-39.8,0V42z M115.7,21.2c0,9.1-7,16.4-15.7,16.4s-15.7-7.3-15.7-16.4
		c0-9.1,7-16.4,15.7-16.4S115.7,12.2,115.7,21.2L115.7,21.2z"/>
	<path class="st0" d="M99.9,37.6c8.7,0,15.7-7.3,15.7-16.4c0-9.1-7-16.4-15.7-16.4c-8.7,0-15.7,7.3-15.7,16.4
		C84.2,30.3,91.3,37.6,99.9,37.6z"/>
	<path class="st0" d="M100,33.6c-6.6,0-11.9-5.5-11.9-12.4c0-6.8,5.3-12.4,11.9-12.4c6.6,0,11.9,5.5,11.9,12.4
		C111.8,28.1,106.5,33.6,100,33.6z"/>
	<path class="st0" d="M88.1,21.2c0,6.8,5.3,12.4,11.9,12.4c6.6,0,11.9-5.5,11.9-12.4c0-6.8-5.3-12.4-11.9-12.4
		C93.4,8.9,88.1,14.4,88.1,21.2L88.1,21.2z"/>
	<path class="st0" d="M40.3,83.4h39.8V42H40.3V83.4z M75.9,62.7c0,9.1-7,16.4-15.7,16.4c-8.7,0-15.7-7.3-15.7-16.4
		c0-9.1,7-16.4,15.7-16.4C68.8,46.3,75.9,53.7,75.9,62.7L75.9,62.7z"/>
	<path class="st0" d="M60.2,79.1c8.7,0,15.7-7.3,15.7-16.4c0-9.1-7-16.4-15.7-16.4c-8.7,0-15.7,7.3-15.7,16.4
		C44.4,71.8,51.5,79.1,60.2,79.1z"/>
	<path class="st0" d="M60.2,75.1c-6.6,0-11.9-5.5-11.9-12.4c0-6.8,5.3-12.4,11.9-12.4c6.6,0,11.9,5.5,11.9,12.4
		C72,69.6,66.7,75.1,60.2,75.1z"/>
	<path class="st0" d="M48.3,62.7c0,6.8,5.3,12.4,11.9,12.4c6.6,0,11.9-5.5,11.9-12.4c0-6.8-5.3-12.4-11.9-12.4
		C53.6,50.3,48.3,55.9,48.3,62.7L48.3,62.7z"/>
	<path class="st0" d="M80.1,83.4h39.8V42H80.1V83.4z M115.7,62.7c0,9.1-7,16.4-15.7,16.4s-15.7-7.3-15.7-16.4
		c0-9.1,7-16.4,15.7-16.4S115.7,53.7,115.7,62.7L115.7,62.7z"/>
	<path class="st0" d="M99.9,79.1c8.7,0,15.7-7.3,15.7-16.4c0-9.1-7-16.4-15.7-16.4c-8.7,0-15.7,7.3-15.7,16.4
		C84.2,71.8,91.3,79.1,99.9,79.1z"/>
	<path class="st0" d="M100,75.1c-6.6,0-11.9-5.5-11.9-12.4c0-6.8,5.3-12.4,11.9-12.4c6.6,0,11.9,5.5,11.9,12.4
		C111.8,69.6,106.5,75.1,100,75.1z"/>
	<path class="st0" d="M88.1,62.7c0,6.8,5.3,12.4,11.9,12.4c6.6,0,11.9-5.5,11.9-12.4c0-6.8-5.3-12.4-11.9-12.4
		C93.4,50.3,88.1,55.9,88.1,62.7L88.1,62.7z"/>
	<path class="st0" d="M0.5,124.9h39.8V83.4H0.5V124.9z M36.1,104.2c0,9.1-7,16.4-15.7,16.4s-15.7-7.3-15.7-16.4
		c0-9.1,7-16.4,15.7-16.4S36.1,95.1,36.1,104.2L36.1,104.2z"/>
	<path class="st0" d="M20.4,120.6c8.7,0,15.7-7.3,15.7-16.4c0-9.1-7-16.4-15.7-16.4c-8.7,0-15.7,7.3-15.7,16.4
		C4.7,113.2,11.7,120.6,20.4,120.6z"/>
	<path class="st0" d="M20.4,116.6c-6.6,0-11.9-5.5-11.9-12.4c0-6.8,5.3-12.4,11.9-12.4c6.6,0,11.9,5.5,11.9,12.4
		C32.3,111,27,116.5,20.4,116.6z"/>
	<path class="st0" d="M8.5,104.2c0,6.8,5.3,12.4,11.9,12.4c6.6,0,11.9-5.5,11.9-12.4c0-6.8-5.3-12.4-11.9-12.4
		C13.8,91.8,8.5,97.3,8.5,104.2L8.5,104.2z"/>
	<path class="st0" d="M80.1,124.9h39.8V83.4H80.1V124.9z M115.7,104.2c0,9.1-7,16.4-15.7,16.4s-15.7-7.3-15.7-16.4
		c0-9.1,7-16.4,15.7-16.4S115.7,95.1,115.7,104.2L115.7,104.2z"/>
	<path class="st0" d="M99.9,120.6c8.7,0,15.7-7.3,15.7-16.4c0-9.1-7-16.4-15.7-16.4c-8.7,0-15.7,7.3-15.7,16.4
		C84.2,113.2,91.3,120.6,99.9,120.6z"/>
	<path class="st0" d="M100,116.6c-6.6,0-11.9-5.5-11.9-12.4c0-6.8,5.3-12.4,11.9-12.4c6.6,0,11.9,5.5,11.9,12.4
		C111.8,111,106.5,116.5,100,116.6z"/>
	<path class="st0" d="M88.1,104.2c0,6.8,5.3,12.4,11.9,12.4c6.6,0,11.9-5.5,11.9-12.4c0-6.8-5.3-12.4-11.9-12.4
		C93.4,91.8,88.1,97.3,88.1,104.2L88.1,104.2z"/>
	<path class="st0" d="M40.3,124.9h39.8V83.4H40.3V124.9z M75.9,104.2c0,9.1-7,16.4-15.7,16.4c-8.7,0-15.7-7.3-15.7-16.4
		c0-9.1,7-16.4,15.7-16.4C68.8,87.8,75.9,95.1,75.9,104.2L75.9,104.2z"/>
	<path class="st0" d="M60.2,120.6c8.7,0,15.7-7.3,15.7-16.4c0-9.1-7-16.4-15.7-16.4c-8.7,0-15.7,7.3-15.7,16.4
		C44.4,113.2,51.5,120.6,60.2,120.6z"/>
	<path class="st0" d="M60.2,116.6c-6.6,0-11.9-5.5-11.9-12.4c0-6.8,5.3-12.4,11.9-12.4c6.6,0,11.9,5.5,11.9,12.4
		C72,111,66.7,116.5,60.2,116.6z"/>
	<path class="st0" d="M48.3,104.2c0,6.8,5.3,12.4,11.9,12.4c6.6,0,11.9-5.5,11.9-12.4c0-6.8-5.3-12.4-11.9-12.4
		C53.6,91.8,48.3,97.3,48.3,104.2L48.3,104.2z"/>
</g>
</svg>
