<?xml version="1.0" encoding="utf-8"?>
<!-- Generator: Adobe Illustrator 23.0.3, SVG Export Plug-In . SVG Version: 6.00 Build 0)  -->
<svg version="1.1" id="Layer_1" xmlns="http://www.w3.org/2000/svg" xmlns:xlink="http://www.w3.org/1999/xlink" x="0px" y="0px"
	 viewBox="0 0 120.4 119.6" style="enable-background:new 0 0 120.4 119.6;" xml:space="preserve">
<style type="text/css">
	.st0{fill:none;stroke:#FFFFFF;}
</style>
<g>
	<path class="st0" d="M80.1,40.1h39.8V0.5H80.1C80.1,0.5,80.1,40.1,80.1,40.1z M115.7,20.2c0,8.7-7,15.6-15.7,15.6
		s-15.7-7-15.7-15.6s7-15.6,15.7-15.6S115.7,11.7,115.7,20.2L115.7,20.2z"/>
	<path class="st0" d="M99.9,35.9c8.7,0,15.7-7,15.7-15.6s-7-15.6-15.7-15.6s-15.7,7-15.7,15.6C84.2,28.9,91.3,35.9,99.9,35.9z"/>
	<path class="st0" d="M100,32.1c-6.6,0-11.9-5.2-11.9-11.8c0-6.5,5.3-11.8,11.9-11.8s11.9,5.2,11.9,11.8
		C111.8,26.8,106.5,32.1,100,32.1z"/>
	<path class="st0" d="M88.1,20.2c0,6.5,5.3,11.8,11.9,11.8s11.9-5.2,11.9-11.8c0-6.5-5.3-11.8-11.9-11.8
		C93.4,8.5,88.1,13.8,88.1,20.2L88.1,20.2z"/>
	<path class="st0" d="M40.3,79.5h39.8V40.1H40.3V79.5z M75.9,59.8c0,8.7-7,15.6-15.7,15.6s-15.7-7-15.7-15.6s7-15.6,15.7-15.6
		C68.8,44.2,75.9,51.2,75.9,59.8L75.9,59.8z"/>
	<path class="st0" d="M60.2,75.4c8.7,0,15.7-7,15.7-15.6s-7-15.6-15.7-15.6s-15.7,7-15.7,15.6C44.4,68.5,51.5,75.4,60.2,75.4z"/>
	<path class="st0" d="M60.2,71.6c-6.6,0-11.9-5.2-11.9-11.8c0-6.5,5.3-11.8,11.9-11.8s11.9,5.2,11.9,11.8
		C72,66.4,66.7,71.6,60.2,71.6z"/>
	<path class="st0" d="M48.3,59.8c0,6.5,5.3,11.8,11.9,11.8s11.9-5.2,11.9-11.8c0-6.5-5.3-11.8-11.9-11.8
		C53.6,48,48.3,53.3,48.3,59.8L48.3,59.8z"/>
	<path class="st0" d="M80.1,79.5h39.8V40.1H80.1V79.5z M115.7,59.8c0,8.7-7,15.6-15.7,15.6s-15.7-7-15.7-15.6s7-15.6,15.7-15.6
		S115.7,51.2,115.7,59.8L115.7,59.8z"/>
	<path class="st0" d="M99.9,75.4c8.7,0,15.7-7,15.7-15.6s-7-15.6-15.7-15.6s-15.7,7-15.7,15.6C84.2,68.5,91.3,75.4,99.9,75.4z"/>
	<path class="st0" d="M100,71.6c-6.6,0-11.9-5.2-11.9-11.8c0-6.5,5.3-11.8,11.9-11.8s11.9,5.2,11.9,11.8
		C111.8,66.4,106.5,71.6,100,71.6z"/>
	<path class="st0" d="M88.1,59.8c0,6.5,5.3,11.8,11.9,11.8s11.9-5.2,11.9-11.8c0-6.5-5.3-11.8-11.9-11.8
		C93.4,48,88.1,53.3,88.1,59.8L88.1,59.8z"/>
	<path class="st0" d="M0.5,119.1h39.8V79.5H0.5V119.1z M36.1,99.4c0,8.7-7,15.6-15.7,15.6S4.7,108,4.7,99.4s7-15.6,15.7-15.6
		S36.1,90.7,36.1,99.4L36.1,99.4z"/>
	<path class="st0" d="M20.4,115c8.7,0,15.7-7,15.7-15.6s-7-15.6-15.7-15.6s-15.7,7-15.7,15.6C4.7,107.9,11.7,115,20.4,115z"/>
	<path class="st0" d="M20.4,111.2c-6.6,0-11.9-5.2-11.9-11.8c0-6.5,5.3-11.8,11.9-11.8s11.9,5.2,11.9,11.8
		C32.3,105.8,27,111.1,20.4,111.2z"/>
	<path class="st0" d="M8.5,99.4c0,6.5,5.3,11.8,11.9,11.8s11.9-5.2,11.9-11.8c0-6.5-5.3-11.8-11.9-11.8S8.5,92.8,8.5,99.4L8.5,99.4z
		"/>
	<path class="st0" d="M80.1,119.1h39.8V79.5H80.1V119.1z M115.7,99.4c0,8.7-7,15.6-15.7,15.6s-15.7-7-15.7-15.6s7-15.6,15.7-15.6
		S115.7,90.7,115.7,99.4L115.7,99.4z"/>
	<path class="st0" d="M99.9,115c8.7,0,15.7-7,15.7-15.6s-7-15.6-15.7-15.6s-15.7,7-15.7,15.6C84.2,107.9,91.3,115,99.9,115z"/>
	<path class="st0" d="M100,111.2c-6.6,0-11.9-5.2-11.9-11.8c0-6.5,5.3-11.8,11.9-11.8s11.9,5.2,11.9,11.8
		C111.8,105.8,106.5,111.1,100,111.2z"/>
	<path class="st0" d="M88.1,99.4c0,6.5,5.3,11.8,11.9,11.8s11.9-5.2,11.9-11.8c0-6.5-5.3-11.8-11.9-11.8S88.1,92.8,88.1,99.4
		L88.1,99.4z"/>
	<path class="st0" d="M40.3,119.1h39.8V79.5H40.3V119.1z M75.9,99.4c0,8.7-7,15.6-15.7,15.6s-15.7-7-15.7-15.6s7-15.6,15.7-15.6
		C68.8,83.7,75.9,90.7,75.9,99.4L75.9,99.4z"/>
	<path class="st0" d="M60.2,115c8.7,0,15.7-7,15.7-15.6s-7-15.6-15.7-15.6s-15.7,7-15.7,15.6C44.4,107.9,51.5,115,60.2,115z"/>
	<path class="st0" d="M60.2,111.2c-6.6,0-11.9-5.2-11.9-11.8c0-6.5,5.3-11.8,11.9-11.8s11.9,5.2,11.9,11.8
		C72,105.8,66.7,111.1,60.2,111.2z"/>
	<path class="st0" d="M48.3,99.4c0,6.5,5.3,11.8,11.9,11.8s11.9-5.2,11.9-11.8c0-6.5-5.3-11.8-11.9-11.8S48.3,92.8,48.3,99.4
		L48.3,99.4z"/>
</g>
</svg>
