<?xml version="1.0" encoding="utf-8"?>
<!-- Generator: Adobe Illustrator 23.0.3, SVG Export Plug-In . SVG Version: 6.00 Build 0)  -->
<svg version="1.1" id="Layer_1" xmlns="http://www.w3.org/2000/svg" xmlns:xlink="http://www.w3.org/1999/xlink" x="0px" y="0px"
	 viewBox="0 0 529 67" style="enable-background:new 0 0 529 67;" xml:space="preserve">
<style type="text/css">
	.st0{fill:none;stroke:#66948F;}
</style>
<path class="st0" d="M198.5,0.5v66h-66v-66L198.5,0.5z M165.5,59.6c14.4,0,26.1-11.7,26.1-26.1c0-14.4-11.7-26.1-26.1-26.1
	c-14.4,0-26.1,11.7-26.1,26.1C139.4,47.9,151.1,59.6,165.5,59.6L165.5,59.6z"/>
<path class="st0" d="M165.5,7.4c14.4,0,26.1,11.7,26.1,26.1s-11.7,26.1-26.1,26.1c-14.4,0-26.1-11.7-26.1-26.1S151.1,7.4,165.5,7.4z
	"/>
<path class="st0" d="M165.5,53.2c10.9,0,19.7-8.8,19.7-19.7c0-10.9-8.8-19.7-19.7-19.7c-10.9,0-19.7,8.8-19.7,19.7
	C145.8,44.4,154.6,53.2,165.5,53.2z"/>
<path class="st0" d="M165.5,13.8c10.9,0,19.7,8.8,19.7,19.7c0,10.9-8.8,19.7-19.7,19.7c-10.9,0-19.7-8.8-19.7-19.7
	C145.8,22.6,154.6,13.8,165.5,13.8L165.5,13.8z"/>
<path class="st0" d="M396.5,0.5v66h-66v-66L396.5,0.5z M363.5,59.6c14.4,0,26.1-11.7,26.1-26.1c0-14.4-11.7-26.1-26.1-26.1
	c-14.4,0-26.1,11.7-26.1,26.1C337.4,47.9,349.1,59.6,363.5,59.6L363.5,59.6z"/>
<path class="st0" d="M363.5,7.4c14.4,0,26.1,11.7,26.1,26.1s-11.7,26.1-26.1,26.1c-14.4,0-26.1-11.7-26.1-26.1S349.1,7.4,363.5,7.4z
	"/>
<path class="st0" d="M363.5,53.2c10.9,0,19.7-8.8,19.7-19.7c0-10.9-8.8-19.7-19.7-19.7c-10.9,0-19.7,8.8-19.7,19.7
	C343.8,44.4,352.6,53.2,363.5,53.2z"/>
<path class="st0" d="M363.5,13.8c10.9,0,19.7,8.8,19.7,19.7c0,10.9-8.8,19.7-19.7,19.7c-10.9,0-19.7-8.8-19.7-19.7
	C343.8,22.6,352.6,13.8,363.5,13.8L363.5,13.8z"/>
<path class="st0" d="M132.5,0.5v66h-66v-66L132.5,0.5z M99.5,59.6c14.4,0,26.1-11.7,26.1-26.1c0-14.4-11.7-26.1-26.1-26.1
	c-14.4,0-26.1,11.7-26.1,26.1C73.4,47.9,85.1,59.6,99.5,59.6L99.5,59.6z"/>
<path class="st0" d="M99.5,7.4c14.4,0,26.1,11.7,26.1,26.1s-11.7,26.1-26.1,26.1c-14.4,0-26.1-11.7-26.1-26.1S85.1,7.4,99.5,7.4z"/>
<path class="st0" d="M99.5,53.2c10.9,0,19.7-8.8,19.7-19.7c0-10.9-8.8-19.7-19.7-19.7c-10.9,0-19.7,8.8-19.7,19.7
	C79.8,44.4,88.6,53.2,99.5,53.2z"/>
<path class="st0" d="M99.5,13.8c10.9,0,19.7,8.8,19.7,19.7c0,10.9-8.8,19.7-19.7,19.7c-10.9,0-19.7-8.8-19.7-19.7
	C79.8,22.6,88.6,13.8,99.5,13.8L99.5,13.8z"/>
<path class="st0" d="M528.5,0.5v66h-66v-66L528.5,0.5z M495.5,59.6c14.4,0,26.1-11.7,26.1-26.1c0-14.4-11.7-26.1-26.1-26.1
	c-14.4,0-26.1,11.7-26.1,26.1C469.4,47.9,481.1,59.6,495.5,59.6L495.5,59.6z"/>
<path class="st0" d="M495.5,7.4c14.4,0,26.1,11.7,26.1,26.1s-11.7,26.1-26.1,26.1c-14.4,0-26.1-11.7-26.1-26.1S481.1,7.4,495.5,7.4z
	"/>
<path class="st0" d="M495.5,53.2c10.9,0,19.7-8.8,19.7-19.7c0-10.9-8.8-19.7-19.7-19.7c-10.9,0-19.7,8.8-19.7,19.7
	C475.8,44.4,484.6,53.2,495.5,53.2z"/>
<path class="st0" d="M495.5,13.8c10.9,0,19.7,8.8,19.7,19.7c0,10.9-8.8,19.7-19.7,19.7c-10.9,0-19.7-8.8-19.7-19.7
	C475.8,22.6,484.6,13.8,495.5,13.8L495.5,13.8z"/>
<path class="st0" d="M330.5,0.5v66h-66v-66L330.5,0.5z M297.5,59.6c14.4,0,26.1-11.7,26.1-26.1c0-14.4-11.7-26.1-26.1-26.1
	c-14.4,0-26.1,11.7-26.1,26.1C271.4,47.9,283.1,59.6,297.5,59.6L297.5,59.6z"/>
<path class="st0" d="M297.5,7.4c14.4,0,26.1,11.7,26.1,26.1s-11.7,26.1-26.1,26.1c-14.4,0-26.1-11.7-26.1-26.1S283.1,7.4,297.5,7.4z
	"/>
<path class="st0" d="M297.5,53.2c10.9,0,19.7-8.8,19.7-19.7c0-10.9-8.8-19.7-19.7-19.7c-10.9,0-19.7,8.8-19.7,19.7
	C277.8,44.4,286.6,53.2,297.5,53.2z"/>
<path class="st0" d="M297.5,13.8c10.9,0,19.7,8.8,19.7,19.7c0,10.9-8.8,19.7-19.7,19.7c-10.9,0-19.7-8.8-19.7-19.7
	C277.8,22.6,286.6,13.8,297.5,13.8L297.5,13.8z"/>
<path class="st0" d="M66.5,0.5v66h-66l0-66L66.5,0.5z M33.5,59.6c14.4,0,26.1-11.7,26.1-26.1c0-14.4-11.7-26.1-26.1-26.1
	C19.1,7.4,7.4,19.1,7.4,33.5C7.4,47.9,19.1,59.6,33.5,59.6L33.5,59.6z"/>
<path class="st0" d="M33.5,7.4c14.4,0,26.1,11.7,26.1,26.1S47.9,59.6,33.5,59.6c-14.4,0-26.1-11.7-26.1-26.1
	C7.4,19.1,19.1,7.4,33.5,7.4z"/>
<path class="st0" d="M33.5,53.2c10.9,0,19.7-8.8,19.7-19.7c0-10.9-8.8-19.7-19.7-19.7c-10.9,0-19.7,8.8-19.7,19.7
	C13.8,44.4,22.6,53.2,33.5,53.2z"/>
<path class="st0" d="M33.5,13.8c10.9,0,19.7,8.8,19.7,19.7c0,10.9-8.8,19.7-19.7,19.7c-10.9,0-19.7-8.8-19.7-19.7
	C13.8,22.6,22.6,13.8,33.5,13.8L33.5,13.8z"/>
<path class="st0" d="M462.5,0.5v66h-66v-66L462.5,0.5z M429.5,59.6c14.4,0,26.1-11.7,26.1-26.1c0-14.4-11.7-26.1-26.1-26.1
	c-14.4,0-26.1,11.7-26.1,26.1C403.4,47.9,415.1,59.6,429.5,59.6L429.5,59.6z"/>
<path class="st0" d="M429.5,7.4c14.4,0,26.1,11.7,26.1,26.1s-11.7,26.1-26.1,26.1c-14.4,0-26.1-11.7-26.1-26.1S415.1,7.4,429.5,7.4z
	"/>
<path class="st0" d="M429.5,53.2c10.9,0,19.7-8.8,19.7-19.7c0-10.9-8.8-19.7-19.7-19.7c-10.9,0-19.7,8.8-19.7,19.7
	C409.8,44.4,418.6,53.2,429.5,53.2z"/>
<path class="st0" d="M429.5,13.8c10.9,0,19.7,8.8,19.7,19.7c0,10.9-8.8,19.7-19.7,19.7c-10.9,0-19.7-8.8-19.7-19.7
	C409.8,22.6,418.6,13.8,429.5,13.8L429.5,13.8z"/>
<path class="st0" d="M264.5,0.5v66h-66v-66L264.5,0.5z M231.5,59.6c14.4,0,26.1-11.7,26.1-26.1c0-14.4-11.7-26.1-26.1-26.1
	c-14.4,0-26.1,11.7-26.1,26.1C205.4,47.9,217.1,59.6,231.5,59.6L231.5,59.6z"/>
<path class="st0" d="M231.5,7.4c14.4,0,26.1,11.7,26.1,26.1s-11.7,26.1-26.1,26.1c-14.4,0-26.1-11.7-26.1-26.1S217.1,7.4,231.5,7.4z
	"/>
<path class="st0" d="M231.5,53.2c10.9,0,19.7-8.8,19.7-19.7c0-10.9-8.8-19.7-19.7-19.7c-10.9,0-19.7,8.8-19.7,19.7
	C211.8,44.4,220.6,53.2,231.5,53.2z"/>
<path class="st0" d="M231.5,13.8c10.9,0,19.7,8.8,19.7,19.7c0,10.9-8.8,19.7-19.7,19.7c-10.9,0-19.7-8.8-19.7-19.7
	C211.8,22.6,220.6,13.8,231.5,13.8L231.5,13.8z"/>
</svg>
