<svg width="1322" height="68" viewBox="0 0 1322 68" fill="none" xmlns="http://www.w3.org/2000/svg">
<path d="M199 1L199 66.9969L133 66.9969L133 1.00001L199 1ZM165.998 60.0788C180.408 60.0788 192.073 48.4044 192.073 33.9937C192.073 19.5831 180.408 7.91333 165.998 7.90863C151.592 7.90863 139.918 19.602 139.918 33.9937C139.918 48.3855 151.592 60.0788 165.998 60.0788V60.0788Z" stroke="#66948F"/>
<path d="M165.997 7.91309C180.407 7.91309 192.072 19.6064 192.072 34.0029C192.072 48.3994 180.407 60.0833 165.997 60.088C151.587 60.088 139.913 48.4135 139.913 34.0029C139.913 19.5923 151.592 7.91309 165.997 7.91309Z" stroke="#66948F"/>
<path d="M165.998 53.7112C176.876 53.6971 185.687 44.8906 185.701 34.0073C185.687 23.1146 176.876 14.3175 165.998 14.2939C155.101 14.3175 146.308 23.1146 146.285 34.0073C146.308 44.8906 155.101 53.6971 165.998 53.7112Z" stroke="#66948F"/>
<path d="M165.998 14.2939C176.876 14.3175 185.687 23.1146 185.701 34.0073C185.687 44.8906 176.876 53.6971 165.998 53.7112C155.101 53.6971 146.308 44.8906 146.285 34.0073C146.308 23.1146 155.101 14.3175 165.998 14.2939V14.2939Z" stroke="#66948F"/>
<path d="M595 1L595 66.9969L529 66.9969L529 1.00001L595 1ZM561.998 60.0788C576.408 60.0788 588.073 48.4044 588.073 33.9937C588.073 19.5831 576.408 7.91333 561.998 7.90863C547.592 7.90863 535.918 19.602 535.918 33.9937C535.918 48.3855 547.592 60.0788 561.998 60.0788V60.0788Z" stroke="#66948F"/>
<path d="M561.998 7.91309C576.408 7.91309 588.073 19.6064 588.073 34.0029C588.073 48.3994 576.408 60.0833 561.998 60.088C547.587 60.088 535.913 48.4135 535.913 34.0029C535.913 19.5923 547.592 7.91309 561.998 7.91309Z" stroke="#66948F"/>
<path d="M561.998 53.7112C572.877 53.6971 581.688 44.8906 581.702 34.0073C581.688 23.1146 572.877 14.3175 561.998 14.2939C551.101 14.3175 542.309 23.1146 542.285 34.0073C542.309 44.8906 551.101 53.6971 561.998 53.7112Z" stroke="#66948F"/>
<path d="M561.998 14.2939C572.877 14.3175 581.688 23.1146 581.702 34.0073C581.688 44.8906 572.877 53.6971 561.998 53.7112C551.101 53.6971 542.309 44.8906 542.285 34.0073C542.309 23.1146 551.101 14.3175 561.998 14.2939V14.2939Z" stroke="#66948F"/>
<path d="M991 1L991 66.9969L925 66.9969L925 1.00001L991 1ZM957.998 60.0788C972.408 60.0788 984.073 48.4044 984.073 33.9937C984.073 19.5831 972.408 7.91333 957.998 7.90863C943.592 7.90863 931.918 19.602 931.918 33.9937C931.918 48.3855 943.592 60.0788 957.998 60.0788V60.0788Z" stroke="#66948F"/>
<path d="M957.998 7.91309C972.408 7.91309 984.073 19.6064 984.073 34.0029C984.073 48.3994 972.408 60.0833 957.998 60.088C943.587 60.088 931.913 48.4135 931.913 34.0029C931.913 19.5923 943.592 7.91309 957.998 7.91309Z" stroke="#66948F"/>
<path d="M957.998 53.7112C968.877 53.6971 977.688 44.8906 977.702 34.0073C977.688 23.1146 968.877 14.3175 957.998 14.2939C947.101 14.3175 938.309 23.1146 938.285 34.0073C938.309 44.8906 947.101 53.6971 957.998 53.7112Z" stroke="#66948F"/>
<path d="M957.998 14.2939C968.877 14.3175 977.688 23.1146 977.702 34.0073C977.688 44.8906 968.877 53.6971 957.998 53.7112C947.101 53.6971 938.309 44.8906 938.285 34.0073C938.309 23.1146 947.101 14.3175 957.998 14.2939V14.2939Z" stroke="#66948F"/>
<path d="M397 1L397 66.9969L331 66.9969L331 1.00001L397 1ZM363.998 60.0788C378.408 60.0788 390.073 48.4044 390.073 33.9937C390.073 19.5831 378.408 7.91333 363.998 7.90863C349.592 7.90863 337.918 19.602 337.918 33.9937C337.918 48.3855 349.592 60.0788 363.998 60.0788V60.0788Z" stroke="#66948F"/>
<path d="M363.998 7.91309C378.408 7.91309 390.073 19.6064 390.073 34.0029C390.073 48.3994 378.408 60.0833 363.998 60.088C349.587 60.088 337.913 48.4135 337.913 34.0029C337.913 19.5923 349.592 7.91309 363.998 7.91309Z" stroke="#66948F"/>
<path d="M363.998 53.7112C374.877 53.6971 383.688 44.8906 383.702 34.0073C383.688 23.1146 374.877 14.3175 363.998 14.2939C353.101 14.3175 344.309 23.1146 344.285 34.0073C344.309 44.8906 353.101 53.6971 363.998 53.7112Z" stroke="#66948F"/>
<path d="M363.998 14.2939C374.877 14.3175 383.688 23.1146 383.702 34.0073C383.688 44.8906 374.877 53.6971 363.998 53.7112C353.101 53.6971 344.309 44.8906 344.285 34.0073C344.309 23.1146 353.101 14.3175 363.998 14.2939V14.2939Z" stroke="#66948F"/>
<path d="M793 1L793 66.9969L727 66.9969L727 1.00001L793 1ZM759.998 60.0788C774.408 60.0788 786.073 48.4044 786.073 33.9937C786.073 19.5831 774.408 7.91333 759.998 7.90863C745.592 7.90863 733.918 19.602 733.918 33.9937C733.918 48.3855 745.592 60.0788 759.998 60.0788V60.0788Z" stroke="#66948F"/>
<path d="M759.998 7.91309C774.408 7.91309 786.073 19.6064 786.073 34.0029C786.073 48.3994 774.408 60.0833 759.998 60.088C745.587 60.088 733.913 48.4135 733.913 34.0029C733.913 19.5923 745.592 7.91309 759.998 7.91309Z" stroke="#66948F"/>
<path d="M759.998 53.7112C770.877 53.6971 779.688 44.8906 779.702 34.0073C779.688 23.1146 770.877 14.3175 759.998 14.2939C749.101 14.3175 740.309 23.1146 740.285 34.0073C740.309 44.8906 749.101 53.6971 759.998 53.7112Z" stroke="#66948F"/>
<path d="M759.998 14.2939C770.877 14.3175 779.688 23.1146 779.702 34.0073C779.688 44.8906 770.877 53.6971 759.998 53.7112C749.101 53.6971 740.309 44.8906 740.285 34.0073C740.309 23.1146 749.101 14.3175 759.998 14.2939V14.2939Z" stroke="#66948F"/>
<path d="M1189 1L1189 66.9969L1123 66.9969L1123 1.00001L1189 1ZM1156 60.0788C1170.41 60.0788 1182.07 48.4044 1182.07 33.9937C1182.07 19.5831 1170.41 7.91333 1156 7.90863C1141.59 7.90863 1129.92 19.602 1129.92 33.9937C1129.92 48.3855 1141.59 60.0788 1156 60.0788V60.0788Z" stroke="#66948F"/>
<path d="M1156 7.91309C1170.41 7.91309 1182.07 19.6064 1182.07 34.0029C1182.07 48.3994 1170.41 60.0833 1156 60.088C1141.59 60.088 1129.91 48.4135 1129.91 34.0029C1129.91 19.5923 1141.59 7.91309 1156 7.91309Z" stroke="#66948F"/>
<path d="M1156 53.7112C1166.88 53.6971 1175.69 44.8906 1175.7 34.0073C1175.69 23.1146 1166.88 14.3175 1156 14.2939C1145.1 14.3175 1136.31 23.1146 1136.29 34.0073C1136.31 44.8906 1145.1 53.6971 1156 53.7112Z" stroke="#66948F"/>
<path d="M1156 14.2939C1166.88 14.3175 1175.69 23.1146 1175.7 34.0073C1175.69 44.8906 1166.88 53.6971 1156 53.7112C1145.1 53.6971 1136.31 44.8906 1136.29 34.0073C1136.31 23.1146 1145.1 14.3175 1156 14.2939V14.2939Z" stroke="#66948F"/>
<path d="M1321 1L1321 66.9969L1255 66.9969L1255 1.00001L1321 1ZM1288 60.0788C1302.41 60.0788 1314.07 48.4044 1314.07 33.9937C1314.07 19.5831 1302.41 7.91333 1288 7.90863C1273.59 7.90863 1261.92 19.602 1261.92 33.9937C1261.92 48.3855 1273.59 60.0788 1288 60.0788V60.0788Z" stroke="#66948F"/>
<path d="M1288 7.91309C1302.41 7.91309 1314.07 19.6064 1314.07 34.0029C1314.07 48.3994 1302.41 60.0833 1288 60.088C1273.59 60.088 1261.91 48.4135 1261.91 34.0029C1261.91 19.5923 1273.59 7.91309 1288 7.91309Z" stroke="#66948F"/>
<path d="M1288 53.7112C1298.88 53.6971 1307.69 44.8906 1307.7 34.0073C1307.69 23.1146 1298.88 14.3175 1288 14.2939C1277.1 14.3175 1268.31 23.1146 1268.29 34.0073C1268.31 44.8906 1277.1 53.6971 1288 53.7112Z" stroke="#66948F"/>
<path d="M1288 14.2939C1298.88 14.3175 1307.69 23.1146 1307.7 34.0073C1307.69 44.8906 1298.88 53.6971 1288 53.7112C1277.1 53.6971 1268.31 44.8906 1268.29 34.0073C1268.31 23.1146 1277.1 14.3175 1288 14.2939V14.2939Z" stroke="#66948F"/>
<path d="M133 1L133 66.9969L67 66.9969L67 1.00001L133 1ZM99.9976 60.0788C114.408 60.0788 126.073 48.4044 126.073 33.9937C126.073 19.5831 114.408 7.91333 99.9976 7.90863C85.5921 7.90863 73.9178 19.602 73.9178 33.9937C73.9178 48.3855 85.5921 60.0788 99.9976 60.0788V60.0788Z" stroke="#66948F"/>
<path d="M99.9972 7.91309C114.407 7.91309 126.072 19.6064 126.072 34.0029C126.072 48.3994 114.407 60.0833 99.9972 60.088C85.5869 60.088 73.9127 48.4135 73.9127 34.0029C73.9127 19.5923 85.5916 7.91309 99.9972 7.91309Z" stroke="#66948F"/>
<path d="M99.9977 53.7112C110.876 53.6971 119.687 44.8906 119.701 34.0073C119.687 23.1146 110.876 14.3175 99.9977 14.2939C89.1005 14.3175 80.3084 23.1146 80.2848 34.0073C80.3084 44.8906 89.1005 53.6971 99.9977 53.7112Z" stroke="#66948F"/>
<path d="M99.9977 14.2939C110.876 14.3175 119.687 23.1146 119.701 34.0073C119.687 44.8906 110.876 53.6971 99.9977 53.7112C89.1005 53.6971 80.3084 44.8906 80.2848 34.0073C80.3084 23.1146 89.1005 14.3175 99.9977 14.2939V14.2939Z" stroke="#66948F"/>
<path d="M529 1L529 66.9969L463 66.9969L463 1.00001L529 1ZM495.998 60.0788C510.408 60.0788 522.073 48.4044 522.073 33.9937C522.073 19.5831 510.408 7.91333 495.998 7.90863C481.592 7.90863 469.918 19.602 469.918 33.9937C469.918 48.3855 481.592 60.0788 495.998 60.0788V60.0788Z" stroke="#66948F"/>
<path d="M495.998 7.91309C510.408 7.91309 522.073 19.6064 522.073 34.0029C522.073 48.3994 510.408 60.0833 495.998 60.088C481.587 60.088 469.913 48.4135 469.913 34.0029C469.913 19.5923 481.592 7.91309 495.998 7.91309Z" stroke="#66948F"/>
<path d="M495.998 53.7112C506.877 53.6971 515.688 44.8906 515.702 34.0073C515.688 23.1146 506.877 14.3175 495.998 14.2939C485.101 14.3175 476.309 23.1146 476.285 34.0073C476.309 44.8906 485.101 53.6971 495.998 53.7112Z" stroke="#66948F"/>
<path d="M495.998 14.2939C506.877 14.3175 515.688 23.1146 515.702 34.0073C515.688 44.8906 506.877 53.6971 495.998 53.7112C485.101 53.6971 476.309 44.8906 476.285 34.0073C476.309 23.1146 485.101 14.3175 495.998 14.2939V14.2939Z" stroke="#66948F"/>
<path d="M925 1L925 66.9969L859 66.9969L859 1.00001L925 1ZM891.998 60.0788C906.408 60.0788 918.073 48.4044 918.073 33.9937C918.073 19.5831 906.408 7.91333 891.998 7.90863C877.592 7.90863 865.918 19.602 865.918 33.9937C865.918 48.3855 877.592 60.0788 891.998 60.0788V60.0788Z" stroke="#66948F"/>
<path d="M891.998 7.91309C906.408 7.91309 918.073 19.6064 918.073 34.0029C918.073 48.3994 906.408 60.0833 891.998 60.088C877.587 60.088 865.913 48.4135 865.913 34.0029C865.913 19.5923 877.592 7.91309 891.998 7.91309Z" stroke="#66948F"/>
<path d="M891.998 53.7112C902.877 53.6971 911.688 44.8906 911.702 34.0073C911.688 23.1146 902.877 14.3175 891.998 14.2939C881.101 14.3175 872.309 23.1146 872.285 34.0073C872.309 44.8906 881.101 53.6971 891.998 53.7112Z" stroke="#66948F"/>
<path d="M891.998 14.2939C902.877 14.3175 911.688 23.1146 911.702 34.0073C911.688 44.8906 902.877 53.6971 891.998 53.7112C881.101 53.6971 872.309 44.8906 872.285 34.0073C872.309 23.1146 881.101 14.3175 891.998 14.2939V14.2939Z" stroke="#66948F"/>
<path d="M331 1L331 66.9969L265 66.9969L265 1.00001L331 1ZM297.998 60.0788C312.408 60.0788 324.073 48.4044 324.073 33.9937C324.073 19.5831 312.408 7.91333 297.998 7.90863C283.592 7.90863 271.918 19.602 271.918 33.9937C271.918 48.3855 283.592 60.0788 297.998 60.0788V60.0788Z" stroke="#66948F"/>
<path d="M297.998 7.91309C312.408 7.91309 324.073 19.6064 324.073 34.0029C324.073 48.3994 312.408 60.0833 297.998 60.088C283.587 60.088 271.913 48.4135 271.913 34.0029C271.913 19.5923 283.592 7.91309 297.998 7.91309Z" stroke="#66948F"/>
<path d="M297.998 53.7112C308.877 53.6971 317.688 44.8906 317.702 34.0073C317.688 23.1146 308.877 14.3175 297.998 14.2939C287.101 14.3175 278.309 23.1146 278.285 34.0073C278.309 44.8906 287.101 53.6971 297.998 53.7112Z" stroke="#66948F"/>
<path d="M297.998 14.2939C308.877 14.3175 317.688 23.1146 317.702 34.0073C317.688 44.8906 308.877 53.6971 297.998 53.7112C287.101 53.6971 278.309 44.8906 278.285 34.0073C278.309 23.1146 287.101 14.3175 297.998 14.2939V14.2939Z" stroke="#66948F"/>
<path d="M727 1L727 66.9969L661 66.9969L661 1.00001L727 1ZM693.998 60.0788C708.408 60.0788 720.073 48.4044 720.073 33.9937C720.073 19.5831 708.408 7.91333 693.998 7.90863C679.592 7.90863 667.918 19.602 667.918 33.9937C667.918 48.3855 679.592 60.0788 693.998 60.0788V60.0788Z" stroke="#66948F"/>
<path d="M693.998 7.91309C708.408 7.91309 720.073 19.6064 720.073 34.0029C720.073 48.3994 708.408 60.0833 693.998 60.088C679.587 60.088 667.913 48.4135 667.913 34.0029C667.913 19.5923 679.592 7.91309 693.998 7.91309Z" stroke="#66948F"/>
<path d="M693.998 53.7112C704.877 53.6971 713.688 44.8906 713.702 34.0073C713.688 23.1146 704.877 14.3175 693.998 14.2939C683.101 14.3175 674.309 23.1146 674.285 34.0073C674.309 44.8906 683.101 53.6971 693.998 53.7112Z" stroke="#66948F"/>
<path d="M693.998 14.2939C704.877 14.3175 713.688 23.1146 713.702 34.0073C713.688 44.8906 704.877 53.6971 693.998 53.7112C683.101 53.6971 674.309 44.8906 674.285 34.0073C674.309 23.1146 683.101 14.3175 693.998 14.2939V14.2939Z" stroke="#66948F"/>
<path d="M1123 1L1123 66.9969L1057 66.9969L1057 1.00001L1123 1ZM1090 60.0788C1104.41 60.0788 1116.07 48.4044 1116.07 33.9937C1116.07 19.5831 1104.41 7.91333 1090 7.90863C1075.59 7.90863 1063.92 19.602 1063.92 33.9937C1063.92 48.3855 1075.59 60.0788 1090 60.0788V60.0788Z" stroke="#66948F"/>
<path d="M1090 7.91309C1104.41 7.91309 1116.07 19.6064 1116.07 34.0029C1116.07 48.3994 1104.41 60.0833 1090 60.088C1075.59 60.088 1063.91 48.4135 1063.91 34.0029C1063.91 19.5923 1075.59 7.91309 1090 7.91309Z" stroke="#66948F"/>
<path d="M1090 53.7112C1100.88 53.6971 1109.69 44.8906 1109.7 34.0073C1109.69 23.1146 1100.88 14.3175 1090 14.2939C1079.1 14.3175 1070.31 23.1146 1070.29 34.0073C1070.31 44.8906 1079.1 53.6971 1090 53.7112Z" stroke="#66948F"/>
<path d="M1090 14.2939C1100.88 14.3175 1109.69 23.1146 1109.7 34.0073C1109.69 44.8906 1100.88 53.6971 1090 53.7112C1079.1 53.6971 1070.31 44.8906 1070.29 34.0073C1070.31 23.1146 1079.1 14.3175 1090 14.2939V14.2939Z" stroke="#66948F"/>
<path d="M1255 1L1255 66.9969L1189 66.9969L1189 1.00001L1255 1ZM1222 60.0788C1236.41 60.0788 1248.07 48.4044 1248.07 33.9937C1248.07 19.5831 1236.41 7.91333 1222 7.90863C1207.59 7.90863 1195.92 19.602 1195.92 33.9937C1195.92 48.3855 1207.59 60.0788 1222 60.0788V60.0788Z" stroke="#66948F"/>
<path d="M1222 7.91309C1236.41 7.91309 1248.07 19.6064 1248.07 34.0029C1248.07 48.3994 1236.41 60.0833 1222 60.088C1207.59 60.088 1195.91 48.4135 1195.91 34.0029C1195.91 19.5923 1207.59 7.91309 1222 7.91309Z" stroke="#66948F"/>
<path d="M1222 53.7112C1232.88 53.6971 1241.69 44.8906 1241.7 34.0073C1241.69 23.1146 1232.88 14.3175 1222 14.2939C1211.1 14.3175 1202.31 23.1146 1202.29 34.0073C1202.31 44.8906 1211.1 53.6971 1222 53.7112Z" stroke="#66948F"/>
<path d="M1222 14.2939C1232.88 14.3175 1241.69 23.1146 1241.7 34.0073C1241.69 44.8906 1232.88 53.6971 1222 53.7112C1211.1 53.6971 1202.31 44.8906 1202.29 34.0073C1202.31 23.1146 1211.1 14.3175 1222 14.2939V14.2939Z" stroke="#66948F"/>
<path d="M67 1L67 66.9969L0.999974 66.9969L0.999968 1.00001L67 1ZM33.9976 60.0788C48.4079 60.0788 60.0727 48.4044 60.0727 33.9937C60.0727 19.5831 48.4079 7.91333 33.9976 7.90863C19.5921 7.90863 7.91784 19.602 7.91785 33.9937C7.91785 48.3855 19.5921 60.0788 33.9976 60.0788V60.0788Z" stroke="#66948F"/>
<path d="M33.9972 7.91309C48.4075 7.91309 60.0723 19.6064 60.0723 34.0029C60.0723 48.3994 48.4075 60.0833 33.9972 60.088C19.5869 60.088 7.9127 48.4135 7.9127 34.0029C7.91269 19.5923 19.5916 7.91309 33.9972 7.91309Z" stroke="#66948F"/>
<path d="M33.9977 53.7112C44.8761 53.6971 53.687 44.8906 53.7012 34.0073C53.687 23.1146 44.876 14.3175 33.9977 14.2939C23.1005 14.3175 14.3084 23.1146 14.2848 34.0073C14.3084 44.8906 23.1005 53.6971 33.9977 53.7112Z" stroke="#66948F"/>
<path d="M33.9977 14.2939C44.876 14.3175 53.687 23.1146 53.7012 34.0073C53.687 44.8906 44.8761 53.6971 33.9977 53.7112C23.1005 53.6971 14.3084 44.8906 14.2848 34.0073C14.3084 23.1146 23.1005 14.3175 33.9977 14.2939V14.2939Z" stroke="#66948F"/>
<path d="M463 1L463 66.9969L397 66.9969L397 1.00001L463 1ZM429.998 60.0788C444.408 60.0788 456.073 48.4044 456.073 33.9937C456.073 19.5831 444.408 7.91333 429.998 7.90863C415.592 7.90863 403.918 19.602 403.918 33.9937C403.918 48.3855 415.592 60.0788 429.998 60.0788V60.0788Z" stroke="#66948F"/>
<path d="M429.998 7.91309C444.408 7.91309 456.073 19.6064 456.073 34.0029C456.073 48.3994 444.408 60.0833 429.998 60.088C415.587 60.088 403.913 48.4135 403.913 34.0029C403.913 19.5923 415.592 7.91309 429.998 7.91309Z" stroke="#66948F"/>
<path d="M429.998 53.7112C440.877 53.6971 449.688 44.8906 449.702 34.0073C449.688 23.1146 440.877 14.3175 429.998 14.2939C419.101 14.3175 410.309 23.1146 410.285 34.0073C410.309 44.8906 419.101 53.6971 429.998 53.7112Z" stroke="#66948F"/>
<path d="M429.998 14.2939C440.877 14.3175 449.688 23.1146 449.702 34.0073C449.688 44.8906 440.877 53.6971 429.998 53.7112C419.101 53.6971 410.309 44.8906 410.285 34.0073C410.309 23.1146 419.101 14.3175 429.998 14.2939V14.2939Z" stroke="#66948F"/>
<path d="M859 1L859 66.9969L793 66.9969L793 1.00001L859 1ZM825.998 60.0788C840.408 60.0788 852.073 48.4044 852.073 33.9937C852.073 19.5831 840.408 7.91333 825.998 7.90863C811.592 7.90863 799.918 19.602 799.918 33.9937C799.918 48.3855 811.592 60.0788 825.998 60.0788V60.0788Z" stroke="#66948F"/>
<path d="M825.998 7.91309C840.408 7.91309 852.073 19.6064 852.073 34.0029C852.073 48.3994 840.408 60.0833 825.998 60.088C811.587 60.088 799.913 48.4135 799.913 34.0029C799.913 19.5923 811.592 7.91309 825.998 7.91309Z" stroke="#66948F"/>
<path d="M825.998 53.7112C836.877 53.6971 845.688 44.8906 845.702 34.0073C845.688 23.1146 836.877 14.3175 825.998 14.2939C815.101 14.3175 806.309 23.1146 806.285 34.0073C806.309 44.8906 815.101 53.6971 825.998 53.7112Z" stroke="#66948F"/>
<path d="M825.998 14.2939C836.877 14.3175 845.688 23.1146 845.702 34.0073C845.688 44.8906 836.877 53.6971 825.998 53.7112C815.101 53.6971 806.309 44.8906 806.285 34.0073C806.309 23.1146 815.101 14.3175 825.998 14.2939V14.2939Z" stroke="#66948F"/>
<path d="M265 1L265 66.9969L199 66.9969L199 1.00001L265 1ZM231.998 60.0788C246.408 60.0788 258.073 48.4044 258.073 33.9937C258.073 19.5831 246.408 7.91333 231.998 7.90863C217.592 7.90863 205.918 19.602 205.918 33.9937C205.918 48.3855 217.592 60.0788 231.998 60.0788V60.0788Z" stroke="#66948F"/>
<path d="M231.997 7.91309C246.407 7.91309 258.072 19.6064 258.072 34.0029C258.072 48.3994 246.407 60.0833 231.997 60.088C217.587 60.088 205.913 48.4135 205.913 34.0029C205.913 19.5923 217.592 7.91309 231.997 7.91309Z" stroke="#66948F"/>
<path d="M231.998 53.7112C242.876 53.6971 251.687 44.8906 251.701 34.0073C251.687 23.1146 242.876 14.3175 231.998 14.2939C221.101 14.3175 212.308 23.1146 212.285 34.0073C212.308 44.8906 221.101 53.6971 231.998 53.7112Z" stroke="#66948F"/>
<path d="M231.998 14.2939C242.876 14.3175 251.687 23.1146 251.701 34.0073C251.687 44.8906 242.876 53.6971 231.998 53.7112C221.101 53.6971 212.308 44.8906 212.285 34.0073C212.308 23.1146 221.101 14.3175 231.998 14.2939V14.2939Z" stroke="#66948F"/>
<path d="M661 1L661 66.9969L595 66.9969L595 1.00001L661 1ZM627.998 60.0788C642.408 60.0788 654.073 48.4044 654.073 33.9937C654.073 19.5831 642.408 7.91333 627.998 7.90863C613.592 7.90863 601.918 19.602 601.918 33.9937C601.918 48.3855 613.592 60.0788 627.998 60.0788V60.0788Z" stroke="#66948F"/>
<path d="M627.998 7.91309C642.408 7.91309 654.073 19.6064 654.073 34.0029C654.073 48.3994 642.408 60.0833 627.998 60.088C613.587 60.088 601.913 48.4135 601.913 34.0029C601.913 19.5923 613.592 7.91309 627.998 7.91309Z" stroke="#66948F"/>
<path d="M627.998 53.7112C638.877 53.6971 647.688 44.8906 647.702 34.0073C647.688 23.1146 638.877 14.3175 627.998 14.2939C617.101 14.3175 608.309 23.1146 608.285 34.0073C608.309 44.8906 617.101 53.6971 627.998 53.7112Z" stroke="#66948F"/>
<path d="M627.998 14.2939C638.877 14.3175 647.688 23.1146 647.702 34.0073C647.688 44.8906 638.877 53.6971 627.998 53.7112C617.101 53.6971 608.309 44.8906 608.285 34.0073C608.309 23.1146 617.101 14.3175 627.998 14.2939V14.2939Z" stroke="#66948F"/>
<path d="M1057 1L1057 66.9969L991 66.9969L991 1.00001L1057 1ZM1024 60.0788C1038.41 60.0788 1050.07 48.4044 1050.07 33.9937C1050.07 19.5831 1038.41 7.91333 1024 7.90863C1009.59 7.90863 997.918 19.602 997.918 33.9937C997.918 48.3855 1009.59 60.0788 1024 60.0788V60.0788Z" stroke="#66948F"/>
<path d="M1024 7.91309C1038.41 7.91309 1050.07 19.6064 1050.07 34.0029C1050.07 48.3994 1038.41 60.0833 1024 60.088C1009.59 60.088 997.913 48.4135 997.913 34.0029C997.913 19.5923 1009.59 7.91309 1024 7.91309Z" stroke="#66948F"/>
<path d="M1024 53.7112C1034.88 53.6971 1043.69 44.8906 1043.7 34.0073C1043.69 23.1146 1034.88 14.3175 1024 14.2939C1013.1 14.3175 1004.31 23.1146 1004.29 34.0073C1004.31 44.8906 1013.1 53.6971 1024 53.7112Z" stroke="#66948F"/>
<path d="M1024 14.2939C1034.88 14.3175 1043.69 23.1146 1043.7 34.0073C1043.69 44.8906 1034.88 53.6971 1024 53.7112C1013.1 53.6971 1004.31 44.8906 1004.29 34.0073C1004.31 23.1146 1013.1 14.3175 1024 14.2939V14.2939Z" stroke="#66948F"/>
</svg>
