<?xml version="1.0" encoding="utf-8"?>
<!-- Generator: Adobe Illustrator 23.0.3, SVG Export Plug-In . SVG Version: 6.00 Build 0)  -->
<svg version="1.1" id="Layer_1" xmlns="http://www.w3.org/2000/svg" xmlns:xlink="http://www.w3.org/1999/xlink" x="0px" y="0px"
	 viewBox="0 0 14 14" style="enable-background:new 0 0 14 14;" xml:space="preserve">
<style type="text/css">
	.st0{fill:#004C45;}
	.st1{fill:#FFFFFF;stroke:#FFFFFF;stroke-width:0.2;}
</style>
<path class="st0" d="M1.2,14c-0.3,0-0.6-0.1-0.8-0.4C0.1,13.4,0,13.1,0,12.8V1.2c0-0.3,0.1-0.6,0.3-0.8S0.9,0,1.2,0h11.7
	c0.3,0,0.6,0.1,0.8,0.3C13.9,0.6,14,0.9,14,1.2v11.7c0,0.3-0.1,0.6-0.4,0.8c-0.2,0.2-0.5,0.4-0.8,0.4H1.2z"/>
<path class="st1" d="M3.6,12.1L3.6,12.1h0.1L7.2,9l3.4,3.1l0.1,0.1l0.1-0.1l0.7-0.6l0.1-0.1l-0.1-0.1L8.3,8.6C8.1,8.4,7.9,8.2,7.9,8
	C7.8,7.9,7.7,7.6,7.7,7.3V3.8L9,4.9L9,5l0.1-0.1l0.7-0.6l0.1-0.1L9.8,4.2L7.2,1.9L7.2,1.9L7.1,1.9L4.6,4.2L4.5,4.3l0.1,0.1l0.7,0.6
	L5.3,5l0.1-0.1l1.2-1.1v3.5c0,0.4,0,0.6-0.1,0.8C6.4,8.2,6.2,8.4,6,8.6l-3.1,2.7l-0.1,0.1l0.1,0.1L3.6,12.1z"/>
</svg>
