<?xml version="1.0" encoding="utf-8"?>
<!-- Generator: Adobe Illustrator 23.0.3, SVG Export Plug-In . SVG Version: 6.00 Build 0)  -->
<svg version="1.1" id="Layer_1" xmlns="http://www.w3.org/2000/svg" xmlns:xlink="http://www.w3.org/1999/xlink" x="0px" y="0px"
	 viewBox="0 0 14.4 16" style="enable-background:new 0 0 14.4 16;" xml:space="preserve">
<style type="text/css">
	.st0{fill:#004C45;}
</style>
<path class="st0" d="M6.1,11.8l5.5-5.5l-0.9-0.9l-4.7,4.7L3.6,7.7L2.8,8.5L6.1,11.8z M1.2,16c-0.3,0-0.6-0.1-0.9-0.4
	C0.1,15.4,0,15.1,0,14.8v-12C0,2.5,0.1,2.2,0.3,2s0.5-0.4,0.9-0.4h4.1c0.1-0.5,0.3-0.9,0.6-1.2S6.7,0,7.2,0s0.9,0.2,1.3,0.4
	S9,1.1,9.1,1.6h4.1c0.3,0,0.6,0.1,0.9,0.4s0.3,0.5,0.3,0.8v12c0,0.3-0.1,0.6-0.3,0.8c-0.2,0.2-0.5,0.4-0.9,0.4H1.2z M7.2,2.5
	c0.2,0,0.4-0.1,0.5-0.2s0.2-0.3,0.2-0.5S7.8,1.4,7.7,1.3S7.4,1.1,7.2,1.1C7,1.1,6.8,1.1,6.7,1.3S6.5,1.6,6.5,1.8s0.1,0.3,0.2,0.5
	S7,2.5,7.2,2.5z"/>
</svg>
