<svg width="16" height="16" viewBox="0 0 16 16" fill="none" xmlns="http://www.w3.org/2000/svg">
<path d="M8 7.5C6.9 7.5 6 7.15 5.3 6.45C4.6 5.75 4.25 4.85 4.25 3.75C4.25 2.65 4.6 1.75 5.3 1.05C6 0.35 6.9 0 8 0C9.1 0 10 0.35 10.7 1.05C11.4 1.75 11.75 2.65 11.75 3.75C11.75 4.85 11.4 5.75 10.7 6.45C10 7.15 9.1 7.5 8 7.5ZM0 15.525V13.175C0 12.5417 0.158333 12 0.475 11.55C0.791667 11.1 1.2 10.7583 1.7 10.525C2.81667 10.025 3.8875 9.65 4.9125 9.4C5.9375 9.15 6.96667 9.025 8 9.025C9.03333 9.025 10.0583 9.15417 11.075 9.4125C12.0917 9.67083 13.1583 10.0417 14.275 10.525C14.7917 10.7583 15.2083 11.1 15.525 11.55C15.8417 12 16 12.5417 16 13.175V15.525H0Z" fill="#004C45"/>
</svg>
