<svg width="16" height="16" viewBox="0 0 16 16" fill="none" xmlns="http://www.w3.org/2000/svg">
<path d="M7.4 16C7.29333 16 7.2 15.96 7.12 15.88C7.04 15.8 7 15.7067 7 15.6C7 15.4933 7.04 15.4 7.12 15.32C7.2 15.24 7.29333 15.2 7.4 15.2H7.6V13.38C7 13.3133 6.43333 13.17 5.9 12.95C5.36667 12.73 4.88667 12.44 4.46 12.08L3.18 13.36L3.34 13.52C3.40667 13.5867 3.45 13.67 3.47 13.77C3.49 13.87 3.44667 13.9733 3.34 14.08C3.26 14.16 3.16667 14.2 3.06 14.2C2.95333 14.2 2.86 14.16 2.78 14.08L1.92 13.24C1.84 13.16 1.8 13.0667 1.8 12.96C1.8 12.8533 1.84 12.7533 1.92 12.66C2 12.58 2.09 12.54 2.19 12.54C2.29 12.54 2.39333 12.5867 2.5 12.68L2.62 12.8L3.9 11.52C3.55333 11.08 3.27 10.6 3.05 10.08C2.83 9.56 2.68667 9 2.62 8.4H0.8V8.6C0.8 8.70667 0.76 8.8 0.68 8.88C0.6 8.96 0.506667 9 0.4 9C0.293333 9 0.2 8.96 0.12 8.88C0.0400001 8.8 0 8.70667 0 8.6V7.4C0 7.29333 0.0400001 7.2 0.12 7.12C0.2 7.04 0.293333 7 0.4 7C0.506667 7 0.6 7.04 0.68 7.12C0.76 7.2 0.8 7.29333 0.8 7.4V7.6H2.62C2.68667 7 2.83 6.44 3.05 5.92C3.27 5.4 3.55333 4.92 3.9 4.48L2.62 3.2L2.48 3.34C2.4 3.42 2.30667 3.46 2.2 3.46C2.09333 3.46 2 3.42 1.92 3.34C1.84 3.26 1.8 3.16333 1.8 3.05C1.8 2.93667 1.84 2.84 1.92 2.76L2.76 1.92C2.84 1.84 2.93667 1.8 3.05 1.8C3.16333 1.8 3.26 1.84 3.34 1.92C3.42 1.98667 3.46 2.07667 3.46 2.19C3.46 2.30333 3.42 2.39333 3.34 2.46L3.18 2.62L4.46 3.9C4.9 3.55333 5.38 3.27 5.9 3.05C6.42 2.83 6.98 2.68667 7.58 2.62V0.8H7.4C7.29333 0.8 7.2 0.76 7.12 0.68C7.04 0.6 7 0.506667 7 0.4C7 0.293333 7.04 0.2 7.12 0.12C7.2 0.0400001 7.29333 0 7.4 0H8.6C8.70667 0 8.8 0.0400001 8.88 0.12C8.96 0.2 9 0.293333 9 0.4C9 0.506667 8.96 0.6 8.88 0.68C8.8 0.76 8.70667 0.8 8.6 0.8H8.4V2.62C9 2.68667 9.56 2.83 10.08 3.05C10.6 3.27 11.08 3.55333 11.52 3.9L12.8 2.62L12.68 2.5C12.5867 2.42 12.5367 2.32667 12.53 2.22C12.5233 2.11333 12.5667 2.01333 12.66 1.92C12.74 1.84 12.8333 1.8 12.94 1.8C13.0467 1.8 13.14 1.84 13.22 1.92L14.1 2.8C14.18 2.88 14.2167 2.97 14.21 3.07C14.2033 3.17 14.16 3.26 14.08 3.34C14 3.42 13.9067 3.45333 13.8 3.44C13.6933 3.42667 13.5933 3.38 13.5 3.3L13.38 3.18L12.1 4.46C12.4467 4.9 12.73 5.38333 12.95 5.91C13.17 6.43667 13.3133 7 13.38 7.6H15.2V7.4C15.2 7.29333 15.24 7.2 15.32 7.12C15.4 7.04 15.4933 7 15.6 7C15.7067 7 15.8 7.04 15.88 7.12C15.96 7.2 16 7.29333 16 7.4V8.6C16 8.70667 15.96 8.8 15.88 8.88C15.8 8.96 15.7067 9 15.6 9C15.4933 9 15.4 8.96 15.32 8.88C15.24 8.8 15.2 8.70667 15.2 8.6V8.4H13.38C13.3133 9 13.17 9.56333 12.95 10.09C12.73 10.6167 12.4467 11.1 12.1 11.54L13.38 12.82L13.52 12.68C13.6 12.6 13.6933 12.5567 13.8 12.55C13.9067 12.5433 14 12.58 14.08 12.66C14.16 12.74 14.2 12.8367 14.2 12.95C14.2 13.0633 14.16 13.16 14.08 13.24L13.24 14.08C13.16 14.16 13.0633 14.2 12.95 14.2C12.8367 14.2 12.74 14.16 12.66 14.08C12.5667 13.9867 12.5267 13.89 12.54 13.79C12.5533 13.69 12.5867 13.6067 12.64 13.54L12.8 13.38L11.52 12.1C11.08 12.4467 10.6 12.7333 10.08 12.96C9.56 13.1867 9 13.3333 8.4 13.4V15.2H8.6C8.70667 15.2 8.8 15.24 8.88 15.32C8.96 15.4 9 15.4933 9 15.6C9 15.7067 8.96 15.8 8.88 15.88C8.8 15.96 8.70667 16 8.6 16H7.4ZM6.6 11C6.76 11 6.9 10.94 7.02 10.82C7.14 10.7 7.2 10.56 7.2 10.4C7.2 10.24 7.14 10.1 7.02 9.98C6.9 9.86 6.76 9.8 6.6 9.8C6.44 9.8 6.3 9.86 6.18 9.98C6.06 10.1 6 10.24 6 10.4C6 10.56 6.06 10.7 6.18 10.82C6.3 10.94 6.44 11 6.6 11ZM9.4 11C9.57333 11 9.71667 10.94 9.83 10.82C9.94333 10.7 10 10.56 10 10.4C10 10.24 9.94333 10.1 9.83 9.98C9.71667 9.86 9.57333 9.8 9.4 9.8C9.24 9.8 9.1 9.86 8.98 9.98C8.86 10.1 8.8 10.24 8.8 10.4C8.8 10.56 8.86 10.7 8.98 10.82C9.1 10.94 9.24 11 9.4 11ZM5.2 8.6C5.37333 8.6 5.51667 8.54 5.63 8.42C5.74333 8.3 5.8 8.16 5.8 8C5.8 7.84 5.74333 7.7 5.63 7.58C5.51667 7.46 5.37333 7.4 5.2 7.4C5.04 7.4 4.9 7.46 4.78 7.58C4.66 7.7 4.6 7.84 4.6 8C4.6 8.16 4.66 8.3 4.78 8.42C4.9 8.54 5.04 8.6 5.2 8.6ZM8 8.6C8.16 8.6 8.3 8.54 8.42 8.42C8.54 8.3 8.6 8.16 8.6 8C8.6 7.84 8.54 7.7 8.42 7.58C8.3 7.46 8.16 7.4 8 7.4C7.84 7.4 7.7 7.46 7.58 7.58C7.46 7.7 7.4 7.84 7.4 8C7.4 8.16 7.46 8.3 7.58 8.42C7.7 8.54 7.84 8.6 8 8.6ZM10.8 8.6C10.9733 8.6 11.1167 8.54 11.23 8.42C11.3433 8.3 11.4 8.16 11.4 8C11.4 7.84 11.3433 7.7 11.23 7.58C11.1167 7.46 10.9733 7.4 10.8 7.4C10.64 7.4 10.5 7.46 10.38 7.58C10.26 7.7 10.2 7.84 10.2 8C10.2 8.16 10.26 8.3 10.38 8.42C10.5 8.54 10.64 8.6 10.8 8.6ZM6.6 6.2C6.76 6.2 6.9 6.14 7.02 6.02C7.14 5.9 7.2 5.76 7.2 5.6C7.2 5.44 7.14 5.3 7.02 5.18C6.9 5.06 6.76 5 6.6 5C6.44 5 6.3 5.06 6.18 5.18C6.06 5.3 6 5.44 6 5.6C6 5.76 6.06 5.9 6.18 6.02C6.3 6.14 6.44 6.2 6.6 6.2ZM9.4 6.2C9.57333 6.2 9.71667 6.14 9.83 6.02C9.94333 5.9 10 5.76 10 5.6C10 5.44 9.94333 5.3 9.83 5.18C9.71667 5.06 9.57333 5 9.4 5C9.24 5 9.1 5.06 8.98 5.18C8.86 5.3 8.8 5.44 8.8 5.6C8.8 5.76 8.86 5.9 8.98 6.02C9.1 6.14 9.24 6.2 9.4 6.2Z" fill="#004C45"/>
</svg>
