<svg width="16" height="16" viewBox="0 0 16 16" fill="none" xmlns="http://www.w3.org/2000/svg">
<path d="M8 12C8.18667 12 8.34333 11.9367 8.47 11.81C8.59667 11.6833 8.66 11.5267 8.66 11.34C8.66 11.1533 8.59667 10.9967 8.47 10.87C8.34333 10.7433 8.18667 10.68 8 10.68C7.81333 10.68 7.65667 10.7433 7.53 10.87C7.40333 10.9967 7.34 11.1533 7.34 11.34C7.34 11.5267 7.40333 11.6833 7.53 11.81C7.65667 11.9367 7.81333 12 8 12ZM7.46 8.94H8.66V3.88H7.46V8.94ZM8 16C6.90667 16 5.87333 15.79 4.9 15.37C3.92667 14.95 3.07667 14.3767 2.35 13.65C1.62333 12.9233 1.05 12.0733 0.63 11.1C0.21 10.1267 0 9.08667 0 7.98C0 6.88667 0.21 5.85333 0.63 4.88C1.05 3.90667 1.62333 3.06 2.35 2.34C3.07667 1.62 3.92667 1.05 4.9 0.63C5.87333 0.21 6.91333 0 8.02 0C9.11333 0 10.1467 0.21 11.12 0.63C12.0933 1.05 12.94 1.62 13.66 2.34C14.38 3.06 14.95 3.90667 15.37 4.88C15.79 5.85333 16 6.89333 16 8C16 9.09333 15.79 10.1267 15.37 11.1C14.95 12.0733 14.38 12.9233 13.66 13.65C12.94 14.3767 12.0933 14.95 11.12 15.37C10.1467 15.79 9.10667 16 8 16ZM8.02 14.8C9.9 14.8 11.5 14.1367 12.82 12.81C14.14 11.4833 14.8 9.87333 14.8 7.98C14.8 6.1 14.14 4.5 12.82 3.18C11.5 1.86 9.89333 1.2 8 1.2C6.12 1.2 4.51667 1.86 3.19 3.18C1.86333 4.5 1.2 6.10667 1.2 8C1.2 9.88 1.86333 11.4833 3.19 12.81C4.51667 14.1367 6.12667 14.8 8.02 14.8Z" fill="#004C45"/>
</svg>
