<?xml version="1.0" encoding="utf-8"?>
<!-- Generator: Adobe Illustrator 23.0.3, SVG Export Plug-In . SVG Version: 6.00 Build 0)  -->
<svg version="1.1" id="Layer_1" xmlns="http://www.w3.org/2000/svg" xmlns:xlink="http://www.w3.org/1999/xlink" x="0px" y="0px"
	 viewBox="0 0 16 16" style="enable-background:new 0 0 16 16;" xml:space="preserve">
<style type="text/css">
	.st0{fill:#004C45;}
</style>
<path class="st0" d="M5.3,16v-1.8H3.1c-0.4,0-0.7-0.1-0.9-0.4c-0.3-0.3-0.4-0.6-0.4-0.9v-2.2H0V9.3h1.8V6.6H0V5.2h1.8V3
	c0-0.4,0.1-0.7,0.4-0.9c0.3-0.3,0.6-0.4,0.9-0.4h2.2V0h1.3v1.7h2.8V0h1.3v1.7H13c0.4,0,0.7,0.1,0.9,0.4c0.3,0.3,0.4,0.6,0.4,0.9v2.2
	H16v1.3h-1.7v2.8H16v1.3h-1.7v2.2c0,0.4-0.1,0.7-0.4,0.9c-0.3,0.3-0.6,0.4-0.9,0.4h-2.2V16H9.4v-1.8H6.7V16H5.3z M13,12.9V3H3.1v9.9
	H13z"/>
<path class="st0" d="M7.4,11.6h1.1v-0.7h1.1c0.2,0,0.3-0.1,0.4-0.2c0.1-0.1,0.2-0.2,0.2-0.4V8c0-0.2-0.1-0.3-0.2-0.4
	C10,7.5,9.8,7.5,9.7,7.5H6.9V6.2h3.3V5.2H8.6V4.4H7.4v0.7H6.3C6.2,5.2,6,5.2,5.9,5.3S5.8,5.5,5.8,5.7V8c0,0.2,0.1,0.3,0.2,0.4
	C6,8.5,6.2,8.5,6.3,8.5h2.8v1.2H5.8v1.1h1.7V11.6z"/>
</svg>
