<svg width="16" height="12" viewBox="0 0 16 12" fill="none" xmlns="http://www.w3.org/2000/svg">
<path d="M1.09091 11.6364C0.787879 11.6364 0.530303 11.5303 0.318182 11.3182C0.106061 11.1061 0 10.8485 0 10.5455V2.18182H1.09091V10.5455H13.8182V11.6364H1.09091ZM3.27273 9.45455C2.9697 9.45455 2.71212 9.34849 2.5 9.13636C2.28788 8.92424 2.18182 8.66667 2.18182 8.36364V1.09091C2.18182 0.787879 2.28788 0.530303 2.5 0.318182C2.71212 0.106061 2.9697 0 3.27273 0H14.9091C15.2121 0 15.4697 0.106061 15.6818 0.318182C15.8939 0.530303 16 0.787879 16 1.09091V8.36364C16 8.66667 15.8939 8.92424 15.6818 9.13636C15.4697 9.34849 15.2121 9.45455 14.9091 9.45455H3.27273ZM5.09091 8.36364C5.09091 7.85455 4.91515 7.42424 4.56364 7.07273C4.21212 6.72121 3.78182 6.54545 3.27273 6.54545V8.36364H5.09091ZM13.0909 8.36364H14.9091V6.54545C14.4 6.54545 13.9697 6.72121 13.6182 7.07273C13.2667 7.42424 13.0909 7.85455 13.0909 8.36364ZM9.09091 6.90909C9.69697 6.90909 10.2121 6.69697 10.6364 6.27273C11.0606 5.84849 11.2727 5.33333 11.2727 4.72727C11.2727 4.12121 11.0606 3.60606 10.6364 3.18182C10.2121 2.75758 9.69697 2.54545 9.09091 2.54545C8.48485 2.54545 7.9697 2.75758 7.54545 3.18182C7.12121 3.60606 6.90909 4.12121 6.90909 4.72727C6.90909 5.33333 7.12121 5.84849 7.54545 6.27273C7.9697 6.69697 8.48485 6.90909 9.09091 6.90909ZM3.27273 2.90909C3.78182 2.90909 4.21212 2.73333 4.56364 2.38182C4.91515 2.0303 5.09091 1.6 5.09091 1.09091H3.27273V2.90909ZM14.9091 2.90909V1.09091H13.0909C13.0909 1.6 13.2667 2.0303 13.6182 2.38182C13.9697 2.73333 14.4 2.90909 14.9091 2.90909Z" fill="#004C45"/>
</svg>
